<?xml version="1.0" encoding="UTF-8"?>
<svg width="716.04pt" height="573.68pt" version="1.1" viewBox="0 0 716.04 573.68" xmlns="http://www.w3.org/2000/svg" xmlns:cc="http://creativecommons.org/ns#" xmlns:dc="http://purl.org/dc/elements/1.1/" xmlns:rdf="http://www.w3.org/1999/02/22-rdf-syntax-ns#" xmlns:xlink="http://www.w3.org/1999/xlink">
 <title>Cluster Size Distribution</title>
 <desc>Chart by github.com/BMOit</desc>
 <metadata>
  <rdf:RDF>
   <cc:Work>
    <dc:type rdf:resource="http://purl.org/dc/dcmitype/StillImage"/>
    <dc:date>2026-01-20T17:31:22.639475</dc:date>
    <dc:format>image/svg+xml</dc:format>
    <dc:creator>
     <cc:Agent>
      <dc:title>Matplotlib v3.10.8, https://matplotlib.org/</dc:title>
     </cc:Agent>
    </dc:creator>
   </cc:Work>
  </rdf:RDF>
 </metadata>
 <defs>
  <style type="text/css">*{stroke-linejoin: round; stroke-linecap: butt}</style>
 </defs>
 <g id="bm">
  <g id="bn">
   <path d="m0 573.68h716.04v-573.68h-716.04z" fill="#fff"/>
  </g>
  <g id="bo">
   <g id="bp">
    <path d="m61.626 528.48h643.62v-495.64h-643.62z" fill="#fff"/>
   </g>
   <g id="bq">
    <path d="m90.881 528.48h97.517v-48.865h-97.517z" clip-path="url(#b)" fill="#440154" opacity=".9" stroke="#fff"/>
   </g>
   <g id="br">
    <path d="m212.78 528.48h97.517v-472.04h-97.517z" clip-path="url(#b)" fill="#3b528b" opacity=".9" stroke="#fff"/>
   </g>
   <g id="bs">
    <path d="m334.68 528.48h97.517v-242.16h-97.517z" clip-path="url(#b)" fill="#21918c" opacity=".9" stroke="#fff"/>
   </g>
   <g id="bt">
    <path d="m456.57 528.48h97.517v-147.33h-97.517z" clip-path="url(#b)" fill="#5ec962" opacity=".9" stroke="#fff"/>
   </g>
   <g id="bu">
    <path d="m578.47 528.48h97.517v-3.9221h-97.517z" clip-path="url(#b)" fill="#fde725" opacity=".9" stroke="#fff"/>
   </g>
   <g id="bv">
    <g id="bw">
     <g id="bx">
      <defs>
       <path id="f" d="m0 0v3.5" stroke="#000" stroke-width=".8"/>
      </defs>
      <use x="139.640189" y="528.477812" stroke="#000000" stroke-width=".8" xlink:href="#f"/>
     </g>
     <g id="by">
      <g transform="translate(136.46 543.08) scale(.1 -.1)">
       <defs>
        <path id="a" transform="scale(.015625)" d="m2034 4250q-487 0-733-480-245-479-245-1442 0-959 245-1439 246-480 733-480 491 0 736 480 246 480 246 1439 0 963-246 1442-245 480-736 480zm0 500q785 0 1199-621 414-620 414-1801 0-1178-414-1799-414-620-1199-620-784 0-1198 620-414 621-414 1799 0 1181 414 1801 414 621 1198 621z"/>
       </defs>
       <use xlink:href="#a"/>
      </g>
     </g>
    </g>
    <g id="bz">
     <g id="ca">
      <use x="261.53697" y="528.477812" stroke="#000000" stroke-width=".8" xlink:href="#f"/>
     </g>
     <g id="cb">
      <g transform="translate(258.36 543.08) scale(.1 -.1)">
       <defs>
        <path id="ak" transform="scale(.015625)" d="m794 531h1031v3560l-1122-225v575l1116 225h631v-4135h1031v-531h-2687v531z"/>
       </defs>
       <use xlink:href="#ak"/>
      </g>
     </g>
    </g>
    <g id="cc">
     <g id="cd">
      <use x="383.43375" y="528.477812" stroke="#000000" stroke-width=".8" xlink:href="#f"/>
     </g>
     <g id="ce">
      <g transform="translate(380.25 543.08) scale(.1 -.1)">
       <defs>
        <path id="aj" transform="scale(.015625)" d="m1228 531h2203v-531h-2962v531q359 372 979 998 621 627 780 809 303 340 423 576 121 236 121 464 0 372-261 606-261 235-680 235-297 0-627-103-329-103-704-313v638q381 153 712 231 332 78 607 78 725 0 1156-363 431-362 431-968 0-288-108-546-107-257-392-607-78-91-497-524-418-433-1181-1211z"/>
       </defs>
       <use xlink:href="#aj"/>
      </g>
     </g>
    </g>
    <g id="cf">
     <g id="cg">
      <use x="505.33053" y="528.477812" stroke="#000000" stroke-width=".8" xlink:href="#f"/>
     </g>
     <g id="ch">
      <g transform="translate(502.15 543.08) scale(.1 -.1)">
       <defs>
        <path id="bj" transform="scale(.015625)" d="m2597 2516q453-97 707-404 255-306 255-756 0-690-475-1069-475-378-1350-378-293 0-604 58t-642 174v609q262-153 574-231 313-78 654-78 593 0 904 234t311 681q0 413-289 645-289 233-804 233h-544v519h569q465 0 712 186t247 536q0 359-255 551-254 193-729 193-260 0-557-57-297-56-653-174v562q360 100 674 150t592 50q719 0 1137-327 419-326 419-882 0-388-222-655t-631-370z"/>
       </defs>
       <use xlink:href="#bj"/>
      </g>
     </g>
    </g>
    <g id="ci">
     <g id="cj">
      <use x="627.227311" y="528.477812" stroke="#000000" stroke-width=".8" xlink:href="#f"/>
     </g>
     <g id="ck">
      <g transform="translate(624.05 543.08) scale(.1 -.1)">
       <defs>
        <path id="ai" transform="scale(.015625)" d="m2419 4116-1594-2491h1594v2491zm-166 550h794v-3041h666v-525h-666v-1100h-628v1100h-2106v609l1940 2957z"/>
       </defs>
       <use xlink:href="#ai"/>
      </g>
     </g>
    </g>
    <g id="cl">
     <g transform="translate(353.84 558.27) scale(.12 -.12)">
      <defs>
       <path id="bf" transform="scale(.015625)" d="m4122 4306v-665q-319 297-680 443-361 147-767 147-800 0-1225-489t-425-1414q0-922 425-1411t1225-489q406 0 767 147t680 444v-660q-331-225-702-338-370-112-782-112-1060 0-1670 648-609 649-609 1771 0 1125 609 1773 610 649 1670 649 418 0 788-111 371-111 696-333z"/>
       <path id="au" transform="scale(.015625)" d="m603 4863h575v-4863h-575v4863z"/>
       <path id="r" transform="scale(.015625)" d="m544 1381v2119h575v-2097q0-497 193-746 194-248 582-248 465 0 735 297 271 297 271 810v1984h575v-3500h-575v538q-209-319-486-474-276-155-642-155-603 0-916 375-312 375-312 1097zm1447 2203z"/>
       <path id="ad" transform="scale(.015625)" d="m2834 3397v-544q-243 125-506 187-262 63-544 63-428 0-642-131t-214-394q0-200 153-314t616-217l197-44q612-131 870-370t258-667q0-488-386-773-386-284-1061-284-281 0-586 55t-642 164v594q319-166 628-249 309-82 613-82 406 0 624 139 219 139 219 392 0 234-158 359-157 125-692 241l-200 47q-534 112-772 345-237 233-237 639 0 494 350 762 350 269 994 269 318 0 599-47 282-46 519-140z"/>
       <path id="s" transform="scale(.015625)" d="m1172 4494v-994h1184v-447h-1184v-1900q0-428 117-550t477-122h590v-481h-590q-666 0-919 248-253 249-253 905v1900h-422v447h422v994h578z"/>
       <path id="v" transform="scale(.015625)" d="m3597 1894v-281h-2644q38-594 358-905t892-311q331 0 642 81t618 244v-544q-310-131-635-200t-659-69q-838 0-1327 487-489 488-489 1320 0 859 464 1363 464 505 1252 505 706 0 1117-455 411-454 411-1235zm-575 169q-6 471-264 752-258 282-683 282-481 0-770-272t-333-766l2050 4z"/>
       <path id="ae" transform="scale(.015625)" d="m2631 2963q-97 56-211 82-114 27-251 27-488 0-749-317t-261-911v-1844h-578v3500h578v-544q182 319 472 473 291 155 707 155 59 0 131-8 72-7 159-23l3-590z"/>
       <path id="bd" transform="scale(.015625)" d="m628 4666h631v-4666h-631v4666z"/>
       <path id="be" transform="scale(.015625)" d="m1259 4147v-3628h763q966 0 1414 437 448 438 448 1382 0 937-448 1373t-1414 436h-763zm-631 519h1297q1356 0 1990-564 635-564 635-1764 0-1207-638-1773-637-565-1987-565h-1297v4666z"/>
      </defs>
      <use xlink:href="#bf"/>
      <use transform="translate(69.824)" xlink:href="#au"/>
      <use transform="translate(97.607)" xlink:href="#r"/>
      <use transform="translate(160.99)" xlink:href="#ad"/>
      <use transform="translate(213.09)" xlink:href="#s"/>
      <use transform="translate(252.29)" xlink:href="#v"/>
      <use transform="translate(313.82)" xlink:href="#ae"/>
      <use transform="translate(354.93)" xlink:href="#DejaVuSans-20"/>
      <use transform="translate(386.72)" xlink:href="#bd"/>
      <use transform="translate(416.21)" xlink:href="#be"/>
     </g>
    </g>
   </g>
   <g id="cm">
    <g id="cn">
     <g id="co">
      <path d="m61.626 528.48h643.62" clip-path="url(#b)" fill="none" stroke="#b0b0b0" stroke-linecap="square" stroke-opacity=".3" stroke-width=".8"/>
     </g>
     <g id="cp">
      <defs>
       <path id="c" d="m0 0h-3.5" stroke="#000" stroke-width=".8"/>
      </defs>
      <use x="61.62625" y="528.477812" stroke="#000000" stroke-width=".8" xlink:href="#c"/>
     </g>
     <g id="cq">
      <g transform="translate(48.264 532.28) scale(.1 -.1)">
       <use xlink:href="#a"/>
      </g>
     </g>
    </g>
    <g id="cr">
     <g id="cs">
      <path d="m61.626 436.19h643.62" clip-path="url(#b)" fill="none" stroke="#b0b0b0" stroke-linecap="square" stroke-opacity=".3" stroke-width=".8"/>
     </g>
     <g id="ct">
      <use x="61.62625" y="436.19275" stroke="#000000" stroke-width=".8" xlink:href="#c"/>
     </g>
     <g id="cu">
      <g transform="translate(29.176 439.99) scale(.1 -.1)">
       <use xlink:href="#aj"/>
       <use transform="translate(63.623)" xlink:href="#a"/>
       <use transform="translate(127.25)" xlink:href="#a"/>
       <use transform="translate(190.87)" xlink:href="#a"/>
      </g>
     </g>
    </g>
    <g id="cv">
     <g id="cw">
      <path d="m61.626 343.91h643.62" clip-path="url(#b)" fill="none" stroke="#b0b0b0" stroke-linecap="square" stroke-opacity=".3" stroke-width=".8"/>
     </g>
     <g id="cx">
      <use x="61.62625" y="343.907687" stroke="#000000" stroke-width=".8" xlink:href="#c"/>
     </g>
     <g id="cy">
      <g transform="translate(29.176 347.71) scale(.1 -.1)">
       <use xlink:href="#ai"/>
       <use transform="translate(63.623)" xlink:href="#a"/>
       <use transform="translate(127.25)" xlink:href="#a"/>
       <use transform="translate(190.87)" xlink:href="#a"/>
      </g>
     </g>
    </g>
    <g id="cz">
     <g id="da">
      <path d="m61.626 251.62h643.62" clip-path="url(#b)" fill="none" stroke="#b0b0b0" stroke-linecap="square" stroke-opacity=".3" stroke-width=".8"/>
     </g>
     <g id="db">
      <use x="61.62625" y="251.622625" stroke="#000000" stroke-width=".8" xlink:href="#c"/>
     </g>
     <g id="dc">
      <g transform="translate(29.176 255.42) scale(.1 -.1)">
       <defs>
        <path id="bi" transform="scale(.015625)" d="m2113 2584q-425 0-674-291-248-290-248-796 0-503 248-796 249-292 674-292t673 292q248 293 248 796 0 506-248 796-248 291-673 291zm1253 1979v-575q-238 112-480 171-242 60-480 60-625 0-955-422-329-422-376-1275 184 272 462 417 279 145 613 145 703 0 1111-427 408-426 408-1160 0-719-425-1154-425-434-1131-434-810 0-1238 620-428 621-428 1799 0 1106 525 1764t1409 658q238 0 480-47t505-140z"/>
       </defs>
       <use xlink:href="#bi"/>
       <use transform="translate(63.623)" xlink:href="#a"/>
       <use transform="translate(127.25)" xlink:href="#a"/>
       <use transform="translate(190.87)" xlink:href="#a"/>
      </g>
     </g>
    </g>
    <g id="dd">
     <g id="de">
      <path d="m61.626 159.34h643.62" clip-path="url(#b)" fill="none" stroke="#b0b0b0" stroke-linecap="square" stroke-opacity=".3" stroke-width=".8"/>
     </g>
     <g id="df">
      <use x="61.62625" y="159.337562" stroke="#000000" stroke-width=".8" xlink:href="#c"/>
     </g>
     <g id="dg">
      <g transform="translate(29.176 163.14) scale(.1 -.1)">
       <defs>
        <path id="bh" transform="scale(.015625)" d="m2034 2216q-450 0-708-241-257-241-257-662 0-422 257-663 258-241 708-241t709 242q260 243 260 662 0 421-258 662-257 241-711 241zm-631 268q-406 100-633 378-226 279-226 679 0 559 398 884 399 325 1092 325 697 0 1094-325t397-884q0-400-227-679-226-278-629-378 456-106 710-416 255-309 255-755 0-679-414-1042-414-362-1186-362-771 0-1186 362-414 363-414 1042 0 446 256 755 257 310 713 416zm-231 997q0-362 226-565 227-203 636-203 407 0 636 203 230 203 230 565 0 363-230 566-229 203-636 203-409 0-636-203-226-203-226-566z"/>
       </defs>
       <use xlink:href="#bh"/>
       <use transform="translate(63.623)" xlink:href="#a"/>
       <use transform="translate(127.25)" xlink:href="#a"/>
       <use transform="translate(190.87)" xlink:href="#a"/>
      </g>
     </g>
    </g>
    <g id="dh">
     <g id="di">
      <path d="m61.626 67.052h643.62" clip-path="url(#b)" fill="none" stroke="#b0b0b0" stroke-linecap="square" stroke-opacity=".3" stroke-width=".8"/>
     </g>
     <g id="dj">
      <use x="61.62625" y="67.052499" stroke="#000000" stroke-width=".8" xlink:href="#c"/>
     </g>
     <g id="dk">
      <g transform="translate(22.814 70.852) scale(.1 -.1)">
       <use xlink:href="#ak"/>
       <use transform="translate(63.623)" xlink:href="#a"/>
       <use transform="translate(127.25)" xlink:href="#a"/>
       <use transform="translate(190.87)" xlink:href="#a"/>
       <use transform="translate(254.49)" xlink:href="#a"/>
      </g>
     </g>
    </g>
    <g id="dl">
     <g transform="translate(16.318 340.91) rotate(-90) scale(.12 -.12)">
      <defs>
       <path id="bb" transform="scale(.015625)" d="m628 4666h850l2069-3903v3903h612v-4666h-850l-2068 3903v-3903h-613v4666z"/>
       <path id="af" transform="scale(.015625)" d="m3328 2828q216 388 516 572t706 184q547 0 844-383 297-382 297-1088v-2113h-578v2094q0 503-179 746-178 244-543 244-447 0-707-297-259-296-259-809v-1978h-578v2094q0 506-178 748t-550 242q-441 0-701-298-259-298-259-808v-1978h-578v3500h578v-544q197 322 472 475t653 153q382 0 649-194 267-193 395-562z"/>
       <path id="ah" transform="scale(.015625)" d="m3116 1747q0 634-261 995t-717 361q-457 0-718-361t-261-995 261-995 718-361q456 0 717 361t261 995zm-1957 1222q182 312 458 463 277 152 661 152 638 0 1036-506 399-506 399-1331t-399-1332q-398-506-1036-506-384 0-661 152-276 152-458 464v-525h-578v4863h578v-1894z"/>
       <path id="t" transform="scale(.015625)" d="m1959 3097q-462 0-731-361t-269-989 267-989q268-361 733-361 460 0 728 362 269 363 269 988 0 622-269 986-268 364-728 364zm0 487q750 0 1178-488 429-487 429-1349 0-859-429-1349-428-489-1178-489-753 0-1180 489-426 490-426 1349 0 862 426 1349 427 488 1180 488z"/>
       <path id="ax" transform="scale(.015625)" d="m2375 4863v-479h-550q-309 0-430-125-120-125-120-450v-309h947v-447h-947v-3053h-578v3053h-550v447h550v244q0 584 272 851 272 268 862 268h544z"/>
       <path id="az" transform="scale(.015625)" d="m1259 4147v-1753h794q441 0 681 228 241 228 241 650 0 419-241 647-240 228-681 228h-794zm-631 519h1425q785 0 1186-355 402-355 402-1039 0-691-402-1044-401-353-1186-353h-794v-1875h-631v4666z"/>
       <path id="u" transform="scale(.015625)" d="m603 3500h575v-3500h-575v3500zm0 1363h575v-729h-575v729z"/>
       <path id="at" transform="scale(.015625)" d="m3513 2113v-2113h-575v2094q0 497-194 743-194 247-581 247-466 0-735-297-269-296-269-809v-1978h-578v3500h578v-544q207 316 486 472 280 156 646 156 603 0 912-373 310-373 310-1098z"/>
       <path id="ag" transform="scale(.015625)" d="m3122 3366v-538q-244 135-489 202t-495 67q-560 0-870-355-309-354-309-995t309-996q310-354 870-354 250 0 495 67t489 202v-532q-241-112-499-168-257-57-548-57-791 0-1257 497-465 497-465 1341 0 856 470 1346 471 491 1290 491 265 0 518-55 253-54 491-163z"/>
       <path id="ay" transform="scale(.015625)" d="m2906 2969v1894h575v-4863h-575v525q-181-312-458-464-276-152-664-152-634 0-1033 506-398 507-398 1332t398 1331q399 506 1033 506 388 0 664-152 277-151 458-463zm-1959-1222q0-634 261-995t717-361 718 361q263 361 263 995t-263 995q-262 361-718 361t-717-361-261-995z"/>
      </defs>
      <use xlink:href="#bb"/>
      <use transform="translate(74.805)" xlink:href="#r"/>
      <use transform="translate(138.18)" xlink:href="#af"/>
      <use transform="translate(235.6)" xlink:href="#ah"/>
      <use transform="translate(299.07)" xlink:href="#v"/>
      <use transform="translate(360.6)" xlink:href="#ae"/>
      <use transform="translate(401.71)" xlink:href="#DejaVuSans-20"/>
      <use transform="translate(433.5)" xlink:href="#t"/>
      <use transform="translate(494.68)" xlink:href="#ax"/>
      <use transform="translate(529.88)" xlink:href="#DejaVuSans-20"/>
      <use transform="translate(561.67)" xlink:href="#az"/>
      <use transform="translate(619.72)" xlink:href="#u"/>
      <use transform="translate(647.51)" xlink:href="#at"/>
      <use transform="translate(710.88)" xlink:href="#ag"/>
      <use transform="translate(765.87)" xlink:href="#t"/>
      <use transform="translate(827.05)" xlink:href="#ay"/>
      <use transform="translate(890.52)" xlink:href="#v"/>
      <use transform="translate(952.05)" xlink:href="#ad"/>
     </g>
    </g>
   </g>
   <g id="dm">
    <path d="m61.626 528.48v-495.64" fill="none" stroke="#000" stroke-linecap="square" stroke-width=".8"/>
   </g>
   <g id="dn">
    <path d="m61.626 528.48h643.62" fill="none" stroke="#000" stroke-linecap="square" stroke-width=".8"/>
   </g>
   <g id="do">
    <g transform="translate(122.24 465.01) scale(.11 -.11)">
     <defs>
      <path id="e" transform="scale(.015625)" d="m750 831h1063v3016l-1091-225v819l1084 225h1144v-3835h1063v-831h-3263v831z"/>
      <path id="n" transform="scale(.015625)" d="m653 1209h1125v-953l-772-1165h-665l312 1165v953z"/>
      <path id="m" transform="scale(.015625)" d="m2944 2338q0 875-164 1232-164 358-552 358-387 0-553-358-166-357-166-1232 0-885 166-1248 166-362 553-362 385 0 550 362 166 363 166 1248zm1203-10q0-1159-500-1789t-1419-630q-922 0-1422 630t-500 1789q0 1163 500 1792 500 630 1422 630 919 0 1419-630 500-629 500-1792z"/>
      <path id="d" transform="scale(.015625)" d="m678 4666h2991v-885h-2031v-722q137 38 276 58 139 21 289 21 853 0 1328-427t475-1189q0-756-517-1185-517-428-1436-428-397 0-786 77t-773 233v947q381-219 723-329 342-109 646-109 437 0 688 214 252 214 252 580 0 369-252 581-251 213-688 213-260 0-554-68-293-67-631-207v2625z"/>
      <path id="aa" transform="scale(.015625)" d="m641 103v863q287-135 549-202 263-67 519-67 538 0 838 298 300 299 353 886-212-156-453-234t-522-78q-716 0-1155 417t-439 1098q0 754 489 1207t1311 453q913 0 1413-616 500-615 500-1740 0-1157-585-1818-584-661-1603-661-328 0-628 49-300 48-587 145zm1484 2247q316 0 475 204 159 205 159 615 0 406-159 612-159 207-475 207t-475-207q-159-206-159-612 0-410 159-615 159-204 475-204z"/>
     </defs>
     <use xlink:href="#e"/>
     <use transform="translate(69.58)" xlink:href="#n"/>
     <use transform="translate(107.57)" xlink:href="#m"/>
     <use transform="translate(177.15)" xlink:href="#d"/>
     <use transform="translate(246.73)" xlink:href="#aa"/>
    </g>
    <g transform="translate(119.36 477.33) scale(.11 -.11)">
     <defs>
      <path id="i" transform="scale(.015625)" d="m2413-844h-929q-478 772-706 1467-228 696-228 1380 0 685 229 1386 230 702 705 1467h929q-400-740-600-1448t-200-1399q0-690 198-1400 198-709 602-1453z"/>
      <path id="g" transform="scale(.015625)" d="m653 1209h1125v-1209h-1125v1209z"/>
      <path id="l" transform="scale(.015625)" d="m2981 2516q472-122 717-424 246-301 246-767 0-694-532-1055-531-361-1549-361-360 0-721 58t-714 174v928q338-169 670-255 333-86 655-86 478 0 733 165 255 166 255 476 0 319-261 483t-771 164h-481v775h506q454 0 675 142 222 142 222 433 0 268-216 415-215 147-609 147-290 0-587-66-297-65-591-193v881q356 100 706 150t688 50q909 0 1360-299 452-298 452-898 0-409-216-670-215-261-637-367z"/>
      <path id="j" transform="scale(.015625)" d="m4959 1925q-221 0-343-192t-122-549q0-359 120-551t345-192 344 192 119 551q0 357-121 549-120 192-342 192zm0 525q582 0 916-338 334-337 334-928 0-590-334-933-334-342-916-342-581 0-917 342-336 343-336 933 0 588 336 927t917 339zm-2865-2541h-691l2916 4841h694l-2919-4841zm-641 4841q581 0 914-339t333-930q0-590-333-931t-914-341-914 341-333 931q0 591 333 930t914 339zm0-525q-225 0-347-194-122-193-122-550 0-359 122-555 122-195 347-195t345 195q121 196 121 555 0 357-122 550-122 194-344 194z"/>
      <path id="h" transform="scale(.015625)" d="m513-844q400 744 600 1453 200 710 200 1400 0 691-200 1399t-600 1448h928q475-765 704-1467 230-701 230-1386 0-684-228-1380-228-695-706-1467h-928z"/>
     </defs>
     <use xlink:href="#i"/>
     <use transform="translate(45.703)" xlink:href="#d"/>
     <use transform="translate(115.28)" xlink:href="#g"/>
     <use transform="translate(153.27)" xlink:href="#l"/>
     <use transform="translate(222.85)" xlink:href="#j"/>
     <use transform="translate(323.05)" xlink:href="#h"/>
    </g>
   </g>
   <g id="dp">
    <g transform="translate(240.31 41.834) scale(.11 -.11)">
     <defs>
      <path id="q" transform="scale(.015625)" d="m1844 884h2053v-884h-3391v884l1703 1504q229 206 338 403t109 409q0 328-220 528t-586 200q-281 0-616-120-334-120-715-358v1025q406 134 803 204 397 71 778 71 838 0 1302-369 464-368 464-1028 0-381-197-711-197-329-828-883l-997-875z"/>
     </defs>
     <use xlink:href="#e"/>
     <use transform="translate(69.58)" xlink:href="#m"/>
     <use transform="translate(139.16)" xlink:href="#n"/>
     <use transform="translate(177.15)" xlink:href="#q"/>
     <use transform="translate(246.73)" xlink:href="#l"/>
     <use transform="translate(316.31)" xlink:href="#m"/>
    </g>
    <g transform="translate(237.43 54.152) scale(.11 -.11)">
     <defs>
      <path id="p" transform="scale(.015625)" d="m2316 2303q-316 0-474-205-158-204-158-614 0-409 158-614 158-204 474-204 318 0 476 204 158 205 158 614 0 410-158 614-158 205-476 205zm1487 2241v-863q-297 141-560 208-262 67-512 67-537 0-837-299-300-298-350-885 206 153 446 229 241 77 526 77 715 0 1154-419 439-418 439-1096 0-750-491-1202-490-452-1315-452-909 0-1408 614-498 615-498 1743 0 1156 583 1817t1598 661q322 0 625-50t600-150z"/>
     </defs>
     <use xlink:href="#i"/>
     <use transform="translate(45.703)" xlink:href="#d"/>
     <use transform="translate(115.28)" xlink:href="#e"/>
     <use transform="translate(184.86)" xlink:href="#g"/>
     <use transform="translate(222.85)" xlink:href="#p"/>
     <use transform="translate(292.43)" xlink:href="#j"/>
     <use transform="translate(392.63)" xlink:href="#h"/>
    </g>
   </g>
   <g id="dq">
    <g transform="translate(366.04 271.72) scale(.11 -.11)">
     <defs>
      <path id="ac" transform="scale(.015625)" d="m2356 3675-1318-1953h1318v1953zm-200 991h1338v-2944h665v-872h-665v-850h-1138v850h-2068v1031l1868 2785z"/>
      <path id="ab" transform="scale(.015625)" d="m2228 2088q-337 0-519-185-181-184-181-528t181-527q182-182 519-182 335 0 513 182 178 183 178 527 0 347-178 530t-513 183zm-878 396q-425 129-641 394-215 266-215 663 0 590 440 899 441 310 1294 310 847 0 1287-308 441-308 441-901 0-397-217-663-217-265-642-394 475-131 717-426t242-745q0-694-461-1049t-1367-355q-909 0-1373 355t-464 1049q0 450 242 745t717 426zm281 935q0-278 155-428t442-150q281 0 434 150 154 150 154 428t-154 426q-153 149-434 149-287 0-442-150t-155-425z"/>
     </defs>
     <use xlink:href="#d"/>
     <use transform="translate(69.58)" xlink:href="#n"/>
     <use transform="translate(107.57)" xlink:href="#q"/>
     <use transform="translate(177.15)" xlink:href="#ac"/>
     <use transform="translate(246.73)" xlink:href="#ab"/>
    </g>
    <g transform="translate(359.33 284.03) scale(.11 -.11)">
     <use xlink:href="#i"/>
     <use transform="translate(45.703)" xlink:href="#q"/>
     <use transform="translate(115.28)" xlink:href="#p"/>
     <use transform="translate(184.86)" xlink:href="#g"/>
     <use transform="translate(222.85)" xlink:href="#d"/>
     <use transform="translate(292.43)" xlink:href="#j"/>
     <use transform="translate(392.63)" xlink:href="#h"/>
    </g>
   </g>
   <g id="dr">
    <g transform="translate(487.93 366.54) scale(.11 -.11)">
     <use xlink:href="#l"/>
     <use transform="translate(69.58)" xlink:href="#n"/>
     <use transform="translate(107.57)" xlink:href="#e"/>
     <use transform="translate(177.15)" xlink:href="#aa"/>
     <use transform="translate(246.73)" xlink:href="#l"/>
    </g>
    <g transform="translate(481.22 378.86) scale(.11 -.11)">
     <use xlink:href="#i"/>
     <use transform="translate(45.703)" xlink:href="#e"/>
     <use transform="translate(115.28)" xlink:href="#p"/>
     <use transform="translate(184.86)" xlink:href="#g"/>
     <use transform="translate(222.85)" xlink:href="#e"/>
     <use transform="translate(292.43)" xlink:href="#j"/>
     <use transform="translate(392.63)" xlink:href="#h"/>
    </g>
   </g>
   <g id="ds">
    <g transform="translate(619.57 509.95) scale(.11 -.11)">
     <use xlink:href="#ab"/>
     <use transform="translate(69.58)" xlink:href="#d"/>
    </g>
    <g transform="translate(606.95 522.27) scale(.11 -.11)">
     <use xlink:href="#i"/>
     <use transform="translate(45.703)" xlink:href="#m"/>
     <use transform="translate(115.28)" xlink:href="#g"/>
     <use transform="translate(153.27)" xlink:href="#ac"/>
     <use transform="translate(222.85)" xlink:href="#j"/>
     <use transform="translate(323.05)" xlink:href="#h"/>
    </g>
   </g>
   <g id="dt">
    <g transform="translate(286.96 17.838) scale(.14 -.14)">
     <defs>
      <path id="as" transform="scale(.015625)" d="m4288 256q-332-172-691-259-359-88-750-88-1166 0-1847 652t-681 1767q0 1119 681 1770 681 652 1847 652 391 0 750-88 359-87 691-259v-965q-335 228-660 334t-684 106q-644 0-1013-413-368-412-368-1137 0-722 368-1135 369-412 1013-412 359 0 684 106 325 107 660 335v-966z"/>
      <path id="ao" transform="scale(.015625)" d="m538 4863h1118v-4863h-1118v4863z"/>
      <path id="w" transform="scale(.015625)" d="m500 1363v2137h1125v-350q0-284-3-714t-3-573q0-422 22-608t75-271q68-109 179-169 111-59 255-59 350 0 550 269t200 747v1728h1119v-3500h-1119v506q-253-306-536-452-283-145-623-145-607 0-924 372t-317 1082z"/>
      <path id="x" transform="scale(.015625)" d="m3272 3391v-850q-359 150-694 225-334 75-631 75-319 0-474-80-154-80-154-245 0-135 117-207 117-71 420-106l197-28q860-109 1156-359 297-250 297-785 0-559-413-841-412-281-1230-281-347 0-718 55-370 55-761 164v850q335-162 686-244 352-81 714-81 329 0 494 90 166 91 166 270 0 150-114 223t-455 114l-197 25q-747 94-1047 347t-300 769q0 556 381 824 382 269 1169 269 310 0 650-47 341-46 741-146z"/>
      <path id="o" transform="scale(.015625)" d="m1759 4494v-994h1154v-800h-1154v-1484q0-244 97-330t385-86h575v-800h-960q-662 0-939 276-276 277-276 940v1484h-557v800h557v994h1118z"/>
      <path id="z" transform="scale(.015625)" d="m4031 1759v-318h-2615q40-394 284-591t681-197q353 0 723 105 371 105 762 317v-862q-397-150-794-227t-794-77q-950 0-1477 483-526 483-526 1355 0 856 517 1346 517 491 1424 491 825 0 1320-497 495-496 495-1328zm-1150 372q0 319-186 514-186 196-486 196-325 0-528-183t-253-527h1453z"/>
      <path id="y" transform="scale(.015625)" d="m3138 2547q-147 69-293 101-145 33-292 33-431 0-664-277-233-276-233-791v-1613h-1118v3500h1118v-575q216 344 495 501 280 158 671 158 56 0 121-5 66-4 191-20l4-1012z"/>
      <path id="aq" transform="scale(.015625)" d="m3834 4519v-988q-384 172-750 259-365 88-690 88-431 0-638-119-206-118-206-368 0-188 139-293 139-104 505-179l512-103q778-157 1106-476 329-318 329-906 0-771-458-1148t-1399-377q-443 0-890 85-447 84-894 250v1015q447-237 864-358 417-120 805-120 394 0 603 131 209 132 209 376 0 218-142 337t-567 213l-466 103q-700 150-1024 478-323 328-323 884 0 697 450 1072t1294 375q385 0 791-58t840-173z"/>
      <path id="k" transform="scale(.015625)" d="m538 3500h1118v-3500h-1118v3500zm0 1363h1118v-913h-1118v913z"/>
      <path id="al" transform="scale(.015625)" d="m366 3500h3053v-781l-1844-1919h1844v-800h-3131v781l1843 1919h-1765v800z"/>
      <path id="ar" transform="scale(.015625)" d="m1791 3756v-2847h431q737 0 1126 366 390 366 390 1063 0 693-388 1055-387 363-1128 363h-431zm-1203 910h1268q1063 0 1583-152 520-151 892-514 328-316 487-729 160-412 160-933 0-529-160-943-159-414-487-729-375-363-900-515-525-151-1575-151h-1268v4666z"/>
      <path id="ap" transform="scale(.015625)" d="m2400 722q359 0 548 262 190 263 190 763t-190 762q-189 263-548 263t-552-264q-192-264-192-761t192-761q193-264 552-264zm-744 2266q232 306 513 451t647 145q647 0 1062-514 416-514 416-1323t-416-1324q-415-514-1062-514-366 0-647 145-281 146-513 452v-506h-1118v4863h1118v-1875z"/>
      <path id="am" transform="scale(.015625)" d="m2203 2784q-372 0-567-267t-195-770 195-771q195-267 567-267 366 0 559 267 194 268 194 771t-194 770q-193 267-559 267zm0 800q903 0 1411-488 508-487 508-1349 0-863-508-1351-508-487-1411-487-906 0-1417 487-511 488-511 1351 0 862 511 1349 511 488 1417 488z"/>
      <path id="an" transform="scale(.015625)" d="m4056 2131v-2131h-1125v347 1284q0 453-20 625t-70 253q-66 110-179 171-112 61-256 61-350 0-550-271-200-270-200-748v-1722h-1118v3500h1118v-512q253 306 537 451 285 145 629 145 606 0 920-372 314-371 314-1081z"/>
     </defs>
     <use xlink:href="#as"/>
     <use transform="translate(73.389)" xlink:href="#ao"/>
     <use transform="translate(107.67)" xlink:href="#w"/>
     <use transform="translate(178.86)" xlink:href="#x"/>
     <use transform="translate(238.38)" xlink:href="#o"/>
     <use transform="translate(286.18)" xlink:href="#z"/>
     <use transform="translate(354)" xlink:href="#y"/>
     <use transform="translate(403.32)" xlink:href="#DejaVuSans-Bold-20"/>
     <use transform="translate(438.13)" xlink:href="#aq"/>
     <use transform="translate(510.16)" xlink:href="#k"/>
     <use transform="translate(544.43)" xlink:href="#al"/>
     <use transform="translate(602.64)" xlink:href="#z"/>
     <use transform="translate(670.46)" xlink:href="#DejaVuSans-Bold-20"/>
     <use transform="translate(705.27)" xlink:href="#ar"/>
     <use transform="translate(788.28)" xlink:href="#k"/>
     <use transform="translate(822.56)" xlink:href="#x"/>
     <use transform="translate(882.08)" xlink:href="#o"/>
     <use transform="translate(929.88)" xlink:href="#y"/>
     <use transform="translate(979.2)" xlink:href="#k"/>
     <use transform="translate(1013.5)" xlink:href="#ap"/>
     <use transform="translate(1085.1)" xlink:href="#w"/>
     <use transform="translate(1156.2)" xlink:href="#o"/>
     <use transform="translate(1204.1)" xlink:href="#k"/>
     <use transform="translate(1238.3)" xlink:href="#am"/>
     <use transform="translate(1307)" xlink:href="#an"/>
    </g>
   </g>
  </g>
  <g id="du">
   <g transform="translate(627.81 564.61) scale(.09 -.09)" fill="#808080" opacity=".7">
    <defs>
     <path id="aw" transform="scale(.015625)" d="m2906 1791q0 625-258 968-257 344-723 344-462 0-720-344-258-343-258-968 0-622 258-966t720-344q466 0 723 344 258 344 258 966zm575-1357q0-893-397-1329-396-436-1215-436-303 0-572 45t-522 139v559q253-137 500-202 247-66 503-66 566 0 847 295t281 892v285q-178-310-456-463t-666-153q-643 0-1037 490-394 491-394 1301 0 812 394 1302 394 491 1037 491 388 0 666-153t456-462v531h575v-3066z"/>
     <path id="av" transform="scale(.015625)" d="m3513 2113v-2113h-575v2094q0 497-194 743-194 247-581 247-466 0-735-297-269-296-269-809v-1978h-578v4863h578v-1907q207 316 486 472 280 156 646 156 603 0 912-373 310-373 310-1098z"/>
     <path id="bl" transform="scale(.015625)" d="m684 794h660v-794h-660v794z"/>
     <path id="bk" transform="scale(.015625)" d="m1625 4666h531l-1625-5260h-531l1625 5260z"/>
     <path id="bg" transform="scale(.015625)" d="m1259 2228v-1709h1013q509 0 754 211 246 211 246 645 0 438-246 645-245 208-754 208h-1013zm0 1919v-1406h935q462 0 688 173 227 174 227 530 0 353-227 528-226 175-688 175h-935zm-631 519h1613q722 0 1112-300 391-300 391-853 0-429-200-682t-588-315q466-100 724-418 258-317 258-792 0-625-425-966-425-340-1210-340h-1675v4666z"/>
     <path id="bc" transform="scale(.015625)" d="m628 4666h941l1190-3175 1197 3175h941v-4666h-616v4097l-1203-3200h-634l-1203 3200v-4097h-613v4666z"/>
     <path id="ba" transform="scale(.015625)" d="m2522 4238q-688 0-1093-513-404-512-404-1397 0-881 404-1394 405-512 1093-512 687 0 1089 512 402 513 402 1394 0 885-402 1397-402 513-1089 513zm0 512q981 0 1568-658 588-658 588-1764 0-1103-588-1761-587-658-1568-658-984 0-1574 656-589 657-589 1763t589 1764q590 658 1574 658z"/>
    </defs>
    <use xlink:href="#aw"/>
    <use transform="translate(63.477)" xlink:href="#u"/>
    <use transform="translate(91.26)" xlink:href="#s"/>
    <use transform="translate(130.47)" xlink:href="#av"/>
    <use transform="translate(193.85)" xlink:href="#r"/>
    <use transform="translate(257.23)" xlink:href="#ah"/>
    <use transform="translate(320.7)" xlink:href="#bl"/>
    <use transform="translate(352.49)" xlink:href="#ag"/>
    <use transform="translate(407.47)" xlink:href="#t"/>
    <use transform="translate(468.65)" xlink:href="#af"/>
    <use transform="translate(566.06)" xlink:href="#bk"/>
    <use transform="translate(599.76)" xlink:href="#bg"/>
    <use transform="translate(668.36)" xlink:href="#bc"/>
    <use transform="translate(754.64)" xlink:href="#ba"/>
    <use transform="translate(833.35)" xlink:href="#u"/>
    <use transform="translate(861.13)" xlink:href="#s"/>
   </g>
  </g>
 </g>
 <defs>
  <clipPath id="b">
   <rect x="61.626" y="32.838" width="643.62" height="495.64"/>
  </clipPath>
 </defs>
 <metadata>
  <rdf:RDF>
   <cc:Work>
    <dc:title>Cluster Size Distribution</dc:title>
    <dc:creator>github.com/BMOit</dc:creator>
    <dc:rights>github.com/BMOit</dc:rights>
    <dc:source>UIDAI Data Hackathon 2026</dc:source>
   </cc:Work>
  </rdf:RDF>
 </metadata>
</svg>
