<?xml version="1.0" encoding="UTF-8"?>
<svg width="716pt" height="431.12pt" version="1.1" viewBox="0 0 716 431.12" xmlns="http://www.w3.org/2000/svg" xmlns:cc="http://creativecommons.org/ns#" xmlns:dc="http://purl.org/dc/elements/1.1/" xmlns:rdf="http://www.w3.org/1999/02/22-rdf-syntax-ns#" xmlns:xlink="http://www.w3.org/1999/xlink">
 <title>Elbow Method for Optimal Clusters</title>
 <desc>Chart by github.com/BMOit</desc>
 <metadata>
  <rdf:RDF>
   <cc:Work>
    <dc:type rdf:resource="http://purl.org/dc/dcmitype/StillImage"/>
    <dc:date>2026-01-20T17:31:12.920674</dc:date>
    <dc:format>image/svg+xml</dc:format>
    <dc:creator>
     <cc:Agent>
      <dc:title>Matplotlib v3.10.8, https://matplotlib.org/</dc:title>
     </cc:Agent>
    </dc:creator>
   </cc:Work>
  </rdf:RDF>
 </metadata>
 <defs>
  <style type="text/css">*{stroke-linejoin: round; stroke-linecap: butt}</style>
 </defs>
 <g id="bn">
  <g id="bo">
   <path d="m0 431.12h716v-431.12h-716z" fill="#fff"/>
  </g>
  <g id="bp">
   <g id="bq">
    <path d="m61.626 384.48h643.57v-351.64h-643.57z" fill="#fff"/>
   </g>
   <g id="br">
    <g id="bs">
     <g id="bt">
      <path d="m90.879 384.48v-351.64" clip-path="url(#b)" fill="none" stroke="#b0b0b0" stroke-linecap="square" stroke-opacity=".3" stroke-width=".8"/>
     </g>
     <g id="bu">
      <defs>
       <path id="d" d="m0 0v3.5" stroke="#000" stroke-width=".8"/>
      </defs>
      <use x="90.879432" y="384.477812" stroke="#000000" stroke-width=".8" xlink:href="#d"/>
     </g>
     <g id="bv">
      <g transform="translate(87.698 399.08) scale(.1 -.1)">
       <defs>
        <path id="bh" transform="scale(.015625)" d="m1228 531h2203v-531h-2962v531q359 372 979 998 621 627 780 809 303 340 423 576 121 236 121 464 0 372-261 606-261 235-680 235-297 0-627-103-329-103-704-313v638q381 153 712 231 332 78 607 78 725 0 1156-363 431-362 431-968 0-288-108-546-107-257-392-607-78-91-497-524-418-433-1181-1211z"/>
       </defs>
       <use xlink:href="#bh"/>
      </g>
     </g>
    </g>
    <g id="bw">
     <g id="bx">
      <path d="m164.01 384.48v-351.64" clip-path="url(#b)" fill="none" stroke="#b0b0b0" stroke-linecap="square" stroke-opacity=".3" stroke-width=".8"/>
     </g>
     <g id="by">
      <use x="164.012386" y="384.477812" stroke="#000000" stroke-width=".8" xlink:href="#d"/>
     </g>
     <g id="bz">
      <g transform="translate(160.83 399.08) scale(.1 -.1)">
       <defs>
        <path id="ab" transform="scale(.015625)" d="m2597 2516q453-97 707-404 255-306 255-756 0-690-475-1069-475-378-1350-378-293 0-604 58t-642 174v609q262-153 574-231 313-78 654-78 593 0 904 234t311 681q0 413-289 645-289 233-804 233h-544v519h569q465 0 712 186t247 536q0 359-255 551-254 193-729 193-260 0-557-57-297-56-653-174v562q360 100 674 150t592 50q719 0 1137-327 419-326 419-882 0-388-222-655t-631-370z"/>
       </defs>
       <use xlink:href="#ab"/>
      </g>
     </g>
    </g>
    <g id="ca">
     <g id="cb">
      <path d="m237.15 384.48v-351.64" clip-path="url(#b)" fill="none" stroke="#b0b0b0" stroke-linecap="square" stroke-opacity=".3" stroke-width=".8"/>
     </g>
     <g id="cc">
      <use x="237.145341" y="384.477812" stroke="#000000" stroke-width=".8" xlink:href="#d"/>
     </g>
     <g id="cd">
      <g transform="translate(233.96 399.08) scale(.1 -.1)">
       <defs>
        <path id="aa" transform="scale(.015625)" d="m2419 4116-1594-2491h1594v2491zm-166 550h794v-3041h666v-525h-666v-1100h-628v1100h-2106v609l1940 2957z"/>
       </defs>
       <use xlink:href="#aa"/>
      </g>
     </g>
    </g>
    <g id="ce">
     <g id="cf">
      <path d="m310.28 384.48v-351.64" clip-path="url(#b)" fill="none" stroke="#b0b0b0" stroke-linecap="square" stroke-opacity=".3" stroke-width=".8"/>
     </g>
     <g id="cg">
      <use x="310.278295" y="384.477812" stroke="#000000" stroke-width=".8" xlink:href="#d"/>
     </g>
     <g id="ch">
      <g transform="translate(307.1 399.08) scale(.1 -.1)">
       <defs>
        <path id="n" transform="scale(.015625)" d="m691 4666h2478v-532h-1900v-1143q137 47 274 70 138 23 276 23 781 0 1237-428 457-428 457-1159 0-753-469-1171-469-417-1322-417-294 0-599 50-304 50-629 150v635q281-153 581-228t634-75q541 0 856 284 316 284 316 772 0 487-316 771-315 285-856 285-253 0-505-56-251-56-513-175v2344z"/>
       </defs>
       <use xlink:href="#n"/>
      </g>
     </g>
    </g>
    <g id="ci">
     <g id="cj">
      <path d="m383.41 384.48v-351.64" clip-path="url(#b)" fill="none" stroke="#b0b0b0" stroke-linecap="square" stroke-opacity=".3" stroke-width=".8"/>
     </g>
     <g id="ck">
      <use x="383.41125" y="384.477812" stroke="#000000" stroke-width=".8" xlink:href="#d"/>
     </g>
     <g id="cl">
      <g transform="translate(380.23 399.08) scale(.1 -.1)">
       <defs>
        <path id="z" transform="scale(.015625)" d="m2113 2584q-425 0-674-291-248-290-248-796 0-503 248-796 249-292 674-292t673 292q248 293 248 796 0 506-248 796-248 291-673 291zm1253 1979v-575q-238 112-480 171-242 60-480 60-625 0-955-422-329-422-376-1275 184 272 462 417 279 145 613 145 703 0 1111-427 408-426 408-1160 0-719-425-1154-425-434-1131-434-810 0-1238 620-428 621-428 1799 0 1106 525 1764t1409 658q238 0 480-47t505-140z"/>
       </defs>
       <use xlink:href="#z"/>
      </g>
     </g>
    </g>
    <g id="cm">
     <g id="cn">
      <path d="m456.54 384.48v-351.64" clip-path="url(#b)" fill="none" stroke="#b0b0b0" stroke-linecap="square" stroke-opacity=".3" stroke-width=".8"/>
     </g>
     <g id="co">
      <use x="456.544205" y="384.477812" stroke="#000000" stroke-width=".8" xlink:href="#d"/>
     </g>
     <g id="cp">
      <g transform="translate(453.36 399.08) scale(.1 -.1)">
       <defs>
        <path id="y" transform="scale(.015625)" d="m525 4666h3e3v-269l-1694-4397h-659l1594 4134h-2241v532z"/>
       </defs>
       <use xlink:href="#y"/>
      </g>
     </g>
    </g>
    <g id="cq">
     <g id="cr">
      <path d="m529.68 384.48v-351.64" clip-path="url(#b)" fill="none" stroke="#b0b0b0" stroke-linecap="square" stroke-opacity=".3" stroke-width=".8"/>
     </g>
     <g id="cs">
      <use x="529.677159" y="384.477812" stroke="#000000" stroke-width=".8" xlink:href="#d"/>
     </g>
     <g id="ct">
      <g transform="translate(526.5 399.08) scale(.1 -.1)">
       <defs>
        <path id="bg" transform="scale(.015625)" d="m2034 2216q-450 0-708-241-257-241-257-662 0-422 257-663 258-241 708-241t709 242q260 243 260 662 0 421-258 662-257 241-711 241zm-631 268q-406 100-633 378-226 279-226 679 0 559 398 884 399 325 1092 325 697 0 1094-325t397-884q0-400-227-679-226-278-629-378 456-106 710-416 255-309 255-755 0-679-414-1042-414-362-1186-362-771 0-1186 362-414 363-414 1042 0 446 256 755 257 310 713 416zm-231 997q0-362 226-565 227-203 636-203 407 0 636 203 230 203 230 565 0 363-230 566-229 203-636 203-409 0-636-203-226-203-226-566z"/>
       </defs>
       <use xlink:href="#bg"/>
      </g>
     </g>
    </g>
    <g id="cu">
     <g id="cv">
      <path d="m602.81 384.48v-351.64" clip-path="url(#b)" fill="none" stroke="#b0b0b0" stroke-linecap="square" stroke-opacity=".3" stroke-width=".8"/>
     </g>
     <g id="cw">
      <use x="602.810114" y="384.477812" stroke="#000000" stroke-width=".8" xlink:href="#d"/>
     </g>
     <g id="cx">
      <g transform="translate(599.63 399.08) scale(.1 -.1)">
       <defs>
        <path id="bf" transform="scale(.015625)" d="m703 97v575q238-113 481-172 244-59 479-59 625 0 954 420 330 420 377 1277-181-269-460-413-278-144-615-144-700 0-1108 423-408 424-408 1159 0 718 425 1152 425 435 1131 435 810 0 1236-621 427-620 427-1801 0-1103-524-1761-523-658-1407-658-238 0-482 47-243 47-506 141zm1256 1978q425 0 673 290 249 291 249 798 0 503-249 795-248 292-673 292t-673-292-248-795q0-507 248-798 248-290 673-290z"/>
       </defs>
       <use xlink:href="#bf"/>
      </g>
     </g>
    </g>
    <g id="cy">
     <g id="cz">
      <path d="m675.94 384.48v-351.64" clip-path="url(#b)" fill="none" stroke="#b0b0b0" stroke-linecap="square" stroke-opacity=".3" stroke-width=".8"/>
     </g>
     <g id="da">
      <use x="675.943068" y="384.477812" stroke="#000000" stroke-width=".8" xlink:href="#d"/>
     </g>
     <g id="db">
      <g transform="translate(669.58 399.08) scale(.1 -.1)">
       <defs>
        <path id="bi" transform="scale(.015625)" d="m794 531h1031v3560l-1122-225v575l1116 225h631v-4135h1031v-531h-2687v531z"/>
        <path id="a" transform="scale(.015625)" d="m2034 4250q-487 0-733-480-245-479-245-1442 0-959 245-1439 246-480 733-480 491 0 736 480 246 480 246 1439 0 963-246 1442-245 480-736 480zm0 500q785 0 1199-621 414-620 414-1801 0-1178-414-1799-414-620-1199-620-784 0-1198 620-414 621-414 1799 0 1181 414 1801 414 621 1198 621z"/>
       </defs>
       <use xlink:href="#bi"/>
       <use transform="translate(63.623)" xlink:href="#a"/>
      </g>
     </g>
    </g>
    <g id="dc">
     <g transform="translate(315.23 414.27) scale(.12 -.12)">
      <defs>
       <path id="az" transform="scale(.015625)" d="m628 4666h850l2069-3903v3903h612v-4666h-850l-2068 3903v-3903h-613v4666z"/>
       <path id="k" transform="scale(.015625)" d="m544 1381v2119h575v-2097q0-497 193-746 194-248 582-248 465 0 735 297 271 297 271 810v1984h575v-3500h-575v538q-209-319-486-474-276-155-642-155-603 0-916 375-312 375-312 1097zm1447 2203z"/>
       <path id="t" transform="scale(.015625)" d="m3328 2828q216 388 516 572t706 184q547 0 844-383 297-382 297-1088v-2113h-578v2094q0 503-179 746-178 244-543 244-447 0-707-297-259-296-259-809v-1978h-578v2094q0 506-178 748t-550 242q-441 0-701-298-259-298-259-808v-1978h-578v3500h578v-544q197 322 472 475t653 153q382 0 649-194 267-193 395-562z"/>
       <path id="x" transform="scale(.015625)" d="m3116 1747q0 634-261 995t-717 361q-457 0-718-361t-261-995 261-995 718-361q456 0 717 361t261 995zm-1957 1222q182 312 458 463 277 152 661 152 638 0 1036-506 399-506 399-1331t-399-1332q-398-506-1036-506-384 0-661 152-276 152-458 464v-525h-578v4863h578v-1894z"/>
       <path id="e" transform="scale(.015625)" d="m3597 1894v-281h-2644q38-594 358-905t892-311q331 0 642 81t618 244v-544q-310-131-635-200t-659-69q-838 0-1327 487-489 488-489 1320 0 859 464 1363 464 505 1252 505 706 0 1117-455 411-454 411-1235zm-575 169q-6 471-264 752-258 282-683 282-481 0-770-272t-333-766l2050 4z"/>
       <path id="l" transform="scale(.015625)" d="m2631 2963q-97 56-211 82-114 27-251 27-488 0-749-317t-261-911v-1844h-578v3500h578v-544q182 319 472 473 291 155 707 155 59 0 131-8 72-7 159-23l3-590z"/>
       <path id="s" transform="scale(.015625)" d="m1959 3097q-462 0-731-361t-269-989 267-989q268-361 733-361 460 0 728 362 269 363 269 988 0 622-269 986-268 364-728 364zm0 487q750 0 1178-488 429-487 429-1349 0-859-429-1349-428-489-1178-489-753 0-1180 489-426 490-426 1349 0 862 426 1349 427 488 1180 488z"/>
       <path id="au" transform="scale(.015625)" d="m2375 4863v-479h-550q-309 0-430-125-120-125-120-450v-309h947v-447h-947v-3053h-578v3053h-550v447h550v244q0 584 272 851 272 268 862 268h544z"/>
       <path id="bc" transform="scale(.015625)" d="m4122 4306v-665q-319 297-680 443-361 147-767 147-800 0-1225-489t-425-1414q0-922 425-1411t1225-489q406 0 767 147t680 444v-660q-331-225-702-338-370-112-782-112-1060 0-1670 648-609 649-609 1771 0 1125 609 1773 610 649 1670 649 418 0 788-111 371-111 696-333z"/>
       <path id="u" transform="scale(.015625)" d="m603 4863h575v-4863h-575v4863z"/>
       <path id="r" transform="scale(.015625)" d="m2834 3397v-544q-243 125-506 187-262 63-544 63-428 0-642-131t-214-394q0-200 153-314t616-217l197-44q612-131 870-370t258-667q0-488-386-773-386-284-1061-284-281 0-586 55t-642 164v594q319-166 628-249 309-82 613-82 406 0 624 139 219 139 219 392 0 234-158 359-157 125-692 241l-200 47q-534 112-772 345-237 233-237 639 0 494 350 762 350 269 994 269 318 0 599-47 282-46 519-140z"/>
       <path id="g" transform="scale(.015625)" d="m1172 4494v-994h1184v-447h-1184v-1900q0-428 117-550t477-122h590v-481h-590q-666 0-919 248-253 249-253 905v1900h-422v447h422v994h578z"/>
       <path id="bm" transform="scale(.015625)" d="m1984 4856q-418-718-622-1422-203-703-203-1425 0-721 205-1429t620-1424h-500q-468 735-701 1444t-233 1409q0 697 231 1403 232 707 703 1444h500z"/>
       <path id="v" transform="scale(.015625)" d="m581 4863h578v-2872l1716 1509h734l-1856-1637 1935-1863h-750l-1779 1709v-1709h-578v4863z"/>
       <path id="bl" transform="scale(.015625)" d="m513 4856h500q468-737 701-1444 233-706 233-1403 0-700-233-1409t-701-1444h-500q415 716 620 1424t205 1429q0 722-205 1425-205 704-620 1422z"/>
      </defs>
      <use xlink:href="#az"/>
      <use transform="translate(74.805)" xlink:href="#k"/>
      <use transform="translate(138.18)" xlink:href="#t"/>
      <use transform="translate(235.6)" xlink:href="#x"/>
      <use transform="translate(299.07)" xlink:href="#e"/>
      <use transform="translate(360.6)" xlink:href="#l"/>
      <use transform="translate(401.71)" xlink:href="#DejaVuSans-20"/>
      <use transform="translate(433.5)" xlink:href="#s"/>
      <use transform="translate(494.68)" xlink:href="#au"/>
      <use transform="translate(529.88)" xlink:href="#DejaVuSans-20"/>
      <use transform="translate(561.67)" xlink:href="#bc"/>
      <use transform="translate(631.49)" xlink:href="#u"/>
      <use transform="translate(659.28)" xlink:href="#k"/>
      <use transform="translate(722.66)" xlink:href="#r"/>
      <use transform="translate(774.76)" xlink:href="#g"/>
      <use transform="translate(813.96)" xlink:href="#e"/>
      <use transform="translate(875.49)" xlink:href="#l"/>
      <use transform="translate(916.6)" xlink:href="#r"/>
      <use transform="translate(968.7)" xlink:href="#DejaVuSans-20"/>
      <use transform="translate(1000.5)" xlink:href="#bm"/>
      <use transform="translate(1039.5)" xlink:href="#v"/>
      <use transform="translate(1097.4)" xlink:href="#bl"/>
     </g>
    </g>
   </g>
   <g id="dd">
    <g id="de">
     <g id="df">
      <path d="m61.626 343.1h643.57" clip-path="url(#b)" fill="none" stroke="#b0b0b0" stroke-linecap="square" stroke-opacity=".3" stroke-width=".8"/>
     </g>
     <g id="dg">
      <defs>
       <path id="f" d="m0 0h-3.5" stroke="#000" stroke-width=".8"/>
      </defs>
      <use x="61.62625" y="343.103368" stroke="#000000" stroke-width=".8" xlink:href="#f"/>
     </g>
     <g id="dh">
      <g transform="translate(22.814 346.9) scale(.1 -.1)">
       <use xlink:href="#ab"/>
       <use transform="translate(63.623)" xlink:href="#a"/>
       <use transform="translate(127.25)" xlink:href="#a"/>
       <use transform="translate(190.87)" xlink:href="#a"/>
       <use transform="translate(254.49)" xlink:href="#a"/>
      </g>
     </g>
    </g>
    <g id="di">
     <g id="dj">
      <path d="m61.626 274.61h643.57" clip-path="url(#b)" fill="none" stroke="#b0b0b0" stroke-linecap="square" stroke-opacity=".3" stroke-width=".8"/>
     </g>
     <g id="dk">
      <use x="61.62625" y="274.611954" stroke="#000000" stroke-width=".8" xlink:href="#f"/>
     </g>
     <g id="dl">
      <g transform="translate(22.814 278.41) scale(.1 -.1)">
       <use xlink:href="#aa"/>
       <use transform="translate(63.623)" xlink:href="#a"/>
       <use transform="translate(127.25)" xlink:href="#a"/>
       <use transform="translate(190.87)" xlink:href="#a"/>
       <use transform="translate(254.49)" xlink:href="#a"/>
      </g>
     </g>
    </g>
    <g id="dm">
     <g id="dn">
      <path d="m61.626 206.12h643.57" clip-path="url(#b)" fill="none" stroke="#b0b0b0" stroke-linecap="square" stroke-opacity=".3" stroke-width=".8"/>
     </g>
     <g id="do">
      <use x="61.62625" y="206.12054" stroke="#000000" stroke-width=".8" xlink:href="#f"/>
     </g>
     <g id="dp">
      <g transform="translate(22.814 209.92) scale(.1 -.1)">
       <use xlink:href="#n"/>
       <use transform="translate(63.623)" xlink:href="#a"/>
       <use transform="translate(127.25)" xlink:href="#a"/>
       <use transform="translate(190.87)" xlink:href="#a"/>
       <use transform="translate(254.49)" xlink:href="#a"/>
      </g>
     </g>
    </g>
    <g id="dq">
     <g id="dr">
      <path d="m61.626 137.63h643.57" clip-path="url(#b)" fill="none" stroke="#b0b0b0" stroke-linecap="square" stroke-opacity=".3" stroke-width=".8"/>
     </g>
     <g id="ds">
      <use x="61.62625" y="137.629126" stroke="#000000" stroke-width=".8" xlink:href="#f"/>
     </g>
     <g id="dt">
      <g transform="translate(22.814 141.43) scale(.1 -.1)">
       <use xlink:href="#z"/>
       <use transform="translate(63.623)" xlink:href="#a"/>
       <use transform="translate(127.25)" xlink:href="#a"/>
       <use transform="translate(190.87)" xlink:href="#a"/>
       <use transform="translate(254.49)" xlink:href="#a"/>
      </g>
     </g>
    </g>
    <g id="du">
     <g id="dv">
      <path d="m61.626 69.138h643.57" clip-path="url(#b)" fill="none" stroke="#b0b0b0" stroke-linecap="square" stroke-opacity=".3" stroke-width=".8"/>
     </g>
     <g id="dw">
      <use x="61.62625" y="69.137711" stroke="#000000" stroke-width=".8" xlink:href="#f"/>
     </g>
     <g id="dx">
      <g transform="translate(22.814 72.937) scale(.1 -.1)">
       <use xlink:href="#y"/>
       <use transform="translate(63.623)" xlink:href="#a"/>
       <use transform="translate(127.25)" xlink:href="#a"/>
       <use transform="translate(190.87)" xlink:href="#a"/>
       <use transform="translate(254.49)" xlink:href="#a"/>
      </g>
     </g>
    </g>
    <g id="dy">
     <g transform="translate(16.318 228.08) rotate(-90) scale(.12 -.12)">
      <defs>
       <path id="bb" transform="scale(.015625)" d="m628 4666h631v-4666h-631v4666z"/>
       <path id="ar" transform="scale(.015625)" d="m3513 2113v-2113h-575v2094q0 497-194 743-194 247-581 247-466 0-735-297-269-296-269-809v-1978h-578v3500h578v-544q207 316 486 472 280 156 646 156 603 0 912-373 310-373 310-1098z"/>
       <path id="m" transform="scale(.015625)" d="m603 3500h575v-3500h-575v3500zm0 1363h575v-729h-575v729z"/>
       <path id="aw" transform="scale(.015625)" d="m2194 1759q-697 0-966-159t-269-544q0-306 202-486 202-179 548-179 479 0 768 339t289 901v128h-572zm1147 238v-1997h-575v531q-197-318-491-470t-719-152q-537 0-855 302-317 302-317 808 0 590 395 890 396 300 1180 300h807v57q0 397-261 614t-733 217q-300 0-585-72-284-72-546-216v532q315 122 612 182 297 61 578 61 760 0 1135-394 375-393 375-1193z"/>
      </defs>
      <use xlink:href="#bb"/>
      <use transform="translate(29.492)" xlink:href="#ar"/>
      <use transform="translate(92.871)" xlink:href="#e"/>
      <use transform="translate(154.39)" xlink:href="#l"/>
      <use transform="translate(195.51)" xlink:href="#g"/>
      <use transform="translate(234.72)" xlink:href="#m"/>
      <use transform="translate(262.5)" xlink:href="#aw"/>
     </g>
    </g>
   </g>
   <g id="dz">
    <path d="m90.879 48.821 73.133 70.307 73.133 62.601 73.133 65.791 73.133 40.734 73.133 22.099 73.133 21.268 73.133 19.056 73.133 17.818" clip-path="url(#b)" fill="none" stroke="#000" stroke-linecap="square" stroke-width="2"/>
    <defs>
     <path id="c" d="m0 4c1.0608 0 2.0783-0.42146 2.8284-1.1716s1.1716-1.7676 1.1716-2.8284-0.42146-2.0783-1.1716-2.8284-1.7676-1.1716-2.8284-1.1716-2.0783 0.42146-2.8284 1.1716-1.1716 1.7676-1.1716 2.8284 0.42146 2.0783 1.1716 2.8284 1.7676 1.1716 2.8284 1.1716z" stroke="#000"/>
    </defs>
    <g clip-path="url(#b)" stroke="#000000">
     <use x="90.879432" y="48.821449" xlink:href="#c"/>
     <use x="164.012386" y="119.128362" xlink:href="#c"/>
     <use x="237.145341" y="181.72901" xlink:href="#c"/>
     <use x="310.278295" y="247.519772" xlink:href="#c"/>
     <use x="383.41125" y="288.253504" xlink:href="#c"/>
     <use x="456.544205" y="310.35271" xlink:href="#c"/>
     <use x="529.677159" y="331.620416" xlink:href="#c"/>
     <use x="602.810114" y="350.676626" xlink:href="#c"/>
     <use x="675.943068" y="368.494176" xlink:href="#c"/>
    </g>
   </g>
   <g id="ea">
    <path d="m310.28 247.52" clip-path="url(#b)" fill="none" stroke="#f00" stroke-linecap="square" stroke-width="1.5"/>
    <defs>
     <path id="ac" d="m0 5c1.326 0 2.5979-0.52683 3.5355-1.4645 0.93763-0.93764 1.4645-2.2095 1.4645-3.5355s-0.52683-2.5979-1.4645-3.5355c-0.93764-0.93763-2.2095-1.4645-3.5355-1.4645s-2.5979 0.52683-3.5355 1.4645c-0.93763 0.93764-1.4645 2.2095-1.4645 3.5355s0.52683 2.5979 1.4645 3.5355c0.93764 0.93763 2.2095 1.4645 3.5355 1.4645z" stroke="#f00"/>
    </defs>
    <g clip-path="url(#b)">
     <use x="310.278295" y="247.519772" fill="#ff0000" stroke="#ff0000" xlink:href="#ac"/>
    </g>
   </g>
   <g id="eb">
    <path d="m310.28 384.48v-351.64" clip-path="url(#b)" fill="none" stroke="#f00" stroke-dasharray="5.55,2.4" stroke-opacity=".5" stroke-width="1.5"/>
   </g>
   <g id="ec">
    <path d="m61.626 384.48v-351.64" fill="none" stroke="#000" stroke-linecap="square" stroke-width=".8"/>
   </g>
   <g id="ed">
    <path d="m61.626 384.48h643.57" fill="none" stroke="#000" stroke-linecap="square" stroke-width=".8"/>
   </g>
   <g id="ee" fill="none" stroke="#f00" stroke-linecap="round">
    <path d="m394.07 222.28q-40.937 12.332-80.804 24.341"/>
    <path d="m318.11 247.46-4.8476-0.83741 3.5785-3.3756"/>
   </g>
   <g id="ef">
    <g transform="translate(383.41 217.41) scale(.11 -.11)" fill="#f00">
     <defs>
      <path id="ax" transform="scale(.015625)" d="m3425 4513v-616q-359 172-678 256-319 85-616 85-515 0-795-200t-280-569q0-310 186-468 186-157 705-254l381-78q706-135 1042-474t336-907q0-679-455-1029-454-350-1332-350-331 0-705 75-373 75-773 222v650q384-215 753-325 369-109 725-109 540 0 834 212 294 213 294 607 0 343-211 537t-692 291l-385 75q-706 140-1022 440-315 300-315 835 0 619 436 975t1201 356q329 0 669-60 341-59 697-177z"/>
      <path id="w" transform="scale(.015625)" d="m3122 3366v-538q-244 135-489 202t-495 67q-560 0-870-355-309-354-309-995t309-996q310-354 870-354 250 0 495 67t489 202v-532q-241-112-499-168-257-57-548-57-791 0-1257 497-465 497-465 1341 0 856 470 1346 471 491 1290 491 265 0 518-55 253-54 491-163z"/>
      <path id="av" transform="scale(.015625)" d="m2906 2969v1894h575v-4863h-575v525q-181-312-458-464-276-152-664-152-634 0-1033 506-398 507-398 1332t398 1331q399 506 1033 506 388 0 664-152 277-151 458-463zm-1959-1222q0-634 261-995t717-361 718 361q263 361 263 995t-263 995q-262 361-718 361t-717-361-261-995z"/>
      <path id="be" transform="scale(.015625)" d="m678 2906h4006v-525h-4006v525zm0-1275h4006v-531h-4006v531z"/>
     </defs>
     <use xlink:href="#ax"/>
     <use transform="translate(63.477)" xlink:href="#e"/>
     <use transform="translate(125)" xlink:href="#u"/>
     <use transform="translate(152.78)" xlink:href="#e"/>
     <use transform="translate(214.31)" xlink:href="#w"/>
     <use transform="translate(269.29)" xlink:href="#g"/>
     <use transform="translate(308.5)" xlink:href="#e"/>
     <use transform="translate(370.02)" xlink:href="#av"/>
     <use transform="translate(433.5)" xlink:href="#DejaVuSans-20"/>
     <use transform="translate(465.28)" xlink:href="#v"/>
     <use transform="translate(523.19)" xlink:href="#be"/>
     <use transform="translate(606.98)" xlink:href="#n"/>
    </g>
   </g>
   <g id="eg">
    <g transform="translate(245.5 17.838) scale(.14 -.14)">
     <defs>
      <path id="ap" transform="scale(.015625)" d="m588 4666h3246v-910h-2043v-868h1922v-910h-1922v-1069h2112v-909h-3315v4666z"/>
      <path id="j" transform="scale(.015625)" d="m538 4863h1118v-4863h-1118v4863z"/>
      <path id="al" transform="scale(.015625)" d="m2400 722q359 0 548 262 190 263 190 763t-190 762q-189 263-548 263t-552-264q-192-264-192-761t192-761q193-264 552-264zm-744 2266q232 306 513 451t647 145q647 0 1062-514 416-514 416-1323t-416-1324q-415-514-1062-514-366 0-647 145-281 146-513 452v-506h-1118v4863h1118v-1875z"/>
      <path id="i" transform="scale(.015625)" d="m2203 2784q-372 0-567-267t-195-770 195-771q195-267 567-267 366 0 559 267 194 268 194 771t-194 770q-193 267-559 267zm0 800q903 0 1411-488 508-487 508-1349 0-863-508-1351-508-487-1411-487-906 0-1417 487-511 488-511 1351 0 862 511 1349 511 488 1417 488z"/>
      <path id="ad" transform="scale(.015625)" d="m225 3500h1088l587-2412 591 2412h934l588-2387 590 2387h1088l-922-3500h-1222l-591 2406-587-2406h-1222l-922 3500z"/>
      <path id="ao" transform="scale(.015625)" d="m588 4666h1531l1062-2497 1069 2497h1528v-4666h-1137v3413l-1075-2516h-763l-1075 2516v-3413h-1140v4666z"/>
      <path id="q" transform="scale(.015625)" d="m4031 1759v-318h-2615q40-394 284-591t681-197q353 0 723 105 371 105 762 317v-862q-397-150-794-227t-794-77q-950 0-1477 483-526 483-526 1355 0 856 517 1346 517 491 1424 491 825 0 1320-497 495-496 495-1328zm-1150 372q0 319-186 514-186 196-486 196-325 0-528-183t-253-527h1453z"/>
      <path id="h" transform="scale(.015625)" d="m1759 4494v-994h1154v-800h-1154v-1484q0-244 97-330t385-86h575v-800h-960q-662 0-939 276-276 277-276 940v1484h-557v800h557v994h1118z"/>
      <path id="ai" transform="scale(.015625)" d="m4056 2131v-2131h-1125v347 1278q0 459-20 631t-70 253q-66 110-179 171-112 61-256 61-350 0-550-271-200-270-200-748v-1722h-1118v4863h1118v-1875q253 306 537 451 285 145 629 145 606 0 920-372 314-371 314-1081z"/>
      <path id="ak" transform="scale(.015625)" d="m2919 2988v1875h1125v-4863h-1125v506q-231-309-510-453-278-144-643-144-647 0-1063 514-415 515-415 1324t415 1323q416 514 1063 514 362 0 642-145t511-451zm-738-2266q360 0 549 262 189 263 189 763t-189 762q-189 263-549 263-356 0-545-263-189-262-189-762t189-763q189-262 545-262z"/>
      <path id="aj" transform="scale(.015625)" d="m2841 4863v-735h-619q-238 0-332-86-93-86-93-298v-244h956v-800h-956v-2700h-1119v2700h-556v800h556v244q0 572 319 845 319 274 987 274h857z"/>
      <path id="p" transform="scale(.015625)" d="m3138 2547q-147 69-293 101-145 33-292 33-431 0-664-277-233-276-233-791v-1613h-1118v3500h1118v-575q216 344 495 501 280 158 671 158 56 0 121-5 66-4 191-20l4-1012z"/>
      <path id="an" transform="scale(.015625)" d="m2719 3878q-550 0-853-406t-303-1144q0-734 303-1141 303-406 853-406 553 0 856 406 303 407 303 1141 0 738-303 1144t-856 406zm0 872q1125 0 1762-644 638-643 638-1778 0-1131-638-1775-637-644-1762-644-1122 0-1761 644t-639 1775q0 1135 639 1778 639 644 1761 644z"/>
      <path id="af" transform="scale(.015625)" d="m1656 506v-1837h-1118v4831h1118v-512q232 306 513 451t647 145q647 0 1062-514 416-514 416-1323t-416-1324q-415-514-1062-514-366 0-647 145-281 146-513 452zm744 2266q-359 0-552-264-192-264-192-761t192-761q193-264 552-264t548 262q190 263 190 763t-190 762q-189 263-548 263z"/>
      <path id="ah" transform="scale(.015625)" d="m538 3500h1118v-3500h-1118v3500zm0 1363h1118v-913h-1118v913z"/>
      <path id="ag" transform="scale(.015625)" d="m3781 2919q213 325 505 495t642 170q603 0 919-372 316-371 316-1081v-2131h-1125v1825q3 41 4 84 2 44 2 125 0 372-110 539-109 168-353 168-318 0-492-263-173-262-180-759v-1719h-1125v1825q0 581-100 748-100 168-356 168-322 0-497-264t-175-755v-1722h-1125v3500h1125v-512q207 296 474 446t589 150q362 0 640-175 279-175 422-490z"/>
      <path id="am" transform="scale(.015625)" d="m2106 1575q-350 0-527-119-176-118-176-350 0-212 142-333 143-120 396-120 315 0 531 226 216 227 216 568v128h-582zm1710 422v-1997h-1128v519q-225-319-507-465-281-145-684-145-544 0-883 317-339 318-339 824 0 616 423 903 424 288 1330 288h660v87q0 266-210 389-209 124-653 124-359 0-669-72-309-72-575-216v853q360 88 722 133 363 45 725 45 947 0 1367-373 421-373 421-1214z"/>
      <path id="aq" transform="scale(.015625)" d="m4288 256q-332-172-691-259-359-88-750-88-1166 0-1847 652t-681 1767q0 1119 681 1770 681 652 1847 652 391 0 750-88 359-87 691-259v-965q-335 228-660 334t-684 106q-644 0-1013-413-368-412-368-1137 0-722 368-1135 369-412 1013-412 359 0 684 106 325 107 660 335v-966z"/>
      <path id="ae" transform="scale(.015625)" d="m500 1363v2137h1125v-350q0-284-3-714t-3-573q0-422 22-608t75-271q68-109 179-169 111-59 255-59 350 0 550 269t200 747v1728h1119v-3500h-1119v506q-253-306-536-452-283-145-623-145-607 0-924 372t-317 1082z"/>
      <path id="o" transform="scale(.015625)" d="m3272 3391v-850q-359 150-694 225-334 75-631 75-319 0-474-80-154-80-154-245 0-135 117-207 117-71 420-106l197-28q860-109 1156-359 297-250 297-785 0-559-413-841-412-281-1230-281-347 0-718 55-370 55-761 164v850q335-162 686-244 352-81 714-81 329 0 494 90 166 91 166 270 0 150-114 223t-455 114l-197 25q-747 94-1047 347t-300 769q0 556 381 824 382 269 1169 269 310 0 650-47 341-46 741-146z"/>
     </defs>
     <use xlink:href="#ap"/>
     <use transform="translate(68.311)" xlink:href="#j"/>
     <use transform="translate(102.59)" xlink:href="#al"/>
     <use transform="translate(174.17)" xlink:href="#i"/>
     <use transform="translate(242.87)" xlink:href="#ad"/>
     <use transform="translate(335.25)" xlink:href="#DejaVuSans-Bold-20"/>
     <use transform="translate(370.07)" xlink:href="#ao"/>
     <use transform="translate(469.58)" xlink:href="#q"/>
     <use transform="translate(537.4)" xlink:href="#h"/>
     <use transform="translate(585.21)" xlink:href="#ai"/>
     <use transform="translate(656.4)" xlink:href="#i"/>
     <use transform="translate(725.1)" xlink:href="#ak"/>
     <use transform="translate(796.68)" xlink:href="#DejaVuSans-Bold-20"/>
     <use transform="translate(831.49)" xlink:href="#aj"/>
     <use transform="translate(875)" xlink:href="#i"/>
     <use transform="translate(943.7)" xlink:href="#p"/>
     <use transform="translate(993.02)" xlink:href="#DejaVuSans-Bold-20"/>
     <use transform="translate(1027.8)" xlink:href="#an"/>
     <use transform="translate(1112.8)" xlink:href="#af"/>
     <use transform="translate(1184.4)" xlink:href="#h"/>
     <use transform="translate(1232.2)" xlink:href="#ah"/>
     <use transform="translate(1266.5)" xlink:href="#ag"/>
     <use transform="translate(1370.7)" xlink:href="#am"/>
     <use transform="translate(1438.2)" xlink:href="#j"/>
     <use transform="translate(1472.5)" xlink:href="#DejaVuSans-Bold-20"/>
     <use transform="translate(1507.3)" xlink:href="#aq"/>
     <use transform="translate(1580.7)" xlink:href="#j"/>
     <use transform="translate(1614.9)" xlink:href="#ae"/>
     <use transform="translate(1686.1)" xlink:href="#o"/>
     <use transform="translate(1745.7)" xlink:href="#h"/>
     <use transform="translate(1793.5)" xlink:href="#q"/>
     <use transform="translate(1861.3)" xlink:href="#p"/>
     <use transform="translate(1910.6)" xlink:href="#o"/>
    </g>
   </g>
  </g>
  <g id="eh">
   <g transform="translate(627.77 422.05) scale(.09 -.09)" fill="#808080" opacity=".7">
    <defs>
     <path id="at" transform="scale(.015625)" d="m2906 1791q0 625-258 968-257 344-723 344-462 0-720-344-258-343-258-968 0-622 258-966t720-344q466 0 723 344 258 344 258 966zm575-1357q0-893-397-1329-396-436-1215-436-303 0-572 45t-522 139v559q253-137 500-202 247-66 503-66 566 0 847 295t281 892v285q-178-310-456-463t-666-153q-643 0-1037 490-394 491-394 1301 0 812 394 1302 394 491 1037 491 388 0 666-153t456-462v531h575v-3066z"/>
     <path id="as" transform="scale(.015625)" d="m3513 2113v-2113h-575v2094q0 497-194 743-194 247-581 247-466 0-735-297-269-296-269-809v-1978h-578v4863h578v-1907q207 316 486 472 280 156 646 156 603 0 912-373 310-373 310-1098z"/>
     <path id="bk" transform="scale(.015625)" d="m684 794h660v-794h-660v794z"/>
     <path id="bj" transform="scale(.015625)" d="m1625 4666h531l-1625-5260h-531l1625 5260z"/>
     <path id="bd" transform="scale(.015625)" d="m1259 2228v-1709h1013q509 0 754 211 246 211 246 645 0 438-246 645-245 208-754 208h-1013zm0 1919v-1406h935q462 0 688 173 227 174 227 530 0 353-227 528-226 175-688 175h-935zm-631 519h1613q722 0 1112-300 391-300 391-853 0-429-200-682t-588-315q466-100 724-418 258-317 258-792 0-625-425-966-425-340-1210-340h-1675v4666z"/>
     <path id="ba" transform="scale(.015625)" d="m628 4666h941l1190-3175 1197 3175h941v-4666h-616v4097l-1203-3200h-634l-1203 3200v-4097h-613v4666z"/>
     <path id="ay" transform="scale(.015625)" d="m2522 4238q-688 0-1093-513-404-512-404-1397 0-881 404-1394 405-512 1093-512 687 0 1089 512 402 513 402 1394 0 885-402 1397-402 513-1089 513zm0 512q981 0 1568-658 588-658 588-1764 0-1103-588-1761-587-658-1568-658-984 0-1574 656-589 657-589 1763t589 1764q590 658 1574 658z"/>
    </defs>
    <use xlink:href="#at"/>
    <use transform="translate(63.477)" xlink:href="#m"/>
    <use transform="translate(91.26)" xlink:href="#g"/>
    <use transform="translate(130.47)" xlink:href="#as"/>
    <use transform="translate(193.85)" xlink:href="#k"/>
    <use transform="translate(257.23)" xlink:href="#x"/>
    <use transform="translate(320.7)" xlink:href="#bk"/>
    <use transform="translate(352.49)" xlink:href="#w"/>
    <use transform="translate(407.47)" xlink:href="#s"/>
    <use transform="translate(468.65)" xlink:href="#t"/>
    <use transform="translate(566.06)" xlink:href="#bj"/>
    <use transform="translate(599.76)" xlink:href="#bd"/>
    <use transform="translate(668.36)" xlink:href="#ba"/>
    <use transform="translate(754.64)" xlink:href="#ay"/>
    <use transform="translate(833.35)" xlink:href="#m"/>
    <use transform="translate(861.13)" xlink:href="#g"/>
   </g>
  </g>
 </g>
 <defs>
  <clipPath id="b">
   <rect x="61.626" y="32.838" width="643.57" height="351.64"/>
  </clipPath>
 </defs>
 <metadata>
  <rdf:RDF>
   <cc:Work>
    <dc:title>Elbow Method for Optimal Clusters</dc:title>
    <dc:creator>github.com/BMOit</dc:creator>
    <dc:rights>github.com/BMOit</dc:rights>
    <dc:source>UIDAI Data Hackathon 2026</dc:source>
   </cc:Work>
  </rdf:RDF>
 </metadata>
</svg>
