<?xml version="1.0" encoding="UTF-8"?>
<svg width="858.62pt" height="573.68pt" version="1.1" viewBox="0 0 858.62 573.68" xmlns="http://www.w3.org/2000/svg" xmlns:cc="http://creativecommons.org/ns#" xmlns:dc="http://purl.org/dc/elements/1.1/" xmlns:rdf="http://www.w3.org/1999/02/22-rdf-syntax-ns#" xmlns:xlink="http://www.w3.org/1999/xlink">
 <title>Engagement Type by Cluster</title>
 <desc>Chart by github.com/BMOit</desc>
 <metadata>
  <rdf:RDF>
   <cc:Work>
    <dc:type rdf:resource="http://purl.org/dc/dcmitype/StillImage"/>
    <dc:date>2026-01-20T17:31:23.982271</dc:date>
    <dc:format>image/svg+xml</dc:format>
    <dc:creator>
     <cc:Agent>
      <dc:title>Matplotlib v3.10.8, https://matplotlib.org/</dc:title>
     </cc:Agent>
    </dc:creator>
   </cc:Work>
  </rdf:RDF>
 </metadata>
 <defs>
  <style type="text/css">*{stroke-linejoin: round; stroke-linecap: butt}</style>
 </defs>
 <g id="be">
  <g id="bf">
   <path d="m0 573.68h858.62v-573.68h-858.62z" fill="#fff"/>
  </g>
  <g id="bg">
   <g id="bh">
    <path d="m45.717 528.48h803.54v-495.64h-803.54z" fill="#fff"/>
   </g>
   <g id="bi">
    <path d="m82.242 528.48h38.447v-196.56h-38.447z" clip-path="url(#a)" fill="#1f77b4"/>
   </g>
   <g id="bj">
    <path d="m236.03 528.48h38.447v-123.05h-38.447z" clip-path="url(#a)" fill="#1f77b4"/>
   </g>
   <g id="bk">
    <path d="m389.82 528.48h38.447v-233.64h-38.447z" clip-path="url(#a)" fill="#1f77b4"/>
   </g>
   <g id="bl">
    <path d="m543.61 528.48h38.447v-171.77h-38.447z" clip-path="url(#a)" fill="#1f77b4"/>
   </g>
   <g id="bm">
    <path d="m697.4 528.48h38.447v-125.89h-38.447z" clip-path="url(#a)" fill="#1f77b4"/>
   </g>
   <g id="bn">
    <path d="m120.69 528.48h38.447v-231.86h-38.447z" clip-path="url(#a)" fill="#ff7f0e"/>
   </g>
   <g id="bo">
    <path d="m274.48 528.48h38.447v-312.38h-38.447z" clip-path="url(#a)" fill="#ff7f0e"/>
   </g>
   <g id="bp">
    <path d="m428.27 528.48h38.447v-194.29h-38.447z" clip-path="url(#a)" fill="#ff7f0e"/>
   </g>
   <g id="bq">
    <path d="m582.05 528.48h38.447v-261.11h-38.447z" clip-path="url(#a)" fill="#ff7f0e"/>
   </g>
   <g id="br">
    <path d="m735.84 528.48h38.447v-104.06h-38.447z" clip-path="url(#a)" fill="#ff7f0e"/>
   </g>
   <g id="bs">
    <path d="m159.14 528.48h38.447v-22.169h-38.447z" clip-path="url(#a)" fill="#2ca02c"/>
   </g>
   <g id="bt">
    <path d="m312.92 528.48h38.447v-15.156h-38.447z" clip-path="url(#a)" fill="#2ca02c"/>
   </g>
   <g id="bu">
    <path d="m466.71 528.48h38.447v-22.645h-38.447z" clip-path="url(#a)" fill="#2ca02c"/>
   </g>
   <g id="bv">
    <path d="m620.5 528.48h38.447v-17.702h-38.447z" clip-path="url(#a)" fill="#2ca02c"/>
   </g>
   <g id="bw">
    <path d="m774.29 528.48h38.447v-220.64h-38.447z" clip-path="url(#a)" fill="#2ca02c"/>
   </g>
   <g id="bx">
    <g id="by">
     <g id="bz">
      <defs>
       <path id="h" d="m0 0v3.5" stroke="#000" stroke-width=".8"/>
      </defs>
      <use x="139.912342" y="528.477812" stroke="#000000" stroke-width=".8" xlink:href="#h"/>
     </g>
     <g id="ca">
      <g transform="translate(136.73 543.08) scale(.1 -.1)">
       <defs>
        <path id="c" transform="scale(.015625)" d="m2034 4250q-487 0-733-480-245-479-245-1442 0-959 245-1439 246-480 733-480 491 0 736 480 246 480 246 1439 0 963-246 1442-245 480-736 480zm0 500q785 0 1199-621 414-620 414-1801 0-1178-414-1799-414-620-1199-620-784 0-1198 620-414 621-414 1799 0 1181 414 1801 414 621 1198 621z"/>
       </defs>
       <use xlink:href="#c"/>
      </g>
     </g>
    </g>
    <g id="cb">
     <g id="cc">
      <use x="293.700858" y="528.477812" stroke="#000000" stroke-width=".8" xlink:href="#h"/>
     </g>
     <g id="cd">
      <g transform="translate(290.52 543.08) scale(.1 -.1)">
       <defs>
        <path id="ad" transform="scale(.015625)" d="m794 531h1031v3560l-1122-225v575l1116 225h631v-4135h1031v-531h-2687v531z"/>
       </defs>
       <use xlink:href="#ad"/>
      </g>
     </g>
    </g>
    <g id="ce">
     <g id="cf">
      <use x="447.489375" y="528.477812" stroke="#000000" stroke-width=".8" xlink:href="#h"/>
     </g>
     <g id="cg">
      <g transform="translate(444.31 543.08) scale(.1 -.1)">
       <defs>
        <path id="ac" transform="scale(.015625)" d="m1228 531h2203v-531h-2962v531q359 372 979 998 621 627 780 809 303 340 423 576 121 236 121 464 0 372-261 606-261 235-680 235-297 0-627-103-329-103-704-313v638q381 153 712 231 332 78 607 78 725 0 1156-363 431-362 431-968 0-288-108-546-107-257-392-607-78-91-497-524-418-433-1181-1211z"/>
       </defs>
       <use xlink:href="#ac"/>
      </g>
     </g>
    </g>
    <g id="ch">
     <g id="ci">
      <use x="601.277892" y="528.477812" stroke="#000000" stroke-width=".8" xlink:href="#h"/>
     </g>
     <g id="cj">
      <g transform="translate(598.1 543.08) scale(.1 -.1)">
       <defs>
        <path id="bc" transform="scale(.015625)" d="m2597 2516q453-97 707-404 255-306 255-756 0-690-475-1069-475-378-1350-378-293 0-604 58t-642 174v609q262-153 574-231 313-78 654-78 593 0 904 234t311 681q0 413-289 645-289 233-804 233h-544v519h569q465 0 712 186t247 536q0 359-255 551-254 193-729 193-260 0-557-57-297-56-653-174v562q360 100 674 150t592 50q719 0 1137-327 419-326 419-882 0-388-222-655t-631-370z"/>
       </defs>
       <use xlink:href="#bc"/>
      </g>
     </g>
    </g>
    <g id="ck">
     <g id="cl">
      <use x="755.066408" y="528.477812" stroke="#000000" stroke-width=".8" xlink:href="#h"/>
     </g>
     <g id="cm">
      <g transform="translate(751.89 543.08) scale(.1 -.1)">
       <defs>
        <path id="ab" transform="scale(.015625)" d="m2419 4116-1594-2491h1594v2491zm-166 550h794v-3041h666v-525h-666v-1100h-628v1100h-2106v609l1940 2957z"/>
       </defs>
       <use xlink:href="#ab"/>
      </g>
     </g>
    </g>
    <g id="cn">
     <g transform="translate(417.9 558.27) scale(.12 -.12)">
      <defs>
       <path id="ay" transform="scale(.015625)" d="m4122 4306v-665q-319 297-680 443-361 147-767 147-800 0-1225-489t-425-1414q0-922 425-1411t1225-489q406 0 767 147t680 444v-660q-331-225-702-338-370-112-782-112-1060 0-1670 648-609 649-609 1771 0 1125 609 1773 610 649 1670 649 418 0 788-111 371-111 696-333z"/>
       <path id="p" transform="scale(.015625)" d="m603 4863h575v-4863h-575v4863z"/>
       <path id="v" transform="scale(.015625)" d="m544 1381v2119h575v-2097q0-497 193-746 194-248 582-248 465 0 735 297 271 297 271 810v1984h575v-3500h-575v538q-209-319-486-474-276-155-642-155-603 0-916 375-312 375-312 1097zm1447 2203z"/>
       <path id="ar" transform="scale(.015625)" d="m2834 3397v-544q-243 125-506 187-262 63-544 63-428 0-642-131t-214-394q0-200 153-314t616-217l197-44q612-131 870-370t258-667q0-488-386-773-386-284-1061-284-281 0-586 55t-642 164v594q319-166 628-249 309-82 613-82 406 0 624 139 219 139 219 392 0 234-158 359-157 125-692 241l-200 47q-534 112-772 345-237 233-237 639 0 494 350 762 350 269 994 269 318 0 599-47 282-46 519-140z"/>
       <path id="d" transform="scale(.015625)" d="m1172 4494v-994h1184v-447h-1184v-1900q0-428 117-550t477-122h590v-481h-590q-666 0-919 248-253 249-253 905v1900h-422v447h422v994h578z"/>
       <path id="b" transform="scale(.015625)" d="m3597 1894v-281h-2644q38-594 358-905t892-311q331 0 642 81t618 244v-544q-310-131-635-200t-659-69q-838 0-1327 487-489 488-489 1320 0 859 464 1363 464 505 1252 505 706 0 1117-455 411-454 411-1235zm-575 169q-6 471-264 752-258 282-683 282-481 0-770-272t-333-766l2050 4z"/>
       <path id="i" transform="scale(.015625)" d="m2631 2963q-97 56-211 82-114 27-251 27-488 0-749-317t-261-911v-1844h-578v3500h578v-544q182 319 472 473 291 155 707 155 59 0 131-8 72-7 159-23l3-590z"/>
       <path id="ax" transform="scale(.015625)" d="m628 4666h631v-4666h-631v4666z"/>
       <path id="z" transform="scale(.015625)" d="m1259 4147v-3628h763q966 0 1414 437 448 438 448 1382 0 937-448 1373t-1414 436h-763zm-631 519h1297q1356 0 1990-564 635-564 635-1764 0-1207-638-1773-637-565-1987-565h-1297v4666z"/>
      </defs>
      <use xlink:href="#ay"/>
      <use transform="translate(69.824)" xlink:href="#p"/>
      <use transform="translate(97.607)" xlink:href="#v"/>
      <use transform="translate(160.99)" xlink:href="#ar"/>
      <use transform="translate(213.09)" xlink:href="#d"/>
      <use transform="translate(252.29)" xlink:href="#b"/>
      <use transform="translate(313.82)" xlink:href="#i"/>
      <use transform="translate(354.93)" xlink:href="#DejaVuSans-20"/>
      <use transform="translate(386.72)" xlink:href="#ax"/>
      <use transform="translate(416.21)" xlink:href="#z"/>
     </g>
    </g>
   </g>
   <g id="co">
    <g id="cp">
     <g id="cq">
      <path d="m45.717 528.48h803.54" clip-path="url(#a)" fill="none" stroke="#b0b0b0" stroke-linecap="square" stroke-opacity=".3" stroke-width=".8"/>
     </g>
     <g id="cr">
      <defs>
       <path id="f" d="m0 0h-3.5" stroke="#000" stroke-width=".8"/>
      </defs>
      <use x="45.716875" y="528.477812" stroke="#000000" stroke-width=".8" xlink:href="#f"/>
     </g>
     <g id="cs">
      <g transform="translate(22.814 532.28) scale(.1 -.1)">
       <defs>
        <path id="e" transform="scale(.015625)" d="m684 794h660v-794h-660v794z"/>
       </defs>
       <use xlink:href="#c"/>
       <use transform="translate(63.623)" xlink:href="#e"/>
       <use transform="translate(95.41)" xlink:href="#c"/>
      </g>
     </g>
    </g>
    <g id="ct">
     <g id="cu">
      <path d="m45.717 438.36h803.54" clip-path="url(#a)" fill="none" stroke="#b0b0b0" stroke-linecap="square" stroke-opacity=".3" stroke-width=".8"/>
     </g>
     <g id="cv">
      <use x="45.716875" y="438.361449" stroke="#000000" stroke-width=".8" xlink:href="#f"/>
     </g>
     <g id="cw">
      <g transform="translate(22.814 442.16) scale(.1 -.1)">
       <use xlink:href="#c"/>
       <use transform="translate(63.623)" xlink:href="#e"/>
       <use transform="translate(95.41)" xlink:href="#ac"/>
      </g>
     </g>
    </g>
    <g id="cx">
     <g id="cy">
      <path d="m45.717 348.25h803.54" clip-path="url(#a)" fill="none" stroke="#b0b0b0" stroke-linecap="square" stroke-opacity=".3" stroke-width=".8"/>
     </g>
     <g id="cz">
      <use x="45.716875" y="348.245085" stroke="#000000" stroke-width=".8" xlink:href="#f"/>
     </g>
     <g id="da">
      <g transform="translate(22.814 352.04) scale(.1 -.1)">
       <use xlink:href="#c"/>
       <use transform="translate(63.623)" xlink:href="#e"/>
       <use transform="translate(95.41)" xlink:href="#ab"/>
      </g>
     </g>
    </g>
    <g id="db">
     <g id="dc">
      <path d="m45.717 258.13h803.54" clip-path="url(#a)" fill="none" stroke="#b0b0b0" stroke-linecap="square" stroke-opacity=".3" stroke-width=".8"/>
     </g>
     <g id="dd">
      <use x="45.716875" y="258.128722" stroke="#000000" stroke-width=".8" xlink:href="#f"/>
     </g>
     <g id="de">
      <g transform="translate(22.814 261.93) scale(.1 -.1)">
       <defs>
        <path id="bb" transform="scale(.015625)" d="m2113 2584q-425 0-674-291-248-290-248-796 0-503 248-796 249-292 674-292t673 292q248 293 248 796 0 506-248 796-248 291-673 291zm1253 1979v-575q-238 112-480 171-242 60-480 60-625 0-955-422-329-422-376-1275 184 272 462 417 279 145 613 145 703 0 1111-427 408-426 408-1160 0-719-425-1154-425-434-1131-434-810 0-1238 620-428 621-428 1799 0 1106 525 1764t1409 658q238 0 480-47t505-140z"/>
       </defs>
       <use xlink:href="#c"/>
       <use transform="translate(63.623)" xlink:href="#e"/>
       <use transform="translate(95.41)" xlink:href="#bb"/>
      </g>
     </g>
    </g>
    <g id="df">
     <g id="dg">
      <path d="m45.717 168.01h803.54" clip-path="url(#a)" fill="none" stroke="#b0b0b0" stroke-linecap="square" stroke-opacity=".3" stroke-width=".8"/>
     </g>
     <g id="dh">
      <use x="45.716875" y="168.012358" stroke="#000000" stroke-width=".8" xlink:href="#f"/>
     </g>
     <g id="di">
      <g transform="translate(22.814 171.81) scale(.1 -.1)">
       <defs>
        <path id="ba" transform="scale(.015625)" d="m2034 2216q-450 0-708-241-257-241-257-662 0-422 257-663 258-241 708-241t709 242q260 243 260 662 0 421-258 662-257 241-711 241zm-631 268q-406 100-633 378-226 279-226 679 0 559 398 884 399 325 1092 325 697 0 1094-325t397-884q0-400-227-679-226-278-629-378 456-106 710-416 255-309 255-755 0-679-414-1042-414-362-1186-362-771 0-1186 362-414 363-414 1042 0 446 256 755 257 310 713 416zm-231 997q0-362 226-565 227-203 636-203 407 0 636 203 230 203 230 565 0 363-230 566-229 203-636 203-409 0-636-203-226-203-226-566z"/>
       </defs>
       <use xlink:href="#c"/>
       <use transform="translate(63.623)" xlink:href="#e"/>
       <use transform="translate(95.41)" xlink:href="#ba"/>
      </g>
     </g>
    </g>
    <g id="dj">
     <g id="dk">
      <path d="m45.717 77.896h803.54" clip-path="url(#a)" fill="none" stroke="#b0b0b0" stroke-linecap="square" stroke-opacity=".3" stroke-width=".8"/>
     </g>
     <g id="dl">
      <use x="45.716875" y="77.895994" stroke="#000000" stroke-width=".8" xlink:href="#f"/>
     </g>
     <g id="dm">
      <g transform="translate(22.814 81.695) scale(.1 -.1)">
       <use xlink:href="#ad"/>
       <use transform="translate(63.623)" xlink:href="#e"/>
       <use transform="translate(95.41)" xlink:href="#c"/>
      </g>
     </g>
    </g>
    <g id="dn">
     <g transform="translate(16.318 322.61) rotate(-90) scale(.12 -.12)">
      <defs>
       <path id="az" transform="scale(.015625)" d="m2188 4044-857-2322h1716l-859 2322zm-357 622h716l1778-4666h-656l-425 1197h-2103l-425-1197h-666l1781 4666z"/>
       <path id="aq" transform="scale(.015625)" d="m191 3500h609l1094-2937 1094 2937h609l-1313-3500h-781l-1312 3500z"/>
       <path id="o" transform="scale(.015625)" d="m2194 1759q-697 0-966-159t-269-544q0-306 202-486 202-179 548-179 479 0 768 339t289 901v128h-572zm1147 238v-1997h-575v531q-197-318-491-470t-719-152q-537 0-855 302-317 302-317 808 0 590 395 890 396 300 1180 300h807v57q0 397-261 614t-733 217q-300 0-585-72-284-72-546-216v532q315 122 612 182 297 61 578 61 760 0 1135-394 375-393 375-1193z"/>
       <path id="l" transform="scale(.015625)" d="m2906 1791q0 625-258 968-257 344-723 344-462 0-720-344-258-343-258-968 0-622 258-966t720-344q466 0 723 344 258 344 258 966zm575-1357q0-893-397-1329-396-436-1215-436-303 0-572 45t-522 139v559q253-137 500-202 247-66 503-66 566 0 847 295t281 892v285q-178-310-456-463t-666-153q-643 0-1037 490-394 491-394 1301 0 812 394 1302 394 491 1037 491 388 0 666-153t456-462v531h575v-3066z"/>
       <path id="au" transform="scale(.015625)" d="m2841 2188q203-69 395-294t386-619l641-1275h-679l-596 1197q-232 469-449 622t-592 153h-688v-1972h-631v4666h1425q800 0 1194-335 394-334 394-1009 0-441-205-732-205-290-595-402zm-1582 1959v-1656h794q456 0 689 211t233 620-233 617-689 208h-794z"/>
       <path id="g" transform="scale(.015625)" d="m603 3500h575v-3500h-575v3500zm0 1363h575v-729h-575v729z"/>
       <path id="j" transform="scale(.015625)" d="m1959 3097q-462 0-731-361t-269-989 267-989q268-361 733-361 460 0 728 362 269 363 269 988 0 622-269 986-268 364-728 364zm0 487q750 0 1178-488 429-487 429-1349 0-859-429-1349-428-489-1178-489-753 0-1180 489-426 490-426 1349 0 862 426 1349 427 488 1180 488z"/>
      </defs>
      <use xlink:href="#az"/>
      <use transform="translate(62.533)" xlink:href="#aq"/>
      <use transform="translate(121.71)" xlink:href="#b"/>
      <use transform="translate(183.24)" xlink:href="#i"/>
      <use transform="translate(224.35)" xlink:href="#o"/>
      <use transform="translate(285.63)" xlink:href="#l"/>
      <use transform="translate(349.11)" xlink:href="#b"/>
      <use transform="translate(410.63)" xlink:href="#DejaVuSans-20"/>
      <use transform="translate(442.42)" xlink:href="#au"/>
      <use transform="translate(509.65)" xlink:href="#o"/>
      <use transform="translate(570.93)" xlink:href="#d"/>
      <use transform="translate(610.14)" xlink:href="#g"/>
      <use transform="translate(637.92)" xlink:href="#j"/>
     </g>
    </g>
   </g>
   <g id="do">
    <path d="m45.717 528.48v-495.64" fill="none" stroke="#000" stroke-linecap="square" stroke-width=".8"/>
   </g>
   <g id="dp">
    <path d="m45.717 528.48h803.54" fill="none" stroke="#000" stroke-linecap="square" stroke-width=".8"/>
   </g>
   <g id="dq">
    <g transform="translate(334.48 17.838) scale(.14 -.14)">
     <defs>
      <path id="an" transform="scale(.015625)" d="m588 4666h3246v-910h-2043v-868h1922v-910h-1922v-1069h2112v-909h-3315v4666z"/>
      <path id="t" transform="scale(.015625)" d="m4056 2131v-2131h-1125v347 1284q0 453-20 625t-70 253q-66 110-179 171-112 61-256 61-350 0-550-271-200-270-200-748v-1722h-1118v3500h1118v-512q253 306 537 451 285 145 629 145 606 0 920-372 314-371 314-1081z"/>
      <path id="u" transform="scale(.015625)" d="m2919 594q-231-306-510-450-278-144-643-144-641 0-1060 504-418 505-418 1287 0 784 418 1285 419 502 1060 502 365 0 643-144 279-143 510-453v519h1125v-3147q0-844-533-1289t-1545-445q-328 0-635 50-306 50-615 153v872q293-169 574-252 282-83 566-83 550 0 806 241 257 241 257 753v241zm-738 2178q-347 0-541-257-193-256-193-724 0-482 187-730 188-248 547-248 350 0 544 256t194 722q0 468-194 724-194 257-544 257z"/>
      <path id="al" transform="scale(.015625)" d="m2106 1575q-350 0-527-119-176-118-176-350 0-212 142-333 143-120 396-120 315 0 531 226 216 227 216 568v128h-582zm1710 422v-1997h-1128v519q-225-319-507-465-281-145-684-145-544 0-883 317-339 318-339 824 0 616 423 903 424 288 1330 288h660v87q0 266-210 389-209 124-653 124-359 0-669-72-309-72-575-216v853q360 88 722 133 363 45 725 45 947 0 1367-373 421-373 421-1214z"/>
      <path id="m" transform="scale(.015625)" d="m4031 1759v-318h-2615q40-394 284-591t681-197q353 0 723 105 371 105 762 317v-862q-397-150-794-227t-794-77q-950 0-1477 483-526 483-526 1355 0 856 517 1346 517 491 1424 491 825 0 1320-497 495-496 495-1328zm-1150 372q0 319-186 514-186 196-486 196-325 0-528-183t-253-527h1453z"/>
      <path id="ai" transform="scale(.015625)" d="m3781 2919q213 325 505 495t642 170q603 0 919-372 316-371 316-1081v-2131h-1125v1825q3 41 4 84 2 44 2 125 0 372-110 539-109 168-353 168-318 0-492-263-173-262-180-759v-1719h-1125v1825q0 581-100 748-100 168-356 168-322 0-497-264t-175-755v-1722h-1125v3500h1125v-512q207 296 474 446t589 150q362 0 640-175 279-175 422-490z"/>
      <path id="s" transform="scale(.015625)" d="m1759 4494v-994h1154v-800h-1154v-1484q0-244 97-330t385-86h575v-800h-960q-662 0-939 276-276 277-276 940v1484h-557v800h557v994h1118z"/>
      <path id="am" transform="scale(.015625)" d="m31 4666h4300v-910h-1547v-3756h-1203v3756h-1550v910z"/>
      <path id="r" transform="scale(.015625)" d="m78 3500h1119l941-2375 800 2375h1118l-1472-3831q-221-585-517-817-295-233-779-233h-647v734h350q284 0 413 91 130 90 202 325l32 97-1560 3634z"/>
      <path id="ah" transform="scale(.015625)" d="m1656 506v-1837h-1118v4831h1118v-512q232 306 513 451t647 145q647 0 1062-514 416-514 416-1323t-416-1324q-415-514-1062-514-366 0-647 145-281 146-513 452zm744 2266q-359 0-552-264-192-264-192-761t192-761q193-264 552-264t548 262q190 263 190 763t-190 762q-189 263-548 263z"/>
      <path id="ak" transform="scale(.015625)" d="m2400 722q359 0 548 262 190 263 190 763t-190 762q-189 263-548 263t-552-264q-192-264-192-761t192-761q193-264 552-264zm-744 2266q232 306 513 451t647 145q647 0 1062-514 416-514 416-1323t-416-1324q-415-514-1062-514-366 0-647 145-281 146-513 452v-506h-1118v4863h1118v-1875z"/>
      <path id="ao" transform="scale(.015625)" d="m4288 256q-332-172-691-259-359-88-750-88-1166 0-1847 652t-681 1767q0 1119 681 1770 681 652 1847 652 391 0 750-88 359-87 691-259v-965q-335 228-660 334t-684 106q-644 0-1013-413-368-412-368-1137 0-722 368-1135 369-412 1013-412 359 0 684 106 325 107 660 335v-966z"/>
      <path id="aj" transform="scale(.015625)" d="m538 4863h1118v-4863h-1118v4863z"/>
      <path id="ae" transform="scale(.015625)" d="m500 1363v2137h1125v-350q0-284-3-714t-3-573q0-422 22-608t75-271q68-109 179-169 111-59 255-59 350 0 550 269t200 747v1728h1119v-3500h-1119v506q-253-306-536-452-283-145-623-145-607 0-924 372t-317 1082z"/>
      <path id="af" transform="scale(.015625)" d="m3272 3391v-850q-359 150-694 225-334 75-631 75-319 0-474-80-154-80-154-245 0-135 117-207 117-71 420-106l197-28q860-109 1156-359 297-250 297-785 0-559-413-841-412-281-1230-281-347 0-718 55-370 55-761 164v850q335-162 686-244 352-81 714-81 329 0 494 90 166 91 166 270 0 150-114 223t-455 114l-197 25q-747 94-1047 347t-300 769q0 556 381 824 382 269 1169 269 310 0 650-47 341-46 741-146z"/>
      <path id="ag" transform="scale(.015625)" d="m3138 2547q-147 69-293 101-145 33-292 33-431 0-664-277-233-276-233-791v-1613h-1118v3500h1118v-575q216 344 495 501 280 158 671 158 56 0 121-5 66-4 191-20l4-1012z"/>
     </defs>
     <use xlink:href="#an"/>
     <use transform="translate(68.311)" xlink:href="#t"/>
     <use transform="translate(139.5)" xlink:href="#u"/>
     <use transform="translate(211.08)" xlink:href="#al"/>
     <use transform="translate(278.56)" xlink:href="#u"/>
     <use transform="translate(350.15)" xlink:href="#m"/>
     <use transform="translate(417.97)" xlink:href="#ai"/>
     <use transform="translate(522.17)" xlink:href="#m"/>
     <use transform="translate(589.99)" xlink:href="#t"/>
     <use transform="translate(661.18)" xlink:href="#s"/>
     <use transform="translate(708.98)" xlink:href="#DejaVuSans-Bold-20"/>
     <use transform="translate(743.8)" xlink:href="#am"/>
     <use transform="translate(800.14)" xlink:href="#r"/>
     <use transform="translate(865.32)" xlink:href="#ah"/>
     <use transform="translate(936.9)" xlink:href="#m"/>
     <use transform="translate(1004.7)" xlink:href="#DejaVuSans-Bold-20"/>
     <use transform="translate(1039.5)" xlink:href="#ak"/>
     <use transform="translate(1111.1)" xlink:href="#r"/>
     <use transform="translate(1176.3)" xlink:href="#DejaVuSans-Bold-20"/>
     <use transform="translate(1211.1)" xlink:href="#ao"/>
     <use transform="translate(1284.5)" xlink:href="#aj"/>
     <use transform="translate(1318.8)" xlink:href="#ae"/>
     <use transform="translate(1390)" xlink:href="#af"/>
     <use transform="translate(1449.5)" xlink:href="#s"/>
     <use transform="translate(1497.3)" xlink:href="#m"/>
     <use transform="translate(1565.1)" xlink:href="#ag"/>
    </g>
   </g>
   <g id="dr">
    <g id="ds">
     <path d="m743 99.55h99.262q2 0 2-2v-57.712q0-2-2-2h-99.262q-2 0-2 2v57.712q0 2 2 2z" fill="#fff" opacity=".8" stroke="#ccc"/>
    </g>
    <g id="dt">
     <g transform="translate(747.67 49.436) scale(.1 -.1)">
      <defs>
       <path id="y" transform="scale(.015625)" d="m628 4666h2950v-532h-2319v-1381h2222v-531h-2222v-1691h2375v-531h-3006v4666z"/>
       <path id="n" transform="scale(.015625)" d="m3513 2113v-2113h-575v2094q0 497-194 743-194 247-581 247-466 0-735-297-269-296-269-809v-1978h-578v3500h578v-544q207 316 486 472 280 156 646 156 603 0 912-373 310-373 310-1098z"/>
       <path id="k" transform="scale(.015625)" d="m3328 2828q216 388 516 572t706 184q547 0 844-383 297-382 297-1088v-2113h-578v2094q0 503-179 746-178 244-543 244-447 0-707-297-259-296-259-809v-1978h-578v2094q0 506-178 748t-550 242q-441 0-701-298-259-298-259-808v-1978h-578v3500h578v-544q197 322 472 475t653 153q382 0 649-194 267-193 395-562z"/>
       <path id="at" transform="scale(.015625)" d="m-19 4666h3947v-532h-1656v-4134h-634v4134h-1657v532z"/>
       <path id="ap" transform="scale(.015625)" d="m2059-325q-243-625-475-815-231-191-618-191h-460v481h338q237 0 368 113 132 112 291 531l103 262-1415 3444h609l1094-2737 1094 2737h609l-1538-3825z"/>
       <path id="w" transform="scale(.015625)" d="m1159 525v-1856h-578v4831h578v-531q182 312 458 463 277 152 661 152 638 0 1036-506 399-506 399-1331t-399-1332q-398-506-1036-506-384 0-661 152-276 152-458 464zm1957 1222q0 634-261 995t-717 361q-457 0-718-361t-261-995 261-995 718-361q456 0 717 361t261 995z"/>
      </defs>
      <use xlink:href="#y"/>
      <use transform="translate(63.184)" xlink:href="#n"/>
      <use transform="translate(126.56)" xlink:href="#l"/>
      <use transform="translate(190.04)" xlink:href="#o"/>
      <use transform="translate(251.32)" xlink:href="#l"/>
      <use transform="translate(314.79)" xlink:href="#b"/>
      <use transform="translate(376.32)" xlink:href="#k"/>
      <use transform="translate(473.73)" xlink:href="#b"/>
      <use transform="translate(535.25)" xlink:href="#n"/>
      <use transform="translate(598.63)" xlink:href="#d"/>
      <use transform="translate(637.84)" xlink:href="#DejaVuSans-20"/>
      <use transform="translate(669.63)" xlink:href="#at"/>
      <use transform="translate(715.09)" xlink:href="#ap"/>
      <use transform="translate(774.27)" xlink:href="#w"/>
      <use transform="translate(837.74)" xlink:href="#b"/>
     </g>
    </g>
    <g id="du">
     <path d="m745 64.114h20v-7h-20z" fill="#1f77b4"/>
    </g>
    <g id="dv">
     <g transform="translate(773 64.114) scale(.1 -.1)">
      <defs>
       <path id="x" transform="scale(.015625)" d="m3513 2113v-2113h-575v2094q0 497-194 743-194 247-581 247-466 0-735-297-269-296-269-809v-1978h-578v4863h578v-1907q207 316 486 472 280 156 646 156 603 0 912-373 310-373 310-1098z"/>
       <path id="q" transform="scale(.015625)" d="m3122 3366v-538q-244 135-489 202t-495 67q-560 0-870-355-309-354-309-995t309-996q310-354 870-354 250 0 495 67t489 202v-532q-241-112-499-168-257-57-548-57-791 0-1257 497-465 497-465 1341 0 856 470 1346 471 491 1290 491 265 0 518-55 253-54 491-163z"/>
      </defs>
      <use xlink:href="#z"/>
      <use transform="translate(77.002)" xlink:href="#b"/>
      <use transform="translate(138.53)" xlink:href="#k"/>
      <use transform="translate(235.94)" xlink:href="#j"/>
      <use transform="translate(297.12)" xlink:href="#l"/>
      <use transform="translate(360.6)" xlink:href="#i"/>
      <use transform="translate(401.71)" xlink:href="#o"/>
      <use transform="translate(462.99)" xlink:href="#w"/>
      <use transform="translate(526.46)" xlink:href="#x"/>
      <use transform="translate(589.84)" xlink:href="#g"/>
      <use transform="translate(617.63)" xlink:href="#q"/>
     </g>
    </g>
    <g id="dw">
     <path d="m745 78.792h20v-7h-20z" fill="#ff7f0e"/>
    </g>
    <g id="dx">
     <g transform="translate(773 78.792) scale(.1 -.1)">
      <defs>
       <path id="aa" transform="scale(.015625)" d="m1259 2228v-1709h1013q509 0 754 211 246 211 246 645 0 438-246 645-245 208-754 208h-1013zm0 1919v-1406h935q462 0 688 173 227 174 227 530 0 353-227 528-226 175-688 175h-935zm-631 519h1613q722 0 1112-300 391-300 391-853 0-429-200-682t-588-315q466-100 724-418 258-317 258-792 0-625-425-966-425-340-1210-340h-1675v4666z"/>
      </defs>
      <use xlink:href="#aa"/>
      <use transform="translate(68.604)" xlink:href="#g"/>
      <use transform="translate(96.387)" xlink:href="#j"/>
      <use transform="translate(157.57)" xlink:href="#k"/>
      <use transform="translate(254.98)" xlink:href="#b"/>
      <use transform="translate(316.5)" xlink:href="#d"/>
      <use transform="translate(355.71)" xlink:href="#i"/>
      <use transform="translate(396.83)" xlink:href="#g"/>
      <use transform="translate(424.61)" xlink:href="#q"/>
     </g>
    </g>
    <g id="dy">
     <path d="m745 93.471h20v-7h-20z" fill="#2ca02c"/>
    </g>
    <g id="dz">
     <g transform="translate(773 93.471) scale(.1 -.1)">
      <use xlink:href="#y"/>
      <use transform="translate(63.184)" xlink:href="#n"/>
      <use transform="translate(126.56)" xlink:href="#i"/>
      <use transform="translate(165.43)" xlink:href="#j"/>
      <use transform="translate(226.61)" xlink:href="#p"/>
      <use transform="translate(254.39)" xlink:href="#p"/>
      <use transform="translate(282.17)" xlink:href="#k"/>
      <use transform="translate(379.59)" xlink:href="#b"/>
      <use transform="translate(441.11)" xlink:href="#n"/>
      <use transform="translate(504.49)" xlink:href="#d"/>
     </g>
    </g>
   </g>
  </g>
  <g id="ea">
   <g transform="translate(770.39 564.61) scale(.09 -.09)" fill="#808080" opacity=".7">
    <defs>
     <path id="as" transform="scale(.015625)" d="m3116 1747q0 634-261 995t-717 361q-457 0-718-361t-261-995 261-995 718-361q456 0 717 361t261 995zm-1957 1222q182 312 458 463 277 152 661 152 638 0 1036-506 399-506 399-1331t-399-1332q-398-506-1036-506-384 0-661 152-276 152-458 464v-525h-578v4863h578v-1894z"/>
     <path id="bd" transform="scale(.015625)" d="m1625 4666h531l-1625-5260h-531l1625 5260z"/>
     <path id="aw" transform="scale(.015625)" d="m628 4666h941l1190-3175 1197 3175h941v-4666h-616v4097l-1203-3200h-634l-1203 3200v-4097h-613v4666z"/>
     <path id="av" transform="scale(.015625)" d="m2522 4238q-688 0-1093-513-404-512-404-1397 0-881 404-1394 405-512 1093-512 687 0 1089 512 402 513 402 1394 0 885-402 1397-402 513-1089 513zm0 512q981 0 1568-658 588-658 588-1764 0-1103-588-1761-587-658-1568-658-984 0-1574 656-589 657-589 1763t589 1764q590 658 1574 658z"/>
    </defs>
    <use xlink:href="#l"/>
    <use transform="translate(63.477)" xlink:href="#g"/>
    <use transform="translate(91.26)" xlink:href="#d"/>
    <use transform="translate(130.47)" xlink:href="#x"/>
    <use transform="translate(193.85)" xlink:href="#v"/>
    <use transform="translate(257.23)" xlink:href="#as"/>
    <use transform="translate(320.7)" xlink:href="#e"/>
    <use transform="translate(352.49)" xlink:href="#q"/>
    <use transform="translate(407.47)" xlink:href="#j"/>
    <use transform="translate(468.65)" xlink:href="#k"/>
    <use transform="translate(566.06)" xlink:href="#bd"/>
    <use transform="translate(599.76)" xlink:href="#aa"/>
    <use transform="translate(668.36)" xlink:href="#aw"/>
    <use transform="translate(754.64)" xlink:href="#av"/>
    <use transform="translate(833.35)" xlink:href="#g"/>
    <use transform="translate(861.13)" xlink:href="#d"/>
   </g>
  </g>
 </g>
 <defs>
  <clipPath id="a">
   <rect x="45.717" y="32.838" width="803.54" height="495.64"/>
  </clipPath>
 </defs>
 <metadata>
  <rdf:RDF>
   <cc:Work>
    <dc:title>Engagement Type by Cluster</dc:title>
    <dc:creator>github.com/BMOit</dc:creator>
    <dc:rights>github.com/BMOit</dc:rights>
    <dc:source>UIDAI Data Hackathon 2026</dc:source>
   </cc:Work>
  </rdf:RDF>
 </metadata>
</svg>
