<?xml version="1.0" encoding="UTF-8"?>
<svg width="858.63pt" height="573.68pt" version="1.1" viewBox="0 0 858.63 573.68" xmlns="http://www.w3.org/2000/svg" xmlns:cc="http://creativecommons.org/ns#" xmlns:dc="http://purl.org/dc/elements/1.1/" xmlns:rdf="http://www.w3.org/1999/02/22-rdf-syntax-ns#" xmlns:xlink="http://www.w3.org/1999/xlink">
 <title>Age Group Distribution - Interactions</title>
 <desc>Chart by github.com/BMOit</desc>
 <metadata>
  <rdf:RDF>
   <cc:Work>
    <dc:type rdf:resource="http://purl.org/dc/dcmitype/StillImage"/>
    <dc:date>2026-01-20T17:31:01.150730</dc:date>
    <dc:format>image/svg+xml</dc:format>
    <dc:creator>
     <cc:Agent>
      <dc:title>Matplotlib v3.10.8, https://matplotlib.org/</dc:title>
     </cc:Agent>
    </dc:creator>
   </cc:Work>
  </rdf:RDF>
 </metadata>
 <defs>
  <style type="text/css">*{stroke-linejoin: round; stroke-linecap: butt}</style>
 </defs>
 <g id="bw">
  <g id="bx">
   <path d="m-0 573.68h858.63v-573.68h-858.63z" fill="#fff"/>
  </g>
  <g id="by">
   <g id="bz">
    <path d="m51.167 528.48h798.1v-495.64h-798.1z" fill="#fff"/>
   </g>
   <g id="ca">
    <path d="m87.444 528.48h120.92v-51.668h-120.92z" clip-path="url(#b)" fill="#1f77b4" opacity=".8" stroke="#fff" stroke-width="1.5"/>
   </g>
   <g id="cb">
    <path d="m288.98 528.48h120.92v-472.04h-120.92z" clip-path="url(#b)" fill="#1f77b4" opacity=".8" stroke="#fff" stroke-width="1.5"/>
   </g>
   <g id="cc">
    <path d="m490.52 528.48h120.92v-363.62h-120.92z" clip-path="url(#b)" fill="#ff7f0e" opacity=".8" stroke="#fff" stroke-width="1.5"/>
   </g>
   <g id="cd">
    <path d="m692.07 528.48h120.92v-377.53h-120.92z" clip-path="url(#b)" fill="#ff7f0e" opacity=".8" stroke="#fff" stroke-width="1.5"/>
   </g>
   <g id="ce">
    <g id="cf">
     <g id="cg">
      <defs>
       <path id="p" d="m0 0v3.5" stroke="#000" stroke-width=".8"/>
      </defs>
      <use x="147.906269" y="528.477812" stroke="#000000" stroke-width=".8" xlink:href="#p"/>
     </g>
     <g id="ch">
      <g transform="translate(116.21 543.08) scale(.1 -.1)">
       <defs>
        <path id="av" transform="scale(.015625)" d="m691 4666h2478v-532h-1900v-1143q137 47 274 70 138 23 276 23 781 0 1237-428 457-428 457-1159 0-753-469-1171-469-417-1322-417-294 0-599 50-304 50-629 150v635q281-153 581-228t634-75q541 0 856 284 316 284 316 772 0 487-316 771-315 285-856 285-253 0-505-56-251-56-513-175v2344z"/>
        <path id="aw" transform="scale(.015625)" d="m313 2009h1684v-512h-1684v512z"/>
        <path id="n" transform="scale(.015625)" d="m794 531h1031v3560l-1122-225v575l1116 225h631v-4135h1031v-531h-2687v531z"/>
        <path id="au" transform="scale(.015625)" d="m525 4666h3e3v-269l-1694-4397h-659l1594 4134h-2241v532z"/>
        <path id="y" transform="scale(.015625)" d="m1984 4856q-418-718-622-1422-203-703-203-1425 0-721 205-1429t620-1424h-500q-468 735-701 1444t-233 1409q0 697 231 1403 232 707 703 1444h500z"/>
        <path id="ag" transform="scale(.015625)" d="m1259 4147v-3628h763q966 0 1414 437 448 438 448 1382 0 937-448 1373t-1414 436h-763zm-631 519h1297q1356 0 1990-564 635-564 635-1764 0-1207-638-1773-637-565-1987-565h-1297v4666z"/>
        <path id="d" transform="scale(.015625)" d="m3597 1894v-281h-2644q38-594 358-905t892-311q331 0 642 81t618 244v-544q-310-131-635-200t-659-69q-838 0-1327 487-489 488-489 1320 0 859 464 1363 464 505 1252 505 706 0 1117-455 411-454 411-1235zm-575 169q-6 471-264 752-258 282-683 282-481 0-770-272t-333-766l2050 4z"/>
        <path id="l" transform="scale(.015625)" d="m3328 2828q216 388 516 572t706 184q547 0 844-383 297-382 297-1088v-2113h-578v2094q0 503-179 746-178 244-543 244-447 0-707-297-259-296-259-809v-1978h-578v2094q0 506-178 748t-550 242q-441 0-701-298-259-298-259-808v-1978h-578v3500h578v-544q197 322 472 475t653 153q382 0 649-194 267-193 395-562z"/>
        <path id="a" transform="scale(.015625)" d="m1959 3097q-462 0-731-361t-269-989 267-989q268-361 733-361 460 0 728 362 269 363 269 988 0 622-269 986-268 364-728 364zm0 487q750 0 1178-488 429-487 429-1349 0-859-429-1349-428-489-1178-489-753 0-1180 489-426 490-426 1349 0 862 426 1349 427 488 1180 488z"/>
        <path id="x" transform="scale(.015625)" d="m513 4856h500q468-737 701-1444 233-706 233-1403 0-700-233-1409t-701-1444h-500q415 716 620 1424t205 1429q0 722-205 1425-205 704-620 1422z"/>
       </defs>
       <use xlink:href="#av"/>
       <use transform="translate(63.623)" xlink:href="#aw"/>
       <use transform="translate(99.707)" xlink:href="#n"/>
       <use transform="translate(163.33)" xlink:href="#au"/>
       <use transform="translate(226.95)" xlink:href="#DejaVuSans-20"/>
       <use transform="translate(258.74)" xlink:href="#y"/>
       <use transform="translate(297.75)" xlink:href="#ag"/>
       <use transform="translate(374.76)" xlink:href="#d"/>
       <use transform="translate(436.28)" xlink:href="#l"/>
       <use transform="translate(533.69)" xlink:href="#a"/>
       <use transform="translate(594.87)" xlink:href="#x"/>
      </g>
     </g>
    </g>
    <g id="ci">
     <g id="cj">
      <use x="349.446673" y="528.477812" stroke="#000000" stroke-width=".8" xlink:href="#p"/>
     </g>
     <g id="ck">
      <g transform="translate(318.55 543.08) scale(.1 -.1)">
       <defs>
        <path id="at" transform="scale(.015625)" d="m2034 2216q-450 0-708-241-257-241-257-662 0-422 257-663 258-241 708-241t709 242q260 243 260 662 0 421-258 662-257 241-711 241zm-631 268q-406 100-633 378-226 279-226 679 0 559 398 884 399 325 1092 325 697 0 1094-325t397-884q0-400-227-679-226-278-629-378 456-106 710-416 255-309 255-755 0-679-414-1042-414-362-1186-362-771 0-1186 362-414 363-414 1042 0 446 256 755 257 310 713 416zm-231 997q0-362 226-565 227-203 636-203 407 0 636 203 230 203 230 565 0 363-230 566-229 203-636 203-409 0-636-203-226-203-226-566z"/>
        <path id="ax" transform="scale(.015625)" d="m2944 4013v-1741h1740v-531h-1740v-1741h-525v1741h-1741v531h1741v1741h525z"/>
       </defs>
       <use xlink:href="#n"/>
       <use transform="translate(63.623)" xlink:href="#at"/>
       <use transform="translate(127.25)" xlink:href="#ax"/>
       <use transform="translate(211.04)" xlink:href="#DejaVuSans-20"/>
       <use transform="translate(242.82)" xlink:href="#y"/>
       <use transform="translate(281.84)" xlink:href="#ag"/>
       <use transform="translate(358.84)" xlink:href="#d"/>
       <use transform="translate(420.36)" xlink:href="#l"/>
       <use transform="translate(517.77)" xlink:href="#a"/>
       <use transform="translate(578.96)" xlink:href="#x"/>
      </g>
     </g>
    </g>
    <g id="cl">
     <g id="cm">
      <use x="550.987077" y="528.477812" stroke="#000000" stroke-width=".8" xlink:href="#p"/>
     </g>
     <g id="cn">
      <g transform="translate(526.27 543.08) scale(.1 -.1)">
       <defs>
        <path id="w" transform="scale(.015625)" d="m1259 2228v-1709h1013q509 0 754 211 246 211 246 645 0 438-246 645-245 208-754 208h-1013zm0 1919v-1406h935q462 0 688 173 227 174 227 530 0 353-227 528-226 175-688 175h-935zm-631 519h1613q722 0 1112-300 391-300 391-853 0-429-200-682t-588-315q466-100 724-418 258-317 258-792 0-625-425-966-425-340-1210-340h-1675v4666z"/>
        <path id="c" transform="scale(.015625)" d="m603 3500h575v-3500h-575v3500zm0 1363h575v-729h-575v729z"/>
       </defs>
       <use xlink:href="#av"/>
       <use transform="translate(63.623)" xlink:href="#aw"/>
       <use transform="translate(99.707)" xlink:href="#n"/>
       <use transform="translate(163.33)" xlink:href="#au"/>
       <use transform="translate(226.95)" xlink:href="#DejaVuSans-20"/>
       <use transform="translate(258.74)" xlink:href="#y"/>
       <use transform="translate(297.75)" xlink:href="#w"/>
       <use transform="translate(366.36)" xlink:href="#c"/>
       <use transform="translate(394.14)" xlink:href="#a"/>
       <use transform="translate(455.32)" xlink:href="#x"/>
      </g>
     </g>
    </g>
    <g id="co">
     <g id="cp">
      <use x="752.527481" y="528.477812" stroke="#000000" stroke-width=".8" xlink:href="#p"/>
     </g>
     <g id="cq">
      <g transform="translate(728.61 543.08) scale(.1 -.1)">
       <use xlink:href="#n"/>
       <use transform="translate(63.623)" xlink:href="#at"/>
       <use transform="translate(127.25)" xlink:href="#ax"/>
       <use transform="translate(211.04)" xlink:href="#DejaVuSans-20"/>
       <use transform="translate(242.82)" xlink:href="#y"/>
       <use transform="translate(281.84)" xlink:href="#w"/>
       <use transform="translate(350.44)" xlink:href="#c"/>
       <use transform="translate(378.22)" xlink:href="#a"/>
       <use transform="translate(439.4)" xlink:href="#x"/>
      </g>
     </g>
    </g>
    <g id="cr">
     <g transform="translate(369.4 558.27) scale(.12 -.12)">
      <defs>
       <path id="bq" transform="scale(.015625)" d="m2188 4044-857-2322h1716l-859 2322zm-357 622h716l1778-4666h-656l-425 1197h-2103l-425-1197h-666l1781 4666z"/>
       <path id="ae" transform="scale(.015625)" d="m2906 1791q0 625-258 968-257 344-723 344-462 0-720-344-258-343-258-968 0-622 258-966t720-344q466 0 723 344 258 344 258 966zm575-1357q0-893-397-1329-396-436-1215-436-303 0-572 45t-522 139v559q253-137 500-202 247-66 503-66 566 0 847 295t281 892v285q-178-310-456-463t-666-153q-643 0-1037 490-394 491-394 1301 0 812 394 1302 394 491 1037 491 388 0 666-153t456-462v531h575v-3066z"/>
       <path id="bp" transform="scale(.015625)" d="m3809 666v1253h-1031v519h1656v-2004q-365-259-806-392-440-133-940-133-1094 0-1712 639-617 640-617 1780 0 1144 617 1783 618 639 1712 639 456 0 867-113 411-112 758-331v-672q-350 297-744 447t-828 150q-857 0-1287-478-429-478-429-1425 0-944 429-1422 430-478 1287-478 334 0 596 58 263 58 472 180z"/>
       <path id="k" transform="scale(.015625)" d="m2631 2963q-97 56-211 82-114 27-251 27-488 0-749-317t-261-911v-1844h-578v3500h578v-544q182 319 472 473 291 155 707 155 59 0 131-8 72-7 159-23l3-590z"/>
       <path id="ao" transform="scale(.015625)" d="m544 1381v2119h575v-2097q0-497 193-746 194-248 582-248 465 0 735 297 271 297 271 810v1984h575v-3500h-575v538q-209-319-486-474-276-155-642-155-603 0-916 375-312 375-312 1097zm1447 2203z"/>
       <path id="ad" transform="scale(.015625)" d="m1159 525v-1856h-578v4831h578v-531q182 312 458 463 277 152 661 152 638 0 1036-506 399-506 399-1331t-399-1332q-398-506-1036-506-384 0-661 152-276 152-458 464zm1957 1222q0 634-261 995t-717 361q-457 0-718-361t-261-995 261-995 718-361q456 0 717 361t261 995z"/>
       <path id="ar" transform="scale(.015625)" d="m3116 1747q0 634-261 995t-717 361q-457 0-718-361t-261-995 261-995 718-361q456 0 717 361t261 995zm-1957 1222q182 312 458 463 277 152 661 152 638 0 1036-506 399-506 399-1331t-399-1332q-398-506-1036-506-384 0-661 152-276 152-458 464v-525h-578v4863h578v-1894z"/>
       <path id="an" transform="scale(.015625)" d="m2059-325q-243-625-475-815-231-191-618-191h-460v481h338q237 0 368 113 132 112 291 531l103 262-1415 3444h609l1094-2737 1094 2737h609l-1538-3825z"/>
       <path id="bm" transform="scale(.015625)" d="m3425 4513v-616q-359 172-678 256-319 85-616 85-515 0-795-200t-280-569q0-310 186-468 186-157 705-254l381-78q706-135 1042-474t336-907q0-679-455-1029-454-350-1332-350-331 0-705 75-373 75-773 222v650q384-215 753-325 369-109 725-109 540 0 834 212 294 213 294 607 0 343-211 537t-692 291l-385 75q-706 140-1022 440-315 300-315 835 0 619 436 975t1201 356q329 0 669-60 341-59 697-177z"/>
       <path id="bj" transform="scale(.015625)" d="m191 3500h609l1094-2937 1094 2937h609l-1313-3500h-781l-1312 3500z"/>
       <path id="m" transform="scale(.015625)" d="m3122 3366v-538q-244 135-489 202t-495 67q-560 0-870-355-309-354-309-995t309-996q310-354 870-354 250 0 495 67t489 202v-532q-241-112-499-168-257-57-548-57-791 0-1257 497-465 497-465 1341 0 856 470 1346 471 491 1290 491 265 0 518-55 253-54 491-163z"/>
       <path id="as" transform="scale(.015625)" d="m-19 4666h3947v-532h-1656v-4134h-634v4134h-1657v532z"/>
      </defs>
      <use xlink:href="#bq"/>
      <use transform="translate(68.408)" xlink:href="#ae"/>
      <use transform="translate(131.88)" xlink:href="#d"/>
      <use transform="translate(193.41)" xlink:href="#DejaVuSans-20"/>
      <use transform="translate(225.2)" xlink:href="#bp"/>
      <use transform="translate(302.69)" xlink:href="#k"/>
      <use transform="translate(341.55)" xlink:href="#a"/>
      <use transform="translate(402.73)" xlink:href="#ao"/>
      <use transform="translate(466.11)" xlink:href="#ad"/>
      <use transform="translate(529.59)" xlink:href="#DejaVuSans-20"/>
      <use transform="translate(561.37)" xlink:href="#ar"/>
      <use transform="translate(624.85)" xlink:href="#an"/>
      <use transform="translate(684.03)" xlink:href="#DejaVuSans-20"/>
      <use transform="translate(715.82)" xlink:href="#bm"/>
      <use transform="translate(779.29)" xlink:href="#d"/>
      <use transform="translate(840.82)" xlink:href="#k"/>
      <use transform="translate(881.93)" xlink:href="#bj"/>
      <use transform="translate(941.11)" xlink:href="#c"/>
      <use transform="translate(968.89)" xlink:href="#m"/>
      <use transform="translate(1023.9)" xlink:href="#d"/>
      <use transform="translate(1085.4)" xlink:href="#DejaVuSans-20"/>
      <use transform="translate(1117.2)" xlink:href="#as"/>
      <use transform="translate(1162.6)" xlink:href="#an"/>
      <use transform="translate(1221.8)" xlink:href="#ad"/>
      <use transform="translate(1285.3)" xlink:href="#d"/>
     </g>
    </g>
   </g>
   <g id="cs">
    <g id="ct">
     <g id="cu">
      <path d="m51.167 528.48h798.1" clip-path="url(#b)" fill="none" stroke="#b0b0b0" stroke-dasharray="2.96,1.28" stroke-opacity=".3" stroke-width=".8"/>
     </g>
     <g id="cv">
      <defs>
       <path id="j" d="m0 0h-3.5" stroke="#000" stroke-width=".8"/>
      </defs>
      <use x="51.166875" y="528.477812" stroke="#000000" stroke-width=".8" xlink:href="#j"/>
     </g>
     <g id="cw">
      <g transform="translate(29.176 532.28) scale(.1 -.1)">
       <defs>
        <path id="o" transform="scale(.015625)" d="m2034 4250q-487 0-733-480-245-479-245-1442 0-959 245-1439 246-480 733-480 491 0 736 480 246 480 246 1439 0 963-246 1442-245 480-736 480zm0 500q785 0 1199-621 414-620 414-1801 0-1178-414-1799-414-620-1199-620-784 0-1198 620-414 621-414 1799 0 1181 414 1801 414 621 1198 621z"/>
        <path id="i" transform="scale(.015625)" d="m628 4666h941l1190-3175 1197 3175h941v-4666h-616v4097l-1203-3200h-634l-1203 3200v-4097h-613v4666z"/>
       </defs>
       <use xlink:href="#o"/>
       <use transform="translate(63.623)" xlink:href="#i"/>
      </g>
     </g>
    </g>
    <g id="cx">
     <g id="cy">
      <path d="m51.167 422.24h798.1" clip-path="url(#b)" fill="none" stroke="#b0b0b0" stroke-dasharray="2.96,1.28" stroke-opacity=".3" stroke-width=".8"/>
     </g>
     <g id="cz">
      <use x="51.166875" y="422.238928" stroke="#000000" stroke-width=".8" xlink:href="#j"/>
     </g>
     <g id="da">
      <g transform="translate(22.814 426.04) scale(.1 -.1)">
       <use xlink:href="#n"/>
       <use transform="translate(63.623)" xlink:href="#o"/>
       <use transform="translate(127.25)" xlink:href="#i"/>
      </g>
     </g>
    </g>
    <g id="db">
     <g id="dc">
      <path d="m51.167 316h798.1" clip-path="url(#b)" fill="none" stroke="#b0b0b0" stroke-dasharray="2.96,1.28" stroke-opacity=".3" stroke-width=".8"/>
     </g>
     <g id="dd">
      <use x="51.166875" y="316.000043" stroke="#000000" stroke-width=".8" xlink:href="#j"/>
     </g>
     <g id="de">
      <g transform="translate(22.814 319.8) scale(.1 -.1)">
       <defs>
        <path id="bt" transform="scale(.015625)" d="m1228 531h2203v-531h-2962v531q359 372 979 998 621 627 780 809 303 340 423 576 121 236 121 464 0 372-261 606-261 235-680 235-297 0-627-103-329-103-704-313v638q381 153 712 231 332 78 607 78 725 0 1156-363 431-362 431-968 0-288-108-546-107-257-392-607-78-91-497-524-418-433-1181-1211z"/>
       </defs>
       <use xlink:href="#bt"/>
       <use transform="translate(63.623)" xlink:href="#o"/>
       <use transform="translate(127.25)" xlink:href="#i"/>
      </g>
     </g>
    </g>
    <g id="df">
     <g id="dg">
      <path d="m51.167 209.76h798.1" clip-path="url(#b)" fill="none" stroke="#b0b0b0" stroke-dasharray="2.96,1.28" stroke-opacity=".3" stroke-width=".8"/>
     </g>
     <g id="dh">
      <use x="51.166875" y="209.761158" stroke="#000000" stroke-width=".8" xlink:href="#j"/>
     </g>
     <g id="di">
      <g transform="translate(22.814 213.56) scale(.1 -.1)">
       <defs>
        <path id="bs" transform="scale(.015625)" d="m2597 2516q453-97 707-404 255-306 255-756 0-690-475-1069-475-378-1350-378-293 0-604 58t-642 174v609q262-153 574-231 313-78 654-78 593 0 904 234t311 681q0 413-289 645-289 233-804 233h-544v519h569q465 0 712 186t247 536q0 359-255 551-254 193-729 193-260 0-557-57-297-56-653-174v562q360 100 674 150t592 50q719 0 1137-327 419-326 419-882 0-388-222-655t-631-370z"/>
       </defs>
       <use xlink:href="#bs"/>
       <use transform="translate(63.623)" xlink:href="#o"/>
       <use transform="translate(127.25)" xlink:href="#i"/>
      </g>
     </g>
    </g>
    <g id="dj">
     <g id="dk">
      <path d="m51.167 103.52h798.1" clip-path="url(#b)" fill="none" stroke="#b0b0b0" stroke-dasharray="2.96,1.28" stroke-opacity=".3" stroke-width=".8"/>
     </g>
     <g id="dl">
      <use x="51.166875" y="103.522273" stroke="#000000" stroke-width=".8" xlink:href="#j"/>
     </g>
     <g id="dm">
      <g transform="translate(22.814 107.32) scale(.1 -.1)">
       <defs>
        <path id="br" transform="scale(.015625)" d="m2419 4116-1594-2491h1594v2491zm-166 550h794v-3041h666v-525h-666v-1100h-628v1100h-2106v609l1940 2957z"/>
       </defs>
       <use xlink:href="#br"/>
       <use transform="translate(63.623)" xlink:href="#o"/>
       <use transform="translate(127.25)" xlink:href="#i"/>
      </g>
     </g>
    </g>
    <g id="dn">
     <g transform="translate(16.318 332.25) rotate(-90) scale(.12 -.12)">
      <defs>
       <path id="h" transform="scale(.015625)" d="m1172 4494v-994h1184v-447h-1184v-1900q0-428 117-550t477-122h590v-481h-590q-666 0-919 248-253 249-253 905v1900h-422v447h422v994h578z"/>
       <path id="af" transform="scale(.015625)" d="m2194 1759q-697 0-966-159t-269-544q0-306 202-486 202-179 548-179 479 0 768 339t289 901v128h-572zm1147 238v-1997h-575v531q-197-318-491-470t-719-152q-537 0-855 302-317 302-317 808 0 590 395 890 396 300 1180 300h807v57q0 397-261 614t-733 217q-300 0-585-72-284-72-546-216v532q315 122 612 182 297 61 578 61 760 0 1135-394 375-393 375-1193z"/>
       <path id="bl" transform="scale(.015625)" d="m603 4863h575v-4863h-575v4863z"/>
       <path id="bo" transform="scale(.015625)" d="m628 4666h631v-4666h-631v4666z"/>
       <path id="ap" transform="scale(.015625)" d="m3513 2113v-2113h-575v2094q0 497-194 743-194 247-581 247-466 0-735-297-269-296-269-809v-1978h-578v3500h578v-544q207 316 486 472 280 156 646 156 603 0 912-373 310-373 310-1098z"/>
       <path id="bk" transform="scale(.015625)" d="m2834 3397v-544q-243 125-506 187-262 63-544 63-428 0-642-131t-214-394q0-200 153-314t616-217l197-44q612-131 870-370t258-667q0-488-386-773-386-284-1061-284-281 0-586 55t-642 164v594q319-166 628-249 309-82 613-82 406 0 624 139 219 139 219 392 0 234-158 359-157 125-692 241l-200 47q-534 112-772 345-237 233-237 639 0 494 350 762 350 269 994 269 318 0 599-47 282-46 519-140z"/>
      </defs>
      <use xlink:href="#as"/>
      <use transform="translate(44.084)" xlink:href="#a"/>
      <use transform="translate(105.27)" xlink:href="#h"/>
      <use transform="translate(144.47)" xlink:href="#af"/>
      <use transform="translate(205.75)" xlink:href="#bl"/>
      <use transform="translate(233.54)" xlink:href="#DejaVuSans-20"/>
      <use transform="translate(265.32)" xlink:href="#bo"/>
      <use transform="translate(294.82)" xlink:href="#ap"/>
      <use transform="translate(358.2)" xlink:href="#h"/>
      <use transform="translate(397.4)" xlink:href="#d"/>
      <use transform="translate(458.93)" xlink:href="#k"/>
      <use transform="translate(500.04)" xlink:href="#af"/>
      <use transform="translate(561.32)" xlink:href="#m"/>
      <use transform="translate(616.3)" xlink:href="#h"/>
      <use transform="translate(655.51)" xlink:href="#c"/>
      <use transform="translate(683.29)" xlink:href="#a"/>
      <use transform="translate(744.47)" xlink:href="#ap"/>
      <use transform="translate(807.85)" xlink:href="#bk"/>
     </g>
    </g>
   </g>
   <g id="do">
    <path d="m51.167 528.48v-495.64" fill="none" stroke="#000" stroke-linecap="square" stroke-width=".8"/>
   </g>
   <g id="dp">
    <path d="m51.167 528.48h798.1" fill="none" stroke="#000" stroke-linecap="square" stroke-width=".8"/>
   </g>
   <g id="dq">
    <g transform="translate(134.07 463.53) scale(.1 -.1)">
     <defs>
      <path id="g" transform="scale(.015625)" d="m2356 3675-1318-1953h1318v1953zm-200 991h1338v-2944h665v-872h-665v-850h-1138v850h-2068v1031l1868 2785z"/>
      <path id="e" transform="scale(.015625)" d="m653 1209h1125v-1209h-1125v1209z"/>
      <path id="f" transform="scale(.015625)" d="m641 103v863q287-135 549-202 263-67 519-67 538 0 838 298 300 299 353 886-212-156-453-234t-522-78q-716 0-1155 417t-439 1098q0 754 489 1207t1311 453q913 0 1413-616 500-615 500-1740 0-1157-585-1818-584-661-1603-661-328 0-628 49-300 48-587 145zm1484 2247q316 0 475 204 159 205 159 615 0 406-159 612-159 207-475 207t-475-207q-159-206-159-612 0-410 159-615 159-204 475-204z"/>
      <path id="s" transform="scale(.015625)" d="m588 4666h1531l1062-2497 1069 2497h1528v-4666h-1137v3413l-1075-2516h-763l-1075 2516v-3413h-1140v4666z"/>
     </defs>
     <use xlink:href="#g"/>
     <use transform="translate(69.58)" xlink:href="#e"/>
     <use transform="translate(107.57)" xlink:href="#f"/>
     <use transform="translate(177.15)" xlink:href="#s"/>
    </g>
    <g transform="translate(129.47 474.73) scale(.1 -.1)">
     <defs>
      <path id="u" transform="scale(.015625)" d="m2413-844h-929q-478 772-706 1467-228 696-228 1380 0 685 229 1386 230 702 705 1467h929q-400-740-600-1448t-200-1399q0-690 198-1400 198-709 602-1453z"/>
      <path id="v" transform="scale(.015625)" d="m4959 1925q-221 0-343-192t-122-549q0-359 120-551t345-192 344 192 119 551q0 357-121 549-120 192-342 192zm0 525q582 0 916-338 334-337 334-928 0-590-334-933-334-342-916-342-581 0-917 342-336 343-336 933 0 588 336 927t917 339zm-2865-2541h-691l2916 4841h694l-2919-4841zm-641 4841q581 0 914-339t333-930q0-590-333-931t-914-341-914 341-333 931q0 591 333 930t914 339zm0-525q-225 0-347-194-122-193-122-550 0-359 122-555 122-195 347-195t345 195q121 196 121 555 0 357-122 550-122 194-344 194z"/>
      <path id="t" transform="scale(.015625)" d="m513-844q400 744 600 1453 200 710 200 1400 0 691-200 1399t-600 1448h928q475-765 704-1467 230-701 230-1386 0-684-228-1380-228-695-706-1467h-928z"/>
     </defs>
     <use xlink:href="#u"/>
     <use transform="translate(45.703)" xlink:href="#f"/>
     <use transform="translate(115.28)" xlink:href="#e"/>
     <use transform="translate(153.27)" xlink:href="#f"/>
     <use transform="translate(222.85)" xlink:href="#v"/>
     <use transform="translate(323.05)" xlink:href="#t"/>
    </g>
   </g>
   <g id="dr">
    <g transform="translate(332.13 43.162) scale(.1 -.1)">
     <use xlink:href="#g"/>
     <use transform="translate(69.58)" xlink:href="#g"/>
     <use transform="translate(139.16)" xlink:href="#e"/>
     <use transform="translate(177.15)" xlink:href="#g"/>
     <use transform="translate(246.73)" xlink:href="#s"/>
    </g>
    <g transform="translate(327.53 54.36) scale(.1 -.1)">
     <defs>
      <path id="am" transform="scale(.015625)" d="m2944 2338q0 875-164 1232-164 358-552 358-387 0-553-358-166-357-166-1232 0-885 166-1248 166-362 553-362 385 0 550 362 166 363 166 1248zm1203-10q0-1159-500-1789t-1419-630q-922 0-1422 630t-500 1789q0 1163 500 1792 500 630 1422 630 919 0 1419-630 500-629 500-1792z"/>
      <path id="al" transform="scale(.015625)" d="m750 831h1063v3016l-1091-225v819l1084 225h1144v-3835h1063v-831h-3263v831z"/>
     </defs>
     <use xlink:href="#u"/>
     <use transform="translate(45.703)" xlink:href="#f"/>
     <use transform="translate(115.28)" xlink:href="#am"/>
     <use transform="translate(184.86)" xlink:href="#e"/>
     <use transform="translate(222.85)" xlink:href="#al"/>
     <use transform="translate(292.43)" xlink:href="#v"/>
     <use transform="translate(392.63)" xlink:href="#t"/>
    </g>
   </g>
   <g id="ds">
    <g transform="translate(533.68 151.58) scale(.1 -.1)">
     <defs>
      <path id="ak" transform="scale(.015625)" d="m2981 2516q472-122 717-424 246-301 246-767 0-694-532-1055-531-361-1549-361-360 0-721 58t-714 174v928q338-169 670-255 333-86 655-86 478 0 733 165 255 166 255 476 0 319-261 483t-771 164h-481v775h506q454 0 675 142 222 142 222 433 0 268-216 415-215 147-609 147-290 0-587-66-297-65-591-193v881q356 100 706 150t688 50q909 0 1360-299 452-298 452-898 0-409-216-670-215-261-637-367z"/>
      <path id="bh" transform="scale(.015625)" d="m1844 884h2053v-884h-3391v884l1703 1504q229 206 338 403t109 409q0 328-220 528t-586 200q-281 0-616-120-334-120-715-358v1025q406 134 803 204 397 71 778 71 838 0 1302-369 464-368 464-1028 0-381-197-711-197-329-828-883l-997-875z"/>
     </defs>
     <use xlink:href="#ak"/>
     <use transform="translate(69.58)" xlink:href="#g"/>
     <use transform="translate(139.16)" xlink:href="#e"/>
     <use transform="translate(177.15)" xlink:href="#bh"/>
     <use transform="translate(246.73)" xlink:href="#s"/>
    </g>
    <g transform="translate(529.07 162.78) scale(.1 -.1)">
     <use xlink:href="#u"/>
     <use transform="translate(45.703)" xlink:href="#g"/>
     <use transform="translate(115.28)" xlink:href="#f"/>
     <use transform="translate(184.86)" xlink:href="#e"/>
     <use transform="translate(222.85)" xlink:href="#al"/>
     <use transform="translate(292.43)" xlink:href="#v"/>
     <use transform="translate(392.63)" xlink:href="#t"/>
    </g>
   </g>
   <g id="dt">
    <g transform="translate(735.22 137.67) scale(.1 -.1)">
     <defs>
      <path id="ac" transform="scale(.015625)" d="m678 4666h2991v-885h-2031v-722q137 38 276 58 139 21 289 21 853 0 1328-427t475-1189q0-756-517-1185-517-428-1436-428-397 0-786 77t-773 233v947q381-219 723-329 342-109 646-109 437 0 688 214 252 214 252 580 0 369-252 581-251 213-688 213-260 0-554-68-293-67-631-207v2625z"/>
     </defs>
     <use xlink:href="#ak"/>
     <use transform="translate(69.58)" xlink:href="#ac"/>
     <use transform="translate(139.16)" xlink:href="#e"/>
     <use transform="translate(177.15)" xlink:href="#ac"/>
     <use transform="translate(246.73)" xlink:href="#s"/>
    </g>
    <g transform="translate(730.61 148.87) scale(.1 -.1)">
     <use xlink:href="#u"/>
     <use transform="translate(45.703)" xlink:href="#ac"/>
     <use transform="translate(115.28)" xlink:href="#am"/>
     <use transform="translate(184.86)" xlink:href="#e"/>
     <use transform="translate(222.85)" xlink:href="#f"/>
     <use transform="translate(292.43)" xlink:href="#v"/>
     <use transform="translate(392.63)" xlink:href="#t"/>
    </g>
   </g>
   <g id="du">
    <g transform="translate(303.57 17.838) scale(.14 -.14)">
     <defs>
      <path id="bg" transform="scale(.015625)" d="m3419 850h-1881l-297-850h-1210l1728 4666h1435l1728-4666h-1209l-294 850zm-1581 866h1278l-638 1856-640-1856z"/>
      <path id="az" transform="scale(.015625)" d="m2919 594q-231-306-510-450-278-144-643-144-641 0-1060 504-418 505-418 1287 0 784 418 1285 419 502 1060 502 365 0 643-144 279-143 510-453v519h1125v-3147q0-844-533-1289t-1545-445q-328 0-635 50-306 50-615 153v872q293-169 574-252 282-83 566-83 550 0 806 241 257 241 257 753v241zm-738 2178q-347 0-541-257-193-256-193-724 0-482 187-730 188-248 547-248 350 0 544 256t194 722q0 468-194 724-194 257-544 257z"/>
      <path id="aj" transform="scale(.015625)" d="m4031 1759v-318h-2615q40-394 284-591t681-197q353 0 723 105 371 105 762 317v-862q-397-150-794-227t-794-77q-950 0-1477 483-526 483-526 1355 0 856 517 1346 517 491 1424 491 825 0 1320-497 495-496 495-1328zm-1150 372q0 319-186 514-186 196-486 196-325 0-528-183t-253-527h1453z"/>
      <path id="be" transform="scale(.015625)" d="m4781 347q-450-219-934-329-484-109-1e3 -109-1166 0-1847 652t-681 1767q0 1128 693 1775 694 647 1901 647 465 0 891-88 427-87 805-259v-965q-390 221-776 330-386 110-774 110-718 0-1107-402-389-401-389-1148 0-740 375-1144 375-403 1065-403 188 0 349 23 161 24 289 74v906h-735v807h1875v-2244z"/>
      <path id="z" transform="scale(.015625)" d="m3138 2547q-147 69-293 101-145 33-292 33-431 0-664-277-233-276-233-791v-1613h-1118v3500h1118v-575q216 344 495 501 280 158 671 158 56 0 121-5 66-4 191-20l4-1012z"/>
      <path id="aa" transform="scale(.015625)" d="m2203 2784q-372 0-567-267t-195-770 195-771q195-267 567-267 366 0 559 267 194 268 194 771t-194 770q-193 267-559 267zm0 800q903 0 1411-488 508-487 508-1349 0-863-508-1351-508-487-1411-487-906 0-1417 487-511 488-511 1351 0 862 511 1349 511 488 1417 488z"/>
      <path id="ah" transform="scale(.015625)" d="m500 1363v2137h1125v-350q0-284-3-714t-3-573q0-422 22-608t75-271q68-109 179-169 111-59 255-59 350 0 550 269t200 747v1728h1119v-3500h-1119v506q-253-306-536-452-283-145-623-145-607 0-924 372t-317 1082z"/>
      <path id="ay" transform="scale(.015625)" d="m1656 506v-1837h-1118v4831h1118v-512q232 306 513 451t647 145q647 0 1062-514 416-514 416-1323t-416-1324q-415-514-1062-514-366 0-647 145-281 146-513 452zm744 2266q-359 0-552-264-192-264-192-761t192-761q193-264 552-264t548 262q190 263 190 763t-190 762q-189 263-548 263z"/>
      <path id="bf" transform="scale(.015625)" d="m1791 3756v-2847h431q737 0 1126 366 390 366 390 1063 0 693-388 1055-387 363-1128 363h-431zm-1203 910h1268q1063 0 1583-152 520-151 892-514 328-316 487-729 160-412 160-933 0-529-160-943-159-414-487-729-375-363-900-515-525-151-1575-151h-1268v4666z"/>
      <path id="r" transform="scale(.015625)" d="m538 3500h1118v-3500h-1118v3500zm0 1363h1118v-913h-1118v913z"/>
      <path id="ai" transform="scale(.015625)" d="m3272 3391v-850q-359 150-694 225-334 75-631 75-319 0-474-80-154-80-154-245 0-135 117-207 117-71 420-106l197-28q860-109 1156-359 297-250 297-785 0-559-413-841-412-281-1230-281-347 0-718 55-370 55-761 164v850q335-162 686-244 352-81 714-81 329 0 494 90 166 91 166 270 0 150-114 223t-455 114l-197 25q-747 94-1047 347t-300 769q0 556 381 824 382 269 1169 269 310 0 650-47 341-46 741-146z"/>
      <path id="q" transform="scale(.015625)" d="m1759 4494v-994h1154v-800h-1154v-1484q0-244 97-330t385-86h575v-800h-960q-662 0-939 276-276 277-276 940v1484h-557v800h557v994h1118z"/>
      <path id="bb" transform="scale(.015625)" d="m2400 722q359 0 548 262 190 263 190 763t-190 762q-189 263-548 263t-552-264q-192-264-192-761t192-761q193-264 552-264zm-744 2266q232 306 513 451t647 145q647 0 1062-514 416-514 416-1323t-416-1324q-415-514-1062-514-366 0-647 145-281 146-513 452v-506h-1118v4863h1118v-1875z"/>
      <path id="ab" transform="scale(.015625)" d="m4056 2131v-2131h-1125v347 1284q0 453-20 625t-70 253q-66 110-179 171-112 61-256 61-350 0-550-271-200-270-200-748v-1722h-1118v3500h1118v-512q253 306 537 451 285 145 629 145 606 0 920-372 314-371 314-1081z"/>
      <path id="bi" transform="scale(.015625)" d="m347 2297h1962v-909h-1962v909z"/>
      <path id="bd" transform="scale(.015625)" d="m588 4666h1203v-4666h-1203v4666z"/>
      <path id="bc" transform="scale(.015625)" d="m2106 1575q-350 0-527-119-176-118-176-350 0-212 142-333 143-120 396-120 315 0 531 226 216 227 216 568v128h-582zm1710 422v-1997h-1128v519q-225-319-507-465-281-145-684-145-544 0-883 317-339 318-339 824 0 616 423 903 424 288 1330 288h660v87q0 266-210 389-209 124-653 124-359 0-669-72-309-72-575-216v853q360 88 722 133 363 45 725 45 947 0 1367-373 421-373 421-1214z"/>
      <path id="ba" transform="scale(.015625)" d="m3366 3391v-913q-228 156-458 231t-477 75q-468 0-729-273t-261-764 261-765q261-273 729-273 263 0 499 78 236 79 436 232v-916q-263-97-533-145-270-49-542-49-947 0-1482 486-534 486-534 1352t534 1351q535 486 1482 486 275 0 542-48t533-145z"/>
     </defs>
     <use xlink:href="#bg"/>
     <use transform="translate(77.393)" xlink:href="#az"/>
     <use transform="translate(148.97)" xlink:href="#aj"/>
     <use transform="translate(216.8)" xlink:href="#DejaVuSans-Bold-20"/>
     <use transform="translate(251.61)" xlink:href="#be"/>
     <use transform="translate(333.69)" xlink:href="#z"/>
     <use transform="translate(383.01)" xlink:href="#aa"/>
     <use transform="translate(451.71)" xlink:href="#ah"/>
     <use transform="translate(522.9)" xlink:href="#ay"/>
     <use transform="translate(594.48)" xlink:href="#DejaVuSans-Bold-20"/>
     <use transform="translate(629.3)" xlink:href="#bf"/>
     <use transform="translate(712.3)" xlink:href="#r"/>
     <use transform="translate(746.58)" xlink:href="#ai"/>
     <use transform="translate(806.1)" xlink:href="#q"/>
     <use transform="translate(853.91)" xlink:href="#z"/>
     <use transform="translate(903.22)" xlink:href="#r"/>
     <use transform="translate(937.5)" xlink:href="#bb"/>
     <use transform="translate(1009.1)" xlink:href="#ah"/>
     <use transform="translate(1080.3)" xlink:href="#q"/>
     <use transform="translate(1128.1)" xlink:href="#r"/>
     <use transform="translate(1162.4)" xlink:href="#aa"/>
     <use transform="translate(1231.1)" xlink:href="#ab"/>
     <use transform="translate(1302.2)" xlink:href="#DejaVuSans-Bold-20"/>
     <use transform="translate(1337.1)" xlink:href="#bi"/>
     <use transform="translate(1378.6)" xlink:href="#DejaVuSans-Bold-20"/>
     <use transform="translate(1413.4)" xlink:href="#bd"/>
     <use transform="translate(1450.6)" xlink:href="#ab"/>
     <use transform="translate(1521.8)" xlink:href="#q"/>
     <use transform="translate(1569.6)" xlink:href="#aj"/>
     <use transform="translate(1637.4)" xlink:href="#z"/>
     <use transform="translate(1686.7)" xlink:href="#bc"/>
     <use transform="translate(1754.2)" xlink:href="#ba"/>
     <use transform="translate(1813.5)" xlink:href="#q"/>
     <use transform="translate(1861.3)" xlink:href="#r"/>
     <use transform="translate(1895.6)" xlink:href="#aa"/>
     <use transform="translate(1964.3)" xlink:href="#ab"/>
     <use transform="translate(2035.4)" xlink:href="#ai"/>
    </g>
   </g>
   <g id="dv">
    <g id="dw">
     <path d="m743 70.194h99.262q2 0 2-2v-28.356q0-2-2-2h-99.262q-2 0-2 2v28.356q0 2 2 2z" fill="#fff" opacity=".8" stroke="#ccc"/>
    </g>
    <g id="dx">
     <path d="m745 49.436h20v-7h-20z" fill="#1f77b4" opacity=".8"/>
    </g>
    <g id="dy">
     <g transform="translate(773 49.436) scale(.1 -.1)">
      <defs>
       <path id="aq" transform="scale(.015625)" d="m3513 2113v-2113h-575v2094q0 497-194 743-194 247-581 247-466 0-735-297-269-296-269-809v-1978h-578v4863h578v-1907q207 316 486 472 280 156 646 156 603 0 912-373 310-373 310-1098z"/>
      </defs>
      <use xlink:href="#ag"/>
      <use transform="translate(77.002)" xlink:href="#d"/>
      <use transform="translate(138.53)" xlink:href="#l"/>
      <use transform="translate(235.94)" xlink:href="#a"/>
      <use transform="translate(297.12)" xlink:href="#ae"/>
      <use transform="translate(360.6)" xlink:href="#k"/>
      <use transform="translate(401.71)" xlink:href="#af"/>
      <use transform="translate(462.99)" xlink:href="#ad"/>
      <use transform="translate(526.46)" xlink:href="#aq"/>
      <use transform="translate(589.84)" xlink:href="#c"/>
      <use transform="translate(617.63)" xlink:href="#m"/>
     </g>
    </g>
    <g id="dz">
     <path d="m745 64.114h20v-7h-20z" fill="#ff7f0e" opacity=".8"/>
    </g>
    <g id="ea">
     <g transform="translate(773 64.114) scale(.1 -.1)">
      <use xlink:href="#w"/>
      <use transform="translate(68.604)" xlink:href="#c"/>
      <use transform="translate(96.387)" xlink:href="#a"/>
      <use transform="translate(157.57)" xlink:href="#l"/>
      <use transform="translate(254.98)" xlink:href="#d"/>
      <use transform="translate(316.5)" xlink:href="#h"/>
      <use transform="translate(355.71)" xlink:href="#k"/>
      <use transform="translate(396.83)" xlink:href="#c"/>
      <use transform="translate(424.61)" xlink:href="#m"/>
     </g>
    </g>
   </g>
  </g>
  <g id="eb">
   <g transform="translate(770.4 564.61) scale(.09 -.09)" fill="#808080" opacity=".7">
    <defs>
     <path id="bv" transform="scale(.015625)" d="m684 794h660v-794h-660v794z"/>
     <path id="bu" transform="scale(.015625)" d="m1625 4666h531l-1625-5260h-531l1625 5260z"/>
     <path id="bn" transform="scale(.015625)" d="m2522 4238q-688 0-1093-513-404-512-404-1397 0-881 404-1394 405-512 1093-512 687 0 1089 512 402 513 402 1394 0 885-402 1397-402 513-1089 513zm0 512q981 0 1568-658 588-658 588-1764 0-1103-588-1761-587-658-1568-658-984 0-1574 656-589 657-589 1763t589 1764q590 658 1574 658z"/>
    </defs>
    <use xlink:href="#ae"/>
    <use transform="translate(63.477)" xlink:href="#c"/>
    <use transform="translate(91.26)" xlink:href="#h"/>
    <use transform="translate(130.47)" xlink:href="#aq"/>
    <use transform="translate(193.85)" xlink:href="#ao"/>
    <use transform="translate(257.23)" xlink:href="#ar"/>
    <use transform="translate(320.7)" xlink:href="#bv"/>
    <use transform="translate(352.49)" xlink:href="#m"/>
    <use transform="translate(407.47)" xlink:href="#a"/>
    <use transform="translate(468.65)" xlink:href="#l"/>
    <use transform="translate(566.06)" xlink:href="#bu"/>
    <use transform="translate(599.76)" xlink:href="#w"/>
    <use transform="translate(668.36)" xlink:href="#i"/>
    <use transform="translate(754.64)" xlink:href="#bn"/>
    <use transform="translate(833.35)" xlink:href="#c"/>
    <use transform="translate(861.13)" xlink:href="#h"/>
   </g>
  </g>
 </g>
 <defs>
  <clipPath id="b">
   <rect x="51.167" y="32.838" width="798.1" height="495.64"/>
  </clipPath>
 </defs>
 <metadata>
  <rdf:RDF>
   <cc:Work>
    <dc:title>Age Group Distribution - Interactions</dc:title>
    <dc:creator>github.com/BMOit</dc:creator>
    <dc:rights>github.com/BMOit</dc:rights>
    <dc:source>UIDAI Data Hackathon 2026</dc:source>
   </cc:Work>
  </rdf:RDF>
 </metadata>
</svg>
