<?xml version="1.0" encoding="UTF-8"?>
<svg width="858.63pt" height="573.68pt" version="1.1" viewBox="0 0 858.63 573.68" xmlns="http://www.w3.org/2000/svg" xmlns:cc="http://creativecommons.org/ns#" xmlns:dc="http://purl.org/dc/elements/1.1/" xmlns:rdf="http://www.w3.org/1999/02/22-rdf-syntax-ns#" xmlns:xlink="http://www.w3.org/1999/xlink">
 <title>Engagement Score by Cluster</title>
 <desc>Chart by github.com/BMOit</desc>
 <metadata>
  <rdf:RDF>
   <cc:Work>
    <dc:type rdf:resource="http://purl.org/dc/dcmitype/StillImage"/>
    <dc:date>2026-01-20T17:31:25.875458</dc:date>
    <dc:format>image/svg+xml</dc:format>
    <dc:creator>
     <cc:Agent>
      <dc:title>Matplotlib v3.10.8, https://matplotlib.org/</dc:title>
     </cc:Agent>
    </dc:creator>
   </cc:Work>
  </rdf:RDF>
 </metadata>
 <defs>
  <style type="text/css">*{stroke-linejoin: round; stroke-linecap: butt}</style>
 </defs>
 <g id="ca">
  <g id="cb">
   <path d="m-0 573.68h858.63v-573.68h-858.63z" fill="#fff"/>
  </g>
  <g id="cc">
   <g id="cd">
    <path d="m55.264 506.42h794v-473.58h-794z" fill="#fff"/>
   </g>
   <g id="ce">
    <path d="m91.355 506.42h18.508-18.508z" clip-path="url(#a)" fill="#440154" opacity=".5" stroke="#fff" stroke-width=".5"/>
   </g>
   <g id="cf">
    <path d="m109.86 506.42h18.508-18.508z" clip-path="url(#a)" fill="#440154" opacity=".5" stroke="#fff" stroke-width=".5"/>
   </g>
   <g id="cg">
    <path d="m128.37 506.42h18.508-18.508z" clip-path="url(#a)" fill="#440154" opacity=".5" stroke="#fff" stroke-width=".5"/>
   </g>
   <g id="ch">
    <path d="m146.88 506.42h18.508-18.508z" clip-path="url(#a)" fill="#440154" opacity=".5" stroke="#fff" stroke-width=".5"/>
   </g>
   <g id="ci">
    <path d="m165.39 506.42h18.508-18.508z" clip-path="url(#a)" fill="#440154" opacity=".5" stroke="#fff" stroke-width=".5"/>
   </g>
   <g id="cj">
    <path d="m183.9 506.42h18.508-18.508z" clip-path="url(#a)" fill="#440154" opacity=".5" stroke="#fff" stroke-width=".5"/>
   </g>
   <g id="ck">
    <path d="m202.4 506.42h18.508-18.508z" clip-path="url(#a)" fill="#440154" opacity=".5" stroke="#fff" stroke-width=".5"/>
   </g>
   <g id="cl">
    <path d="m220.91 506.42h18.508-18.508z" clip-path="url(#a)" fill="#440154" opacity=".5" stroke="#fff" stroke-width=".5"/>
   </g>
   <g id="cm">
    <path d="m239.42 506.42h18.508-18.508z" clip-path="url(#a)" fill="#440154" opacity=".5" stroke="#fff" stroke-width=".5"/>
   </g>
   <g id="cn">
    <path d="m257.93 506.42h18.508-18.508z" clip-path="url(#a)" fill="#440154" opacity=".5" stroke="#fff" stroke-width=".5"/>
   </g>
   <g id="co">
    <path d="m276.44 506.42h18.508-18.508z" clip-path="url(#a)" fill="#440154" opacity=".5" stroke="#fff" stroke-width=".5"/>
   </g>
   <g id="cp">
    <path d="m294.95 506.42h18.508-18.508z" clip-path="url(#a)" fill="#440154" opacity=".5" stroke="#fff" stroke-width=".5"/>
   </g>
   <g id="cq">
    <path d="m313.45 506.42h18.508-18.508z" clip-path="url(#a)" fill="#440154" opacity=".5" stroke="#fff" stroke-width=".5"/>
   </g>
   <g id="cr">
    <path d="m331.96 506.42h18.508-18.508z" clip-path="url(#a)" fill="#440154" opacity=".5" stroke="#fff" stroke-width=".5"/>
   </g>
   <g id="cs">
    <path d="m350.47 506.42h18.508-18.508z" clip-path="url(#a)" fill="#440154" opacity=".5" stroke="#fff" stroke-width=".5"/>
   </g>
   <g id="ct">
    <path d="m368.98 506.42h18.508-18.508z" clip-path="url(#a)" fill="#440154" opacity=".5" stroke="#fff" stroke-width=".5"/>
   </g>
   <g id="cu">
    <path d="m387.49 506.42h18.508-18.508z" clip-path="url(#a)" fill="#440154" opacity=".5" stroke="#fff" stroke-width=".5"/>
   </g>
   <g id="cv">
    <path d="m406 506.42h18.508-18.508z" clip-path="url(#a)" fill="#440154" opacity=".5" stroke="#fff" stroke-width=".5"/>
   </g>
   <g id="cw">
    <path d="m424.5 506.42h18.508-18.508z" clip-path="url(#a)" fill="#440154" opacity=".5" stroke="#fff" stroke-width=".5"/>
   </g>
   <g id="cx">
    <path d="m443.01 506.42h18.508-18.508z" clip-path="url(#a)" fill="#440154" opacity=".5" stroke="#fff" stroke-width=".5"/>
   </g>
   <g id="cy">
    <path d="m461.52 506.42h18.508-18.508z" clip-path="url(#a)" fill="#440154" opacity=".5" stroke="#fff" stroke-width=".5"/>
   </g>
   <g id="cz">
    <path d="m480.03 506.42h18.508-18.508z" clip-path="url(#a)" fill="#440154" opacity=".5" stroke="#fff" stroke-width=".5"/>
   </g>
   <g id="da">
    <path d="m498.54 506.42h18.508-18.508z" clip-path="url(#a)" fill="#440154" opacity=".5" stroke="#fff" stroke-width=".5"/>
   </g>
   <g id="db">
    <path d="m517.05 506.42h18.508-18.508z" clip-path="url(#a)" fill="#440154" opacity=".5" stroke="#fff" stroke-width=".5"/>
   </g>
   <g id="dc">
    <path d="m535.55 506.42h18.508v-0.36053h-18.508z" clip-path="url(#a)" fill="#440154" opacity=".5" stroke="#fff" stroke-width=".5"/>
   </g>
   <g id="dd">
    <path d="m554.06 506.42h18.508-18.508z" clip-path="url(#a)" fill="#440154" opacity=".5" stroke="#fff" stroke-width=".5"/>
   </g>
   <g id="de">
    <path d="m572.57 506.42h18.508v-1.0816h-18.508z" clip-path="url(#a)" fill="#440154" opacity=".5" stroke="#fff" stroke-width=".5"/>
   </g>
   <g id="df">
    <path d="m591.08 506.42h18.508v-1.0816h-18.508z" clip-path="url(#a)" fill="#440154" opacity=".5" stroke="#fff" stroke-width=".5"/>
   </g>
   <g id="dg">
    <path d="m609.59 506.42h18.508v-6.4896h-18.508z" clip-path="url(#a)" fill="#440154" opacity=".5" stroke="#fff" stroke-width=".5"/>
   </g>
   <g id="dh">
    <path d="m628.09 506.42h18.508v-9.3738h-18.508z" clip-path="url(#a)" fill="#440154" opacity=".5" stroke="#fff" stroke-width=".5"/>
   </g>
   <g id="di">
    <path d="m646.6 506.42h18.508v-13.34h-18.508z" clip-path="url(#a)" fill="#440154" opacity=".5" stroke="#fff" stroke-width=".5"/>
   </g>
   <g id="dj">
    <path d="m665.11 506.42h18.508v-13.7h-18.508z" clip-path="url(#a)" fill="#440154" opacity=".5" stroke="#fff" stroke-width=".5"/>
   </g>
   <g id="dk">
    <path d="m683.62 506.42h18.508v-14.782h-18.508z" clip-path="url(#a)" fill="#440154" opacity=".5" stroke="#fff" stroke-width=".5"/>
   </g>
   <g id="dl">
    <path d="m702.13 506.42h18.508v-11.177h-18.508z" clip-path="url(#a)" fill="#440154" opacity=".5" stroke="#fff" stroke-width=".5"/>
   </g>
   <g id="dm">
    <path d="m720.64 506.42h18.508v-12.619h-18.508z" clip-path="url(#a)" fill="#440154" opacity=".5" stroke="#fff" stroke-width=".5"/>
   </g>
   <g id="dn">
    <path d="m739.14 506.42h18.508v-9.7344h-18.508z" clip-path="url(#a)" fill="#440154" opacity=".5" stroke="#fff" stroke-width=".5"/>
   </g>
   <g id="do">
    <path d="m757.65 506.42h18.508v-10.455h-18.508z" clip-path="url(#a)" fill="#440154" opacity=".5" stroke="#fff" stroke-width=".5"/>
   </g>
   <g id="dp">
    <path d="m776.16 506.42h18.508v-10.455h-18.508z" clip-path="url(#a)" fill="#440154" opacity=".5" stroke="#fff" stroke-width=".5"/>
   </g>
   <g id="dq">
    <path d="m794.67 506.42h18.508v-12.258h-18.508z" clip-path="url(#a)" fill="#440154" opacity=".5" stroke="#fff" stroke-width=".5"/>
   </g>
   <g id="dr">
    <path d="m91.355 506.42h18.508v-295.64h-18.508z" clip-path="url(#a)" fill="#3b528b" opacity=".5" stroke="#fff" stroke-width=".5"/>
   </g>
   <g id="ds">
    <path d="m109.86 506.42h18.508v-445.98h-18.508z" clip-path="url(#a)" fill="#3b528b" opacity=".5" stroke="#fff" stroke-width=".5"/>
   </g>
   <g id="dt">
    <path d="m128.37 506.42h18.508v-451.03h-18.508z" clip-path="url(#a)" fill="#3b528b" opacity=".5" stroke="#fff" stroke-width=".5"/>
   </g>
   <g id="du">
    <path d="m146.88 506.42h18.508v-390.46h-18.508z" clip-path="url(#a)" fill="#3b528b" opacity=".5" stroke="#fff" stroke-width=".5"/>
   </g>
   <g id="dv">
    <path d="m165.39 506.42h18.508v-324.48h-18.508z" clip-path="url(#a)" fill="#3b528b" opacity=".5" stroke="#fff" stroke-width=".5"/>
   </g>
   <g id="dw">
    <path d="m183.9 506.42h18.508v-267.52h-18.508z" clip-path="url(#a)" fill="#3b528b" opacity=".5" stroke="#fff" stroke-width=".5"/>
   </g>
   <g id="dx">
    <path d="m202.4 506.42h18.508v-222.45h-18.508z" clip-path="url(#a)" fill="#3b528b" opacity=".5" stroke="#fff" stroke-width=".5"/>
   </g>
   <g id="dy">
    <path d="m220.91 506.42h18.508v-165.12h-18.508z" clip-path="url(#a)" fill="#3b528b" opacity=".5" stroke="#fff" stroke-width=".5"/>
   </g>
   <g id="dz">
    <path d="m239.42 506.42h18.508v-138.08h-18.508z" clip-path="url(#a)" fill="#3b528b" opacity=".5" stroke="#fff" stroke-width=".5"/>
   </g>
   <g id="ea">
    <path d="m257.93 506.42h18.508v-121.86h-18.508z" clip-path="url(#a)" fill="#3b528b" opacity=".5" stroke="#fff" stroke-width=".5"/>
   </g>
   <g id="eb">
    <path d="m276.44 506.42h18.508v-109.6h-18.508z" clip-path="url(#a)" fill="#3b528b" opacity=".5" stroke="#fff" stroke-width=".5"/>
   </g>
   <g id="ec">
    <path d="m294.95 506.42h18.508v-86.528h-18.508z" clip-path="url(#a)" fill="#3b528b" opacity=".5" stroke="#fff" stroke-width=".5"/>
   </g>
   <g id="ed">
    <path d="m313.45 506.42h18.508v-85.086h-18.508z" clip-path="url(#a)" fill="#3b528b" opacity=".5" stroke="#fff" stroke-width=".5"/>
   </g>
   <g id="ee">
    <path d="m331.96 506.42h18.508v-79.317h-18.508z" clip-path="url(#a)" fill="#3b528b" opacity=".5" stroke="#fff" stroke-width=".5"/>
   </g>
   <g id="ef">
    <path d="m350.47 506.42h18.508v-61.291h-18.508z" clip-path="url(#a)" fill="#3b528b" opacity=".5" stroke="#fff" stroke-width=".5"/>
   </g>
   <g id="eg">
    <path d="m368.98 506.42h18.508v-49.032h-18.508z" clip-path="url(#a)" fill="#3b528b" opacity=".5" stroke="#fff" stroke-width=".5"/>
   </g>
   <g id="eh">
    <path d="m387.49 506.42h18.508v-48.672h-18.508z" clip-path="url(#a)" fill="#3b528b" opacity=".5" stroke="#fff" stroke-width=".5"/>
   </g>
   <g id="ei">
    <path d="m406 506.42h18.508v-41.822h-18.508z" clip-path="url(#a)" fill="#3b528b" opacity=".5" stroke="#fff" stroke-width=".5"/>
   </g>
   <g id="ej">
    <path d="m424.5 506.42h18.508v-33.89h-18.508z" clip-path="url(#a)" fill="#3b528b" opacity=".5" stroke="#fff" stroke-width=".5"/>
   </g>
   <g id="ek">
    <path d="m443.01 506.42h18.508v-31.006h-18.508z" clip-path="url(#a)" fill="#3b528b" opacity=".5" stroke="#fff" stroke-width=".5"/>
   </g>
   <g id="el">
    <path d="m461.52 506.42h18.508v-30.645h-18.508z" clip-path="url(#a)" fill="#3b528b" opacity=".5" stroke="#fff" stroke-width=".5"/>
   </g>
   <g id="em">
    <path d="m480.03 506.42h18.508v-21.632h-18.508z" clip-path="url(#a)" fill="#3b528b" opacity=".5" stroke="#fff" stroke-width=".5"/>
   </g>
   <g id="en">
    <path d="m498.54 506.42h18.508v-25.958h-18.508z" clip-path="url(#a)" fill="#3b528b" opacity=".5" stroke="#fff" stroke-width=".5"/>
   </g>
   <g id="eo">
    <path d="m517.05 506.42h18.508v-16.224h-18.508z" clip-path="url(#a)" fill="#3b528b" opacity=".5" stroke="#fff" stroke-width=".5"/>
   </g>
   <g id="ep">
    <path d="m535.55 506.42h18.508v-20.19h-18.508z" clip-path="url(#a)" fill="#3b528b" opacity=".5" stroke="#fff" stroke-width=".5"/>
   </g>
   <g id="eq">
    <path d="m554.06 506.42h18.508v-16.224h-18.508z" clip-path="url(#a)" fill="#3b528b" opacity=".5" stroke="#fff" stroke-width=".5"/>
   </g>
   <g id="er">
    <path d="m572.57 506.42h18.508v-14.782h-18.508z" clip-path="url(#a)" fill="#3b528b" opacity=".5" stroke="#fff" stroke-width=".5"/>
   </g>
   <g id="es">
    <path d="m591.08 506.42h18.508v-15.503h-18.508z" clip-path="url(#a)" fill="#3b528b" opacity=".5" stroke="#fff" stroke-width=".5"/>
   </g>
   <g id="et">
    <path d="m609.59 506.42h18.508v-11.177h-18.508z" clip-path="url(#a)" fill="#3b528b" opacity=".5" stroke="#fff" stroke-width=".5"/>
   </g>
   <g id="eu">
    <path d="m628.09 506.42h18.508v-13.7h-18.508z" clip-path="url(#a)" fill="#3b528b" opacity=".5" stroke="#fff" stroke-width=".5"/>
   </g>
   <g id="ev">
    <path d="m646.6 506.42h18.508v-6.8501h-18.508z" clip-path="url(#a)" fill="#3b528b" opacity=".5" stroke="#fff" stroke-width=".5"/>
   </g>
   <g id="ew">
    <path d="m665.11 506.42h18.508v-6.1291h-18.508z" clip-path="url(#a)" fill="#3b528b" opacity=".5" stroke="#fff" stroke-width=".5"/>
   </g>
   <g id="ex">
    <path d="m683.62 506.42h18.508v-4.6869h-18.508z" clip-path="url(#a)" fill="#3b528b" opacity=".5" stroke="#fff" stroke-width=".5"/>
   </g>
   <g id="ey">
    <path d="m702.13 506.42h18.508v-5.0475h-18.508z" clip-path="url(#a)" fill="#3b528b" opacity=".5" stroke="#fff" stroke-width=".5"/>
   </g>
   <g id="ez">
    <path d="m720.64 506.42h18.508v-4.6869h-18.508z" clip-path="url(#a)" fill="#3b528b" opacity=".5" stroke="#fff" stroke-width=".5"/>
   </g>
   <g id="fa">
    <path d="m739.14 506.42h18.508v-3.2448h-18.508z" clip-path="url(#a)" fill="#3b528b" opacity=".5" stroke="#fff" stroke-width=".5"/>
   </g>
   <g id="fb">
    <path d="m757.65 506.42h18.508v-4.6869h-18.508z" clip-path="url(#a)" fill="#3b528b" opacity=".5" stroke="#fff" stroke-width=".5"/>
   </g>
   <g id="fc">
    <path d="m776.16 506.42h18.508v-2.5237h-18.508z" clip-path="url(#a)" fill="#3b528b" opacity=".5" stroke="#fff" stroke-width=".5"/>
   </g>
   <g id="fd">
    <path d="m794.67 506.42h18.508v-3.6053h-18.508z" clip-path="url(#a)" fill="#3b528b" opacity=".5" stroke="#fff" stroke-width=".5"/>
   </g>
   <g id="fe">
    <path d="m91.355 506.42h18.508v-399.83h-18.508z" clip-path="url(#a)" fill="#21918c" opacity=".5" stroke="#fff" stroke-width=".5"/>
   </g>
   <g id="ff">
    <path d="m109.86 506.42h18.508v-147.46h-18.508z" clip-path="url(#a)" fill="#21918c" opacity=".5" stroke="#fff" stroke-width=".5"/>
   </g>
   <g id="fg">
    <path d="m128.37 506.42h18.508v-120.42h-18.508z" clip-path="url(#a)" fill="#21918c" opacity=".5" stroke="#fff" stroke-width=".5"/>
   </g>
   <g id="fh">
    <path d="m146.88 506.42h18.508v-107.8h-18.508z" clip-path="url(#a)" fill="#21918c" opacity=".5" stroke="#fff" stroke-width=".5"/>
   </g>
   <g id="fi">
    <path d="m165.39 506.42h18.508v-94.099h-18.508z" clip-path="url(#a)" fill="#21918c" opacity=".5" stroke="#fff" stroke-width=".5"/>
   </g>
   <g id="fj">
    <path d="m183.9 506.42h18.508v-76.433h-18.508z" clip-path="url(#a)" fill="#21918c" opacity=".5" stroke="#fff" stroke-width=".5"/>
   </g>
   <g id="fk">
    <path d="m202.4 506.42h18.508v-83.644h-18.508z" clip-path="url(#a)" fill="#21918c" opacity=".5" stroke="#fff" stroke-width=".5"/>
   </g>
   <g id="fl">
    <path d="m220.91 506.42h18.508v-72.467h-18.508z" clip-path="url(#a)" fill="#21918c" opacity=".5" stroke="#fff" stroke-width=".5"/>
   </g>
   <g id="fm">
    <path d="m239.42 506.42h18.508v-77.515h-18.508z" clip-path="url(#a)" fill="#21918c" opacity=".5" stroke="#fff" stroke-width=".5"/>
   </g>
   <g id="fn">
    <path d="m257.93 506.42h18.508v-58.406h-18.508z" clip-path="url(#a)" fill="#21918c" opacity=".5" stroke="#fff" stroke-width=".5"/>
   </g>
   <g id="fo">
    <path d="m276.44 506.42h18.508v-59.127h-18.508z" clip-path="url(#a)" fill="#21918c" opacity=".5" stroke="#fff" stroke-width=".5"/>
   </g>
   <g id="fp">
    <path d="m294.95 506.42h18.508v-64.175h-18.508z" clip-path="url(#a)" fill="#21918c" opacity=".5" stroke="#fff" stroke-width=".5"/>
   </g>
   <g id="fq">
    <path d="m313.45 506.42h18.508v-50.114h-18.508z" clip-path="url(#a)" fill="#21918c" opacity=".5" stroke="#fff" stroke-width=".5"/>
   </g>
   <g id="fr">
    <path d="m331.96 506.42h18.508v-51.556h-18.508z" clip-path="url(#a)" fill="#21918c" opacity=".5" stroke="#fff" stroke-width=".5"/>
   </g>
   <g id="fs">
    <path d="m350.47 506.42h18.508v-45.788h-18.508z" clip-path="url(#a)" fill="#21918c" opacity=".5" stroke="#fff" stroke-width=".5"/>
   </g>
   <g id="ft">
    <path d="m368.98 506.42h18.508v-41.101h-18.508z" clip-path="url(#a)" fill="#21918c" opacity=".5" stroke="#fff" stroke-width=".5"/>
   </g>
   <g id="fu">
    <path d="m387.49 506.42h18.508v-42.182h-18.508z" clip-path="url(#a)" fill="#21918c" opacity=".5" stroke="#fff" stroke-width=".5"/>
   </g>
   <g id="fv">
    <path d="m406 506.42h18.508v-33.53h-18.508z" clip-path="url(#a)" fill="#21918c" opacity=".5" stroke="#fff" stroke-width=".5"/>
   </g>
   <g id="fw">
    <path d="m424.5 506.42h18.508v-34.251h-18.508z" clip-path="url(#a)" fill="#21918c" opacity=".5" stroke="#fff" stroke-width=".5"/>
   </g>
   <g id="fx">
    <path d="m443.01 506.42h18.508v-28.482h-18.508z" clip-path="url(#a)" fill="#21918c" opacity=".5" stroke="#fff" stroke-width=".5"/>
   </g>
   <g id="fy">
    <path d="m461.52 506.42h18.508v-28.843h-18.508z" clip-path="url(#a)" fill="#21918c" opacity=".5" stroke="#fff" stroke-width=".5"/>
   </g>
   <g id="fz">
    <path d="m480.03 506.42h18.508v-25.958h-18.508z" clip-path="url(#a)" fill="#21918c" opacity=".5" stroke="#fff" stroke-width=".5"/>
   </g>
   <g id="ga">
    <path d="m498.54 506.42h18.508v-16.945h-18.508z" clip-path="url(#a)" fill="#21918c" opacity=".5" stroke="#fff" stroke-width=".5"/>
   </g>
   <g id="gb">
    <path d="m517.05 506.42h18.508v-23.795h-18.508z" clip-path="url(#a)" fill="#21918c" opacity=".5" stroke="#fff" stroke-width=".5"/>
   </g>
   <g id="gc">
    <path d="m535.55 506.42h18.508v-21.992h-18.508z" clip-path="url(#a)" fill="#21918c" opacity=".5" stroke="#fff" stroke-width=".5"/>
   </g>
   <g id="gd">
    <path d="m554.06 506.42h18.508v-21.271h-18.508z" clip-path="url(#a)" fill="#21918c" opacity=".5" stroke="#fff" stroke-width=".5"/>
   </g>
   <g id="ge">
    <path d="m572.57 506.42h18.508v-18.748h-18.508z" clip-path="url(#a)" fill="#21918c" opacity=".5" stroke="#fff" stroke-width=".5"/>
   </g>
   <g id="gf">
    <path d="m591.08 506.42h18.508v-13.34h-18.508z" clip-path="url(#a)" fill="#21918c" opacity=".5" stroke="#fff" stroke-width=".5"/>
   </g>
   <g id="gg">
    <path d="m609.59 506.42h18.508v-11.537h-18.508z" clip-path="url(#a)" fill="#21918c" opacity=".5" stroke="#fff" stroke-width=".5"/>
   </g>
   <g id="gh">
    <path d="m628.09 506.42h18.508v-5.7685h-18.508z" clip-path="url(#a)" fill="#21918c" opacity=".5" stroke="#fff" stroke-width=".5"/>
   </g>
   <g id="gi">
    <path d="m646.6 506.42h18.508v-5.7685h-18.508z" clip-path="url(#a)" fill="#21918c" opacity=".5" stroke="#fff" stroke-width=".5"/>
   </g>
   <g id="gj">
    <path d="m665.11 506.42h18.508v-2.1632h-18.508z" clip-path="url(#a)" fill="#21918c" opacity=".5" stroke="#fff" stroke-width=".5"/>
   </g>
   <g id="gk">
    <path d="m683.62 506.42h18.508v-2.1632h-18.508z" clip-path="url(#a)" fill="#21918c" opacity=".5" stroke="#fff" stroke-width=".5"/>
   </g>
   <g id="gl">
    <path d="m702.13 506.42h18.508v-0.72106h-18.508z" clip-path="url(#a)" fill="#21918c" opacity=".5" stroke="#fff" stroke-width=".5"/>
   </g>
   <g id="gm">
    <path d="m720.64 506.42h18.508-18.508z" clip-path="url(#a)" fill="#21918c" opacity=".5" stroke="#fff" stroke-width=".5"/>
   </g>
   <g id="gn">
    <path d="m739.14 506.42h18.508v-1.0816h-18.508z" clip-path="url(#a)" fill="#21918c" opacity=".5" stroke="#fff" stroke-width=".5"/>
   </g>
   <g id="go">
    <path d="m757.65 506.42h18.508v-1.0816h-18.508z" clip-path="url(#a)" fill="#21918c" opacity=".5" stroke="#fff" stroke-width=".5"/>
   </g>
   <g id="gp">
    <path d="m776.16 506.42h18.508v-0.36053h-18.508z" clip-path="url(#a)" fill="#21918c" opacity=".5" stroke="#fff" stroke-width=".5"/>
   </g>
   <g id="gq">
    <path d="m794.67 506.42h18.508-18.508z" clip-path="url(#a)" fill="#21918c" opacity=".5" stroke="#fff" stroke-width=".5"/>
   </g>
   <g id="gr">
    <path d="m91.355 506.42h18.508-18.508z" clip-path="url(#a)" fill="#5ec962" opacity=".5" stroke="#fff" stroke-width=".5"/>
   </g>
   <g id="gs">
    <path d="m109.86 506.42h18.508v-1.0816h-18.508z" clip-path="url(#a)" fill="#5ec962" opacity=".5" stroke="#fff" stroke-width=".5"/>
   </g>
   <g id="gt">
    <path d="m128.37 506.42h18.508v-18.027h-18.508z" clip-path="url(#a)" fill="#5ec962" opacity=".5" stroke="#fff" stroke-width=".5"/>
   </g>
   <g id="gu">
    <path d="m146.88 506.42h18.508v-43.624h-18.508z" clip-path="url(#a)" fill="#5ec962" opacity=".5" stroke="#fff" stroke-width=".5"/>
   </g>
   <g id="gv">
    <path d="m165.39 506.42h18.508v-57.325h-18.508z" clip-path="url(#a)" fill="#5ec962" opacity=".5" stroke="#fff" stroke-width=".5"/>
   </g>
   <g id="gw">
    <path d="m183.9 506.42h18.508v-68.862h-18.508z" clip-path="url(#a)" fill="#5ec962" opacity=".5" stroke="#fff" stroke-width=".5"/>
   </g>
   <g id="gx">
    <path d="m202.4 506.42h18.508v-82.562h-18.508z" clip-path="url(#a)" fill="#5ec962" opacity=".5" stroke="#fff" stroke-width=".5"/>
   </g>
   <g id="gy">
    <path d="m220.91 506.42h18.508v-85.807h-18.508z" clip-path="url(#a)" fill="#5ec962" opacity=".5" stroke="#fff" stroke-width=".5"/>
   </g>
   <g id="gz">
    <path d="m239.42 506.42h18.508v-64.175h-18.508z" clip-path="url(#a)" fill="#5ec962" opacity=".5" stroke="#fff" stroke-width=".5"/>
   </g>
   <g id="ha">
    <path d="m257.93 506.42h18.508v-63.454h-18.508z" clip-path="url(#a)" fill="#5ec962" opacity=".5" stroke="#fff" stroke-width=".5"/>
   </g>
   <g id="hb">
    <path d="m276.44 506.42h18.508v-56.243h-18.508z" clip-path="url(#a)" fill="#5ec962" opacity=".5" stroke="#fff" stroke-width=".5"/>
   </g>
   <g id="hc">
    <path d="m294.95 506.42h18.508v-56.604h-18.508z" clip-path="url(#a)" fill="#5ec962" opacity=".5" stroke="#fff" stroke-width=".5"/>
   </g>
   <g id="hd">
    <path d="m313.45 506.42h18.508v-43.985h-18.508z" clip-path="url(#a)" fill="#5ec962" opacity=".5" stroke="#fff" stroke-width=".5"/>
   </g>
   <g id="he">
    <path d="m331.96 506.42h18.508v-42.182h-18.508z" clip-path="url(#a)" fill="#5ec962" opacity=".5" stroke="#fff" stroke-width=".5"/>
   </g>
   <g id="hf">
    <path d="m350.47 506.42h18.508v-32.448h-18.508z" clip-path="url(#a)" fill="#5ec962" opacity=".5" stroke="#fff" stroke-width=".5"/>
   </g>
   <g id="hg">
    <path d="m368.98 506.42h18.508v-34.972h-18.508z" clip-path="url(#a)" fill="#5ec962" opacity=".5" stroke="#fff" stroke-width=".5"/>
   </g>
   <g id="hh">
    <path d="m387.49 506.42h18.508v-28.482h-18.508z" clip-path="url(#a)" fill="#5ec962" opacity=".5" stroke="#fff" stroke-width=".5"/>
   </g>
   <g id="hi">
    <path d="m406 506.42h18.508v-30.645h-18.508z" clip-path="url(#a)" fill="#5ec962" opacity=".5" stroke="#fff" stroke-width=".5"/>
   </g>
   <g id="hj">
    <path d="m424.5 506.42h18.508v-27.04h-18.508z" clip-path="url(#a)" fill="#5ec962" opacity=".5" stroke="#fff" stroke-width=".5"/>
   </g>
   <g id="hk">
    <path d="m443.01 506.42h18.508v-17.306h-18.508z" clip-path="url(#a)" fill="#5ec962" opacity=".5" stroke="#fff" stroke-width=".5"/>
   </g>
   <g id="hl">
    <path d="m461.52 506.42h18.508v-13.7h-18.508z" clip-path="url(#a)" fill="#5ec962" opacity=".5" stroke="#fff" stroke-width=".5"/>
   </g>
   <g id="hm">
    <path d="m480.03 506.42h18.508v-17.666h-18.508z" clip-path="url(#a)" fill="#5ec962" opacity=".5" stroke="#fff" stroke-width=".5"/>
   </g>
   <g id="hn">
    <path d="m498.54 506.42h18.508v-19.469h-18.508z" clip-path="url(#a)" fill="#5ec962" opacity=".5" stroke="#fff" stroke-width=".5"/>
   </g>
   <g id="ho">
    <path d="m517.05 506.42h18.508v-15.863h-18.508z" clip-path="url(#a)" fill="#5ec962" opacity=".5" stroke="#fff" stroke-width=".5"/>
   </g>
   <g id="hp">
    <path d="m535.55 506.42h18.508v-12.619h-18.508z" clip-path="url(#a)" fill="#5ec962" opacity=".5" stroke="#fff" stroke-width=".5"/>
   </g>
   <g id="hq">
    <path d="m554.06 506.42h18.508v-12.258h-18.508z" clip-path="url(#a)" fill="#5ec962" opacity=".5" stroke="#fff" stroke-width=".5"/>
   </g>
   <g id="hr">
    <path d="m572.57 506.42h18.508v-15.503h-18.508z" clip-path="url(#a)" fill="#5ec962" opacity=".5" stroke="#fff" stroke-width=".5"/>
   </g>
   <g id="hs">
    <path d="m591.08 506.42h18.508v-14.421h-18.508z" clip-path="url(#a)" fill="#5ec962" opacity=".5" stroke="#fff" stroke-width=".5"/>
   </g>
   <g id="ht">
    <path d="m609.59 506.42h18.508v-11.177h-18.508z" clip-path="url(#a)" fill="#5ec962" opacity=".5" stroke="#fff" stroke-width=".5"/>
   </g>
   <g id="hu">
    <path d="m628.09 506.42h18.508v-11.537h-18.508z" clip-path="url(#a)" fill="#5ec962" opacity=".5" stroke="#fff" stroke-width=".5"/>
   </g>
   <g id="hv">
    <path d="m646.6 506.42h18.508v-6.4896h-18.508z" clip-path="url(#a)" fill="#5ec962" opacity=".5" stroke="#fff" stroke-width=".5"/>
   </g>
   <g id="hw">
    <path d="m665.11 506.42h18.508v-9.0133h-18.508z" clip-path="url(#a)" fill="#5ec962" opacity=".5" stroke="#fff" stroke-width=".5"/>
   </g>
   <g id="hx">
    <path d="m683.62 506.42h18.508v-7.9317h-18.508z" clip-path="url(#a)" fill="#5ec962" opacity=".5" stroke="#fff" stroke-width=".5"/>
   </g>
   <g id="hy">
    <path d="m702.13 506.42h18.508v-9.7344h-18.508z" clip-path="url(#a)" fill="#5ec962" opacity=".5" stroke="#fff" stroke-width=".5"/>
   </g>
   <g id="hz">
    <path d="m720.64 506.42h18.508v-7.5712h-18.508z" clip-path="url(#a)" fill="#5ec962" opacity=".5" stroke="#fff" stroke-width=".5"/>
   </g>
   <g id="ia">
    <path d="m739.14 506.42h18.508v-7.5712h-18.508z" clip-path="url(#a)" fill="#5ec962" opacity=".5" stroke="#fff" stroke-width=".5"/>
   </g>
   <g id="ib">
    <path d="m757.65 506.42h18.508v-5.7685h-18.508z" clip-path="url(#a)" fill="#5ec962" opacity=".5" stroke="#fff" stroke-width=".5"/>
   </g>
   <g id="ic">
    <path d="m776.16 506.42h18.508v-4.3264h-18.508z" clip-path="url(#a)" fill="#5ec962" opacity=".5" stroke="#fff" stroke-width=".5"/>
   </g>
   <g id="id">
    <path d="m794.67 506.42h18.508v-5.7685h-18.508z" clip-path="url(#a)" fill="#5ec962" opacity=".5" stroke="#fff" stroke-width=".5"/>
   </g>
   <g id="ie">
    <path d="m91.355 506.42h18.508v-12.619h-18.508z" clip-path="url(#a)" fill="#fde725" opacity=".5" stroke="#fff" stroke-width=".5"/>
   </g>
   <g id="if">
    <path d="m109.86 506.42h18.508v-1.8027h-18.508z" clip-path="url(#a)" fill="#fde725" opacity=".5" stroke="#fff" stroke-width=".5"/>
   </g>
   <g id="ig">
    <path d="m128.37 506.42h18.508v-2.8843h-18.508z" clip-path="url(#a)" fill="#fde725" opacity=".5" stroke="#fff" stroke-width=".5"/>
   </g>
   <g id="ih">
    <path d="m146.88 506.42h18.508v-2.5237h-18.508z" clip-path="url(#a)" fill="#fde725" opacity=".5" stroke="#fff" stroke-width=".5"/>
   </g>
   <g id="ii">
    <path d="m165.39 506.42h18.508v-1.0816h-18.508z" clip-path="url(#a)" fill="#fde725" opacity=".5" stroke="#fff" stroke-width=".5"/>
   </g>
   <g id="ij">
    <path d="m183.9 506.42h18.508v-1.0816h-18.508z" clip-path="url(#a)" fill="#fde725" opacity=".5" stroke="#fff" stroke-width=".5"/>
   </g>
   <g id="ik">
    <path d="m202.4 506.42h18.508v-0.36053h-18.508z" clip-path="url(#a)" fill="#fde725" opacity=".5" stroke="#fff" stroke-width=".5"/>
   </g>
   <g id="il">
    <path d="m220.91 506.42h18.508v-1.0816h-18.508z" clip-path="url(#a)" fill="#fde725" opacity=".5" stroke="#fff" stroke-width=".5"/>
   </g>
   <g id="im">
    <path d="m239.42 506.42h18.508v-1.0816h-18.508z" clip-path="url(#a)" fill="#fde725" opacity=".5" stroke="#fff" stroke-width=".5"/>
   </g>
   <g id="in">
    <path d="m257.93 506.42h18.508v-0.36053h-18.508z" clip-path="url(#a)" fill="#fde725" opacity=".5" stroke="#fff" stroke-width=".5"/>
   </g>
   <g id="io">
    <path d="m276.44 506.42h18.508v-0.36053h-18.508z" clip-path="url(#a)" fill="#fde725" opacity=".5" stroke="#fff" stroke-width=".5"/>
   </g>
   <g id="ip">
    <path d="m294.95 506.42h18.508v-0.72106h-18.508z" clip-path="url(#a)" fill="#fde725" opacity=".5" stroke="#fff" stroke-width=".5"/>
   </g>
   <g id="iq">
    <path d="m313.45 506.42h18.508v-0.36053h-18.508z" clip-path="url(#a)" fill="#fde725" opacity=".5" stroke="#fff" stroke-width=".5"/>
   </g>
   <g id="ir">
    <path d="m331.96 506.42h18.508v-0.72106h-18.508z" clip-path="url(#a)" fill="#fde725" opacity=".5" stroke="#fff" stroke-width=".5"/>
   </g>
   <g id="is">
    <path d="m350.47 506.42h18.508v-0.72106h-18.508z" clip-path="url(#a)" fill="#fde725" opacity=".5" stroke="#fff" stroke-width=".5"/>
   </g>
   <g id="it">
    <path d="m368.98 506.42h18.508v-0.36053h-18.508z" clip-path="url(#a)" fill="#fde725" opacity=".5" stroke="#fff" stroke-width=".5"/>
   </g>
   <g id="iu">
    <path d="m387.49 506.42h18.508v-1.0816h-18.508z" clip-path="url(#a)" fill="#fde725" opacity=".5" stroke="#fff" stroke-width=".5"/>
   </g>
   <g id="iv">
    <path d="m406 506.42h18.508-18.508z" clip-path="url(#a)" fill="#fde725" opacity=".5" stroke="#fff" stroke-width=".5"/>
   </g>
   <g id="iw">
    <path d="m424.5 506.42h18.508v-0.36053h-18.508z" clip-path="url(#a)" fill="#fde725" opacity=".5" stroke="#fff" stroke-width=".5"/>
   </g>
   <g id="ix">
    <path d="m443.01 506.42h18.508-18.508z" clip-path="url(#a)" fill="#fde725" opacity=".5" stroke="#fff" stroke-width=".5"/>
   </g>
   <g id="iy">
    <path d="m461.52 506.42h18.508v-0.36053h-18.508z" clip-path="url(#a)" fill="#fde725" opacity=".5" stroke="#fff" stroke-width=".5"/>
   </g>
   <g id="iz">
    <path d="m480.03 506.42h18.508-18.508z" clip-path="url(#a)" fill="#fde725" opacity=".5" stroke="#fff" stroke-width=".5"/>
   </g>
   <g id="ja">
    <path d="m498.54 506.42h18.508-18.508z" clip-path="url(#a)" fill="#fde725" opacity=".5" stroke="#fff" stroke-width=".5"/>
   </g>
   <g id="jb">
    <path d="m517.05 506.42h18.508-18.508z" clip-path="url(#a)" fill="#fde725" opacity=".5" stroke="#fff" stroke-width=".5"/>
   </g>
   <g id="jc">
    <path d="m535.55 506.42h18.508-18.508z" clip-path="url(#a)" fill="#fde725" opacity=".5" stroke="#fff" stroke-width=".5"/>
   </g>
   <g id="jd">
    <path d="m554.06 506.42h18.508-18.508z" clip-path="url(#a)" fill="#fde725" opacity=".5" stroke="#fff" stroke-width=".5"/>
   </g>
   <g id="je">
    <path d="m572.57 506.42h18.508-18.508z" clip-path="url(#a)" fill="#fde725" opacity=".5" stroke="#fff" stroke-width=".5"/>
   </g>
   <g id="jf">
    <path d="m591.08 506.42h18.508-18.508z" clip-path="url(#a)" fill="#fde725" opacity=".5" stroke="#fff" stroke-width=".5"/>
   </g>
   <g id="jg">
    <path d="m609.59 506.42h18.508-18.508z" clip-path="url(#a)" fill="#fde725" opacity=".5" stroke="#fff" stroke-width=".5"/>
   </g>
   <g id="jh">
    <path d="m628.09 506.42h18.508-18.508z" clip-path="url(#a)" fill="#fde725" opacity=".5" stroke="#fff" stroke-width=".5"/>
   </g>
   <g id="ji">
    <path d="m646.6 506.42h18.508v-0.36053h-18.508z" clip-path="url(#a)" fill="#fde725" opacity=".5" stroke="#fff" stroke-width=".5"/>
   </g>
   <g id="jj">
    <path d="m665.11 506.42h18.508-18.508z" clip-path="url(#a)" fill="#fde725" opacity=".5" stroke="#fff" stroke-width=".5"/>
   </g>
   <g id="jk">
    <path d="m683.62 506.42h18.508-18.508z" clip-path="url(#a)" fill="#fde725" opacity=".5" stroke="#fff" stroke-width=".5"/>
   </g>
   <g id="jl">
    <path d="m702.13 506.42h18.508-18.508z" clip-path="url(#a)" fill="#fde725" opacity=".5" stroke="#fff" stroke-width=".5"/>
   </g>
   <g id="jm">
    <path d="m720.64 506.42h18.508-18.508z" clip-path="url(#a)" fill="#fde725" opacity=".5" stroke="#fff" stroke-width=".5"/>
   </g>
   <g id="jn">
    <path d="m739.14 506.42h18.508-18.508z" clip-path="url(#a)" fill="#fde725" opacity=".5" stroke="#fff" stroke-width=".5"/>
   </g>
   <g id="jo">
    <path d="m757.65 506.42h18.508-18.508z" clip-path="url(#a)" fill="#fde725" opacity=".5" stroke="#fff" stroke-width=".5"/>
   </g>
   <g id="jp">
    <path d="m776.16 506.42h18.508-18.508z" clip-path="url(#a)" fill="#fde725" opacity=".5" stroke="#fff" stroke-width=".5"/>
   </g>
   <g id="jq">
    <path d="m794.67 506.42h18.508-18.508z" clip-path="url(#a)" fill="#fde725" opacity=".5" stroke="#fff" stroke-width=".5"/>
   </g>
   <g id="jr">
    <g id="js">
     <g id="jt">
      <defs>
       <path id="e" d="m0 0v3.5" stroke="#000" stroke-width=".8"/>
      </defs>
      <use x="91.354886" y="506.415412" stroke="#000000" stroke-width=".8" xlink:href="#e"/>
     </g>
     <g id="ju">
      <g transform="translate(88.174 521.01) scale(.1 -.1)">
       <defs>
        <path id="b" transform="scale(.015625)" d="m2034 4250q-487 0-733-480-245-479-245-1442 0-959 245-1439 246-480 733-480 491 0 736 480 246 480 246 1439 0 963-246 1442-245 480-736 480zm0 500q785 0 1199-621 414-620 414-1801 0-1178-414-1799-414-620-1199-620-784 0-1198 620-414 621-414 1799 0 1181 414 1801 414 621 1198 621z"/>
       </defs>
       <use xlink:href="#b"/>
      </g>
     </g>
    </g>
    <g id="jv">
     <g id="jw">
      <use x="197.251136" y="506.415412" stroke="#000000" stroke-width=".8" xlink:href="#e"/>
     </g>
     <g id="jx">
      <g transform="translate(184.53 521.01) scale(.1 -.1)">
       <defs>
        <path id="o" transform="scale(.015625)" d="m794 531h1031v3560l-1122-225v575l1116 225h631v-4135h1031v-531h-2687v531z"/>
       </defs>
       <use xlink:href="#o"/>
       <use transform="translate(63.623)" xlink:href="#b"/>
       <use transform="translate(127.25)" xlink:href="#b"/>
       <use transform="translate(190.87)" xlink:href="#b"/>
      </g>
     </g>
    </g>
    <g id="jy">
     <g id="jz">
      <use x="303.147387" y="506.415412" stroke="#000000" stroke-width=".8" xlink:href="#e"/>
     </g>
     <g id="ka">
      <g transform="translate(290.42 521.01) scale(.1 -.1)">
       <defs>
        <path id="n" transform="scale(.015625)" d="m1228 531h2203v-531h-2962v531q359 372 979 998 621 627 780 809 303 340 423 576 121 236 121 464 0 372-261 606-261 235-680 235-297 0-627-103-329-103-704-313v638q381 153 712 231 332 78 607 78 725 0 1156-363 431-362 431-968 0-288-108-546-107-257-392-607-78-91-497-524-418-433-1181-1211z"/>
       </defs>
       <use xlink:href="#n"/>
       <use transform="translate(63.623)" xlink:href="#b"/>
       <use transform="translate(127.25)" xlink:href="#b"/>
       <use transform="translate(190.87)" xlink:href="#b"/>
      </g>
     </g>
    </g>
    <g id="kb">
     <g id="kc">
      <use x="409.043637" y="506.415412" stroke="#000000" stroke-width=".8" xlink:href="#e"/>
     </g>
     <g id="kd">
      <g transform="translate(396.32 521.01) scale(.1 -.1)">
       <defs>
        <path id="aj" transform="scale(.015625)" d="m2597 2516q453-97 707-404 255-306 255-756 0-690-475-1069-475-378-1350-378-293 0-604 58t-642 174v609q262-153 574-231 313-78 654-78 593 0 904 234t311 681q0 413-289 645-289 233-804 233h-544v519h569q465 0 712 186t247 536q0 359-255 551-254 193-729 193-260 0-557-57-297-56-653-174v562q360 100 674 150t592 50q719 0 1137-327 419-326 419-882 0-388-222-655t-631-370z"/>
       </defs>
       <use xlink:href="#aj"/>
       <use transform="translate(63.623)" xlink:href="#b"/>
       <use transform="translate(127.25)" xlink:href="#b"/>
       <use transform="translate(190.87)" xlink:href="#b"/>
      </g>
     </g>
    </g>
    <g id="ke">
     <g id="kf">
      <use x="514.939887" y="506.415412" stroke="#000000" stroke-width=".8" xlink:href="#e"/>
     </g>
     <g id="kg">
      <g transform="translate(502.21 521.01) scale(.1 -.1)">
       <defs>
        <path id="v" transform="scale(.015625)" d="m2419 4116-1594-2491h1594v2491zm-166 550h794v-3041h666v-525h-666v-1100h-628v1100h-2106v609l1940 2957z"/>
       </defs>
       <use xlink:href="#v"/>
       <use transform="translate(63.623)" xlink:href="#b"/>
       <use transform="translate(127.25)" xlink:href="#b"/>
       <use transform="translate(190.87)" xlink:href="#b"/>
      </g>
     </g>
    </g>
    <g id="kh">
     <g id="ki">
      <use x="620.836137" y="506.415412" stroke="#000000" stroke-width=".8" xlink:href="#e"/>
     </g>
     <g id="kj">
      <g transform="translate(608.11 521.01) scale(.1 -.1)">
       <defs>
        <path id="bx" transform="scale(.015625)" d="m691 4666h2478v-532h-1900v-1143q137 47 274 70 138 23 276 23 781 0 1237-428 457-428 457-1159 0-753-469-1171-469-417-1322-417-294 0-599 50-304 50-629 150v635q281-153 581-228t634-75q541 0 856 284 316 284 316 772 0 487-316 771-315 285-856 285-253 0-505-56-251-56-513-175v2344z"/>
       </defs>
       <use xlink:href="#bx"/>
       <use transform="translate(63.623)" xlink:href="#b"/>
       <use transform="translate(127.25)" xlink:href="#b"/>
       <use transform="translate(190.87)" xlink:href="#b"/>
      </g>
     </g>
    </g>
    <g id="kk">
     <g id="kl">
      <use x="726.732387" y="506.415412" stroke="#000000" stroke-width=".8" xlink:href="#e"/>
     </g>
     <g id="km">
      <g transform="translate(714.01 521.01) scale(.1 -.1)">
       <defs>
        <path id="ai" transform="scale(.015625)" d="m2113 2584q-425 0-674-291-248-290-248-796 0-503 248-796 249-292 674-292t673 292q248 293 248 796 0 506-248 796-248 291-673 291zm1253 1979v-575q-238 112-480 171-242 60-480 60-625 0-955-422-329-422-376-1275 184 272 462 417 279 145 613 145 703 0 1111-427 408-426 408-1160 0-719-425-1154-425-434-1131-434-810 0-1238 620-428 621-428 1799 0 1106 525 1764t1409 658q238 0 480-47t505-140z"/>
       </defs>
       <use xlink:href="#ai"/>
       <use transform="translate(63.623)" xlink:href="#b"/>
       <use transform="translate(127.25)" xlink:href="#b"/>
       <use transform="translate(190.87)" xlink:href="#b"/>
      </g>
     </g>
    </g>
    <g id="kn">
     <g id="ko">
      <use x="832.628637" y="506.415412" stroke="#000000" stroke-width=".8" xlink:href="#e"/>
     </g>
     <g id="kp">
      <g transform="translate(819.9 521.01) scale(.1 -.1)">
       <defs>
        <path id="bw" transform="scale(.015625)" d="m525 4666h3e3v-269l-1694-4397h-659l1594 4134h-2241v532z"/>
       </defs>
       <use xlink:href="#bw"/>
       <use transform="translate(63.623)" xlink:href="#b"/>
       <use transform="translate(127.25)" xlink:href="#b"/>
       <use transform="translate(190.87)" xlink:href="#b"/>
      </g>
     </g>
    </g>
    <g id="kq">
     <g transform="translate(395.28 536.21) scale(.12 -.12)">
      <defs>
       <path id="bs" transform="scale(.015625)" d="m628 4666h2950v-532h-2319v-1381h2222v-531h-2222v-1691h2375v-531h-3006v4666z"/>
       <path id="s" transform="scale(.015625)" d="m3513 2113v-2113h-575v2094q0 497-194 743-194 247-581 247-466 0-735-297-269-296-269-809v-1978h-578v3500h578v-544q207 316 486 472 280 156 646 156 603 0 912-373 310-373 310-1098z"/>
       <path id="t" transform="scale(.015625)" d="m2906 1791q0 625-258 968-257 344-723 344-462 0-720-344-258-343-258-968 0-622 258-966t720-344q466 0 723 344 258 344 258 966zm575-1357q0-893-397-1329-396-436-1215-436-303 0-572 45t-522 139v559q253-137 500-202 247-66 503-66 566 0 847 295t281 892v285q-178-310-456-463t-666-153q-643 0-1037 490-394 491-394 1301 0 812 394 1302 394 491 1037 491 388 0 666-153t456-462v531h575v-3066z"/>
       <path id="bm" transform="scale(.015625)" d="m2194 1759q-697 0-966-159t-269-544q0-306 202-486 202-179 548-179 479 0 768 339t289 901v128h-572zm1147 238v-1997h-575v531q-197-318-491-470t-719-152q-537 0-855 302-317 302-317 808 0 590 395 890 396 300 1180 300h807v57q0 397-261 614t-733 217q-300 0-585-72-284-72-546-216v532q315 122 612 182 297 61 578 61 760 0 1135-394 375-393 375-1193z"/>
       <path id="c" transform="scale(.015625)" d="m3597 1894v-281h-2644q38-594 358-905t892-311q331 0 642 81t618 244v-544q-310-131-635-200t-659-69q-838 0-1327 487-489 488-489 1320 0 859 464 1363 464 505 1252 505 706 0 1117-455 411-454 411-1235zm-575 169q-6 471-264 752-258 282-683 282-481 0-770-272t-333-766l2050 4z"/>
       <path id="ag" transform="scale(.015625)" d="m3328 2828q216 388 516 572t706 184q547 0 844-383 297-382 297-1088v-2113h-578v2094q0 503-179 746-178 244-543 244-447 0-707-297-259-296-259-809v-1978h-578v2094q0 506-178 748t-550 242q-441 0-701-298-259-298-259-808v-1978h-578v3500h578v-544q197 322 472 475t653 153q382 0 649-194 267-193 395-562z"/>
       <path id="d" transform="scale(.015625)" d="m1172 4494v-994h1184v-447h-1184v-1900q0-428 117-550t477-122h590v-481h-590q-666 0-919 248-253 249-253 905v1900h-422v447h422v994h578z"/>
       <path id="bn" transform="scale(.015625)" d="m3425 4513v-616q-359 172-678 256-319 85-616 85-515 0-795-200t-280-569q0-310 186-468 186-157 705-254l381-78q706-135 1042-474t336-907q0-679-455-1029-454-350-1332-350-331 0-705 75-373 75-773 222v650q384-215 753-325 369-109 725-109 540 0 834 212 294 213 294 607 0 343-211 537t-692 291l-385 75q-706 140-1022 440-315 300-315 835 0 619 436 975t1201 356q329 0 669-60 341-59 697-177z"/>
       <path id="u" transform="scale(.015625)" d="m3122 3366v-538q-244 135-489 202t-495 67q-560 0-870-355-309-354-309-995t309-996q310-354 870-354 250 0 495 67t489 202v-532q-241-112-499-168-257-57-548-57-791 0-1257 497-465 497-465 1341 0 856 470 1346 471 491 1290 491 265 0 518-55 253-54 491-163z"/>
       <path id="af" transform="scale(.015625)" d="m1959 3097q-462 0-731-361t-269-989 267-989q268-361 733-361 460 0 728 362 269 363 269 988 0 622-269 986-268 364-728 364zm0 487q750 0 1178-488 429-487 429-1349 0-859-429-1349-428-489-1178-489-753 0-1180 489-426 490-426 1349 0 862 426 1349 427 488 1180 488z"/>
       <path id="g" transform="scale(.015625)" d="m2631 2963q-97 56-211 82-114 27-251 27-488 0-749-317t-261-911v-1844h-578v3500h578v-544q182 319 472 473 291 155 707 155 59 0 131-8 72-7 159-23l3-590z"/>
      </defs>
      <use xlink:href="#bs"/>
      <use transform="translate(63.184)" xlink:href="#s"/>
      <use transform="translate(126.56)" xlink:href="#t"/>
      <use transform="translate(190.04)" xlink:href="#bm"/>
      <use transform="translate(251.32)" xlink:href="#t"/>
      <use transform="translate(314.79)" xlink:href="#c"/>
      <use transform="translate(376.32)" xlink:href="#ag"/>
      <use transform="translate(473.73)" xlink:href="#c"/>
      <use transform="translate(535.25)" xlink:href="#s"/>
      <use transform="translate(598.63)" xlink:href="#d"/>
      <use transform="translate(637.84)" xlink:href="#DejaVuSans-20"/>
      <use transform="translate(669.63)" xlink:href="#bn"/>
      <use transform="translate(733.11)" xlink:href="#u"/>
      <use transform="translate(788.09)" xlink:href="#af"/>
      <use transform="translate(849.27)" xlink:href="#g"/>
      <use transform="translate(888.13)" xlink:href="#c"/>
     </g>
    </g>
   </g>
   <g id="kr">
    <g id="ks">
     <g id="kt">
      <path d="m55.264 506.42h794" clip-path="url(#a)" fill="none" stroke="#b0b0b0" stroke-linecap="square" stroke-opacity=".3" stroke-width=".8"/>
     </g>
     <g id="ku">
      <defs>
       <path id="h" d="m0 0h-3.5" stroke="#000" stroke-width=".8"/>
      </defs>
      <use x="55.26375" y="506.415412" stroke="#000000" stroke-width=".8" xlink:href="#h"/>
     </g>
     <g id="kv">
      <g transform="translate(41.901 510.21) scale(.1 -.1)">
       <use xlink:href="#b"/>
      </g>
     </g>
    </g>
    <g id="kw">
     <g id="kx">
      <path d="m55.264 434.31h794" clip-path="url(#a)" fill="none" stroke="#b0b0b0" stroke-linecap="square" stroke-opacity=".3" stroke-width=".8"/>
     </g>
     <g id="ky">
      <use x="55.26375" y="434.308892" stroke="#000000" stroke-width=".8" xlink:href="#h"/>
     </g>
     <g id="kz">
      <g transform="translate(29.176 438.11) scale(.1 -.1)">
       <use xlink:href="#n"/>
       <use transform="translate(63.623)" xlink:href="#b"/>
       <use transform="translate(127.25)" xlink:href="#b"/>
      </g>
     </g>
    </g>
    <g id="la">
     <g id="lb">
      <path d="m55.264 362.2h794" clip-path="url(#a)" fill="none" stroke="#b0b0b0" stroke-linecap="square" stroke-opacity=".3" stroke-width=".8"/>
     </g>
     <g id="lc">
      <use x="55.26375" y="362.202372" stroke="#000000" stroke-width=".8" xlink:href="#h"/>
     </g>
     <g id="ld">
      <g transform="translate(29.176 366) scale(.1 -.1)">
       <use xlink:href="#v"/>
       <use transform="translate(63.623)" xlink:href="#b"/>
       <use transform="translate(127.25)" xlink:href="#b"/>
      </g>
     </g>
    </g>
    <g id="le">
     <g id="lf">
      <path d="m55.264 290.1h794" clip-path="url(#a)" fill="none" stroke="#b0b0b0" stroke-linecap="square" stroke-opacity=".3" stroke-width=".8"/>
     </g>
     <g id="lg">
      <use x="55.26375" y="290.095851" stroke="#000000" stroke-width=".8" xlink:href="#h"/>
     </g>
     <g id="lh">
      <g transform="translate(29.176 293.9) scale(.1 -.1)">
       <use xlink:href="#ai"/>
       <use transform="translate(63.623)" xlink:href="#b"/>
       <use transform="translate(127.25)" xlink:href="#b"/>
      </g>
     </g>
    </g>
    <g id="li">
     <g id="lj">
      <path d="m55.264 217.99h794" clip-path="url(#a)" fill="none" stroke="#b0b0b0" stroke-linecap="square" stroke-opacity=".3" stroke-width=".8"/>
     </g>
     <g id="lk">
      <use x="55.26375" y="217.989331" stroke="#000000" stroke-width=".8" xlink:href="#h"/>
     </g>
     <g id="ll">
      <g transform="translate(29.176 221.79) scale(.1 -.1)">
       <defs>
        <path id="bv" transform="scale(.015625)" d="m2034 2216q-450 0-708-241-257-241-257-662 0-422 257-663 258-241 708-241t709 242q260 243 260 662 0 421-258 662-257 241-711 241zm-631 268q-406 100-633 378-226 279-226 679 0 559 398 884 399 325 1092 325 697 0 1094-325t397-884q0-400-227-679-226-278-629-378 456-106 710-416 255-309 255-755 0-679-414-1042-414-362-1186-362-771 0-1186 362-414 363-414 1042 0 446 256 755 257 310 713 416zm-231 997q0-362 226-565 227-203 636-203 407 0 636 203 230 203 230 565 0 363-230 566-229 203-636 203-409 0-636-203-226-203-226-566z"/>
       </defs>
       <use xlink:href="#bv"/>
       <use transform="translate(63.623)" xlink:href="#b"/>
       <use transform="translate(127.25)" xlink:href="#b"/>
      </g>
     </g>
    </g>
    <g id="lm">
     <g id="ln">
      <path d="m55.264 145.88h794" clip-path="url(#a)" fill="none" stroke="#b0b0b0" stroke-linecap="square" stroke-opacity=".3" stroke-width=".8"/>
     </g>
     <g id="lo">
      <use x="55.26375" y="145.88281" stroke="#000000" stroke-width=".8" xlink:href="#h"/>
     </g>
     <g id="lp">
      <g transform="translate(22.814 149.68) scale(.1 -.1)">
       <use xlink:href="#o"/>
       <use transform="translate(63.623)" xlink:href="#b"/>
       <use transform="translate(127.25)" xlink:href="#b"/>
       <use transform="translate(190.87)" xlink:href="#b"/>
      </g>
     </g>
    </g>
    <g id="lq">
     <g id="lr">
      <path d="m55.264 73.776h794" clip-path="url(#a)" fill="none" stroke="#b0b0b0" stroke-linecap="square" stroke-opacity=".3" stroke-width=".8"/>
     </g>
     <g id="ls">
      <use x="55.26375" y="73.77629" stroke="#000000" stroke-width=".8" xlink:href="#h"/>
     </g>
     <g id="lt">
      <g transform="translate(22.814 77.576) scale(.1 -.1)">
       <use xlink:href="#o"/>
       <use transform="translate(63.623)" xlink:href="#n"/>
       <use transform="translate(127.25)" xlink:href="#b"/>
       <use transform="translate(190.87)" xlink:href="#b"/>
      </g>
     </g>
    </g>
    <g id="lu">
     <g transform="translate(16.318 300.62) rotate(-90) scale(.12 -.12)">
      <defs>
       <path id="br" transform="scale(.015625)" d="m628 4666h2681v-532h-2050v-1375h1850v-531h-1850v-2228h-631v4666z"/>
       <path id="bj" transform="scale(.015625)" d="m947 1747q0-634 261-995t717-361 718 361q263 361 263 995t-263 995q-262 361-718 361t-717-361-261-995zm1959-1222q-181-312-458-464-276-152-664-152-634 0-1033 506-398 507-398 1332t398 1331q399 506 1033 506 388 0 664-152 277-151 458-463v531h575v-4831h-575v1856z"/>
       <path id="f" transform="scale(.015625)" d="m544 1381v2119h575v-2097q0-497 193-746 194-248 582-248 465 0 735 297 271 297 271 810v1984h575v-3500h-575v538q-209-319-486-474-276-155-642-155-603 0-916 375-312 375-312 1097zm1447 2203z"/>
       <path id="bi" transform="scale(.015625)" d="m2059-325q-243-625-475-815-231-191-618-191h-460v481h338q237 0 368 113 132 112 291 531l103 262-1415 3444h609l1094-2737 1094 2737h609l-1538-3825z"/>
      </defs>
      <use xlink:href="#br"/>
      <use transform="translate(50.27)" xlink:href="#g"/>
      <use transform="translate(89.133)" xlink:href="#c"/>
      <use transform="translate(150.66)" xlink:href="#bj"/>
      <use transform="translate(214.13)" xlink:href="#f"/>
      <use transform="translate(277.51)" xlink:href="#c"/>
      <use transform="translate(339.04)" xlink:href="#s"/>
      <use transform="translate(402.41)" xlink:href="#u"/>
      <use transform="translate(457.39)" xlink:href="#bi"/>
     </g>
    </g>
   </g>
   <g id="lv">
    <path d="m55.264 506.42v-473.58" fill="none" stroke="#000" stroke-linecap="square" stroke-width=".8"/>
   </g>
   <g id="lw">
    <path d="m55.264 506.42h794" fill="none" stroke="#000" stroke-linecap="square" stroke-width=".8"/>
   </g>
   <g id="lx">
    <g transform="translate(350.12 563.24) scale(.09 -.09)" fill="#808080">
     <defs>
      <path id="ao" transform="scale(.015625)" d="m3859 4513-121-616q-316 169-627 255t-602 86q-565 0-900-247-334-247-334-657 0-225 123-345 124-120 636-258l379-93q640-166 890-421 250-254 250-714 0-706-555-1150-554-444-1460-444-372 0-747 74-375 73-753 223l128 650q347-215 695-325 348-109 695-109 591 0 947 262 356 263 356 685 0 281-142 426-142 146-611 264l-378 97q-647 169-883 389-236 221-236 618 0 696 536 1141 536 446 1396 446 334 0 662-60 328-59 656-177z"/>
      <path id="an" transform="scale(.015625)" d="m3431 3366-115-569q-207 150-440 225-232 75-482 75-275 0-524-97-248-97-417-275-269-272-416-638-146-365-146-756 0-472 236-703t717-231q237 0 504 72 268 72 558 215l-109-568q-250-103-514-155t-542-52q-697 0-1072 348-375 349-375 996 0 544 195 1002t580 823q262 250 615 378 354 128 772 128 244 0 484-55 241-54 491-163z"/>
      <path id="l" transform="scale(.015625)" d="m1625-91q-616 0-974 380-357 380-357 1036 0 381 123 776 124 396 321 665 309 418 690 618t863 200q597 0 964-372 367-371 367-971 0-416-122-829-122-412-319-684-306-419-687-619t-869-200zm-734 1435q0-475 198-711 199-236 602-236 578 0 957 504 380 505 380 1280 0 453-203 684-203 232-597 232-325 0-578-152-253-151-453-461-147-231-227-528-79-297-79-612z"/>
      <path id="w" transform="scale(.015625)" d="m2853 2969q-87 47-200 72-112 25-240 25-460 0-804-349-343-348-456-933l-353-1784h-575l684 3500h575l-109-544q228 303 545 465 318 163 677 163 94 0 184-11 91-10 182-35l-110-569z"/>
      <path id="y" transform="scale(.015625)" d="m3078 2063q10 50 14 103 5 53 5 106 0 381-224 603-223 222-607 222-428 0-757-271-328-270-496-767l2065 4zm500-450h-2675q-19-119-25-188t-6-119q0-434 267-672 267-237 755-237 375 0 709 84 335 85 622 247l-109-569q-310-125-640-187-329-63-670-63-728 0-1120 348-392 349-392 990 0 547 195 1017t574 839q243 231 579 356t714 125q594 0 945-356 352-356 352-956 0-144-19-308-18-164-56-351z"/>
      <path id="as" transform="scale(.015625)" d="m678 2906h4006v-525h-4006v525zm0-1275h4006v-531h-4006v531z"/>
      <path id="av" transform="scale(.015625)" d="m2731 4856q-828-1034-1236-1964-407-929-407-1792 0-494 118-980 119-486 357-964h-500q-288 538-429 1045-140 508-140 996 0 928 429 1839 430 911 1299 1820h509z"/>
      <path id="q" transform="scale(.015625)" d="m2444 4750q634 0 970-422t336-1212q0-600-158-1193-158-592-442-1060-291-469-683-712-392-242-867-242-612 0-947 425-334 425-334 1210 0 594 161 1189t448 1061q288 469 674 712 386 244 842 244zm-38-500q-237 0-451-127-214-126-386-373-288-412-458-1030-170-617-170-1267 0-515 182-780 183-264 540-264 250 0 462 127 213 127 384 373 285 410 452 1027t167 1270q0 516-183 780-182 264-539 264z"/>
      <path id="r" transform="scale(.015625)" d="m525 794h659l-153-794h-659l153 794z"/>
      <path id="at" transform="scale(.015625)" d="m2950 2253-2016-1728h2229l-110-525h-3028l103 531 2106 1807q422 365 598 641 177 277 177 568 0 303-213 493-212 191-555 191-297 0-660-106-362-106-775-309l116 625q387 153 740 231 354 78 654 78 612 0 985-325 374-325 374-853 0-356-178-680-178-323-547-639z"/>
      <path id="p" transform="scale(.015625)" d="m4488 3438-1429-1435 1429-1428-372-378-1435 1434-1434-1434-369 378 1425 1428-1425 1435 369 378 1434-1435 1435 1435 372-378z"/>
      <path id="aq" transform="scale(.015625)" d="m1081 4666h1357q1081 0 1632-458 552-458 552-1361 0-597-210-1149-209-551-578-929-371-388-943-579-572-190-1353-190h-1366l909 4666zm532-519-704-3628h825q1060 0 1641 609 581 610 581 1719 0 672-375 986t-1175 314h-793z"/>
      <path id="al" transform="scale(.015625)" d="m5747 2113-409-2113h-575l403 2094q25 134 37 231 13 97 13 166 0 281-157 437-156 156-437 156-419 0-747-314t-425-817l-384-1953h-575l409 2094q25 115 37 213 13 99 13 177 0 285-156 442-156 158-431 158-425 0-754-314-328-314-425-817l-384-1953h-575l684 3500h575l-109-544q234 307 548 467 315 161 674 161 381 0 626-200 246-200 296-556 262 369 607 562 346 194 730 194 450 0 695-259 246-259 246-734 0-103-13-227-12-123-37-251z"/>
      <path id="aa" transform="scale(.015625)" d="m2944 4013v-1741h1740v-531h-1740v-1741h-525v1741h-1741v531h1741v1741h525z"/>
      <path id="z" transform="scale(.015625)" d="m2753 4666h794l-597-3041h666l-103-525h-666l-209-1100h-629l213 1100h-2106l122 609 2515 2957zm56-550-2081-2491h1594l487 2491z"/>
      <path id="ar" transform="scale(.015625)" d="m1081 4666h1613q656 0 981-244t325-734q0-450-280-777-279-327-732-395 387-88 581-335t194-659q0-703-521-1113-520-409-1423-409h-1647l909 4666zm153-2438-331-1709h1016q572 0 881 262 309 263 309 741 0 369-205 537-204 169-657 169h-1013zm372 1919-275-1406h941q503 0 786 218 283 219 283 607 0 303-191 442t-609 139h-935z"/>
      <path id="am" transform="scale(.015625)" d="m1172 4863h575l-141-729h-575l141 729zm-263-1363h575l-684-3500h-575l684 3500z"/>
      <path id="ap" transform="scale(.015625)" d="m1081 4666h2950l-103-532h-2322l-268-1381h2228l-103-531h-2229l-325-1691h2375l-103-531h-3009l909 4666z"/>
      <path id="ak" transform="scale(.015625)" d="m3566 2113-410-2113h-578l410 2091q28 147 43 259 16 113 16 178 0 263-166 409-165 147-462 147-463 0-797-308-334-307-438-835l-384-1941h-575l678 3500h575l-115-550q240 303 577 468 338 166 710 166 463 0 717-250 255-250 255-703 0-112-14-240t-42-278z"/>
      <path id="x" transform="scale(.015625)" d="m1172 4863h575l-947-4863h-575l947 4863z"/>
      <path id="au" transform="scale(.015625)" d="m-397-844q831 1035 1237 1964 407 930 407 1793 0 493-117 979t-355 964h500q288-540 428-1044 141-503 141-990 0-931-433-1849-433-917-1295-1817h-513z"/>
     </defs>
     <use xlink:href="#ao"/>
     <use transform="translate(63.477)" xlink:href="#an"/>
     <use transform="translate(118.46)" xlink:href="#l"/>
     <use transform="translate(179.64)" xlink:href="#w"/>
     <use transform="translate(220.75)" xlink:href="#y"/>
     <use transform="translate(282.28)" xlink:href="#DejaVuSans-Oblique-20"/>
     <use transform="translate(314.06)" xlink:href="#as"/>
     <use transform="translate(397.85)" xlink:href="#DejaVuSans-Oblique-20"/>
     <use transform="translate(429.64)" xlink:href="#av"/>
     <use transform="translate(468.65)" xlink:href="#q"/>
     <use transform="translate(532.28)" xlink:href="#r"/>
     <use transform="translate(564.06)" xlink:href="#at"/>
     <use transform="translate(627.69)" xlink:href="#p"/>
     <use transform="translate(711.47)" xlink:href="#aq"/>
     <use transform="translate(788.48)" xlink:href="#y"/>
     <use transform="translate(850)" xlink:href="#al"/>
     <use transform="translate(947.41)" xlink:href="#l"/>
     <use transform="translate(1008.6)" xlink:href="#DejaVuSans-Oblique-20"/>
     <use transform="translate(1040.4)" xlink:href="#aa"/>
     <use transform="translate(1124.2)" xlink:href="#DejaVuSans-Oblique-20"/>
     <use transform="translate(1156)" xlink:href="#q"/>
     <use transform="translate(1219.6)" xlink:href="#r"/>
     <use transform="translate(1251.4)" xlink:href="#z"/>
     <use transform="translate(1315)" xlink:href="#p"/>
     <use transform="translate(1398.8)" xlink:href="#ar"/>
     <use transform="translate(1467.4)" xlink:href="#am"/>
     <use transform="translate(1495.2)" xlink:href="#l"/>
     <use transform="translate(1556.3)" xlink:href="#DejaVuSans-Oblique-20"/>
     <use transform="translate(1588.1)" xlink:href="#aa"/>
     <use transform="translate(1671.9)" xlink:href="#DejaVuSans-Oblique-20"/>
     <use transform="translate(1703.7)" xlink:href="#q"/>
     <use transform="translate(1767.3)" xlink:href="#r"/>
     <use transform="translate(1799.1)" xlink:href="#z"/>
     <use transform="translate(1862.7)" xlink:href="#p"/>
     <use transform="translate(1946.5)" xlink:href="#ap"/>
     <use transform="translate(2009.7)" xlink:href="#ak"/>
     <use transform="translate(2073.1)" xlink:href="#w"/>
     <use transform="translate(2114.2)" xlink:href="#l"/>
     <use transform="translate(2175.4)" xlink:href="#x"/>
     <use transform="translate(2203.2)" xlink:href="#x"/>
     <use transform="translate(2231)" xlink:href="#au"/>
    </g>
   </g>
   <g id="ly">
    <g transform="translate(335.32 17.838) scale(.14 -.14)">
     <defs>
      <path id="bg" transform="scale(.015625)" d="m588 4666h3246v-910h-2043v-868h1922v-910h-1922v-1069h2112v-909h-3315v4666z"/>
      <path id="ad" transform="scale(.015625)" d="m4056 2131v-2131h-1125v347 1284q0 453-20 625t-70 253q-66 110-179 171-112 61-256 61-350 0-550-271-200-270-200-748v-1722h-1118v3500h1118v-512q253 306 537 451 285 145 629 145 606 0 920-372 314-371 314-1081z"/>
      <path id="ae" transform="scale(.015625)" d="m2919 594q-231-306-510-450-278-144-643-144-641 0-1060 504-418 505-418 1287 0 784 418 1285 419 502 1060 502 365 0 643-144 279-143 510-453v519h1125v-3147q0-844-533-1289t-1545-445q-328 0-635 50-306 50-615 153v872q293-169 574-252 282-83 566-83 550 0 806 241 257 241 257 753v241zm-738 2178q-347 0-541-257-193-256-193-724 0-482 187-730 188-248 547-248 350 0 544 256t194 722q0 468-194 724-194 257-544 257z"/>
      <path id="be" transform="scale(.015625)" d="m2106 1575q-350 0-527-119-176-118-176-350 0-212 142-333 143-120 396-120 315 0 531 226 216 227 216 568v128h-582zm1710 422v-1997h-1128v519q-225-319-507-465-281-145-684-145-544 0-883 317-339 318-339 824 0 616 423 903 424 288 1330 288h660v87q0 266-210 389-209 124-653 124-359 0-669-72-309-72-575-216v853q360 88 722 133 363 45 725 45 947 0 1367-373 421-373 421-1214z"/>
      <path id="m" transform="scale(.015625)" d="m4031 1759v-318h-2615q40-394 284-591t681-197q353 0 723 105 371 105 762 317v-862q-397-150-794-227t-794-77q-950 0-1477 483-526 483-526 1355 0 856 517 1346 517 491 1424 491 825 0 1320-497 495-496 495-1328zm-1150 372q0 319-186 514-186 196-486 196-325 0-528-183t-253-527h1453z"/>
      <path id="ba" transform="scale(.015625)" d="m3781 2919q213 325 505 495t642 170q603 0 919-372 316-371 316-1081v-2131h-1125v1825q3 41 4 84 2 44 2 125 0 372-110 539-109 168-353 168-318 0-492-263-173-262-180-759v-1719h-1125v1825q0 581-100 748-100 168-356 168-322 0-497-264t-175-755v-1722h-1125v3500h1125v-512q207 296 474 446t589 150q362 0 640-175 279-175 422-490z"/>
      <path id="ab" transform="scale(.015625)" d="m1759 4494v-994h1154v-800h-1154v-1484q0-244 97-330t385-86h575v-800h-960q-662 0-939 276-276 277-276 940v1484h-557v800h557v994h1118z"/>
      <path id="bf" transform="scale(.015625)" d="m3834 4519v-988q-384 172-750 259-365 88-690 88-431 0-638-119-206-118-206-368 0-188 139-293 139-104 505-179l512-103q778-157 1106-476 329-318 329-906 0-771-458-1148t-1399-377q-443 0-890 85-447 84-894 250v1015q447-237 864-358 417-120 805-120 394 0 603 131 209 132 209 376 0 218-142 337t-567 213l-466 103q-700 150-1024 478-323 328-323 884 0 697 450 1072t1294 375q385 0 791-58t840-173z"/>
      <path id="bc" transform="scale(.015625)" d="m3366 3391v-913q-228 156-458 231t-477 75q-468 0-729-273t-261-764 261-765q261-273 729-273 263 0 499 78 236 79 436 232v-916q-263-97-533-145-270-49-542-49-947 0-1482 486-534 486-534 1352t534 1351q535 486 1482 486 275 0 542-48t533-145z"/>
      <path id="az" transform="scale(.015625)" d="m2203 2784q-372 0-567-267t-195-770 195-771q195-267 567-267 366 0 559 267 194 268 194 771t-194 770q-193 267-559 267zm0 800q903 0 1411-488 508-487 508-1349 0-863-508-1351-508-487-1411-487-906 0-1417 487-511 488-511 1351 0 862 511 1349 511 488 1417 488z"/>
      <path id="ac" transform="scale(.015625)" d="m3138 2547q-147 69-293 101-145 33-292 33-431 0-664-277-233-276-233-791v-1613h-1118v3500h1118v-575q216 344 495 501 280 158 671 158 56 0 121-5 66-4 191-20l4-1012z"/>
      <path id="bd" transform="scale(.015625)" d="m2400 722q359 0 548 262 190 263 190 763t-190 762q-189 263-548 263t-552-264q-192-264-192-761t192-761q193-264 552-264zm-744 2266q232 306 513 451t647 145q647 0 1062-514 416-514 416-1323t-416-1324q-415-514-1062-514-366 0-647 145-281 146-513 452v-506h-1118v4863h1118v-1875z"/>
      <path id="aw" transform="scale(.015625)" d="m78 3500h1119l941-2375 800 2375h1118l-1472-3831q-221-585-517-817-295-233-779-233h-647v734h350q284 0 413 91 130 90 202 325l32 97-1560 3634z"/>
      <path id="bh" transform="scale(.015625)" d="m4288 256q-332-172-691-259-359-88-750-88-1166 0-1847 652t-681 1767q0 1119 681 1770 681 652 1847 652 391 0 750-88 359-87 691-259v-965q-335 228-660 334t-684 106q-644 0-1013-413-368-412-368-1137 0-722 368-1135 369-412 1013-412 359 0 684 106 325 107 660 335v-966z"/>
      <path id="bb" transform="scale(.015625)" d="m538 4863h1118v-4863h-1118v4863z"/>
      <path id="ax" transform="scale(.015625)" d="m500 1363v2137h1125v-350q0-284-3-714t-3-573q0-422 22-608t75-271q68-109 179-169 111-59 255-59 350 0 550 269t200 747v1728h1119v-3500h-1119v506q-253-306-536-452-283-145-623-145-607 0-924 372t-317 1082z"/>
      <path id="ay" transform="scale(.015625)" d="m3272 3391v-850q-359 150-694 225-334 75-631 75-319 0-474-80-154-80-154-245 0-135 117-207 117-71 420-106l197-28q860-109 1156-359 297-250 297-785 0-559-413-841-412-281-1230-281-347 0-718 55-370 55-761 164v850q335-162 686-244 352-81 714-81 329 0 494 90 166 91 166 270 0 150-114 223t-455 114l-197 25q-747 94-1047 347t-300 769q0 556 381 824 382 269 1169 269 310 0 650-47 341-46 741-146z"/>
     </defs>
     <use xlink:href="#bg"/>
     <use transform="translate(68.311)" xlink:href="#ad"/>
     <use transform="translate(139.5)" xlink:href="#ae"/>
     <use transform="translate(211.08)" xlink:href="#be"/>
     <use transform="translate(278.56)" xlink:href="#ae"/>
     <use transform="translate(350.15)" xlink:href="#m"/>
     <use transform="translate(417.97)" xlink:href="#ba"/>
     <use transform="translate(522.17)" xlink:href="#m"/>
     <use transform="translate(589.99)" xlink:href="#ad"/>
     <use transform="translate(661.18)" xlink:href="#ab"/>
     <use transform="translate(708.98)" xlink:href="#DejaVuSans-Bold-20"/>
     <use transform="translate(743.8)" xlink:href="#bf"/>
     <use transform="translate(815.82)" xlink:href="#bc"/>
     <use transform="translate(875.1)" xlink:href="#az"/>
     <use transform="translate(943.8)" xlink:href="#ac"/>
     <use transform="translate(993.12)" xlink:href="#m"/>
     <use transform="translate(1060.9)" xlink:href="#DejaVuSans-Bold-20"/>
     <use transform="translate(1095.8)" xlink:href="#bd"/>
     <use transform="translate(1167.3)" xlink:href="#aw"/>
     <use transform="translate(1232.5)" xlink:href="#DejaVuSans-Bold-20"/>
     <use transform="translate(1267.3)" xlink:href="#bh"/>
     <use transform="translate(1340.7)" xlink:href="#bb"/>
     <use transform="translate(1375)" xlink:href="#ax"/>
     <use transform="translate(1446.2)" xlink:href="#ay"/>
     <use transform="translate(1505.7)" xlink:href="#ab"/>
     <use transform="translate(1553.5)" xlink:href="#m"/>
     <use transform="translate(1621.3)" xlink:href="#ac"/>
    </g>
   </g>
   <g id="lz">
    <g id="ma">
     <path d="m765.24 128.91h77.033q2 0 2-2v-87.069q0-2-2-2h-77.033q-2 0-2 2v87.069q0 2 2 2z" fill="#fff" opacity=".8" stroke="#ccc"/>
    </g>
    <g id="mb">
     <g transform="translate(779.09 49.436) scale(.1 -.1)">
      <defs>
       <path id="k" transform="scale(.015625)" d="m4122 4306v-665q-319 297-680 443-361 147-767 147-800 0-1225-489t-425-1414q0-922 425-1411t1225-489q406 0 767 147t680 444v-660q-331-225-702-338-370-112-782-112-1060 0-1670 648-609 649-609 1771 0 1125 609 1773 610 649 1670 649 418 0 788-111 371-111 696-333z"/>
       <path id="j" transform="scale(.015625)" d="m603 4863h575v-4863h-575v4863z"/>
       <path id="i" transform="scale(.015625)" d="m2834 3397v-544q-243 125-506 187-262 63-544 63-428 0-642-131t-214-394q0-200 153-314t616-217l197-44q612-131 870-370t258-667q0-488-386-773-386-284-1061-284-281 0-586 55t-642 164v594q319-166 628-249 309-82 613-82 406 0 624 139 219 139 219 392 0 234-158 359-157 125-692 241l-200 47q-534 112-772 345-237 233-237 639 0 494 350 762 350 269 994 269 318 0 599-47 282-46 519-140z"/>
       <path id="bq" transform="scale(.015625)" d="m628 4666h631v-4666h-631v4666z"/>
       <path id="bt" transform="scale(.015625)" d="m1259 4147v-3628h763q966 0 1414 437 448 438 448 1382 0 937-448 1373t-1414 436h-763zm-631 519h1297q1356 0 1990-564 635-564 635-1764 0-1207-638-1773-637-565-1987-565h-1297v4666z"/>
      </defs>
      <use xlink:href="#k"/>
      <use transform="translate(69.824)" xlink:href="#j"/>
      <use transform="translate(97.607)" xlink:href="#f"/>
      <use transform="translate(160.99)" xlink:href="#i"/>
      <use transform="translate(213.09)" xlink:href="#d"/>
      <use transform="translate(252.29)" xlink:href="#c"/>
      <use transform="translate(313.82)" xlink:href="#g"/>
      <use transform="translate(354.93)" xlink:href="#DejaVuSans-20"/>
      <use transform="translate(386.72)" xlink:href="#bq"/>
      <use transform="translate(416.21)" xlink:href="#bt"/>
     </g>
    </g>
    <g id="mc">
     <path d="m767.24 64.114h20v-7h-20z" fill="#440154" opacity=".5" stroke="#fff" stroke-width=".5"/>
    </g>
    <g id="md">
     <g transform="translate(795.24 64.114) scale(.1 -.1)">
      <use xlink:href="#k"/>
      <use transform="translate(69.824)" xlink:href="#j"/>
      <use transform="translate(97.607)" xlink:href="#f"/>
      <use transform="translate(160.99)" xlink:href="#i"/>
      <use transform="translate(213.09)" xlink:href="#d"/>
      <use transform="translate(252.29)" xlink:href="#c"/>
      <use transform="translate(313.82)" xlink:href="#g"/>
      <use transform="translate(354.93)" xlink:href="#DejaVuSans-20"/>
      <use transform="translate(386.72)" xlink:href="#b"/>
     </g>
    </g>
    <g id="me">
     <path d="m767.24 78.792h20v-7h-20z" fill="#3b528b" opacity=".5" stroke="#fff" stroke-width=".5"/>
    </g>
    <g id="mf">
     <g transform="translate(795.24 78.792) scale(.1 -.1)">
      <use xlink:href="#k"/>
      <use transform="translate(69.824)" xlink:href="#j"/>
      <use transform="translate(97.607)" xlink:href="#f"/>
      <use transform="translate(160.99)" xlink:href="#i"/>
      <use transform="translate(213.09)" xlink:href="#d"/>
      <use transform="translate(252.29)" xlink:href="#c"/>
      <use transform="translate(313.82)" xlink:href="#g"/>
      <use transform="translate(354.93)" xlink:href="#DejaVuSans-20"/>
      <use transform="translate(386.72)" xlink:href="#o"/>
     </g>
    </g>
    <g id="mg">
     <path d="m767.24 93.471h20v-7h-20z" fill="#21918c" opacity=".5" stroke="#fff" stroke-width=".5"/>
    </g>
    <g id="mh">
     <g transform="translate(795.24 93.471) scale(.1 -.1)">
      <use xlink:href="#k"/>
      <use transform="translate(69.824)" xlink:href="#j"/>
      <use transform="translate(97.607)" xlink:href="#f"/>
      <use transform="translate(160.99)" xlink:href="#i"/>
      <use transform="translate(213.09)" xlink:href="#d"/>
      <use transform="translate(252.29)" xlink:href="#c"/>
      <use transform="translate(313.82)" xlink:href="#g"/>
      <use transform="translate(354.93)" xlink:href="#DejaVuSans-20"/>
      <use transform="translate(386.72)" xlink:href="#n"/>
     </g>
    </g>
    <g id="mi">
     <path d="m767.24 108.15h20v-7h-20z" fill="#5ec962" opacity=".5" stroke="#fff" stroke-width=".5"/>
    </g>
    <g id="mj">
     <g transform="translate(795.24 108.15) scale(.1 -.1)">
      <use xlink:href="#k"/>
      <use transform="translate(69.824)" xlink:href="#j"/>
      <use transform="translate(97.607)" xlink:href="#f"/>
      <use transform="translate(160.99)" xlink:href="#i"/>
      <use transform="translate(213.09)" xlink:href="#d"/>
      <use transform="translate(252.29)" xlink:href="#c"/>
      <use transform="translate(313.82)" xlink:href="#g"/>
      <use transform="translate(354.93)" xlink:href="#DejaVuSans-20"/>
      <use transform="translate(386.72)" xlink:href="#aj"/>
     </g>
    </g>
    <g id="mk">
     <path d="m767.24 122.83h20v-7h-20z" fill="#fde725" opacity=".5" stroke="#fff" stroke-width=".5"/>
    </g>
    <g id="ml">
     <g transform="translate(795.24 122.83) scale(.1 -.1)">
      <use xlink:href="#k"/>
      <use transform="translate(69.824)" xlink:href="#j"/>
      <use transform="translate(97.607)" xlink:href="#f"/>
      <use transform="translate(160.99)" xlink:href="#i"/>
      <use transform="translate(213.09)" xlink:href="#d"/>
      <use transform="translate(252.29)" xlink:href="#c"/>
      <use transform="translate(313.82)" xlink:href="#g"/>
      <use transform="translate(354.93)" xlink:href="#DejaVuSans-20"/>
      <use transform="translate(386.72)" xlink:href="#v"/>
     </g>
    </g>
   </g>
  </g>
  <g id="mm">
   <g transform="translate(770.4 564.61) scale(.09 -.09)" fill="#808080" opacity=".7">
    <defs>
     <path id="ah" transform="scale(.015625)" d="m603 3500h575v-3500h-575v3500zm0 1363h575v-729h-575v729z"/>
     <path id="bk" transform="scale(.015625)" d="m3513 2113v-2113h-575v2094q0 497-194 743-194 247-581 247-466 0-735-297-269-296-269-809v-1978h-578v4863h578v-1907q207 316 486 472 280 156 646 156 603 0 912-373 310-373 310-1098z"/>
     <path id="bl" transform="scale(.015625)" d="m3116 1747q0 634-261 995t-717 361q-457 0-718-361t-261-995 261-995 718-361q456 0 717 361t261 995zm-1957 1222q182 312 458 463 277 152 661 152 638 0 1036-506 399-506 399-1331t-399-1332q-398-506-1036-506-384 0-661 152-276 152-458 464v-525h-578v4863h578v-1894z"/>
     <path id="bz" transform="scale(.015625)" d="m684 794h660v-794h-660v794z"/>
     <path id="by" transform="scale(.015625)" d="m1625 4666h531l-1625-5260h-531l1625 5260z"/>
     <path id="bu" transform="scale(.015625)" d="m1259 2228v-1709h1013q509 0 754 211 246 211 246 645 0 438-246 645-245 208-754 208h-1013zm0 1919v-1406h935q462 0 688 173 227 174 227 530 0 353-227 528-226 175-688 175h-935zm-631 519h1613q722 0 1112-300 391-300 391-853 0-429-200-682t-588-315q466-100 724-418 258-317 258-792 0-625-425-966-425-340-1210-340h-1675v4666z"/>
     <path id="bp" transform="scale(.015625)" d="m628 4666h941l1190-3175 1197 3175h941v-4666h-616v4097l-1203-3200h-634l-1203 3200v-4097h-613v4666z"/>
     <path id="bo" transform="scale(.015625)" d="m2522 4238q-688 0-1093-513-404-512-404-1397 0-881 404-1394 405-512 1093-512 687 0 1089 512 402 513 402 1394 0 885-402 1397-402 513-1089 513zm0 512q981 0 1568-658 588-658 588-1764 0-1103-588-1761-587-658-1568-658-984 0-1574 656-589 657-589 1763t589 1764q590 658 1574 658z"/>
    </defs>
    <use xlink:href="#t"/>
    <use transform="translate(63.477)" xlink:href="#ah"/>
    <use transform="translate(91.26)" xlink:href="#d"/>
    <use transform="translate(130.47)" xlink:href="#bk"/>
    <use transform="translate(193.85)" xlink:href="#f"/>
    <use transform="translate(257.23)" xlink:href="#bl"/>
    <use transform="translate(320.7)" xlink:href="#bz"/>
    <use transform="translate(352.49)" xlink:href="#u"/>
    <use transform="translate(407.47)" xlink:href="#af"/>
    <use transform="translate(468.65)" xlink:href="#ag"/>
    <use transform="translate(566.06)" xlink:href="#by"/>
    <use transform="translate(599.76)" xlink:href="#bu"/>
    <use transform="translate(668.36)" xlink:href="#bp"/>
    <use transform="translate(754.64)" xlink:href="#bo"/>
    <use transform="translate(833.35)" xlink:href="#ah"/>
    <use transform="translate(861.13)" xlink:href="#d"/>
   </g>
  </g>
 </g>
 <defs>
  <clipPath id="a">
   <rect x="55.264" y="32.838" width="794" height="473.58"/>
  </clipPath>
 </defs>
 <metadata>
  <rdf:RDF>
   <cc:Work>
    <dc:title>Engagement Score by Cluster</dc:title>
    <dc:creator>github.com/BMOit</dc:creator>
    <dc:rights>github.com/BMOit</dc:rights>
    <dc:source>UIDAI Data Hackathon 2026</dc:source>
   </cc:Work>
  </rdf:RDF>
 </metadata>
</svg>
