<?xml version="1.0" encoding="UTF-8"?>
<svg width="677.64pt" height="573.68pt" version="1.1" viewBox="0 0 677.64 573.68" xmlns="http://www.w3.org/2000/svg" xmlns:cc="http://creativecommons.org/ns#" xmlns:dc="http://purl.org/dc/elements/1.1/" xmlns:rdf="http://www.w3.org/1999/02/22-rdf-syntax-ns#" xmlns:xlink="http://www.w3.org/1999/xlink">
 <title>Overall Engagement Distribution</title>
 <desc>Chart by github.com/BMOit</desc>
 <metadata>
  <rdf:RDF>
   <cc:Work>
    <dc:type rdf:resource="http://purl.org/dc/dcmitype/StillImage"/>
    <dc:date>2026-01-20T17:31:04.686099</dc:date>
    <dc:format>image/svg+xml</dc:format>
    <dc:creator>
     <cc:Agent>
      <dc:title>Matplotlib v3.10.8, https://matplotlib.org/</dc:title>
     </cc:Agent>
    </dc:creator>
   </cc:Work>
  </rdf:RDF>
 </metadata>
 <defs>
  <style type="text/css">*{stroke-linejoin: round; stroke-linecap: butt}</style>
 </defs>
 <g id="ba">
  <g id="bb">
   <path d="m0 573.68h677.64v-573.68h-677.64z" fill="#fff"/>
  </g>
  <g id="bc">
   <g id="bd">
    <path d="m307.72 86.836c-43.769 0-86.457 13.721-122.03 39.223-35.572 25.502-62.271 61.525-76.324 102.98-14.052 41.452-14.763 86.285-2.0313 128.16 12.731 41.877 38.275 78.727 73.022 105.34l127.36-166.26z" fill="#1f77b4"/>
   </g>
   <g id="be">
    <path d="m199.64 470.59c24.49 18.76 52.825 31.879 82.974 38.417 30.149 6.5382 61.373 6.3353 91.434-0.59422 30.061-6.9295 58.223-20.416 82.467-39.492 24.244-19.077 43.976-43.276 57.783-70.864 13.806-27.588 21.348-57.888 22.085-88.728 0.73696-30.841-5.3491-61.467-17.822-89.682-12.473-28.216-31.027-53.33-54.332-73.543-23.305-20.213-50.791-35.029-80.487-43.386l-56.74 201.61z" fill="#ff7f0e"/>
   </g>
   <g id="bf">
    <path d="m375.81 87.656c-9.2218-2.5953-18.611-4.5549-28.101-5.8649-9.49-1.31-19.059-1.9673-28.639-1.9673l-1.29e-4 209.44z" fill="#2ca02c"/>
   </g>
   <g id="bg">
    <g transform="translate(7.2 219.14) scale(.11 -.11)">
     <defs>
      <path id="s" transform="scale(.015625)" d="m1791 3756v-2847h431q737 0 1126 366 390 366 390 1063 0 693-388 1055-387 363-1128 363h-431zm-1203 910h1268q1063 0 1583-152 520-151 892-514 328-316 487-729 160-412 160-933 0-529-160-943-159-414-487-729-375-363-900-515-525-151-1575-151h-1268v4666z"/>
      <path id="c" transform="scale(.015625)" d="m4031 1759v-318h-2615q40-394 284-591t681-197q353 0 723 105 371 105 762 317v-862q-397-150-794-227t-794-77q-950 0-1477 483-526 483-526 1355 0 856 517 1346 517 491 1424 491 825 0 1320-497 495-496 495-1328zm-1150 372q0 319-186 514-186 196-486 196-325 0-528-183t-253-527h1453z"/>
      <path id="i" transform="scale(.015625)" d="m3781 2919q213 325 505 495t642 170q603 0 919-372 316-371 316-1081v-2131h-1125v1825q3 41 4 84 2 44 2 125 0 372-110 539-109 168-353 168-318 0-492-263-173-262-180-759v-1719h-1125v1825q0 581-100 748-100 168-356 168-322 0-497-264t-175-755v-1722h-1125v3500h1125v-512q207 296 474 446t589 150q362 0 640-175 279-175 422-490z"/>
      <path id="f" transform="scale(.015625)" d="m2203 2784q-372 0-567-267t-195-770 195-771q195-267 567-267 366 0 559 267 194 268 194 771t-194 770q-193 267-559 267zm0 800q903 0 1411-488 508-487 508-1349 0-863-508-1351-508-487-1411-487-906 0-1417 487-511 488-511 1351 0 862 511 1349 511 488 1417 488z"/>
      <path id="n" transform="scale(.015625)" d="m2919 594q-231-306-510-450-278-144-643-144-641 0-1060 504-418 505-418 1287 0 784 418 1285 419 502 1060 502 365 0 643-144 279-143 510-453v519h1125v-3147q0-844-533-1289t-1545-445q-328 0-635 50-306 50-615 153v872q293-169 574-252 282-83 566-83 550 0 806 241 257 241 257 753v241zm-738 2178q-347 0-541-257-193-256-193-724 0-482 187-730 188-248 547-248 350 0 544 256t194 722q0 468-194 724-194 257-544 257z"/>
      <path id="e" transform="scale(.015625)" d="m3138 2547q-147 69-293 101-145 33-292 33-431 0-664-277-233-276-233-791v-1613h-1118v3500h1118v-575q216 344 495 501 280 158 671 158 56 0 121-5 66-4 191-20l4-1012z"/>
      <path id="g" transform="scale(.015625)" d="m2106 1575q-350 0-527-119-176-118-176-350 0-212 142-333 143-120 396-120 315 0 531 226 216 227 216 568v128h-582zm1710 422v-1997h-1128v519q-225-319-507-465-281-145-684-145-544 0-883 317-339 318-339 824 0 616 423 903 424 288 1330 288h660v87q0 266-210 389-209 124-653 124-359 0-669-72-309-72-575-216v853q360 88 722 133 363 45 725 45 947 0 1367-373 421-373 421-1214z"/>
      <path id="ac" transform="scale(.015625)" d="m1656 506v-1837h-1118v4831h1118v-512q232 306 513 451t647 145q647 0 1062-514 416-514 416-1323t-416-1324q-415-514-1062-514-366 0-647 145-281 146-513 452zm744 2266q-359 0-552-264-192-264-192-761t192-761q193-264 552-264t548 262q190 263 190 763t-190 762q-189 263-548 263z"/>
      <path id="ad" transform="scale(.015625)" d="m4056 2131v-2131h-1125v347 1278q0 459-20 631t-70 253q-66 110-179 171-112 61-256 61-350 0-550-271-200-270-200-748v-1722h-1118v4863h1118v-1875q253 306 537 451 285 145 629 145 606 0 920-372 314-371 314-1081z"/>
      <path id="d" transform="scale(.015625)" d="m538 3500h1118v-3500h-1118v3500zm0 1363h1118v-913h-1118v913z"/>
      <path id="k" transform="scale(.015625)" d="m3366 3391v-913q-228 156-458 231t-477 75q-468 0-729-273t-261-764 261-765q261-273 729-273 263 0 499 78 236 79 436 232v-916q-263-97-533-145-270-49-542-49-947 0-1482 486-534 486-534 1352t534 1351q535 486 1482 486 275 0 542-48t533-145z"/>
     </defs>
     <use xlink:href="#s"/>
     <use transform="translate(83.008)" xlink:href="#c"/>
     <use transform="translate(150.83)" xlink:href="#i"/>
     <use transform="translate(255.03)" xlink:href="#f"/>
     <use transform="translate(323.73)" xlink:href="#n"/>
     <use transform="translate(395.31)" xlink:href="#e"/>
     <use transform="translate(444.63)" xlink:href="#g"/>
     <use transform="translate(512.11)" xlink:href="#ac"/>
     <use transform="translate(583.69)" xlink:href="#ad"/>
     <use transform="translate(654.88)" xlink:href="#d"/>
     <use transform="translate(689.16)" xlink:href="#k"/>
    </g>
    <g transform="translate(14.556 231.55) scale(.11 -.11)">
     <defs>
      <path id="q" transform="scale(.015625)" d="m588 4666h1203v-4666h-1203v4666z"/>
      <path id="b" transform="scale(.015625)" d="m4056 2131v-2131h-1125v347 1284q0 453-20 625t-70 253q-66 110-179 171-112 61-256 61-350 0-550-271-200-270-200-748v-1722h-1118v3500h1118v-512q253 306 537 451 285 145 629 145 606 0 920-372 314-371 314-1081z"/>
      <path id="a" transform="scale(.015625)" d="m1759 4494v-994h1154v-800h-1154v-1484q0-244 97-330t385-86h575v-800h-960q-662 0-939 276-276 277-276 940v1484h-557v800h557v994h1118z"/>
      <path id="h" transform="scale(.015625)" d="m3272 3391v-850q-359 150-694 225-334 75-631 75-319 0-474-80-154-80-154-245 0-135 117-207 117-71 420-106l197-28q860-109 1156-359 297-250 297-785 0-559-413-841-412-281-1230-281-347 0-718 55-370 55-761 164v850q335-162 686-244 352-81 714-81 329 0 494 90 166 91 166 270 0 150-114 223t-455 114l-197 25q-747 94-1047 347t-300 769q0 556 381 824 382 269 1169 269 310 0 650-47 341-46 741-146z"/>
     </defs>
     <use xlink:href="#q"/>
     <use transform="translate(37.207)" xlink:href="#b"/>
     <use transform="translate(108.4)" xlink:href="#a"/>
     <use transform="translate(156.2)" xlink:href="#c"/>
     <use transform="translate(224.02)" xlink:href="#e"/>
     <use transform="translate(273.34)" xlink:href="#g"/>
     <use transform="translate(340.82)" xlink:href="#k"/>
     <use transform="translate(400.1)" xlink:href="#a"/>
     <use transform="translate(447.9)" xlink:href="#d"/>
     <use transform="translate(482.18)" xlink:href="#f"/>
     <use transform="translate(550.88)" xlink:href="#b"/>
     <use transform="translate(622.07)" xlink:href="#h"/>
    </g>
   </g>
   <g id="bh">
    <g transform="translate(167.89 259.24) scale(.12 -.12)" fill="#fff">
     <defs>
      <path id="ak" transform="scale(.015625)" d="m2981 2516q472-122 717-424 246-301 246-767 0-694-532-1055-531-361-1549-361-360 0-721 58t-714 174v928q338-169 670-255 333-86 655-86 478 0 733 165 255 166 255 476 0 319-261 483t-771 164h-481v775h506q454 0 675 142 222 142 222 433 0 268-216 415-215 147-609 147-290 0-587-66-297-65-591-193v881q356 100 706 150t688 50q909 0 1360-299 452-298 452-898 0-409-216-670-215-261-637-367z"/>
      <path id="ai" transform="scale(.015625)" d="m641 103v863q287-135 549-202 263-67 519-67 538 0 838 298 300 299 353 886-212-156-453-234t-522-78q-716 0-1155 417t-439 1098q0 754 489 1207t1311 453q913 0 1413-616 500-615 500-1740 0-1157-585-1818-584-661-1603-661-328 0-628 49-300 48-587 145zm1484 2247q316 0 475 204 159 205 159 615 0 406-159 612-159 207-475 207t-475-207q-159-206-159-612 0-410 159-615 159-204 475-204z"/>
      <path id="o" transform="scale(.015625)" d="m653 1209h1125v-1209h-1125v1209z"/>
      <path id="t" transform="scale(.015625)" d="m2316 2303q-316 0-474-205-158-204-158-614 0-409 158-614 158-204 474-204 318 0 476 204 158 205 158 614 0 410-158 614-158 205-476 205zm1487 2241v-863q-297 141-560 208-262 67-512 67-537 0-837-299-300-298-350-885 206 153 446 229 241 77 526 77 715 0 1154-419 439-418 439-1096 0-750-491-1202-490-452-1315-452-909 0-1408 614-498 615-498 1743 0 1156 583 1817t1598 661q322 0 625-50t600-150z"/>
      <path id="p" transform="scale(.015625)" d="m4959 1925q-221 0-343-192t-122-549q0-359 120-551t345-192 344 192 119 551q0 357-121 549-120 192-342 192zm0 525q582 0 916-338 334-337 334-928 0-590-334-933-334-342-916-342-581 0-917 342-336 343-336 933 0 588 336 927t917 339zm-2865-2541h-691l2916 4841h694l-2919-4841zm-641 4841q581 0 914-339t333-930q0-590-333-931t-914-341-914 341-333 931q0 591 333 930t914 339zm0-525q-225 0-347-194-122-193-122-550 0-359 122-555 122-195 347-195t345 195q121 196 121 555 0 357-122 550-122 194-344 194z"/>
     </defs>
     <use xlink:href="#ak"/>
     <use transform="translate(69.58)" xlink:href="#ai"/>
     <use transform="translate(139.16)" xlink:href="#o"/>
     <use transform="translate(177.15)" xlink:href="#t"/>
     <use transform="translate(246.73)" xlink:href="#p"/>
    </g>
   </g>
   <g id="bi">
    <g transform="translate(533.02 404.31) scale(.11 -.11)">
     <defs>
      <path id="ah" transform="scale(.015625)" d="m2456 2859q285 0 431 125 147 125 147 369 0 241-147 367-146 127-431 127h-665v-988h665zm41-2040q362 0 545 153t183 462q0 304-181 455-181 152-547 152h-706v-1222h706zm1119 1678q387-113 599-416 213-303 213-743 0-675-456-1007-456-331-1388-331h-1996v4666h1806q972 0 1408-294t436-941q0-340-160-579-159-239-462-355z"/>
     </defs>
     <use xlink:href="#ah"/>
     <use transform="translate(76.221)" xlink:href="#d"/>
     <use transform="translate(110.5)" xlink:href="#f"/>
     <use transform="translate(179.2)" xlink:href="#i"/>
     <use transform="translate(283.4)" xlink:href="#c"/>
     <use transform="translate(351.22)" xlink:href="#a"/>
     <use transform="translate(399.02)" xlink:href="#e"/>
     <use transform="translate(448.34)" xlink:href="#d"/>
     <use transform="translate(482.62)" xlink:href="#k"/>
    </g>
    <g transform="translate(533.02 416.62) scale(.11 -.11)">
     <use xlink:href="#q"/>
     <use transform="translate(37.207)" xlink:href="#b"/>
     <use transform="translate(108.4)" xlink:href="#a"/>
     <use transform="translate(156.2)" xlink:href="#c"/>
     <use transform="translate(224.02)" xlink:href="#e"/>
     <use transform="translate(273.34)" xlink:href="#g"/>
     <use transform="translate(340.82)" xlink:href="#k"/>
     <use transform="translate(400.1)" xlink:href="#a"/>
     <use transform="translate(447.9)" xlink:href="#d"/>
     <use transform="translate(482.18)" xlink:href="#f"/>
     <use transform="translate(550.88)" xlink:href="#b"/>
     <use transform="translate(622.07)" xlink:href="#h"/>
    </g>
   </g>
   <g id="bj">
    <g transform="translate(418.56 363.87) scale(.12 -.12)" fill="#fff">
     <defs>
      <path id="aj" transform="scale(.015625)" d="m678 4666h2991v-885h-2031v-722q137 38 276 58 139 21 289 21 853 0 1328-427t475-1189q0-756-517-1185-517-428-1436-428-397 0-786 77t-773 233v947q381-219 723-329 342-109 646-109 437 0 688 214 252 214 252 580 0 369-252 581-251 213-688 213-260 0-554-68-293-67-631-207v2625z"/>
      <path id="al" transform="scale(.015625)" d="m2944 2338q0 875-164 1232-164 358-552 358-387 0-553-358-166-357-166-1232 0-885 166-1248 166-362 553-362 385 0 550 362 166 363 166 1248zm1203-10q0-1159-500-1789t-1419-630q-922 0-1422 630t-500 1789q0 1163 500 1792 500 630 1422 630 919 0 1419-630 500-629 500-1792z"/>
     </defs>
     <use xlink:href="#aj"/>
     <use transform="translate(69.58)" xlink:href="#t"/>
     <use transform="translate(139.16)" xlink:href="#o"/>
     <use transform="translate(177.15)" xlink:href="#al"/>
     <use transform="translate(246.73)" xlink:href="#p"/>
    </g>
   </g>
   <g id="bk">
    <g transform="translate(350.57 57.921) scale(.11 -.11)">
     <defs>
      <path id="ag" transform="scale(.015625)" d="m588 4666h1343l1697-3200v3200h1141v-4666h-1344l-1697 3200v-3200h-1140v4666z"/>
      <path id="z" transform="scale(.015625)" d="m225 3500h1088l587-2412 591 2412h934l588-2387 590 2387h1088l-922-3500h-1222l-591 2406-587-2406h-1222l-922 3500z"/>
     </defs>
     <use xlink:href="#ag"/>
     <use transform="translate(83.691)" xlink:href="#c"/>
     <use transform="translate(151.51)" xlink:href="#z"/>
    </g>
    <g transform="translate(350.57 70.238) scale(.11 -.11)">
     <defs>
      <path id="r" transform="scale(.015625)" d="m588 4666h3246v-910h-2043v-868h1922v-910h-1922v-1069h2112v-909h-3315v4666z"/>
      <path id="j" transform="scale(.015625)" d="m538 4863h1118v-4863h-1118v4863z"/>
     </defs>
     <use xlink:href="#r"/>
     <use transform="translate(68.311)" xlink:href="#b"/>
     <use transform="translate(139.5)" xlink:href="#e"/>
     <use transform="translate(188.82)" xlink:href="#f"/>
     <use transform="translate(257.52)" xlink:href="#j"/>
     <use transform="translate(291.8)" xlink:href="#j"/>
     <use transform="translate(326.07)" xlink:href="#i"/>
     <use transform="translate(430.27)" xlink:href="#c"/>
     <use transform="translate(498.1)" xlink:href="#b"/>
     <use transform="translate(569.29)" xlink:href="#a"/>
     <use transform="translate(617.09)" xlink:href="#h"/>
    </g>
   </g>
   <g id="bl">
    <g transform="translate(319.61 168.09) scale(.12 -.12)" fill="#fff">
     <defs>
      <path id="u" transform="scale(.015625)" d="m2356 3675-1318-1953h1318v1953zm-200 991h1338v-2944h665v-872h-665v-850h-1138v850h-2068v1031l1868 2785z"/>
     </defs>
     <use xlink:href="#u"/>
     <use transform="translate(69.58)" xlink:href="#o"/>
     <use transform="translate(107.57)" xlink:href="#u"/>
     <use transform="translate(177.15)" xlink:href="#p"/>
    </g>
   </g>
   <g id="bm">
    <g id="bn">
     <path d="m44.33 220.06h30.894q3 0 3-3v-9.6781q0-3-3-3h-30.894q-3 0-3 3v9.6781q0 3 3 3z" fill="#fff" opacity=".8" stroke="#808080"/>
    </g>
    <g transform="translate(44.33 214.98) scale(.1 -.1)">
     <defs>
      <path id="y" transform="scale(.015625)" d="m2419 4116-1594-2491h1594v2491zm-166 550h794v-3041h666v-525h-666v-1100h-628v1100h-2106v609l1940 2957z"/>
      <path id="x" transform="scale(.015625)" d="m703 97v575q238-113 481-172 244-59 479-59 625 0 954 420 330 420 377 1277-181-269-460-413-278-144-615-144-700 0-1108 423-408 424-408 1159 0 718 425 1152 425 435 1131 435 810 0 1236-621 427-620 427-1801 0-1103-524-1761-523-658-1407-658-238 0-482 47-243 47-506 141zm1256 1978q425 0 673 290 249 291 249 798 0 503-249 795-248 292-673 292t-673-292-248-795q0-507 248-798 248-290 673-290z"/>
      <path id="m" transform="scale(.015625)" d="m684 794h660v-794h-660v794z"/>
      <path id="ay" transform="scale(.015625)" d="m2597 2516q453-97 707-404 255-306 255-756 0-690-475-1069-475-378-1350-378-293 0-604 58t-642 174v609q262-153 574-231 313-78 654-78 593 0 904 234t311 681q0 413-289 645-289 233-804 233h-544v519h569q465 0 712 186t247 536q0 359-255 551-254 193-729 193-260 0-557-57-297-56-653-174v562q360 100 674 150t592 50q719 0 1137-327 419-326 419-882 0-388-222-655t-631-370z"/>
      <path id="l" transform="scale(.015625)" d="m628 4666h941l1190-3175 1197 3175h941v-4666h-616v4097l-1203-3200h-634l-1203 3200v-4097h-613v4666z"/>
     </defs>
     <use xlink:href="#y"/>
     <use transform="translate(63.623)" xlink:href="#x"/>
     <use transform="translate(127.25)" xlink:href="#m"/>
     <use transform="translate(159.03)" xlink:href="#ay"/>
     <use transform="translate(222.66)" xlink:href="#l"/>
    </g>
   </g>
   <g id="bo">
    <g id="bp">
     <path d="m545.67 429.33h30.894q3 0 3-3v-9.6781q0-3-3-3h-30.894q-3 0-3 3v9.6781q0 3 3 3z" fill="#fff" opacity=".8" stroke="#808080"/>
    </g>
    <g transform="translate(545.67 424.25) scale(.1 -.1)">
     <defs>
      <path id="aw" transform="scale(.015625)" d="m2113 2584q-425 0-674-291-248-290-248-796 0-503 248-796 249-292 674-292t673 292q248 293 248 796 0 506-248 796-248 291-673 291zm1253 1979v-575q-238 112-480 171-242 60-480 60-625 0-955-422-329-422-376-1275 184 272 462 417 279 145 613 145 703 0 1111-427 408-426 408-1160 0-719-425-1154-425-434-1131-434-810 0-1238 620-428 621-428 1799 0 1106 525 1764t1409 658q238 0 480-47t505-140z"/>
      <path id="av" transform="scale(.015625)" d="m2034 2216q-450 0-708-241-257-241-257-662 0-422 257-663 258-241 708-241t709 242q260 243 260 662 0 421-258 662-257 241-711 241zm-631 268q-406 100-633 378-226 279-226 679 0 559 398 884 399 325 1092 325 697 0 1094-325t397-884q0-400-227-679-226-278-629-378 456-106 710-416 255-309 255-755 0-679-414-1042-414-362-1186-362-771 0-1186 362-414 363-414 1042 0 446 256 755 257 310 713 416zm-231 997q0-362 226-565 227-203 636-203 407 0 636 203 230 203 230 565 0 363-230 566-229 203-636 203-409 0-636-203-226-203-226-566z"/>
     </defs>
     <use xlink:href="#aw"/>
     <use transform="translate(63.623)" xlink:href="#x"/>
     <use transform="translate(127.25)" xlink:href="#m"/>
     <use transform="translate(159.03)" xlink:href="#av"/>
     <use transform="translate(222.66)" xlink:href="#l"/>
    </g>
   </g>
   <g id="bq">
    <g id="br">
     <path d="m342.6 37.762h24.531q3 0 3-3v-9.6781q0-3-3-3h-24.531q-3 0-3 3v9.6781q0 3 3 3z" fill="#fff" opacity=".8" stroke="#808080"/>
    </g>
    <g transform="translate(342.6 32.683) scale(.1 -.1)">
     <defs>
      <path id="ax" transform="scale(.015625)" d="m691 4666h2478v-532h-1900v-1143q137 47 274 70 138 23 276 23 781 0 1237-428 457-428 457-1159 0-753-469-1171-469-417-1322-417-294 0-599 50-304 50-629 150v635q281-153 581-228t634-75q541 0 856 284 316 284 316 772 0 487-316 771-315 285-856 285-253 0-505-56-251-56-513-175v2344z"/>
     </defs>
     <use xlink:href="#ax"/>
     <use transform="translate(63.623)" xlink:href="#m"/>
     <use transform="translate(95.41)" xlink:href="#y"/>
     <use transform="translate(159.03)" xlink:href="#l"/>
    </g>
   </g>
   <g id="bs">
    <g transform="translate(187.79 17.838) scale(.14 -.14)">
     <defs>
      <path id="af" transform="scale(.015625)" d="m2719 3878q-550 0-853-406t-303-1144q0-734 303-1141 303-406 853-406 553 0 856 406 303 407 303 1141 0 738-303 1144t-856 406zm0 872q1125 0 1762-644 638-643 638-1778 0-1131-638-1775-637-644-1762-644-1122 0-1761 644t-639 1775q0 1135 639 1778 639 644 1761 644z"/>
      <path id="aa" transform="scale(.015625)" d="m97 3500h1119l872-2419 868 2419h1122l-1378-3500h-1228l-1375 3500z"/>
      <path id="ae" transform="scale(.015625)" d="m2400 722q359 0 548 262 190 263 190 763t-190 762q-189 263-548 263t-552-264q-192-264-192-761t192-761q193-264 552-264zm-744 2266q232 306 513 451t647 145q647 0 1062-514 416-514 416-1323t-416-1324q-415-514-1062-514-366 0-647 145-281 146-513 452v-506h-1118v4863h1118v-1875z"/>
      <path id="ab" transform="scale(.015625)" d="m500 1363v2137h1125v-350q0-284-3-714t-3-573q0-422 22-608t75-271q68-109 179-169 111-59 255-59 350 0 550 269t200 747v1728h1119v-3500h-1119v506q-253-306-536-452-283-145-623-145-607 0-924 372t-317 1082z"/>
     </defs>
     <use xlink:href="#af"/>
     <use transform="translate(85.01)" xlink:href="#aa"/>
     <use transform="translate(150.2)" xlink:href="#c"/>
     <use transform="translate(218.02)" xlink:href="#e"/>
     <use transform="translate(267.33)" xlink:href="#g"/>
     <use transform="translate(334.81)" xlink:href="#j"/>
     <use transform="translate(369.09)" xlink:href="#j"/>
     <use transform="translate(403.37)" xlink:href="#DejaVuSans-Bold-20"/>
     <use transform="translate(438.18)" xlink:href="#r"/>
     <use transform="translate(506.49)" xlink:href="#b"/>
     <use transform="translate(577.69)" xlink:href="#n"/>
     <use transform="translate(649.27)" xlink:href="#g"/>
     <use transform="translate(716.75)" xlink:href="#n"/>
     <use transform="translate(788.33)" xlink:href="#c"/>
     <use transform="translate(856.15)" xlink:href="#i"/>
     <use transform="translate(960.35)" xlink:href="#c"/>
     <use transform="translate(1028.2)" xlink:href="#b"/>
     <use transform="translate(1099.4)" xlink:href="#a"/>
     <use transform="translate(1147.2)" xlink:href="#DejaVuSans-Bold-20"/>
     <use transform="translate(1182)" xlink:href="#s"/>
     <use transform="translate(1265)" xlink:href="#d"/>
     <use transform="translate(1299.3)" xlink:href="#h"/>
     <use transform="translate(1358.8)" xlink:href="#a"/>
     <use transform="translate(1406.6)" xlink:href="#e"/>
     <use transform="translate(1455.9)" xlink:href="#d"/>
     <use transform="translate(1490.2)" xlink:href="#ae"/>
     <use transform="translate(1561.8)" xlink:href="#ab"/>
     <use transform="translate(1633)" xlink:href="#a"/>
     <use transform="translate(1680.8)" xlink:href="#d"/>
     <use transform="translate(1715)" xlink:href="#f"/>
     <use transform="translate(1783.7)" xlink:href="#b"/>
    </g>
   </g>
  </g>
  <g id="bt">
   <g transform="translate(589.4 564.61) scale(.09 -.09)" fill="#808080" opacity=".7">
    <defs>
     <path id="aq" transform="scale(.015625)" d="m2906 1791q0 625-258 968-257 344-723 344-462 0-720-344-258-343-258-968 0-622 258-966t720-344q466 0 723 344 258 344 258 966zm575-1357q0-893-397-1329-396-436-1215-436-303 0-572 45t-522 139v559q253-137 500-202 247-66 503-66 566 0 847 295t281 892v285q-178-310-456-463t-666-153q-643 0-1037 490-394 491-394 1301 0 812 394 1302 394 491 1037 491 388 0 666-153t456-462v531h575v-3066z"/>
     <path id="w" transform="scale(.015625)" d="m603 3500h575v-3500h-575v3500zm0 1363h575v-729h-575v729z"/>
     <path id="v" transform="scale(.015625)" d="m1172 4494v-994h1184v-447h-1184v-1900q0-428 117-550t477-122h590v-481h-590q-666 0-919 248-253 249-253 905v1900h-422v447h422v994h578z"/>
     <path id="ap" transform="scale(.015625)" d="m3513 2113v-2113h-575v2094q0 497-194 743-194 247-581 247-466 0-735-297-269-296-269-809v-1978h-578v4863h578v-1907q207 316 486 472 280 156 646 156 603 0 912-373 310-373 310-1098z"/>
     <path id="am" transform="scale(.015625)" d="m544 1381v2119h575v-2097q0-497 193-746 194-248 582-248 465 0 735 297 271 297 271 810v1984h575v-3500h-575v538q-209-319-486-474-276-155-642-155-603 0-916 375-312 375-312 1097zm1447 2203z"/>
     <path id="as" transform="scale(.015625)" d="m3116 1747q0 634-261 995t-717 361q-457 0-718-361t-261-995 261-995 718-361q456 0 717 361t261 995zm-1957 1222q182 312 458 463 277 152 661 152 638 0 1036-506 399-506 399-1331t-399-1332q-398-506-1036-506-384 0-661 152-276 152-458 464v-525h-578v4863h578v-1894z"/>
     <path id="ar" transform="scale(.015625)" d="m3122 3366v-538q-244 135-489 202t-495 67q-560 0-870-355-309-354-309-995t309-996q310-354 870-354 250 0 495 67t489 202v-532q-241-112-499-168-257-57-548-57-791 0-1257 497-465 497-465 1341 0 856 470 1346 471 491 1290 491 265 0 518-55 253-54 491-163z"/>
     <path id="an" transform="scale(.015625)" d="m1959 3097q-462 0-731-361t-269-989 267-989q268-361 733-361 460 0 728 362 269 363 269 988 0 622-269 986-268 364-728 364zm0 487q750 0 1178-488 429-487 429-1349 0-859-429-1349-428-489-1178-489-753 0-1180 489-426 490-426 1349 0 862 426 1349 427 488 1180 488z"/>
     <path id="ao" transform="scale(.015625)" d="m3328 2828q216 388 516 572t706 184q547 0 844-383 297-382 297-1088v-2113h-578v2094q0 503-179 746-178 244-543 244-447 0-707-297-259-296-259-809v-1978h-578v2094q0 506-178 748t-550 242q-441 0-701-298-259-298-259-808v-1978h-578v3500h578v-544q197 322 472 475t653 153q382 0 649-194 267-193 395-562z"/>
     <path id="az" transform="scale(.015625)" d="m1625 4666h531l-1625-5260h-531l1625 5260z"/>
     <path id="au" transform="scale(.015625)" d="m1259 2228v-1709h1013q509 0 754 211 246 211 246 645 0 438-246 645-245 208-754 208h-1013zm0 1919v-1406h935q462 0 688 173 227 174 227 530 0 353-227 528-226 175-688 175h-935zm-631 519h1613q722 0 1112-300 391-300 391-853 0-429-200-682t-588-315q466-100 724-418 258-317 258-792 0-625-425-966-425-340-1210-340h-1675v4666z"/>
     <path id="at" transform="scale(.015625)" d="m2522 4238q-688 0-1093-513-404-512-404-1397 0-881 404-1394 405-512 1093-512 687 0 1089 512 402 513 402 1394 0 885-402 1397-402 513-1089 513zm0 512q981 0 1568-658 588-658 588-1764 0-1103-588-1761-587-658-1568-658-984 0-1574 656-589 657-589 1763t589 1764q590 658 1574 658z"/>
    </defs>
    <use xlink:href="#aq"/>
    <use transform="translate(63.477)" xlink:href="#w"/>
    <use transform="translate(91.26)" xlink:href="#v"/>
    <use transform="translate(130.47)" xlink:href="#ap"/>
    <use transform="translate(193.85)" xlink:href="#am"/>
    <use transform="translate(257.23)" xlink:href="#as"/>
    <use transform="translate(320.7)" xlink:href="#m"/>
    <use transform="translate(352.49)" xlink:href="#ar"/>
    <use transform="translate(407.47)" xlink:href="#an"/>
    <use transform="translate(468.65)" xlink:href="#ao"/>
    <use transform="translate(566.06)" xlink:href="#az"/>
    <use transform="translate(599.76)" xlink:href="#au"/>
    <use transform="translate(668.36)" xlink:href="#l"/>
    <use transform="translate(754.64)" xlink:href="#at"/>
    <use transform="translate(833.35)" xlink:href="#w"/>
    <use transform="translate(861.13)" xlink:href="#v"/>
   </g>
  </g>
 </g>
 <metadata>
  <rdf:RDF>
   <cc:Work>
    <dc:title>Overall Engagement Distribution</dc:title>
    <dc:creator>github.com/BMOit</dc:creator>
    <dc:rights>github.com/BMOit</dc:rights>
    <dc:source>UIDAI Data Hackathon 2026</dc:source>
   </cc:Work>
  </rdf:RDF>
 </metadata>
</svg>
