<?xml version="1.0" encoding="UTF-8"?>
<svg width="1001.1pt" height="573.68pt" version="1.1" viewBox="0 0 1001.1 573.68" xmlns="http://www.w3.org/2000/svg" xmlns:cc="http://creativecommons.org/ns#" xmlns:dc="http://purl.org/dc/elements/1.1/" xmlns:rdf="http://www.w3.org/1999/02/22-rdf-syntax-ns#" xmlns:xlink="http://www.w3.org/1999/xlink">
 <title>Engagement Trends Over Time</title>
 <desc>Chart by github.com/BMOit</desc>
 <metadata>
  <rdf:RDF>
   <cc:Work>
    <dc:type rdf:resource="http://purl.org/dc/dcmitype/StillImage"/>
    <dc:date>2026-01-20T17:31:06.384556</dc:date>
    <dc:format>image/svg+xml</dc:format>
    <dc:creator>
     <cc:Agent>
      <dc:title>Matplotlib v3.10.8, https://matplotlib.org/</dc:title>
     </cc:Agent>
    </dc:creator>
   </cc:Work>
  </rdf:RDF>
 </metadata>
 <defs>
  <style type="text/css">*{stroke-linejoin: round; stroke-linecap: butt}</style>
 </defs>
 <g id="be">
  <g id="bf">
   <path d="m0 573.68h1001.1v-573.68h-1001.1z" fill="#fff"/>
  </g>
  <g id="bg">
   <g id="bh">
    <path d="m68.184 508.93h925.04v-476.09h-925.04z" fill="#fff"/>
   </g>
   <g id="bi">
    <defs>
     <path id="ah" d="m110.23-86.392v-432.81l2.7572 432.81h19.3 16.543 13.786 8.2716 8.2716 2.7572 2.7572 2.7572l8.2716-58.846 82.716-1.9651 85.474-4.6309 82.716-20.777 170.95 69.357 2.7572-0.037156 2.7572 4.6804 2.7572-2.6787 2.7572 4.2619 2.7572-3.6607 2.7572 10.84 2.7572-17.339 2.7572 1.0486 2.7572 0.98853 2.7572 4.0965 2.7572-2.3762 2.7572 4.6675 2.7572 8.6841 2.7572-12.068 2.7572 1.2914 2.7572 0.94621 2.7572-3.3752 2.7572 2.8082 2.7572 0.77056 2.7572 13.314h2.7572 2.7572 2.7572 2.7572 2.7572 2.7572 2.7572 2.7572 2.7572l35.844-7.9517 5.5144-10.008 2.7572-1.2138 2.7572 6.6271 2.7572 5.8208 2.7572-2.3339 2.7572 4.7104 2.7572 2.1209 2.7572 1.8225 2.7572-0.57116 2.7572-15.62 2.7572 1.3848 2.7572-0.94916 2.7572 9.1199 2.7572-1.8661 2.7572-4.5447 2.7572 2.0816 2.7572-13.063 2.7572 6.0379 2.7572 11.039 2.7572-11.349 2.7572-1.8449 2.7572 10.468 2.7572-12.917 2.7572 4.8626 2.7572-0.49401 2.7572 12.893 2.7572-13.541 2.7572 5.3622 2.7572-7.199 2.7572 7.8592 2.7572-4.9255 2.7572 1.3714 2.7572 12.535 2.7572-9.9734 2.7572-2.7767 2.7572 0.022868 16.543 12.75 2.7572-7.085 2.7572-15.013 2.7572 9.0076 2.7572 7.8584 5.5144-1.6427 2.7572-7.1017 2.7572 0.74529 2.7572-1.056 2.7572 6.7545 2.7572 1.2592 2.7572 2.3675 2.7572-14.787 2.7572 10.889 2.7572 0.098267 2.7572-6.1085 2.7572-2.4766 2.7572 9.8634 2.7572 2.1379 2.7572-4.8935 2.7572-4.5037 5.5144 16.332 2.7572-12.64 2.7572 4.4378 2.7572 2.7504 2.7572-3.1597 2.7572-8.7452 2.7572 9.5594 2.7572-0.43314 2.7572-7.0026 2.7572-0.47266 2.7572 8.9851 2.7572-2.4067 5.5144 10.735h-5.5144-2.7572-2.7572-2.7572-2.7572-2.7572-2.7572-2.7572-2.7572-2.7572-2.7572-2.7572-5.5144-2.7572-2.7572-2.7572-2.7572-2.7572-2.7572-2.7572-2.7572-2.7572-2.7572-2.7572-2.7572-2.7572-2.7572-2.7572-5.5144-2.7572-2.7572-2.7572-2.7572-16.543-2.7572-2.7572-2.7572-2.7572-2.7572-2.7572-2.7572-2.7572-2.7572-2.7572-2.7572-2.7572-2.7572-2.7572-2.7572-2.7572-2.7572-2.7572-2.7572-2.7572-2.7572-2.7572-2.7572-2.7572-2.7572-2.7572-2.7572-2.7572-2.7572-2.7572-2.7572-2.7572-2.7572-2.7572-2.7572-5.5144-35.844-2.7572-2.7572-2.7572-2.7572-2.7572-2.7572-2.7572-2.7572-2.7572-2.7572-2.7572-2.7572-2.7572-2.7572-2.7572-2.7572-2.7572-2.7572-2.7572-2.7572-2.7572-2.7572-2.7572-2.7572-2.7572-2.7572-2.7572-2.7572-2.7572-170.95-82.716-85.474-82.716-8.2716-2.7572-2.7572-2.7572-8.2716-8.2716-13.786-16.543-19.3-2.7572z" stroke="#1f77b4" stroke-opacity=".4"/>
    </defs>
    <g clip-path="url(#c)">
     <use y="573.677812" fill="#1f77b4" fill-opacity=".4" stroke="#1f77b4" stroke-opacity=".4" xlink:href="#ah"/>
    </g>
   </g>
   <g id="bj">
    <defs>
     <path id="aj" d="m110.23-86.392v-323.11l2.7572 323.11h19.3 16.543 13.786 8.2716 8.2716 2.7572 2.7572 2.7572l8.2716-335.52 82.716 29.574 85.474-0.75061 82.716-73.506 170.95 367.14 2.7572 0.72813 2.7572 0.15887 2.7572 0.48881 2.7572 7.9686 2.7572-6.1619 2.7572 8.6011 2.7572-14.861 2.7572 0.09982 2.7572 0.97063 2.7572-0.94943 2.7572-0.7786 2.7572 4.8753 2.7572 9.9267 2.7572-15.6 2.7572-0.30556 2.7572 2.4271 2.7572-2.0692 2.7572 0.9242 2.7572 1.4995 2.7572 15.12h2.7572 2.7572 2.7572 2.7572 2.7572 2.7572 2.7572 2.7572 2.7572l35.844-0.13115 5.5144-11.352 2.7572 0.81168 2.7572-2.2593 2.7572-0.91818 2.7572 0.43814 2.7572 11.961 2.7572 0.15332 2.7572 1.2318 2.7572-0.31332 2.7572-10.072 2.7572-5.0897 2.7572-2.1982 2.7572 3.4011 2.7572 6.1653 2.7572-4.2158 2.7572-3.9553 2.7572-0.94078 2.7572 0.41434 2.7572 1.1134 2.7572-1.0483 2.7572 5.6041 2.7572-2.6391 2.7572-2.4255 2.7572 1.866 2.7572 0.4953 2.7572 4.8968 2.7572-5.2418 2.7572-1.8548 2.7572 0.080446 2.7572 1.7521 2.7572 3.9573 2.7572 0.002135 2.7572-1.043 2.7572-0.90933 2.7572-3.7757 2.7572 4.5473 16.543-10.901 2.7572 22.394h2.7572 2.7572 2.7572l5.5144-17.77 2.7572-3.0588 2.7572 5.5415 2.7572-2.179 2.7572 3.269 2.7572 0.1963 2.7572 4.9248 2.7572-4.0693 2.7572-4.8081 2.7572 3.9905 2.7572-2.5365 2.7572 0.17964 2.7572 0.028226 2.7572 12.773 2.7572-7.1856 2.7572-8.7526 5.5144 17.046 2.7572-15.981 2.7572 10.745 2.7572 7.647 2.7572-0.001514 2.7572-0.009707 2.7572 0.011221 2.7572-21.253 2.7572 3.7584 2.7572 0.7852 2.7572 10.828 2.7572-5.7825 5.5144 11.664h-5.5144-2.7572-2.7572-2.7572-2.7572-2.7572-2.7572-2.7572-2.7572-2.7572-2.7572-2.7572-5.5144-2.7572-2.7572-2.7572-2.7572-2.7572-2.7572-2.7572-2.7572-2.7572-2.7572-2.7572-2.7572-2.7572-2.7572-2.7572-5.5144-2.7572-2.7572-2.7572-2.7572-16.543-2.7572-2.7572-2.7572-2.7572-2.7572-2.7572-2.7572-2.7572-2.7572-2.7572-2.7572-2.7572-2.7572-2.7572-2.7572-2.7572-2.7572-2.7572-2.7572-2.7572-2.7572-2.7572-2.7572-2.7572-2.7572-2.7572-2.7572-2.7572-2.7572-2.7572-2.7572-2.7572-2.7572-2.7572-2.7572-5.5144-35.844-2.7572-2.7572-2.7572-2.7572-2.7572-2.7572-2.7572-2.7572-2.7572-2.7572-2.7572-2.7572-2.7572-2.7572-2.7572-2.7572-2.7572-2.7572-2.7572-2.7572-2.7572-2.7572-2.7572-2.7572-2.7572-2.7572-2.7572-2.7572-2.7572-170.95-82.716-85.474-82.716-8.2716-2.7572-2.7572-2.7572-8.2716-8.2716-13.786-16.543-19.3-2.7572z" stroke="#ff7f0e" stroke-opacity=".4"/>
    </defs>
    <g clip-path="url(#c)">
     <use y="573.677812" fill="#ff7f0e" fill-opacity=".4" stroke="#ff7f0e" stroke-opacity=".4" xlink:href="#aj"/>
    </g>
   </g>
   <g id="bk">
    <defs>
     <path id="ai" d="m110.23-86.392 2.7572-0.004232 19.3-0.12793 16.543 0.011725 13.786-0.12098 8.2716 0.21905 8.2716 0.014171 2.7572-0.096792 2.7572 0.097568 2.7572 0.004815 8.2716-9.9925 82.716 2.8662 85.474-1.247 82.716-15.574 170.95 21.039 2.7572-0.05851 2.7572 0.17502 2.7572 0.25776 2.7572 1.5251 2.7572-1.2769 2.7572 1.7199 2.7572-2.6671 2.7572-0.20014 2.7572 0.16338 2.7572 0.43073 2.7572-0.21952 2.7572 0.87866 2.7572 1.6011 2.7572-1.4851 2.7572-0.41178 2.7572 0.24992 2.7572-0.12381 2.7572 0.12583 2.7572 0.30983 2.7572 1.7462 2.7572-1.3946 2.7572-0.33475 2.7572-0.29624 2.7572 0.12614 2.7572 0.60843 2.7572 0.93418 2.7572 0.43244 2.7572-0.17246 2.7572 0.19226 35.844-2.8299 5.5144 0.61872 2.7572 0.85086 2.7572-3.0632 2.7572 2.3239 2.7572-0.11457 2.7572 1.6915 2.7572 0.30136 2.7572 0.2877 2.7572-0.035448 2.7572-1.3613 2.7572-0.53536 2.7572 0.82748 2.7572 0.096597 2.7572-0.29558 2.7572 0.18935 2.7572-3.4085 2.7572 1.7606 2.7572 2.0782 2.7572-3.1923 2.7572 2.661 2.7572 1.1851 2.7572-2.8958 2.7572 1.2427 2.7572 0.048726 2.7572-0.39062 2.7572 0.16198 2.7572-0.7286 2.7572 0.89112 2.7572 0.13732 2.7572 0.28925 2.7572-0.51323 2.7572-2.8663 2.7572 2.5677 2.7572 0.90319 2.7572-1.5427 2.7572-1.7318 16.543 2.1985 2.7572 2.2676h2.7572 2.7572 2.7572 5.5144 2.7572 2.7572 2.7572 2.7572 2.7572 2.7572 2.7572 2.7572 2.7572 2.7572 2.7572 2.7572 2.7572l2.7572-5.3986 2.7572 5.3986h5.5144 2.7572 2.7572l2.7572-1.1493 2.7572-3.0957 2.7572 2.4076 2.7572-0.04395 2.7572-0.006833 2.7572-0.14622 2.7572-0.02446 2.7572 0.28502 2.7572-0.58246 5.5144-2.5137v4.8701h-5.5144-2.7572-2.7572-2.7572-2.7572-2.7572-2.7572-2.7572-2.7572-2.7572-2.7572-2.7572-5.5144-2.7572-2.7572-2.7572-2.7572-2.7572-2.7572-2.7572-2.7572-2.7572-2.7572-2.7572-2.7572-2.7572-2.7572-2.7572-5.5144-2.7572-2.7572-2.7572-2.7572-16.543-2.7572-2.7572-2.7572-2.7572-2.7572-2.7572-2.7572-2.7572-2.7572-2.7572-2.7572-2.7572-2.7572-2.7572-2.7572-2.7572-2.7572-2.7572-2.7572-2.7572-2.7572-2.7572-2.7572-2.7572-2.7572-2.7572-2.7572-2.7572-2.7572-2.7572-2.7572-2.7572-2.7572-2.7572-2.7572-5.5144-35.844-2.7572-2.7572-2.7572-2.7572-2.7572-2.7572-2.7572-2.7572-2.7572-2.7572-2.7572-2.7572-2.7572-2.7572-2.7572-2.7572-2.7572-2.7572-2.7572-2.7572-2.7572-2.7572-2.7572-2.7572-2.7572-2.7572-2.7572-2.7572-2.7572-170.95-82.716-85.474-82.716-8.2716-2.7572-2.7572-2.7572-8.2716-8.2716-13.786-16.543-19.3-2.7572z" stroke="#2ca02c" stroke-opacity=".4"/>
    </defs>
    <g clip-path="url(#c)">
     <use y="573.677812" fill="#2ca02c" fill-opacity=".4" stroke="#2ca02c" stroke-opacity=".4" xlink:href="#ai"/>
    </g>
   </g>
   <g id="bl">
    <g id="bm">
     <g id="bn">
      <path d="m110.23 508.93v-476.09" clip-path="url(#c)" fill="none" stroke="#b0b0b0" stroke-dasharray="2.96,1.28" stroke-opacity=".3" stroke-width=".8"/>
     </g>
     <g id="bo">
      <defs>
       <path id="d" d="m0 0v3.5" stroke="#000" stroke-width=".8"/>
      </defs>
      <use x="110.231562" y="508.925776" stroke="#000000" stroke-width=".8" xlink:href="#d"/>
     </g>
     <g id="bp">
      <g transform="translate(73.007 543.4) rotate(-30) scale(.1 -.1)">
       <defs>
        <path id="b" transform="scale(.015625)" d="m1228 531h2203v-531h-2962v531q359 372 979 998 621 627 780 809 303 340 423 576 121 236 121 464 0 372-261 606-261 235-680 235-297 0-627-103-329-103-704-313v638q381 153 712 231 332 78 607 78 725 0 1156-363 431-362 431-968 0-288-108-546-107-257-392-607-78-91-497-524-418-433-1181-1211z"/>
        <path id="a" transform="scale(.015625)" d="m2034 4250q-487 0-733-480-245-479-245-1442 0-959 245-1439 246-480 733-480 491 0 736 480 246 480 246 1439 0 963-246 1442-245 480-736 480zm0 500q785 0 1199-621 414-620 414-1801 0-1178-414-1799-414-620-1199-620-784 0-1198 620-414 621-414 1799 0 1181 414 1801 414 621 1198 621z"/>
        <path id="e" transform="scale(.015625)" d="m691 4666h2478v-532h-1900v-1143q137 47 274 70 138 23 276 23 781 0 1237-428 457-428 457-1159 0-753-469-1171-469-417-1322-417-294 0-599 50-304 50-629 150v635q281-153 581-228t634-75q541 0 856 284 316 284 316 772 0 487-316 771-315 285-856 285-253 0-505-56-251-56-513-175v2344z"/>
        <path id="f" transform="scale(.015625)" d="m313 2009h1684v-512h-1684v512z"/>
        <path id="bb" transform="scale(.015625)" d="m2597 2516q453-97 707-404 255-306 255-756 0-690-475-1069-475-378-1350-378-293 0-604 58t-642 174v609q262-153 574-231 313-78 654-78 593 0 904 234t311 681q0 413-289 645-289 233-804 233h-544v519h569q465 0 712 186t247 536q0 359-255 551-254 193-729 193-260 0-557-57-297-56-653-174v562q360 100 674 150t592 50q719 0 1137-327 419-326 419-882 0-388-222-655t-631-370z"/>
       </defs>
       <use xlink:href="#b"/>
       <use transform="translate(63.623)" xlink:href="#a"/>
       <use transform="translate(127.25)" xlink:href="#b"/>
       <use transform="translate(190.87)" xlink:href="#e"/>
       <use transform="translate(254.49)" xlink:href="#f"/>
       <use transform="translate(290.58)" xlink:href="#a"/>
       <use transform="translate(354.2)" xlink:href="#bb"/>
      </g>
     </g>
    </g>
    <g id="bq">
     <g id="br">
      <path d="m195.71 508.93v-476.09" clip-path="url(#c)" fill="none" stroke="#b0b0b0" stroke-dasharray="2.96,1.28" stroke-opacity=".3" stroke-width=".8"/>
     </g>
     <g id="bs">
      <use x="195.705169" y="508.925776" stroke="#000000" stroke-width=".8" xlink:href="#d"/>
     </g>
     <g id="bt">
      <g transform="translate(158.48 543.4) rotate(-30) scale(.1 -.1)">
       <defs>
        <path id="ag" transform="scale(.015625)" d="m2419 4116-1594-2491h1594v2491zm-166 550h794v-3041h666v-525h-666v-1100h-628v1100h-2106v609l1940 2957z"/>
       </defs>
       <use xlink:href="#b"/>
       <use transform="translate(63.623)" xlink:href="#a"/>
       <use transform="translate(127.25)" xlink:href="#b"/>
       <use transform="translate(190.87)" xlink:href="#e"/>
       <use transform="translate(254.49)" xlink:href="#f"/>
       <use transform="translate(290.58)" xlink:href="#a"/>
       <use transform="translate(354.2)" xlink:href="#ag"/>
      </g>
     </g>
    </g>
    <g id="bu">
     <g id="bv">
      <path d="m278.42 508.93v-476.09" clip-path="url(#c)" fill="none" stroke="#b0b0b0" stroke-dasharray="2.96,1.28" stroke-opacity=".3" stroke-width=".8"/>
     </g>
     <g id="bw">
      <use x="278.421562" y="508.925776" stroke="#000000" stroke-width=".8" xlink:href="#d"/>
     </g>
     <g id="bx">
      <g transform="translate(241.2 543.4) rotate(-30) scale(.1 -.1)">
       <use xlink:href="#b"/>
       <use transform="translate(63.623)" xlink:href="#a"/>
       <use transform="translate(127.25)" xlink:href="#b"/>
       <use transform="translate(190.87)" xlink:href="#e"/>
       <use transform="translate(254.49)" xlink:href="#f"/>
       <use transform="translate(290.58)" xlink:href="#a"/>
       <use transform="translate(354.2)" xlink:href="#e"/>
      </g>
     </g>
    </g>
    <g id="by">
     <g id="bz">
      <path d="m363.9 508.93v-476.09" clip-path="url(#c)" fill="none" stroke="#b0b0b0" stroke-dasharray="2.96,1.28" stroke-opacity=".3" stroke-width=".8"/>
     </g>
     <g id="ca">
      <use x="363.895169" y="508.925776" stroke="#000000" stroke-width=".8" xlink:href="#d"/>
     </g>
     <g id="cb">
      <g transform="translate(326.67 543.4) rotate(-30) scale(.1 -.1)">
       <defs>
        <path id="x" transform="scale(.015625)" d="m2113 2584q-425 0-674-291-248-290-248-796 0-503 248-796 249-292 674-292t673 292q248 293 248 796 0 506-248 796-248 291-673 291zm1253 1979v-575q-238 112-480 171-242 60-480 60-625 0-955-422-329-422-376-1275 184 272 462 417 279 145 613 145 703 0 1111-427 408-426 408-1160 0-719-425-1154-425-434-1131-434-810 0-1238 620-428 621-428 1799 0 1106 525 1764t1409 658q238 0 480-47t505-140z"/>
       </defs>
       <use xlink:href="#b"/>
       <use transform="translate(63.623)" xlink:href="#a"/>
       <use transform="translate(127.25)" xlink:href="#b"/>
       <use transform="translate(190.87)" xlink:href="#e"/>
       <use transform="translate(254.49)" xlink:href="#f"/>
       <use transform="translate(290.58)" xlink:href="#a"/>
       <use transform="translate(354.2)" xlink:href="#x"/>
      </g>
     </g>
    </g>
    <g id="cc">
     <g id="cd">
      <path d="m446.61 508.93v-476.09" clip-path="url(#c)" fill="none" stroke="#b0b0b0" stroke-dasharray="2.96,1.28" stroke-opacity=".3" stroke-width=".8"/>
     </g>
     <g id="ce">
      <use x="446.611562" y="508.925776" stroke="#000000" stroke-width=".8" xlink:href="#d"/>
     </g>
     <g id="cf">
      <g transform="translate(409.39 543.4) rotate(-30) scale(.1 -.1)">
       <defs>
        <path id="ba" transform="scale(.015625)" d="m525 4666h3e3v-269l-1694-4397h-659l1594 4134h-2241v532z"/>
       </defs>
       <use xlink:href="#b"/>
       <use transform="translate(63.623)" xlink:href="#a"/>
       <use transform="translate(127.25)" xlink:href="#b"/>
       <use transform="translate(190.87)" xlink:href="#e"/>
       <use transform="translate(254.49)" xlink:href="#f"/>
       <use transform="translate(290.58)" xlink:href="#a"/>
       <use transform="translate(354.2)" xlink:href="#ba"/>
      </g>
     </g>
    </g>
    <g id="cg">
     <g id="ch">
      <path d="m532.09 508.93v-476.09" clip-path="url(#c)" fill="none" stroke="#b0b0b0" stroke-dasharray="2.96,1.28" stroke-opacity=".3" stroke-width=".8"/>
     </g>
     <g id="ci">
      <use x="532.085169" y="508.925776" stroke="#000000" stroke-width=".8" xlink:href="#d"/>
     </g>
     <g id="cj">
      <g transform="translate(494.86 543.4) rotate(-30) scale(.1 -.1)">
       <defs>
        <path id="af" transform="scale(.015625)" d="m2034 2216q-450 0-708-241-257-241-257-662 0-422 257-663 258-241 708-241t709 242q260 243 260 662 0 421-258 662-257 241-711 241zm-631 268q-406 100-633 378-226 279-226 679 0 559 398 884 399 325 1092 325 697 0 1094-325t397-884q0-400-227-679-226-278-629-378 456-106 710-416 255-309 255-755 0-679-414-1042-414-362-1186-362-771 0-1186 362-414 363-414 1042 0 446 256 755 257 310 713 416zm-231 997q0-362 226-565 227-203 636-203 407 0 636 203 230 203 230 565 0 363-230 566-229 203-636 203-409 0-636-203-226-203-226-566z"/>
       </defs>
       <use xlink:href="#b"/>
       <use transform="translate(63.623)" xlink:href="#a"/>
       <use transform="translate(127.25)" xlink:href="#b"/>
       <use transform="translate(190.87)" xlink:href="#e"/>
       <use transform="translate(254.49)" xlink:href="#f"/>
       <use transform="translate(290.58)" xlink:href="#a"/>
       <use transform="translate(354.2)" xlink:href="#af"/>
      </g>
     </g>
    </g>
    <g id="ck">
     <g id="cl">
      <path d="m617.56 508.93v-476.09" clip-path="url(#c)" fill="none" stroke="#b0b0b0" stroke-dasharray="2.96,1.28" stroke-opacity=".3" stroke-width=".8"/>
     </g>
     <g id="cm">
      <use x="617.558776" y="508.925776" stroke="#000000" stroke-width=".8" xlink:href="#d"/>
     </g>
     <g id="cn">
      <g transform="translate(580.33 543.4) rotate(-30) scale(.1 -.1)">
       <defs>
        <path id="az" transform="scale(.015625)" d="m703 97v575q238-113 481-172 244-59 479-59 625 0 954 420 330 420 377 1277-181-269-460-413-278-144-615-144-700 0-1108 423-408 424-408 1159 0 718 425 1152 425 435 1131 435 810 0 1236-621 427-620 427-1801 0-1103-524-1761-523-658-1407-658-238 0-482 47-243 47-506 141zm1256 1978q425 0 673 290 249 291 249 798 0 503-249 795-248 292-673 292t-673-292-248-795q0-507 248-798 248-290 673-290z"/>
       </defs>
       <use xlink:href="#b"/>
       <use transform="translate(63.623)" xlink:href="#a"/>
       <use transform="translate(127.25)" xlink:href="#b"/>
       <use transform="translate(190.87)" xlink:href="#e"/>
       <use transform="translate(254.49)" xlink:href="#f"/>
       <use transform="translate(290.58)" xlink:href="#a"/>
       <use transform="translate(354.2)" xlink:href="#az"/>
      </g>
     </g>
    </g>
    <g id="co">
     <g id="cp">
      <path d="m700.28 508.93v-476.09" clip-path="url(#c)" fill="none" stroke="#b0b0b0" stroke-dasharray="2.96,1.28" stroke-opacity=".3" stroke-width=".8"/>
     </g>
     <g id="cq">
      <use x="700.275169" y="508.925776" stroke="#000000" stroke-width=".8" xlink:href="#d"/>
     </g>
     <g id="cr">
      <g transform="translate(663.05 543.4) rotate(-30) scale(.1 -.1)">
       <defs>
        <path id="l" transform="scale(.015625)" d="m794 531h1031v3560l-1122-225v575l1116 225h631v-4135h1031v-531h-2687v531z"/>
       </defs>
       <use xlink:href="#b"/>
       <use transform="translate(63.623)" xlink:href="#a"/>
       <use transform="translate(127.25)" xlink:href="#b"/>
       <use transform="translate(190.87)" xlink:href="#e"/>
       <use transform="translate(254.49)" xlink:href="#f"/>
       <use transform="translate(290.58)" xlink:href="#l"/>
       <use transform="translate(354.2)" xlink:href="#a"/>
      </g>
     </g>
    </g>
    <g id="cs">
     <g id="ct">
      <path d="m785.75 508.93v-476.09" clip-path="url(#c)" fill="none" stroke="#b0b0b0" stroke-dasharray="2.96,1.28" stroke-opacity=".3" stroke-width=".8"/>
     </g>
     <g id="cu">
      <use x="785.748776" y="508.925776" stroke="#000000" stroke-width=".8" xlink:href="#d"/>
     </g>
     <g id="cv">
      <g transform="translate(748.52 543.4) rotate(-30) scale(.1 -.1)">
       <use xlink:href="#b"/>
       <use transform="translate(63.623)" xlink:href="#a"/>
       <use transform="translate(127.25)" xlink:href="#b"/>
       <use transform="translate(190.87)" xlink:href="#e"/>
       <use transform="translate(254.49)" xlink:href="#f"/>
       <use transform="translate(290.58)" xlink:href="#l"/>
       <use transform="translate(354.2)" xlink:href="#l"/>
      </g>
     </g>
    </g>
    <g id="cw">
     <g id="cx">
      <path d="m868.47 508.93v-476.09" clip-path="url(#c)" fill="none" stroke="#b0b0b0" stroke-dasharray="2.96,1.28" stroke-opacity=".3" stroke-width=".8"/>
     </g>
     <g id="cy">
      <use x="868.465169" y="508.925776" stroke="#000000" stroke-width=".8" xlink:href="#d"/>
     </g>
     <g id="cz">
      <g transform="translate(831.24 543.4) rotate(-30) scale(.1 -.1)">
       <use xlink:href="#b"/>
       <use transform="translate(63.623)" xlink:href="#a"/>
       <use transform="translate(127.25)" xlink:href="#b"/>
       <use transform="translate(190.87)" xlink:href="#e"/>
       <use transform="translate(254.49)" xlink:href="#f"/>
       <use transform="translate(290.58)" xlink:href="#l"/>
       <use transform="translate(354.2)" xlink:href="#b"/>
      </g>
     </g>
    </g>
    <g id="da">
     <g id="db">
      <path d="m953.94 508.93v-476.09" clip-path="url(#c)" fill="none" stroke="#b0b0b0" stroke-dasharray="2.96,1.28" stroke-opacity=".3" stroke-width=".8"/>
     </g>
     <g id="dc">
      <use x="953.938776" y="508.925776" stroke="#000000" stroke-width=".8" xlink:href="#d"/>
     </g>
     <g id="dd">
      <g transform="translate(916.71 543.4) rotate(-30) scale(.1 -.1)">
       <use xlink:href="#b"/>
       <use transform="translate(63.623)" xlink:href="#a"/>
       <use transform="translate(127.25)" xlink:href="#b"/>
       <use transform="translate(190.87)" xlink:href="#x"/>
       <use transform="translate(254.49)" xlink:href="#f"/>
       <use transform="translate(290.58)" xlink:href="#a"/>
       <use transform="translate(354.2)" xlink:href="#l"/>
      </g>
     </g>
    </g>
    <g id="de">
     <g transform="translate(516.37 558.32) scale(.12 -.12)">
      <defs>
       <path id="w" transform="scale(.015625)" d="m1259 4147v-3628h763q966 0 1414 437 448 438 448 1382 0 937-448 1373t-1414 436h-763zm-631 519h1297q1356 0 1990-564 635-564 635-1764 0-1207-638-1773-637-565-1987-565h-1297v4666z"/>
       <path id="r" transform="scale(.015625)" d="m2194 1759q-697 0-966-159t-269-544q0-306 202-486 202-179 548-179 479 0 768 339t289 901v128h-572zm1147 238v-1997h-575v531q-197-318-491-470t-719-152q-537 0-855 302-317 302-317 808 0 590 395 890 396 300 1180 300h807v57q0 397-261 614t-733 217q-300 0-585-72-284-72-546-216v532q315 122 612 182 297 61 578 61 760 0 1135-394 375-393 375-1193z"/>
       <path id="h" transform="scale(.015625)" d="m1172 4494v-994h1184v-447h-1184v-1900q0-428 117-550t477-122h590v-481h-590q-666 0-919 248-253 249-253 905v1900h-422v447h422v994h578z"/>
       <path id="j" transform="scale(.015625)" d="m3597 1894v-281h-2644q38-594 358-905t892-311q331 0 642 81t618 244v-544q-310-131-635-200t-659-69q-838 0-1327 487-489 488-489 1320 0 859 464 1363 464 505 1252 505 706 0 1117-455 411-454 411-1235zm-575 169q-6 471-264 752-258 282-683 282-481 0-770-272t-333-766l2050 4z"/>
      </defs>
      <use xlink:href="#w"/>
      <use transform="translate(77.002)" xlink:href="#r"/>
      <use transform="translate(138.28)" xlink:href="#h"/>
      <use transform="translate(177.49)" xlink:href="#j"/>
     </g>
    </g>
   </g>
   <g id="df">
    <g id="dg">
     <g id="dh">
      <path d="m68.184 487.29h925.04" clip-path="url(#c)" fill="none" stroke="#b0b0b0" stroke-dasharray="2.96,1.28" stroke-opacity=".3" stroke-width=".8"/>
     </g>
     <g id="di">
      <defs>
       <path id="g" d="m0 0h-3.5" stroke="#000" stroke-width=".8"/>
      </defs>
      <use x="68.184063" y="487.285414" stroke="#000000" stroke-width=".8" xlink:href="#g"/>
     </g>
     <g id="dj">
      <g transform="translate(48.264 491.08) scale(.1 -.1)">
       <defs>
        <path id="k" transform="scale(.015625)" d="m628 4666h631v-1972l2094 1972h813l-2316-2175 2481-2491h-831l-2241 2247v-2247h-631v4666z"/>
       </defs>
       <use xlink:href="#a"/>
       <use transform="translate(63.623)" xlink:href="#k"/>
      </g>
     </g>
    </g>
    <g id="dk">
     <g id="dl">
      <path d="m68.184 409.63h925.04" clip-path="url(#c)" fill="none" stroke="#b0b0b0" stroke-dasharray="2.96,1.28" stroke-opacity=".3" stroke-width=".8"/>
     </g>
     <g id="dm">
      <use x="68.184063" y="409.634822" stroke="#000000" stroke-width=".8" xlink:href="#g"/>
     </g>
     <g id="dn">
      <g transform="translate(29.176 413.43) scale(.1 -.1)">
       <use xlink:href="#b"/>
       <use transform="translate(63.623)" xlink:href="#a"/>
       <use transform="translate(127.25)" xlink:href="#a"/>
       <use transform="translate(190.87)" xlink:href="#a"/>
       <use transform="translate(254.49)" xlink:href="#k"/>
      </g>
     </g>
    </g>
    <g id="do">
     <g id="dp">
      <path d="m68.184 331.98h925.04" clip-path="url(#c)" fill="none" stroke="#b0b0b0" stroke-dasharray="2.96,1.28" stroke-opacity=".3" stroke-width=".8"/>
     </g>
     <g id="dq">
      <use x="68.184063" y="331.98423" stroke="#000000" stroke-width=".8" xlink:href="#g"/>
     </g>
     <g id="dr">
      <g transform="translate(29.176 335.78) scale(.1 -.1)">
       <use xlink:href="#ag"/>
       <use transform="translate(63.623)" xlink:href="#a"/>
       <use transform="translate(127.25)" xlink:href="#a"/>
       <use transform="translate(190.87)" xlink:href="#a"/>
       <use transform="translate(254.49)" xlink:href="#k"/>
      </g>
     </g>
    </g>
    <g id="ds">
     <g id="dt">
      <path d="m68.184 254.33h925.04" clip-path="url(#c)" fill="none" stroke="#b0b0b0" stroke-dasharray="2.96,1.28" stroke-opacity=".3" stroke-width=".8"/>
     </g>
     <g id="du">
      <use x="68.184063" y="254.333638" stroke="#000000" stroke-width=".8" xlink:href="#g"/>
     </g>
     <g id="dv">
      <g transform="translate(29.176 258.13) scale(.1 -.1)">
       <use xlink:href="#x"/>
       <use transform="translate(63.623)" xlink:href="#a"/>
       <use transform="translate(127.25)" xlink:href="#a"/>
       <use transform="translate(190.87)" xlink:href="#a"/>
       <use transform="translate(254.49)" xlink:href="#k"/>
      </g>
     </g>
    </g>
    <g id="dw">
     <g id="dx">
      <path d="m68.184 176.68h925.04" clip-path="url(#c)" fill="none" stroke="#b0b0b0" stroke-dasharray="2.96,1.28" stroke-opacity=".3" stroke-width=".8"/>
     </g>
     <g id="dy">
      <use x="68.184063" y="176.683046" stroke="#000000" stroke-width=".8" xlink:href="#g"/>
     </g>
     <g id="dz">
      <g transform="translate(29.176 180.48) scale(.1 -.1)">
       <use xlink:href="#af"/>
       <use transform="translate(63.623)" xlink:href="#a"/>
       <use transform="translate(127.25)" xlink:href="#a"/>
       <use transform="translate(190.87)" xlink:href="#a"/>
       <use transform="translate(254.49)" xlink:href="#k"/>
      </g>
     </g>
    </g>
    <g id="ea">
     <g id="eb">
      <path d="m68.184 99.032h925.04" clip-path="url(#c)" fill="none" stroke="#b0b0b0" stroke-dasharray="2.96,1.28" stroke-opacity=".3" stroke-width=".8"/>
     </g>
     <g id="ec">
      <use x="68.184063" y="99.032454" stroke="#000000" stroke-width=".8" xlink:href="#g"/>
     </g>
     <g id="ed">
      <g transform="translate(22.814 102.83) scale(.1 -.1)">
       <use xlink:href="#l"/>
       <use transform="translate(63.623)" xlink:href="#a"/>
       <use transform="translate(127.25)" xlink:href="#a"/>
       <use transform="translate(190.87)" xlink:href="#a"/>
       <use transform="translate(254.49)" xlink:href="#a"/>
       <use transform="translate(318.12)" xlink:href="#k"/>
      </g>
     </g>
    </g>
    <g id="ee">
     <g transform="translate(16.318 329.37) rotate(-90) scale(.12 -.12)">
      <defs>
       <path id="i" transform="scale(.015625)" d="m603 3500h575v-3500h-575v3500zm0 1363h575v-729h-575v729z"/>
       <path id="u" transform="scale(.015625)" d="m603 4863h575v-4863h-575v4863z"/>
       <path id="as" transform="scale(.015625)" d="m2059-325q-243-625-475-815-231-191-618-191h-460v481h338q237 0 368 113 132 112 291 531l103 262-1415 3444h609l1094-2737 1094 2737h609l-1538-3825z"/>
       <path id="ad" transform="scale(.015625)" d="m628 4666h2950v-532h-2319v-1381h2222v-531h-2222v-1691h2375v-531h-3006v4666z"/>
       <path id="p" transform="scale(.015625)" d="m3513 2113v-2113h-575v2094q0 497-194 743-194 247-581 247-466 0-735-297-269-296-269-809v-1978h-578v3500h578v-544q207 316 486 472 280 156 646 156 603 0 912-373 310-373 310-1098z"/>
       <path id="q" transform="scale(.015625)" d="m2906 1791q0 625-258 968-257 344-723 344-462 0-720-344-258-343-258-968 0-622 258-966t720-344q466 0 723 344 258 344 258 966zm575-1357q0-893-397-1329-396-436-1215-436-303 0-572 45t-522 139v559q253-137 500-202 247-66 503-66 566 0 847 295t281 892v285q-178-310-456-463t-666-153q-643 0-1037 490-394 491-394 1301 0 812 394 1302 394 491 1037 491 388 0 666-153t456-462v531h575v-3066z"/>
       <path id="n" transform="scale(.015625)" d="m3328 2828q216 388 516 572t706 184q547 0 844-383 297-382 297-1088v-2113h-578v2094q0 503-179 746-178 244-543 244-447 0-707-297-259-296-259-809v-1978h-578v2094q0 506-178 748t-550 242q-441 0-701-298-259-298-259-808v-1978h-578v3500h578v-544q197 322 472 475t653 153q382 0 649-194 267-193 395-562z"/>
       <path id="au" transform="scale(.015625)" d="m2834 3397v-544q-243 125-506 187-262 63-544 63-428 0-642-131t-214-394q0-200 153-314t616-217l197-44q612-131 870-370t258-667q0-488-386-773-386-284-1061-284-281 0-586 55t-642 164v594q319-166 628-249 309-82 613-82 406 0 624 139 219 139 219 392 0 234-158 359-157 125-692 241l-200 47q-534 112-772 345-237 233-237 639 0 494 350 762 350 269 994 269 318 0 599-47 282-46 519-140z"/>
      </defs>
      <use xlink:href="#w"/>
      <use transform="translate(77.002)" xlink:href="#r"/>
      <use transform="translate(138.28)" xlink:href="#i"/>
      <use transform="translate(166.06)" xlink:href="#u"/>
      <use transform="translate(193.85)" xlink:href="#as"/>
      <use transform="translate(253.03)" xlink:href="#DejaVuSans-20"/>
      <use transform="translate(284.81)" xlink:href="#ad"/>
      <use transform="translate(348)" xlink:href="#p"/>
      <use transform="translate(411.38)" xlink:href="#q"/>
      <use transform="translate(474.85)" xlink:href="#r"/>
      <use transform="translate(536.13)" xlink:href="#q"/>
      <use transform="translate(599.61)" xlink:href="#j"/>
      <use transform="translate(661.13)" xlink:href="#n"/>
      <use transform="translate(758.54)" xlink:href="#j"/>
      <use transform="translate(820.07)" xlink:href="#p"/>
      <use transform="translate(883.45)" xlink:href="#h"/>
      <use transform="translate(922.66)" xlink:href="#au"/>
     </g>
    </g>
   </g>
   <g id="ef">
    <path d="m68.184 508.93v-476.09" fill="none" stroke="#000" stroke-linecap="square" stroke-width=".8"/>
   </g>
   <g id="eg">
    <path d="m68.184 508.93h925.04" fill="none" stroke="#000" stroke-linecap="square" stroke-width=".8"/>
   </g>
   <g id="eh">
    <g transform="translate(409.47 17.838) scale(.14 -.14)">
     <defs>
      <path id="ar" transform="scale(.015625)" d="m588 4666h3246v-910h-2043v-868h1922v-910h-1922v-1069h2112v-909h-3315v4666z"/>
      <path id="s" transform="scale(.015625)" d="m4056 2131v-2131h-1125v347 1284q0 453-20 625t-70 253q-66 110-179 171-112 61-256 61-350 0-550-271-200-270-200-748v-1722h-1118v3500h1118v-512q253 306 537 451 285 145 629 145 606 0 920-372 314-371 314-1081z"/>
      <path id="aa" transform="scale(.015625)" d="m2919 594q-231-306-510-450-278-144-643-144-641 0-1060 504-418 505-418 1287 0 784 418 1285 419 502 1060 502 365 0 643-144 279-143 510-453v519h1125v-3147q0-844-533-1289t-1545-445q-328 0-635 50-306 50-615 153v872q293-169 574-252 282-83 566-83 550 0 806 241 257 241 257 753v241zm-738 2178q-347 0-541-257-193-256-193-724 0-482 187-730 188-248 547-248 350 0 544 256t194 722q0 468-194 724-194 257-544 257z"/>
      <path id="ap" transform="scale(.015625)" d="m2106 1575q-350 0-527-119-176-118-176-350 0-212 142-333 143-120 396-120 315 0 531 226 216 227 216 568v128h-582zm1710 422v-1997h-1128v519q-225-319-507-465-281-145-684-145-544 0-883 317-339 318-339 824 0 616 423 903 424 288 1330 288h660v87q0 266-210 389-209 124-653 124-359 0-669-72-309-72-575-216v853q360 88 722 133 363 45 725 45 947 0 1367-373 421-373 421-1214z"/>
      <path id="m" transform="scale(.015625)" d="m4031 1759v-318h-2615q40-394 284-591t681-197q353 0 723 105 371 105 762 317v-862q-397-150-794-227t-794-77q-950 0-1477 483-526 483-526 1355 0 856 517 1346 517 491 1424 491 825 0 1320-497 495-496 495-1328zm-1150 372q0 319-186 514-186 196-486 196-325 0-528-183t-253-527h1453z"/>
      <path id="z" transform="scale(.015625)" d="m3781 2919q213 325 505 495t642 170q603 0 919-372 316-371 316-1081v-2131h-1125v1825q3 41 4 84 2 44 2 125 0 372-110 539-109 168-353 168-318 0-492-263-173-262-180-759v-1719h-1125v1825q0 581-100 748-100 168-356 168-322 0-497-264t-175-755v-1722h-1125v3500h1125v-512q207 296 474 446t589 150q362 0 640-175 279-175 422-490z"/>
      <path id="al" transform="scale(.015625)" d="m1759 4494v-994h1154v-800h-1154v-1484q0-244 97-330t385-86h575v-800h-960q-662 0-939 276-276 277-276 940v1484h-557v800h557v994h1118z"/>
      <path id="ab" transform="scale(.015625)" d="m31 4666h4300v-910h-1547v-3756h-1203v3756h-1550v910z"/>
      <path id="y" transform="scale(.015625)" d="m3138 2547q-147 69-293 101-145 33-292 33-431 0-664-277-233-276-233-791v-1613h-1118v3500h1118v-575q216 344 495 501 280 158 671 158 56 0 121-5 66-4 191-20l4-1012z"/>
      <path id="ao" transform="scale(.015625)" d="m2919 2988v1875h1125v-4863h-1125v506q-231-309-510-453-278-144-643-144-647 0-1063 514-415 515-415 1324t415 1323q416 514 1063 514 362 0 642-145t511-451zm-738-2266q360 0 549 262 189 263 189 763t-189 762q-189 263-549 263-356 0-545-263-189-262-189-762t189-763q189-262 545-262z"/>
      <path id="am" transform="scale(.015625)" d="m3272 3391v-850q-359 150-694 225-334 75-631 75-319 0-474-80-154-80-154-245 0-135 117-207 117-71 420-106l197-28q860-109 1156-359 297-250 297-785 0-559-413-841-412-281-1230-281-347 0-718 55-370 55-761 164v850q335-162 686-244 352-81 714-81 329 0 494 90 166 91 166 270 0 150-114 223t-455 114l-197 25q-747 94-1047 347t-300 769q0 556 381 824 382 269 1169 269 310 0 650-47 341-46 741-146z"/>
      <path id="aq" transform="scale(.015625)" d="m2719 3878q-550 0-853-406t-303-1144q0-734 303-1141 303-406 853-406 553 0 856 406 303 407 303 1141 0 738-303 1144t-856 406zm0 872q1125 0 1762-644 638-643 638-1778 0-1131-638-1775-637-644-1762-644-1122 0-1761 644t-639 1775q0 1135 639 1778 639 644 1761 644z"/>
      <path id="ak" transform="scale(.015625)" d="m97 3500h1119l872-2419 868 2419h1122l-1378-3500h-1228l-1375 3500z"/>
      <path id="an" transform="scale(.015625)" d="m538 3500h1118v-3500h-1118v3500zm0 1363h1118v-913h-1118v913z"/>
     </defs>
     <use xlink:href="#ar"/>
     <use transform="translate(68.311)" xlink:href="#s"/>
     <use transform="translate(139.5)" xlink:href="#aa"/>
     <use transform="translate(211.08)" xlink:href="#ap"/>
     <use transform="translate(278.56)" xlink:href="#aa"/>
     <use transform="translate(350.15)" xlink:href="#m"/>
     <use transform="translate(417.97)" xlink:href="#z"/>
     <use transform="translate(522.17)" xlink:href="#m"/>
     <use transform="translate(589.99)" xlink:href="#s"/>
     <use transform="translate(661.18)" xlink:href="#al"/>
     <use transform="translate(708.98)" xlink:href="#DejaVuSans-Bold-20"/>
     <use transform="translate(743.8)" xlink:href="#ab"/>
     <use transform="translate(801.01)" xlink:href="#y"/>
     <use transform="translate(850.33)" xlink:href="#m"/>
     <use transform="translate(918.15)" xlink:href="#s"/>
     <use transform="translate(989.34)" xlink:href="#ao"/>
     <use transform="translate(1060.9)" xlink:href="#am"/>
     <use transform="translate(1120.4)" xlink:href="#DejaVuSans-Bold-20"/>
     <use transform="translate(1155.3)" xlink:href="#aq"/>
     <use transform="translate(1240.3)" xlink:href="#ak"/>
     <use transform="translate(1305.5)" xlink:href="#m"/>
     <use transform="translate(1373.3)" xlink:href="#y"/>
     <use transform="translate(1422.6)" xlink:href="#DejaVuSans-Bold-20"/>
     <use transform="translate(1457.4)" xlink:href="#ab"/>
     <use transform="translate(1525.6)" xlink:href="#an"/>
     <use transform="translate(1559.9)" xlink:href="#z"/>
     <use transform="translate(1664.1)" xlink:href="#m"/>
    </g>
   </g>
   <g id="ei">
    <g id="ej">
     <path d="m75.184 84.872h99.262q2 0 2-2v-43.034q0-2-2-2h-99.262q-2 0-2 2v43.034q0 2 2 2z" fill="#fff" opacity=".8" stroke="#ccc"/>
    </g>
    <g id="ek">
     <path d="m77.184 49.436h20v-7h-20z" fill="#1f77b4" fill-opacity=".4" stroke="#1f77b4" stroke-opacity=".4"/>
    </g>
    <g id="el">
     <g transform="translate(105.18 49.436) scale(.1 -.1)">
      <defs>
       <path id="o" transform="scale(.015625)" d="m1959 3097q-462 0-731-361t-269-989 267-989q268-361 733-361 460 0 728 362 269 363 269 988 0 622-269 986-268 364-728 364zm0 487q750 0 1178-488 429-487 429-1349 0-859-429-1349-428-489-1178-489-753 0-1180 489-426 490-426 1349 0 862 426 1349 427 488 1180 488z"/>
       <path id="t" transform="scale(.015625)" d="m2631 2963q-97 56-211 82-114 27-251 27-488 0-749-317t-261-911v-1844h-578v3500h578v-544q182 319 472 473 291 155 707 155 59 0 131-8 72-7 159-23l3-590z"/>
       <path id="av" transform="scale(.015625)" d="m1159 525v-1856h-578v4831h578v-531q182 312 458 463 277 152 661 152 638 0 1036-506 399-506 399-1331t-399-1332q-398-506-1036-506-384 0-661 152-276 152-458 464zm1957 1222q0 634-261 995t-717 361q-457 0-718-361t-261-995 261-995 718-361q456 0 717 361t261 995z"/>
       <path id="ac" transform="scale(.015625)" d="m3513 2113v-2113h-575v2094q0 497-194 743-194 247-581 247-466 0-735-297-269-296-269-809v-1978h-578v4863h578v-1907q207 316 486 472 280 156 646 156 603 0 912-373 310-373 310-1098z"/>
       <path id="v" transform="scale(.015625)" d="m3122 3366v-538q-244 135-489 202t-495 67q-560 0-870-355-309-354-309-995t309-996q310-354 870-354 250 0 495 67t489 202v-532q-241-112-499-168-257-57-548-57-791 0-1257 497-465 497-465 1341 0 856 470 1346 471 491 1290 491 265 0 518-55 253-54 491-163z"/>
      </defs>
      <use xlink:href="#w"/>
      <use transform="translate(77.002)" xlink:href="#j"/>
      <use transform="translate(138.53)" xlink:href="#n"/>
      <use transform="translate(235.94)" xlink:href="#o"/>
      <use transform="translate(297.12)" xlink:href="#q"/>
      <use transform="translate(360.6)" xlink:href="#t"/>
      <use transform="translate(401.71)" xlink:href="#r"/>
      <use transform="translate(462.99)" xlink:href="#av"/>
      <use transform="translate(526.46)" xlink:href="#ac"/>
      <use transform="translate(589.84)" xlink:href="#i"/>
      <use transform="translate(617.63)" xlink:href="#v"/>
     </g>
    </g>
    <g id="em">
     <path d="m77.184 64.114h20v-7h-20z" fill="#ff7f0e" fill-opacity=".4" stroke="#ff7f0e" stroke-opacity=".4"/>
    </g>
    <g id="en">
     <g transform="translate(105.18 64.114) scale(.1 -.1)">
      <defs>
       <path id="ae" transform="scale(.015625)" d="m1259 2228v-1709h1013q509 0 754 211 246 211 246 645 0 438-246 645-245 208-754 208h-1013zm0 1919v-1406h935q462 0 688 173 227 174 227 530 0 353-227 528-226 175-688 175h-935zm-631 519h1613q722 0 1112-300 391-300 391-853 0-429-200-682t-588-315q466-100 724-418 258-317 258-792 0-625-425-966-425-340-1210-340h-1675v4666z"/>
      </defs>
      <use xlink:href="#ae"/>
      <use transform="translate(68.604)" xlink:href="#i"/>
      <use transform="translate(96.387)" xlink:href="#o"/>
      <use transform="translate(157.57)" xlink:href="#n"/>
      <use transform="translate(254.98)" xlink:href="#j"/>
      <use transform="translate(316.5)" xlink:href="#h"/>
      <use transform="translate(355.71)" xlink:href="#t"/>
      <use transform="translate(396.83)" xlink:href="#i"/>
      <use transform="translate(424.61)" xlink:href="#v"/>
     </g>
    </g>
    <g id="eo">
     <path d="m77.184 78.792h20v-7h-20z" fill="#2ca02c" fill-opacity=".4" stroke="#2ca02c" stroke-opacity=".4"/>
    </g>
    <g id="ep">
     <g transform="translate(105.18 78.792) scale(.1 -.1)">
      <use xlink:href="#ad"/>
      <use transform="translate(63.184)" xlink:href="#p"/>
      <use transform="translate(126.56)" xlink:href="#t"/>
      <use transform="translate(165.43)" xlink:href="#o"/>
      <use transform="translate(226.61)" xlink:href="#u"/>
      <use transform="translate(254.39)" xlink:href="#u"/>
      <use transform="translate(282.17)" xlink:href="#n"/>
      <use transform="translate(379.59)" xlink:href="#j"/>
      <use transform="translate(441.11)" xlink:href="#p"/>
      <use transform="translate(504.49)" xlink:href="#h"/>
     </g>
    </g>
   </g>
  </g>
  <g id="eq">
   <g transform="translate(912.92 564.61) scale(.09 -.09)" fill="#808080" opacity=".7">
    <defs>
     <path id="at" transform="scale(.015625)" d="m544 1381v2119h575v-2097q0-497 193-746 194-248 582-248 465 0 735 297 271 297 271 810v1984h575v-3500h-575v538q-209-319-486-474-276-155-642-155-603 0-916 375-312 375-312 1097zm1447 2203z"/>
     <path id="aw" transform="scale(.015625)" d="m3116 1747q0 634-261 995t-717 361q-457 0-718-361t-261-995 261-995 718-361q456 0 717 361t261 995zm-1957 1222q182 312 458 463 277 152 661 152 638 0 1036-506 399-506 399-1331t-399-1332q-398-506-1036-506-384 0-661 152-276 152-458 464v-525h-578v4863h578v-1894z"/>
     <path id="bd" transform="scale(.015625)" d="m684 794h660v-794h-660v794z"/>
     <path id="bc" transform="scale(.015625)" d="m1625 4666h531l-1625-5260h-531l1625 5260z"/>
     <path id="ay" transform="scale(.015625)" d="m628 4666h941l1190-3175 1197 3175h941v-4666h-616v4097l-1203-3200h-634l-1203 3200v-4097h-613v4666z"/>
     <path id="ax" transform="scale(.015625)" d="m2522 4238q-688 0-1093-513-404-512-404-1397 0-881 404-1394 405-512 1093-512 687 0 1089 512 402 513 402 1394 0 885-402 1397-402 513-1089 513zm0 512q981 0 1568-658 588-658 588-1764 0-1103-588-1761-587-658-1568-658-984 0-1574 656-589 657-589 1763t589 1764q590 658 1574 658z"/>
    </defs>
    <use xlink:href="#q"/>
    <use transform="translate(63.477)" xlink:href="#i"/>
    <use transform="translate(91.26)" xlink:href="#h"/>
    <use transform="translate(130.47)" xlink:href="#ac"/>
    <use transform="translate(193.85)" xlink:href="#at"/>
    <use transform="translate(257.23)" xlink:href="#aw"/>
    <use transform="translate(320.7)" xlink:href="#bd"/>
    <use transform="translate(352.49)" xlink:href="#v"/>
    <use transform="translate(407.47)" xlink:href="#o"/>
    <use transform="translate(468.65)" xlink:href="#n"/>
    <use transform="translate(566.06)" xlink:href="#bc"/>
    <use transform="translate(599.76)" xlink:href="#ae"/>
    <use transform="translate(668.36)" xlink:href="#ay"/>
    <use transform="translate(754.64)" xlink:href="#ax"/>
    <use transform="translate(833.35)" xlink:href="#i"/>
    <use transform="translate(861.13)" xlink:href="#h"/>
   </g>
  </g>
 </g>
 <defs>
  <clipPath id="c">
   <rect x="68.184" y="32.838" width="925.04" height="476.09"/>
  </clipPath>
 </defs>
 <metadata>
  <rdf:RDF>
   <cc:Work>
    <dc:title>Engagement Trends Over Time</dc:title>
    <dc:creator>github.com/BMOit</dc:creator>
    <dc:rights>github.com/BMOit</dc:rights>
    <dc:source>UIDAI Data Hackathon 2026</dc:source>
   </cc:Work>
  </rdf:RDF>
 </metadata>
</svg>
