<?xml version="1.0" encoding="UTF-8"?>
<svg width="716.02pt" height="573.68pt" version="1.1" viewBox="0 0 716.02 573.68" xmlns="http://www.w3.org/2000/svg" xmlns:cc="http://creativecommons.org/ns#" xmlns:dc="http://purl.org/dc/elements/1.1/" xmlns:rdf="http://www.w3.org/1999/02/22-rdf-syntax-ns#" xmlns:xlink="http://www.w3.org/1999/xlink">
 <title>Engagement Balance Distribution</title>
 <desc>Chart by github.com/BMOit</desc>
 <metadata>
  <rdf:RDF>
   <cc:Work>
    <dc:type rdf:resource="http://purl.org/dc/dcmitype/StillImage"/>
    <dc:date>2026-01-20T17:31:29.630720</dc:date>
    <dc:format>image/svg+xml</dc:format>
    <dc:creator>
     <cc:Agent>
      <dc:title>Matplotlib v3.10.8, https://matplotlib.org/</dc:title>
     </cc:Agent>
    </dc:creator>
   </cc:Work>
  </rdf:RDF>
 </metadata>
 <defs>
  <style type="text/css">*{stroke-linejoin: round; stroke-linecap: butt}</style>
 </defs>
 <g id="ch">
  <g id="ci">
   <path d="m-0 573.68h716.02v-573.68h-716.02z" fill="#fff"/>
  </g>
  <g id="cj">
   <g id="ck">
    <path d="m55.264 506.42h649.96v-473.58h-649.96z" fill="#fff"/>
   </g>
   <g id="cl">
    <path d="m84.807 506.42h11.817-11.817z" clip-path="url(#a)" fill="#9467bd" opacity=".8" stroke="#fff" stroke-width=".5"/>
   </g>
   <g id="cm">
    <path d="m96.625 506.42h11.817-11.817z" clip-path="url(#a)" fill="#9467bd" opacity=".8" stroke="#fff" stroke-width=".5"/>
   </g>
   <g id="cn">
    <path d="m108.44 506.42h11.817-11.817z" clip-path="url(#a)" fill="#9467bd" opacity=".8" stroke="#fff" stroke-width=".5"/>
   </g>
   <g id="co">
    <path d="m120.26 506.42h11.817-11.817z" clip-path="url(#a)" fill="#9467bd" opacity=".8" stroke="#fff" stroke-width=".5"/>
   </g>
   <g id="cp">
    <path d="m132.08 506.42h11.817-11.817z" clip-path="url(#a)" fill="#9467bd" opacity=".8" stroke="#fff" stroke-width=".5"/>
   </g>
   <g id="cq">
    <path d="m143.89 506.42h11.817-11.817z" clip-path="url(#a)" fill="#9467bd" opacity=".8" stroke="#fff" stroke-width=".5"/>
   </g>
   <g id="cr">
    <path d="m155.71 506.42h11.817-11.817z" clip-path="url(#a)" fill="#9467bd" opacity=".8" stroke="#fff" stroke-width=".5"/>
   </g>
   <g id="cs">
    <path d="m167.53 506.42h11.817-11.817z" clip-path="url(#a)" fill="#9467bd" opacity=".8" stroke="#fff" stroke-width=".5"/>
   </g>
   <g id="ct">
    <path d="m179.35 506.42h11.817-11.817z" clip-path="url(#a)" fill="#9467bd" opacity=".8" stroke="#fff" stroke-width=".5"/>
   </g>
   <g id="cu">
    <path d="m191.16 506.42h11.817-11.817z" clip-path="url(#a)" fill="#9467bd" opacity=".8" stroke="#fff" stroke-width=".5"/>
   </g>
   <g id="cv">
    <path d="m202.98 506.42h11.817-11.817z" clip-path="url(#a)" fill="#9467bd" opacity=".8" stroke="#fff" stroke-width=".5"/>
   </g>
   <g id="cw">
    <path d="m214.8 506.42h11.817-11.817z" clip-path="url(#a)" fill="#9467bd" opacity=".8" stroke="#fff" stroke-width=".5"/>
   </g>
   <g id="cx">
    <path d="m226.62 506.42h11.817-11.817z" clip-path="url(#a)" fill="#9467bd" opacity=".8" stroke="#fff" stroke-width=".5"/>
   </g>
   <g id="cy">
    <path d="m238.43 506.42h11.817-11.817z" clip-path="url(#a)" fill="#9467bd" opacity=".8" stroke="#fff" stroke-width=".5"/>
   </g>
   <g id="cz">
    <path d="m250.25 506.42h11.817-11.817z" clip-path="url(#a)" fill="#9467bd" opacity=".8" stroke="#fff" stroke-width=".5"/>
   </g>
   <g id="da">
    <path d="m262.07 506.42h11.817-11.817z" clip-path="url(#a)" fill="#9467bd" opacity=".8" stroke="#fff" stroke-width=".5"/>
   </g>
   <g id="db">
    <path d="m273.89 506.42h11.817-11.817z" clip-path="url(#a)" fill="#9467bd" opacity=".8" stroke="#fff" stroke-width=".5"/>
   </g>
   <g id="dc">
    <path d="m285.7 506.42h11.817-11.817z" clip-path="url(#a)" fill="#9467bd" opacity=".8" stroke="#fff" stroke-width=".5"/>
   </g>
   <g id="dd">
    <path d="m297.52 506.42h11.817-11.817z" clip-path="url(#a)" fill="#9467bd" opacity=".8" stroke="#fff" stroke-width=".5"/>
   </g>
   <g id="de">
    <path d="m309.34 506.42h11.817-11.817z" clip-path="url(#a)" fill="#9467bd" opacity=".8" stroke="#fff" stroke-width=".5"/>
   </g>
   <g id="df">
    <path d="m321.16 506.42h11.817-11.817z" clip-path="url(#a)" fill="#9467bd" opacity=".8" stroke="#fff" stroke-width=".5"/>
   </g>
   <g id="dg">
    <path d="m332.97 506.42h11.817v-18.798h-11.817z" clip-path="url(#a)" fill="#9467bd" opacity=".8" stroke="#fff" stroke-width=".5"/>
   </g>
   <g id="dh">
    <path d="m344.79 506.42h11.817v-0.49796h-11.817z" clip-path="url(#a)" fill="#9467bd" opacity=".8" stroke="#fff" stroke-width=".5"/>
   </g>
   <g id="di">
    <path d="m356.61 506.42h11.817v-1.1204h-11.817z" clip-path="url(#a)" fill="#9467bd" opacity=".8" stroke="#fff" stroke-width=".5"/>
   </g>
   <g id="dj">
    <path d="m368.43 506.42h11.817v-2.3653h-11.817z" clip-path="url(#a)" fill="#9467bd" opacity=".8" stroke="#fff" stroke-width=".5"/>
   </g>
   <g id="dk">
    <path d="m380.24 506.42h11.817v-6.2245h-11.817z" clip-path="url(#a)" fill="#9467bd" opacity=".8" stroke="#fff" stroke-width=".5"/>
   </g>
   <g id="dl">
    <path d="m392.06 506.42h11.817v-13.32h-11.817z" clip-path="url(#a)" fill="#9467bd" opacity=".8" stroke="#fff" stroke-width=".5"/>
   </g>
   <g id="dm">
    <path d="m403.88 506.42h11.817v-23.653h-11.817z" clip-path="url(#a)" fill="#9467bd" opacity=".8" stroke="#fff" stroke-width=".5"/>
   </g>
   <g id="dn">
    <path d="m415.7 506.42h11.817v-40.957h-11.817z" clip-path="url(#a)" fill="#9467bd" opacity=".8" stroke="#fff" stroke-width=".5"/>
   </g>
   <g id="do">
    <path d="m427.51 506.42h11.817v-69.714h-11.817z" clip-path="url(#a)" fill="#9467bd" opacity=".8" stroke="#fff" stroke-width=".5"/>
   </g>
   <g id="dp">
    <path d="m439.33 506.42h11.817v-110.05h-11.817z" clip-path="url(#a)" fill="#9467bd" opacity=".8" stroke="#fff" stroke-width=".5"/>
   </g>
   <g id="dq">
    <path d="m451.15 506.42h11.817v-156.48h-11.817z" clip-path="url(#a)" fill="#9467bd" opacity=".8" stroke="#fff" stroke-width=".5"/>
   </g>
   <g id="dr">
    <path d="m462.97 506.42h11.817v-203.17h-11.817z" clip-path="url(#a)" fill="#9467bd" opacity=".8" stroke="#fff" stroke-width=".5"/>
   </g>
   <g id="ds">
    <path d="m474.78 506.42h11.817v-250.85h-11.817z" clip-path="url(#a)" fill="#9467bd" opacity=".8" stroke="#fff" stroke-width=".5"/>
   </g>
   <g id="dt">
    <path d="m486.6 506.42h11.817v-292.05h-11.817z" clip-path="url(#a)" fill="#9467bd" opacity=".8" stroke="#fff" stroke-width=".5"/>
   </g>
   <g id="du">
    <path d="m498.42 506.42h11.817v-359.78h-11.817z" clip-path="url(#a)" fill="#9467bd" opacity=".8" stroke="#fff" stroke-width=".5"/>
   </g>
   <g id="dv">
    <path d="m510.24 506.42h11.817v-451.03h-11.817z" clip-path="url(#a)" fill="#9467bd" opacity=".8" stroke="#fff" stroke-width=".5"/>
   </g>
   <g id="dw">
    <path d="m522.05 506.42h11.817v-293.67h-11.817z" clip-path="url(#a)" fill="#9467bd" opacity=".8" stroke="#fff" stroke-width=".5"/>
   </g>
   <g id="dx">
    <path d="m533.87 506.42h11.817v-88.014h-11.817z" clip-path="url(#a)" fill="#9467bd" opacity=".8" stroke="#fff" stroke-width=".5"/>
   </g>
   <g id="dy">
    <path d="m545.69 506.42h11.817v-36.849h-11.817z" clip-path="url(#a)" fill="#9467bd" opacity=".8" stroke="#fff" stroke-width=".5"/>
   </g>
   <g id="dz">
    <path d="m557.51 506.42h11.817v-20.665h-11.817z" clip-path="url(#a)" fill="#9467bd" opacity=".8" stroke="#fff" stroke-width=".5"/>
   </g>
   <g id="ea">
    <path d="m569.32 506.42h11.817v-11.204h-11.817z" clip-path="url(#a)" fill="#9467bd" opacity=".8" stroke="#fff" stroke-width=".5"/>
   </g>
   <g id="eb">
    <path d="m581.14 506.42h11.817v-7.0959h-11.817z" clip-path="url(#a)" fill="#9467bd" opacity=".8" stroke="#fff" stroke-width=".5"/>
   </g>
   <g id="ec">
    <path d="m592.96 506.42h11.817v-2.9878h-11.817z" clip-path="url(#a)" fill="#9467bd" opacity=".8" stroke="#fff" stroke-width=".5"/>
   </g>
   <g id="ed">
    <path d="m604.78 506.42h11.817v-3.7347h-11.817z" clip-path="url(#a)" fill="#9467bd" opacity=".8" stroke="#fff" stroke-width=".5"/>
   </g>
   <g id="ee">
    <path d="m616.59 506.42h11.817v-1.4939h-11.817z" clip-path="url(#a)" fill="#9467bd" opacity=".8" stroke="#fff" stroke-width=".5"/>
   </g>
   <g id="ef">
    <path d="m628.41 506.42h11.817v-0.37347h-11.817z" clip-path="url(#a)" fill="#9467bd" opacity=".8" stroke="#fff" stroke-width=".5"/>
   </g>
   <g id="eg">
    <path d="m640.23 506.42h11.817v-0.49796h-11.817z" clip-path="url(#a)" fill="#9467bd" opacity=".8" stroke="#fff" stroke-width=".5"/>
   </g>
   <g id="eh">
    <path d="m652.05 506.42h11.817-11.817z" clip-path="url(#a)" fill="#9467bd" opacity=".8" stroke="#fff" stroke-width=".5"/>
   </g>
   <g id="ei">
    <path d="m663.86 506.42h11.817v-0.12449h-11.817z" clip-path="url(#a)" fill="#9467bd" opacity=".8" stroke="#fff" stroke-width=".5"/>
   </g>
   <g id="ej">
    <g id="ek">
     <g id="el">
      <defs>
       <path id="h" d="m0 0v3.5" stroke="#000" stroke-width=".8"/>
      </defs>
      <use x="84.807386" y="506.415412" stroke="#000000" stroke-width=".8" xlink:href="#h"/>
     </g>
     <g id="em">
      <g transform="translate(76.856 521.01) scale(.1 -.1)">
       <defs>
        <path id="b" transform="scale(.015625)" d="m2034 4250q-487 0-733-480-245-479-245-1442 0-959 245-1439 246-480 733-480 491 0 736 480 246 480 246 1439 0 963-246 1442-245 480-736 480zm0 500q785 0 1199-621 414-620 414-1801 0-1178-414-1799-414-620-1199-620-784 0-1198 620-414 621-414 1799 0 1181 414 1801 414 621 1198 621z"/>
        <path id="e" transform="scale(.015625)" d="m684 794h660v-794h-660v794z"/>
       </defs>
       <use xlink:href="#b"/>
       <use transform="translate(63.623)" xlink:href="#e"/>
       <use transform="translate(95.41)" xlink:href="#b"/>
      </g>
     </g>
    </g>
    <g id="en">
     <g id="eo">
      <use x="202.981932" y="506.415412" stroke="#000000" stroke-width=".8" xlink:href="#h"/>
     </g>
     <g id="ep">
      <g transform="translate(195.03 521.01) scale(.1 -.1)">
       <defs>
        <path id="af" transform="scale(.015625)" d="m1228 531h2203v-531h-2962v531q359 372 979 998 621 627 780 809 303 340 423 576 121 236 121 464 0 372-261 606-261 235-680 235-297 0-627-103-329-103-704-313v638q381 153 712 231 332 78 607 78 725 0 1156-363 431-362 431-968 0-288-108-546-107-257-392-607-78-91-497-524-418-433-1181-1211z"/>
       </defs>
       <use xlink:href="#b"/>
       <use transform="translate(63.623)" xlink:href="#e"/>
       <use transform="translate(95.41)" xlink:href="#af"/>
      </g>
     </g>
    </g>
    <g id="eq">
     <g id="er">
      <use x="321.156477" y="506.415412" stroke="#000000" stroke-width=".8" xlink:href="#h"/>
     </g>
     <g id="es">
      <g transform="translate(313.2 521.01) scale(.1 -.1)">
       <defs>
        <path id="ce" transform="scale(.015625)" d="m2419 4116-1594-2491h1594v2491zm-166 550h794v-3041h666v-525h-666v-1100h-628v1100h-2106v609l1940 2957z"/>
       </defs>
       <use xlink:href="#b"/>
       <use transform="translate(63.623)" xlink:href="#e"/>
       <use transform="translate(95.41)" xlink:href="#ce"/>
      </g>
     </g>
    </g>
    <g id="et">
     <g id="eu">
      <use x="439.331023" y="506.415412" stroke="#000000" stroke-width=".8" xlink:href="#h"/>
     </g>
     <g id="ev">
      <g transform="translate(431.38 521.01) scale(.1 -.1)">
       <defs>
        <path id="cd" transform="scale(.015625)" d="m2113 2584q-425 0-674-291-248-290-248-796 0-503 248-796 249-292 674-292t673 292q248 293 248 796 0 506-248 796-248 291-673 291zm1253 1979v-575q-238 112-480 171-242 60-480 60-625 0-955-422-329-422-376-1275 184 272 462 417 279 145 613 145 703 0 1111-427 408-426 408-1160 0-719-425-1154-425-434-1131-434-810 0-1238 620-428 621-428 1799 0 1106 525 1764t1409 658q238 0 480-47t505-140z"/>
       </defs>
       <use xlink:href="#b"/>
       <use transform="translate(63.623)" xlink:href="#e"/>
       <use transform="translate(95.41)" xlink:href="#cd"/>
      </g>
     </g>
    </g>
    <g id="ew">
     <g id="ex">
      <use x="557.505568" y="506.415412" stroke="#000000" stroke-width=".8" xlink:href="#h"/>
     </g>
     <g id="ey">
      <g transform="translate(549.55 521.01) scale(.1 -.1)">
       <defs>
        <path id="cb" transform="scale(.015625)" d="m2034 2216q-450 0-708-241-257-241-257-662 0-422 257-663 258-241 708-241t709 242q260 243 260 662 0 421-258 662-257 241-711 241zm-631 268q-406 100-633 378-226 279-226 679 0 559 398 884 399 325 1092 325 697 0 1094-325t397-884q0-400-227-679-226-278-629-378 456-106 710-416 255-309 255-755 0-679-414-1042-414-362-1186-362-771 0-1186 362-414 363-414 1042 0 446 256 755 257 310 713 416zm-231 997q0-362 226-565 227-203 636-203 407 0 636 203 230 203 230 565 0 363-230 566-229 203-636 203-409 0-636-203-226-203-226-566z"/>
       </defs>
       <use xlink:href="#b"/>
       <use transform="translate(63.623)" xlink:href="#e"/>
       <use transform="translate(95.41)" xlink:href="#cb"/>
      </g>
     </g>
    </g>
    <g id="ez">
     <g id="fa">
      <use x="675.680114" y="506.415412" stroke="#000000" stroke-width=".8" xlink:href="#h"/>
     </g>
     <g id="fb">
      <g transform="translate(667.73 521.01) scale(.1 -.1)">
       <defs>
        <path id="ag" transform="scale(.015625)" d="m794 531h1031v3560l-1122-225v575l1116 225h631v-4135h1031v-531h-2687v531z"/>
       </defs>
       <use xlink:href="#ag"/>
       <use transform="translate(63.623)" xlink:href="#e"/>
       <use transform="translate(95.41)" xlink:href="#b"/>
      </g>
     </g>
    </g>
    <g id="fc">
     <g transform="translate(257.71 536.21) scale(.12 -.12)">
      <defs>
       <path id="w" transform="scale(.015625)" d="m1259 2228v-1709h1013q509 0 754 211 246 211 246 645 0 438-246 645-245 208-754 208h-1013zm0 1919v-1406h935q462 0 688 173 227 174 227 530 0 353-227 528-226 175-688 175h-935zm-631 519h1613q722 0 1112-300 391-300 391-853 0-429-200-682t-588-315q466-100 724-418 258-317 258-792 0-625-425-966-425-340-1210-340h-1675v4666z"/>
       <path id="g" transform="scale(.015625)" d="m2194 1759q-697 0-966-159t-269-544q0-306 202-486 202-179 548-179 479 0 768 339t289 901v128h-572zm1147 238v-1997h-575v531q-197-318-491-470t-719-152q-537 0-855 302-317 302-317 808 0 590 395 890 396 300 1180 300h807v57q0 397-261 614t-733 217q-300 0-585-72-284-72-546-216v532q315 122 612 182 297 61 578 61 760 0 1135-394 375-393 375-1193z"/>
       <path id="n" transform="scale(.015625)" d="m603 4863h575v-4863h-575v4863z"/>
       <path id="m" transform="scale(.015625)" d="m3513 2113v-2113h-575v2094q0 497-194 743-194 247-581 247-466 0-735-297-269-296-269-809v-1978h-578v3500h578v-544q207 316 486 472 280 156 646 156 603 0 912-373 310-373 310-1098z"/>
       <path id="k" transform="scale(.015625)" d="m3122 3366v-538q-244 135-489 202t-495 67q-560 0-870-355-309-354-309-995t309-996q310-354 870-354 250 0 495 67t489 202v-532q-241-112-499-168-257-57-548-57-791 0-1257 497-465 497-465 1341 0 856 470 1346 471 491 1290 491 265 0 518-55 253-54 491-163z"/>
       <path id="c" transform="scale(.015625)" d="m3597 1894v-281h-2644q38-594 358-905t892-311q331 0 642 81t618 244v-544q-310-131-635-200t-659-69q-838 0-1327 487-489 488-489 1320 0 859 464 1363 464 505 1252 505 706 0 1117-455 411-454 411-1235zm-575 169q-6 471-264 752-258 282-683 282-481 0-770-272t-333-766l2050 4z"/>
       <path id="bt" transform="scale(.015625)" d="m3425 4513v-616q-359 172-678 256-319 85-616 85-515 0-795-200t-280-569q0-310 186-468 186-157 705-254l381-78q706-135 1042-474t336-907q0-679-455-1029-454-350-1332-350-331 0-705 75-373 75-773 222v650q384-215 753-325 369-109 725-109 540 0 834 212 294 213 294 607 0 343-211 537t-692 291l-385 75q-706 140-1022 440-315 300-315 835 0 619 436 975t1201 356q329 0 669-60 341-59 697-177z"/>
       <path id="j" transform="scale(.015625)" d="m1959 3097q-462 0-731-361t-269-989 267-989q268-361 733-361 460 0 728 362 269 363 269 988 0 622-269 986-268 364-728 364zm0 487q750 0 1178-488 429-487 429-1349 0-859-429-1349-428-489-1178-489-753 0-1180 489-426 490-426 1349 0 862 426 1349 427 488 1180 488z"/>
       <path id="i" transform="scale(.015625)" d="m2631 2963q-97 56-211 82-114 27-251 27-488 0-749-317t-261-911v-1844h-578v3500h578v-544q182 319 472 473 291 155 707 155 59 0 131-8 72-7 159-23l3-590z"/>
       <path id="aq" transform="scale(.015625)" d="m1984 4856q-418-718-622-1422-203-703-203-1425 0-721 205-1429t620-1424h-500q-468 735-701 1444t-233 1409q0 697 231 1403 232 707 703 1444h500z"/>
       <path id="bx" transform="scale(.015625)" d="m628 4666h631v-1913h2294v1913h631v-4666h-631v2222h-2294v-2222h-631v4666z"/>
       <path id="o" transform="scale(.015625)" d="m603 3500h575v-3500h-575v3500zm0 1363h575v-729h-575v729z"/>
       <path id="u" transform="scale(.015625)" d="m2906 1791q0 625-258 968-257 344-723 344-462 0-720-344-258-343-258-968 0-622 258-966t720-344q466 0 723 344 258 344 258 966zm575-1357q0-893-397-1329-396-436-1215-436-303 0-572 45t-522 139v559q253-137 500-202 247-66 503-66 566 0 847 295t281 892v285q-178-310-456-463t-666-153q-643 0-1037 490-394 491-394 1301 0 812 394 1302 394 491 1037 491 388 0 666-153t456-462v531h575v-3066z"/>
       <path id="p" transform="scale(.015625)" d="m3513 2113v-2113h-575v2094q0 497-194 743-194 247-581 247-466 0-735-297-269-296-269-809v-1978h-578v4863h578v-1907q207 316 486 472 280 156 646 156 603 0 912-373 310-373 310-1098z"/>
       <path id="bz" transform="scale(.015625)" d="m678 2906h4006v-525h-4006v525zm0-1275h4006v-531h-4006v531z"/>
       <path id="an" transform="scale(.015625)" d="m628 4666h941l1190-3175 1197 3175h941v-4666h-616v4097l-1203-3200h-634l-1203 3200v-4097h-613v4666z"/>
       <path id="v" transform="scale(.015625)" d="m2906 2969v1894h575v-4863h-575v525q-181-312-458-464-276-152-664-152-634 0-1033 506-398 507-398 1332t398 1331q399 506 1033 506 388 0 664-152 277-151 458-463zm-1959-1222q0-634 261-995t717-361 718 361q263 361 263 995t-263 995q-262 361-718 361t-717-361-261-995z"/>
       <path id="ap" transform="scale(.015625)" d="m513 4856h500q468-737 701-1444 233-706 233-1403 0-700-233-1409t-701-1444h-500q415 716 620 1424t205 1429q0 722-205 1425-205 704-620 1422z"/>
      </defs>
      <use xlink:href="#w"/>
      <use transform="translate(68.604)" xlink:href="#g"/>
      <use transform="translate(129.88)" xlink:href="#n"/>
      <use transform="translate(157.67)" xlink:href="#g"/>
      <use transform="translate(218.95)" xlink:href="#m"/>
      <use transform="translate(282.32)" xlink:href="#k"/>
      <use transform="translate(337.3)" xlink:href="#c"/>
      <use transform="translate(398.83)" xlink:href="#DejaVuSans-20"/>
      <use transform="translate(430.62)" xlink:href="#bt"/>
      <use transform="translate(494.09)" xlink:href="#k"/>
      <use transform="translate(549.07)" xlink:href="#j"/>
      <use transform="translate(610.25)" xlink:href="#i"/>
      <use transform="translate(649.12)" xlink:href="#c"/>
      <use transform="translate(710.64)" xlink:href="#DejaVuSans-20"/>
      <use transform="translate(742.43)" xlink:href="#aq"/>
      <use transform="translate(781.44)" xlink:href="#bx"/>
      <use transform="translate(856.64)" xlink:href="#o"/>
      <use transform="translate(884.42)" xlink:href="#u"/>
      <use transform="translate(947.9)" xlink:href="#p"/>
      <use transform="translate(1011.3)" xlink:href="#c"/>
      <use transform="translate(1072.8)" xlink:href="#i"/>
      <use transform="translate(1113.9)" xlink:href="#DejaVuSans-20"/>
      <use transform="translate(1145.7)" xlink:href="#bz"/>
      <use transform="translate(1229.5)" xlink:href="#DejaVuSans-20"/>
      <use transform="translate(1261.3)" xlink:href="#an"/>
      <use transform="translate(1347.6)" xlink:href="#j"/>
      <use transform="translate(1408.7)" xlink:href="#i"/>
      <use transform="translate(1447.6)" xlink:href="#c"/>
      <use transform="translate(1509.1)" xlink:href="#DejaVuSans-20"/>
      <use transform="translate(1540.9)" xlink:href="#w"/>
      <use transform="translate(1609.5)" xlink:href="#g"/>
      <use transform="translate(1670.8)" xlink:href="#n"/>
      <use transform="translate(1698.6)" xlink:href="#g"/>
      <use transform="translate(1759.9)" xlink:href="#m"/>
      <use transform="translate(1823.2)" xlink:href="#k"/>
      <use transform="translate(1878.2)" xlink:href="#c"/>
      <use transform="translate(1939.7)" xlink:href="#v"/>
      <use transform="translate(2003.2)" xlink:href="#ap"/>
     </g>
    </g>
   </g>
   <g id="fd">
    <g id="fe">
     <g id="ff">
      <path d="m55.264 506.42h649.96" clip-path="url(#a)" fill="none" stroke="#b0b0b0" stroke-dasharray="2.96,1.28" stroke-opacity=".3" stroke-width=".8"/>
     </g>
     <g id="fg">
      <defs>
       <path id="d" d="m0 0h-3.5" stroke="#000" stroke-width=".8"/>
      </defs>
      <use x="55.26375" y="506.415412" stroke="#000000" stroke-width=".8" xlink:href="#d"/>
     </g>
     <g id="fh">
      <g transform="translate(41.901 510.21) scale(.1 -.1)">
       <use xlink:href="#b"/>
      </g>
     </g>
    </g>
    <g id="fi">
     <g id="fj">
      <path d="m55.264 444.17h649.96" clip-path="url(#a)" fill="none" stroke="#b0b0b0" stroke-dasharray="2.96,1.28" stroke-opacity=".3" stroke-width=".8"/>
     </g>
     <g id="fk">
      <use x="55.26375" y="444.170548" stroke="#000000" stroke-width=".8" xlink:href="#d"/>
     </g>
     <g id="fl">
      <g transform="translate(29.176 447.97) scale(.1 -.1)">
       <defs>
        <path id="q" transform="scale(.015625)" d="m691 4666h2478v-532h-1900v-1143q137 47 274 70 138 23 276 23 781 0 1237-428 457-428 457-1159 0-753-469-1171-469-417-1322-417-294 0-599 50-304 50-629 150v635q281-153 581-228t634-75q541 0 856 284 316 284 316 772 0 487-316 771-315 285-856 285-253 0-505-56-251-56-513-175v2344z"/>
       </defs>
       <use xlink:href="#q"/>
       <use transform="translate(63.623)" xlink:href="#b"/>
       <use transform="translate(127.25)" xlink:href="#b"/>
      </g>
     </g>
    </g>
    <g id="fm">
     <g id="fn">
      <path d="m55.264 381.93h649.96" clip-path="url(#a)" fill="none" stroke="#b0b0b0" stroke-dasharray="2.96,1.28" stroke-opacity=".3" stroke-width=".8"/>
     </g>
     <g id="fo">
      <use x="55.26375" y="381.925684" stroke="#000000" stroke-width=".8" xlink:href="#d"/>
     </g>
     <g id="fp">
      <g transform="translate(22.814 385.72) scale(.1 -.1)">
       <use xlink:href="#ag"/>
       <use transform="translate(63.623)" xlink:href="#b"/>
       <use transform="translate(127.25)" xlink:href="#b"/>
       <use transform="translate(190.87)" xlink:href="#b"/>
      </g>
     </g>
    </g>
    <g id="fq">
     <g id="fr">
      <path d="m55.264 319.68h649.96" clip-path="url(#a)" fill="none" stroke="#b0b0b0" stroke-dasharray="2.96,1.28" stroke-opacity=".3" stroke-width=".8"/>
     </g>
     <g id="fs">
      <use x="55.26375" y="319.68082" stroke="#000000" stroke-width=".8" xlink:href="#d"/>
     </g>
     <g id="ft">
      <g transform="translate(22.814 323.48) scale(.1 -.1)">
       <use xlink:href="#ag"/>
       <use transform="translate(63.623)" xlink:href="#q"/>
       <use transform="translate(127.25)" xlink:href="#b"/>
       <use transform="translate(190.87)" xlink:href="#b"/>
      </g>
     </g>
    </g>
    <g id="fu">
     <g id="fv">
      <path d="m55.264 257.44h649.96" clip-path="url(#a)" fill="none" stroke="#b0b0b0" stroke-dasharray="2.96,1.28" stroke-opacity=".3" stroke-width=".8"/>
     </g>
     <g id="fw">
      <use x="55.26375" y="257.435956" stroke="#000000" stroke-width=".8" xlink:href="#d"/>
     </g>
     <g id="fx">
      <g transform="translate(22.814 261.24) scale(.1 -.1)">
       <use xlink:href="#af"/>
       <use transform="translate(63.623)" xlink:href="#b"/>
       <use transform="translate(127.25)" xlink:href="#b"/>
       <use transform="translate(190.87)" xlink:href="#b"/>
      </g>
     </g>
    </g>
    <g id="fy">
     <g id="fz">
      <path d="m55.264 195.19h649.96" clip-path="url(#a)" fill="none" stroke="#b0b0b0" stroke-dasharray="2.96,1.28" stroke-opacity=".3" stroke-width=".8"/>
     </g>
     <g id="ga">
      <use x="55.26375" y="195.191092" stroke="#000000" stroke-width=".8" xlink:href="#d"/>
     </g>
     <g id="gb">
      <g transform="translate(22.814 198.99) scale(.1 -.1)">
       <use xlink:href="#af"/>
       <use transform="translate(63.623)" xlink:href="#q"/>
       <use transform="translate(127.25)" xlink:href="#b"/>
       <use transform="translate(190.87)" xlink:href="#b"/>
      </g>
     </g>
    </g>
    <g id="gc">
     <g id="gd">
      <path d="m55.264 132.95h649.96" clip-path="url(#a)" fill="none" stroke="#b0b0b0" stroke-dasharray="2.96,1.28" stroke-opacity=".3" stroke-width=".8"/>
     </g>
     <g id="ge">
      <use x="55.26375" y="132.946228" stroke="#000000" stroke-width=".8" xlink:href="#d"/>
     </g>
     <g id="gf">
      <g transform="translate(22.814 136.75) scale(.1 -.1)">
       <defs>
        <path id="ao" transform="scale(.015625)" d="m2597 2516q453-97 707-404 255-306 255-756 0-690-475-1069-475-378-1350-378-293 0-604 58t-642 174v609q262-153 574-231 313-78 654-78 593 0 904 234t311 681q0 413-289 645-289 233-804 233h-544v519h569q465 0 712 186t247 536q0 359-255 551-254 193-729 193-260 0-557-57-297-56-653-174v562q360 100 674 150t592 50q719 0 1137-327 419-326 419-882 0-388-222-655t-631-370z"/>
       </defs>
       <use xlink:href="#ao"/>
       <use transform="translate(63.623)" xlink:href="#b"/>
       <use transform="translate(127.25)" xlink:href="#b"/>
       <use transform="translate(190.87)" xlink:href="#b"/>
      </g>
     </g>
    </g>
    <g id="gg">
     <g id="gh">
      <path d="m55.264 70.701h649.96" clip-path="url(#a)" fill="none" stroke="#b0b0b0" stroke-dasharray="2.96,1.28" stroke-opacity=".3" stroke-width=".8"/>
     </g>
     <g id="gi">
      <use x="55.26375" y="70.701363" stroke="#000000" stroke-width=".8" xlink:href="#d"/>
     </g>
     <g id="gj">
      <g transform="translate(22.814 74.501) scale(.1 -.1)">
       <use xlink:href="#ao"/>
       <use transform="translate(63.623)" xlink:href="#q"/>
       <use transform="translate(127.25)" xlink:href="#b"/>
       <use transform="translate(190.87)" xlink:href="#b"/>
      </g>
     </g>
    </g>
    <g id="gk">
     <g transform="translate(16.318 329.88) rotate(-90) scale(.12 -.12)">
      <defs>
       <path id="bw" transform="scale(.015625)" d="m628 4666h850l2069-3903v3903h612v-4666h-850l-2068 3903v-3903h-613v4666z"/>
       <path id="ak" transform="scale(.015625)" d="m544 1381v2119h575v-2097q0-497 193-746 194-248 582-248 465 0 735 297 271 297 271 810v1984h575v-3500h-575v538q-209-319-486-474-276-155-642-155-603 0-916 375-312 375-312 1097zm1447 2203z"/>
       <path id="al" transform="scale(.015625)" d="m3328 2828q216 388 516 572t706 184q547 0 844-383 297-382 297-1088v-2113h-578v2094q0 503-179 746-178 244-543 244-447 0-707-297-259-296-259-809v-1978h-578v2094q0 506-178 748t-550 242q-441 0-701-298-259-298-259-808v-1978h-578v3500h578v-544q197 322 472 475t653 153q382 0 649-194 267-193 395-562z"/>
       <path id="am" transform="scale(.015625)" d="m3116 1747q0 634-261 995t-717 361q-457 0-718-361t-261-995 261-995 718-361q456 0 717 361t261 995zm-1957 1222q182 312 458 463 277 152 661 152 638 0 1036-506 399-506 399-1331t-399-1332q-398-506-1036-506-384 0-661 152-276 152-458 464v-525h-578v4863h578v-1894z"/>
       <path id="br" transform="scale(.015625)" d="m2375 4863v-479h-550q-309 0-430-125-120-125-120-450v-309h947v-447h-947v-3053h-578v3053h-550v447h550v244q0 584 272 851 272 268 862 268h544z"/>
       <path id="bu" transform="scale(.015625)" d="m1259 4147v-1753h794q441 0 681 228 241 228 241 650 0 419-241 647-240 228-681 228h-794zm-631 519h1425q785 0 1186-355 402-355 402-1039 0-691-402-1044-401-353-1186-353h-794v-1875h-631v4666z"/>
       <path id="ae" transform="scale(.015625)" d="m2834 3397v-544q-243 125-506 187-262 63-544 63-428 0-642-131t-214-394q0-200 153-314t616-217l197-44q612-131 870-370t258-667q0-488-386-773-386-284-1061-284-281 0-586 55t-642 164v594q319-166 628-249 309-82 613-82 406 0 624 139 219 139 219 392 0 234-158 359-157 125-692 241l-200 47q-534 112-772 345-237 233-237 639 0 494 350 762 350 269 994 269 318 0 599-47 282-46 519-140z"/>
      </defs>
      <use xlink:href="#bw"/>
      <use transform="translate(74.805)" xlink:href="#ak"/>
      <use transform="translate(138.18)" xlink:href="#al"/>
      <use transform="translate(235.6)" xlink:href="#am"/>
      <use transform="translate(299.07)" xlink:href="#c"/>
      <use transform="translate(360.6)" xlink:href="#i"/>
      <use transform="translate(401.71)" xlink:href="#DejaVuSans-20"/>
      <use transform="translate(433.5)" xlink:href="#j"/>
      <use transform="translate(494.68)" xlink:href="#br"/>
      <use transform="translate(529.88)" xlink:href="#DejaVuSans-20"/>
      <use transform="translate(561.67)" xlink:href="#bu"/>
      <use transform="translate(619.72)" xlink:href="#o"/>
      <use transform="translate(647.51)" xlink:href="#m"/>
      <use transform="translate(710.88)" xlink:href="#k"/>
      <use transform="translate(765.87)" xlink:href="#j"/>
      <use transform="translate(827.05)" xlink:href="#v"/>
      <use transform="translate(890.52)" xlink:href="#c"/>
      <use transform="translate(952.05)" xlink:href="#ae"/>
     </g>
    </g>
   </g>
   <g id="gl">
    <path d="m529.31 506.42v-473.58" clip-path="url(#a)" fill="none" stroke="#f00" stroke-dasharray="5.55,2.4" stroke-width="1.5"/>
   </g>
   <g id="gm">
    <path d="m55.264 506.42v-473.58" fill="none" stroke="#000" stroke-linecap="square" stroke-width=".8"/>
   </g>
   <g id="gn">
    <path d="m55.264 506.42h649.96" fill="none" stroke="#000" stroke-linecap="square" stroke-width=".8"/>
   </g>
   <g id="go" fill="none" stroke="#000" stroke-linecap="round">
    <path d="m487.54 124.92q19.886 1.2539 38.657 2.4374"/>
    <path d="m522.33 125.11 3.8662 2.2477-4.1179 1.7443"/>
   </g>
   <g id="gp">
    <g transform="translate(411.13 127.55) scale(.1 -.1)">
     <defs>
      <path id="by" transform="scale(.015625)" d="m628 4666h2950v-532h-2319v-1381h2222v-531h-2222v-1691h2375v-531h-3006v4666z"/>
      <path id="bs" transform="scale(.015625)" d="m-19 4666h3947v-532h-1656v-4134h-634v4134h-1657v532z"/>
     </defs>
     <use xlink:href="#w"/>
     <use transform="translate(68.604)" xlink:href="#g"/>
     <use transform="translate(129.88)" xlink:href="#n"/>
     <use transform="translate(157.67)" xlink:href="#g"/>
     <use transform="translate(218.95)" xlink:href="#m"/>
     <use transform="translate(282.32)" xlink:href="#k"/>
     <use transform="translate(337.3)" xlink:href="#c"/>
     <use transform="translate(398.83)" xlink:href="#v"/>
     <use transform="translate(462.3)" xlink:href="#DejaVuSans-20"/>
     <use transform="translate(494.09)" xlink:href="#by"/>
     <use transform="translate(557.28)" xlink:href="#m"/>
     <use transform="translate(620.65)" xlink:href="#u"/>
     <use transform="translate(684.13)" xlink:href="#g"/>
     <use transform="translate(745.41)" xlink:href="#u"/>
     <use transform="translate(808.89)" xlink:href="#c"/>
     <use transform="translate(870.41)" xlink:href="#i"/>
     <use transform="translate(911.52)" xlink:href="#ae"/>
     <use transform="translate(963.62)" xlink:href="#DejaVuSans-20"/>
     <use transform="translate(995.41)" xlink:href="#bs"/>
     <use transform="translate(1056.5)" xlink:href="#p"/>
     <use transform="translate(1119.9)" xlink:href="#i"/>
     <use transform="translate(1158.7)" xlink:href="#c"/>
     <use transform="translate(1220.3)" xlink:href="#ae"/>
     <use transform="translate(1272.4)" xlink:href="#p"/>
     <use transform="translate(1335.7)" xlink:href="#j"/>
     <use transform="translate(1396.9)" xlink:href="#n"/>
     <use transform="translate(1424.7)" xlink:href="#v"/>
    </g>
   </g>
   <g id="gq">
    <g transform="translate(253.48 563.24) scale(.09 -.09)" fill="#808080">
     <defs>
      <path id="bc" transform="scale(.015625)" d="m1081 4666h1613q656 0 981-244t325-734q0-450-280-777-279-327-732-395 387-88 581-335t194-659q0-703-521-1113-520-409-1423-409h-1647l909 4666zm153-2438-331-1709h1016q572 0 881 262 309 263 309 741 0 369-205 537-204 169-657 169h-1013zm372 1919-275-1406h941q503 0 786 218 283 219 283 607 0 303-191 442t-609 139h-935z"/>
      <path id="f" transform="scale(.015625)" d="m3438 1997-391-1997h-575l106 531q-253-312-577-467-323-155-720-155-447 0-733 273-285 274-285 702 0 613 489 969t1348 356h800l31 154q7 25 10 54 3 30 3 92 0 279-227 433-226 155-636 155-281 0-577-72-295-72-607-216l100 532q325 122 636 182 311 61 601 61 619 0 942-269 324-268 324-781 0-103-16-242-15-139-46-295zm-622-238h-575q-707 0-1046-189t-339-586q0-275 173-431 174-156 480-156 469 0 819 336t463 898l25 128z"/>
      <path id="av" transform="scale(.015625)" d="m1172 4863h575l-947-4863h-575l947 4863z"/>
      <path id="l" transform="scale(.015625)" d="m3566 2113-410-2113h-578l410 2091q28 147 43 259 16 113 16 178 0 263-166 409-165 147-462 147-463 0-797-308-334-307-438-835l-384-1941h-575l678 3500h575l-115-550q240 303 577 468 338 166 710 166 463 0 717-250 255-250 255-703 0-112-14-240t-42-278z"/>
      <path id="ax" transform="scale(.015625)" d="m3431 3366-115-569q-207 150-440 225-232 75-482 75-275 0-524-97-248-97-417-275-269-272-416-638-146-365-146-756 0-472 236-703t717-231q237 0 504 72 268 72 558 215l-109-568q-250-103-514-155t-542-52q-697 0-1072 348-375 349-375 996 0 544 195 1002t580 823q262 250 615 378 354 128 772 128 244 0 484-55 241-54 491-163z"/>
      <path id="s" transform="scale(.015625)" d="m3078 2063q10 50 14 103 5 53 5 106 0 381-224 603-223 222-607 222-428 0-757-271-328-270-496-767l2065 4zm500-450h-2675q-19-119-25-188t-6-119q0-434 267-672 267-237 755-237 375 0 709 84 335 85 622 247l-109-569q-310-125-640-187-329-63-670-63-728 0-1120 348-392 349-392 990 0 547 195 1017t574 839q243 231 579 356t714 125q594 0 945-356 352-356 352-956 0-144-19-308-18-164-56-351z"/>
      <path id="bd" transform="scale(.015625)" d="m678 2906h4006v-525h-4006v525zm0-1275h4006v-531h-4006v531z"/>
      <path id="be" transform="scale(.015625)" d="m416 531h1031l697 3591-1166-225 110 544 1159 225h634l-806-4135h1028l-100-531h-2690l103 531z"/>
      <path id="bf" transform="scale(.015625)" d="m391 2009h1684l-97-512h-1690l103 512z"/>
      <path id="ay" transform="scale(.015625)" d="m3859 4513-121-616q-316 169-627 255t-602 86q-565 0-900-247-334-247-334-657 0-225 123-345 124-120 636-258l379-93q640-166 890-421 250-254 250-714 0-706-555-1150-554-444-1460-444-372 0-747 74-375 73-753 223l128 650q347-215 695-325 348-109 695-109 591 0 947 262 356 263 356 685 0 281-142 426-142 146-611 264l-378 97q-647 169-883 389-236 221-236 618 0 696 536 1141 536 446 1396 446 334 0 662-60 328-59 656-177z"/>
      <path id="r" transform="scale(.015625)" d="m2706 3500-87-447h-1147l-372-1900q-19-106-28-178t-9-112q0-200 120-291t386-91h581l-97-481h-550q-512 0-764 200-251 200-251 606 0 72 9 158t28 189l372 1900h-488l91 447h478l194 994h575l-191-994h1150z"/>
      <path id="ai" transform="scale(.015625)" d="m2675 525q-231-303-547-460-315-156-700-156-525 0-830 358-304 358-304 980 0 519 184 989 185 470 535 842 231 247 521 376 291 130 610 130 337 0 595-163 258-162 399-465l375 1907h578l-947-4863h-578l109 525zm-1784 825q0-453 204-706 205-253 568-253 268 0 498 129 230 130 405 383 184 263 290 606 107 344 107 679 0 434-205 677-205 244-564 244-272 0-507-128-234-128-399-368-182-260-290-604-107-343-107-659z"/>
      <path id="at" transform="scale(.015625)" d="m2853 2969q-87 47-200 72-112 25-240 25-460 0-804-349-343-348-456-933l-353-1784h-575l684 3500h575l-109-544q228 303 545 465 318 163 677 163 94 0 184-11 91-10 182-35l-110-569z"/>
      <path id="bb" transform="scale(.015625)" d="m1081 4666h1357q1081 0 1632-458 552-458 552-1361 0-597-210-1149-209-551-578-929-371-388-943-579-572-190-1353-190h-1366l909 4666zm532-519-704-3628h825q1060 0 1641 609 581 610 581 1719 0 672-375 986t-1175 314h-793z"/>
      <path id="ar" transform="scale(.015625)" d="m459 3500h610l512-2975 1675 2975h610l-1991-3500h-775l-641 3500z"/>
      <path id="y" transform="scale(.015625)" d="m1172 4863h575l-141-729h-575l141 729zm-263-1363h575l-684-3500h-575l684 3500z"/>
      <path id="x" transform="scale(.015625)" d="m1625-91q-616 0-974 380-357 380-357 1036 0 381 123 776 124 396 321 665 309 418 690 618t863 200q597 0 964-372 367-371 367-971 0-416-122-829-122-412-319-684-306-419-687-619t-869-200zm-734 1435q0-475 198-711 199-236 602-236 578 0 957 504 380 505 380 1280 0 453-203 684-203 232-597 232-325 0-578-152-253-151-453-461-147-231-227-528-79-297-79-612z"/>
      <path id="aw" transform="scale(.015625)" d="m3059 4863-90-479h-550q-313 0-455-123t-211-452l-62-309h947l-85-447h-947l-593-3053h-579l597 3053h-550l82 447h550l46 244q119 619 417 869 299 250 940 250h543z"/>
      <path id="ba" transform="scale(.015625)" d="m1081 4666h2950l-103-532h-2322l-268-1381h2228l-103-531h-2229l-325-1691h2375l-103-531h-3009l909 4666z"/>
      <path id="ah" transform="scale(.015625)" d="m3816 3500-597-3066q-172-890-658-1327-486-438-1308-438-303 0-563 45-259 45-484 139l107 559q212-137 449-202 238-66 507-66 547 0 898 299 352 298 464 857l50 263q-240-275-559-419t-688-144q-531 0-836 351-304 352-304 968 0 484 184 948 185 464 519 824 222 237 517 365t617 128q353 0 615-164 263-164 392-464l100 544h578zm-866-1284q0 425-200 656t-569 231q-228 0-434-91-206-90-353-253-238-268-371-632-132-364-132-752 0-431 201-663 202-231 580-231 547 0 912 495 366 496 366 1240z"/>
      <path id="au" transform="scale(.015625)" d="m5747 2113-409-2113h-575l403 2094q25 134 37 231 13 97 13 166 0 281-157 437-156 156-437 156-419 0-747-314t-425-817l-384-1953h-575l409 2094q25 115 37 213 13 99 13 177 0 285-156 442-156 158-431 158-425 0-754-314-328-314-425-817l-384-1953h-575l684 3500h575l-109-544q234 307 548 467 315 161 674 161 381 0 626-200 246-200 296-556 262 369 607 562 346 194 730 194 450 0 695-259 246-259 246-734 0-103-13-227-12-123-37-251z"/>
      <path id="az" transform="scale(.015625)" d="m1613 4147-319-1656h812q478 0 773 264 296 264 296 689 0 340-199 521-198 182-570 182h-793zm1159-1906q200-47 333-232 133-184 308-734l396-1275h-665l-366 1197q-140 462-325 618-184 157-565 157h-697l-385-1972h-634l909 4666h1422q647 0 992-293 346-292 346-842 0-487-294-844-294-356-775-446z"/>
      <path id="as" transform="scale(.015625)" d="m3200 3397-109-544q-228 125-482 187-253 63-521 63-454 0-715-155-260-154-260-420 0-309 606-475 47-12 69-19l184-56q575-159 767-334t192-478q0-557-442-907t-1158-350q-278 0-584 54-306 53-675 165l112 594q316-163 622-247 307-84 588-84 422 0 686 181t264 459q0 300-694 485l-59 15-197 50q-438 116-641 305t-203 483q0 559 420 887 421 328 1143 328 284 0 554-47 271-46 533-140z"/>
     </defs>
     <use xlink:href="#bc"/>
     <use transform="translate(68.604)" xlink:href="#f"/>
     <use transform="translate(129.88)" xlink:href="#av"/>
     <use transform="translate(157.67)" xlink:href="#f"/>
     <use transform="translate(218.95)" xlink:href="#l"/>
     <use transform="translate(282.32)" xlink:href="#ax"/>
     <use transform="translate(337.3)" xlink:href="#s"/>
     <use transform="translate(398.83)" xlink:href="#DejaVuSans-Oblique-20"/>
     <use transform="translate(430.62)" xlink:href="#bd"/>
     <use transform="translate(514.4)" xlink:href="#DejaVuSans-Oblique-20"/>
     <use transform="translate(546.19)" xlink:href="#be"/>
     <use transform="translate(609.81)" xlink:href="#DejaVuSans-Oblique-20"/>
     <use transform="translate(641.6)" xlink:href="#bf"/>
     <use transform="translate(677.69)" xlink:href="#DejaVuSans-Oblique-20"/>
     <use transform="translate(709.47)" xlink:href="#ay"/>
     <use transform="translate(772.95)" xlink:href="#r"/>
     <use transform="translate(812.16)" xlink:href="#f"/>
     <use transform="translate(873.44)" xlink:href="#l"/>
     <use transform="translate(936.82)" xlink:href="#ai"/>
     <use transform="translate(1000.3)" xlink:href="#f"/>
     <use transform="translate(1061.6)" xlink:href="#at"/>
     <use transform="translate(1102.7)" xlink:href="#ai"/>
     <use transform="translate(1166.2)" xlink:href="#DejaVuSans-Oblique-20"/>
     <use transform="translate(1197.9)" xlink:href="#bb"/>
     <use transform="translate(1275)" xlink:href="#s"/>
     <use transform="translate(1336.5)" xlink:href="#ar"/>
     <use transform="translate(1395.7)" xlink:href="#y"/>
     <use transform="translate(1423.4)" xlink:href="#f"/>
     <use transform="translate(1484.7)" xlink:href="#r"/>
     <use transform="translate(1523.9)" xlink:href="#y"/>
     <use transform="translate(1551.7)" xlink:href="#x"/>
     <use transform="translate(1612.9)" xlink:href="#l"/>
     <use transform="translate(1676.3)" xlink:href="#DejaVuSans-Oblique-20"/>
     <use transform="translate(1708.1)" xlink:href="#x"/>
     <use transform="translate(1769.2)" xlink:href="#aw"/>
     <use transform="translate(1804.4)" xlink:href="#DejaVuSans-Oblique-20"/>
     <use transform="translate(1836.2)" xlink:href="#ba"/>
     <use transform="translate(1899.4)" xlink:href="#l"/>
     <use transform="translate(1962.8)" xlink:href="#ah"/>
     <use transform="translate(2026.3)" xlink:href="#f"/>
     <use transform="translate(2087.5)" xlink:href="#ah"/>
     <use transform="translate(2151)" xlink:href="#s"/>
     <use transform="translate(2212.5)" xlink:href="#au"/>
     <use transform="translate(2310)" xlink:href="#s"/>
     <use transform="translate(2371.5)" xlink:href="#l"/>
     <use transform="translate(2434.9)" xlink:href="#r"/>
     <use transform="translate(2474.1)" xlink:href="#DejaVuSans-Oblique-20"/>
     <use transform="translate(2505.9)" xlink:href="#az"/>
     <use transform="translate(2575.3)" xlink:href="#f"/>
     <use transform="translate(2636.6)" xlink:href="#r"/>
     <use transform="translate(2675.8)" xlink:href="#y"/>
     <use transform="translate(2703.6)" xlink:href="#x"/>
     <use transform="translate(2764.8)" xlink:href="#as"/>
    </g>
   </g>
   <g id="gr">
    <g transform="translate(247.57 17.838) scale(.14 -.14)">
     <defs>
      <path id="bo" transform="scale(.015625)" d="m588 4666h3246v-910h-2043v-868h1922v-910h-1922v-1069h2112v-909h-3315v4666z"/>
      <path id="t" transform="scale(.015625)" d="m4056 2131v-2131h-1125v347 1284q0 453-20 625t-70 253q-66 110-179 171-112 61-256 61-350 0-550-271-200-270-200-748v-1722h-1118v3500h1118v-512q253 306 537 451 285 145 629 145 606 0 920-372 314-371 314-1081z"/>
      <path id="aj" transform="scale(.015625)" d="m2919 594q-231-306-510-450-278-144-643-144-641 0-1060 504-418 505-418 1287 0 784 418 1285 419 502 1060 502 365 0 643-144 279-143 510-453v519h1125v-3147q0-844-533-1289t-1545-445q-328 0-635 50-306 50-615 153v872q293-169 574-252 282-83 566-83 550 0 806 241 257 241 257 753v241zm-738 2178q-347 0-541-257-193-256-193-724 0-482 187-730 188-248 547-248 350 0 544 256t194 722q0 468-194 724-194 257-544 257z"/>
      <path id="ac" transform="scale(.015625)" d="m2106 1575q-350 0-527-119-176-118-176-350 0-212 142-333 143-120 396-120 315 0 531 226 216 227 216 568v128h-582zm1710 422v-1997h-1128v519q-225-319-507-465-281-145-684-145-544 0-883 317-339 318-339 824 0 616 423 903 424 288 1330 288h660v87q0 266-210 389-209 124-653 124-359 0-669-72-309-72-575-216v853q360 88 722 133 363 45 725 45 947 0 1367-373 421-373 421-1214z"/>
      <path id="ab" transform="scale(.015625)" d="m4031 1759v-318h-2615q40-394 284-591t681-197q353 0 723 105 371 105 762 317v-862q-397-150-794-227t-794-77q-950 0-1477 483-526 483-526 1355 0 856 517 1346 517 491 1424 491 825 0 1320-497 495-496 495-1328zm-1150 372q0 319-186 514-186 196-486 196-325 0-528-183t-253-527h1453z"/>
      <path id="bk" transform="scale(.015625)" d="m3781 2919q213 325 505 495t642 170q603 0 919-372 316-371 316-1081v-2131h-1125v1825q3 41 4 84 2 44 2 125 0 372-110 539-109 168-353 168-318 0-492-263-173-262-180-759v-1719h-1125v1825q0 581-100 748-100 168-356 168-322 0-497-264t-175-755v-1722h-1125v3500h1125v-512q207 296 474 446t589 150q362 0 640-175 279-175 422-490z"/>
      <path id="z" transform="scale(.015625)" d="m1759 4494v-994h1154v-800h-1154v-1484q0-244 97-330t385-86h575v-800h-960q-662 0-939 276-276 277-276 940v1484h-557v800h557v994h1118z"/>
      <path id="bq" transform="scale(.015625)" d="m2456 2859q285 0 431 125 147 125 147 369 0 241-147 367-146 127-431 127h-665v-988h665zm41-2040q362 0 545 153t183 462q0 304-181 455-181 152-547 152h-706v-1222h706zm1119 1678q387-113 599-416 213-303 213-743 0-675-456-1007-456-331-1388-331h-1996v4666h1806q972 0 1408-294t436-941q0-340-160-579-159-239-462-355z"/>
      <path id="bl" transform="scale(.015625)" d="m538 4863h1118v-4863h-1118v4863z"/>
      <path id="bm" transform="scale(.015625)" d="m3366 3391v-913q-228 156-458 231t-477 75q-468 0-729-273t-261-764 261-765q261-273 729-273 263 0 499 78 236 79 436 232v-916q-263-97-533-145-270-49-542-49-947 0-1482 486-534 486-534 1352t534 1351q535 486 1482 486 275 0 542-48t533-145z"/>
      <path id="bp" transform="scale(.015625)" d="m1791 3756v-2847h431q737 0 1126 366 390 366 390 1063 0 693-388 1055-387 363-1128 363h-431zm-1203 910h1268q1063 0 1583-152 520-151 892-514 328-316 487-729 160-412 160-933 0-529-160-943-159-414-487-729-375-363-900-515-525-151-1575-151h-1268v4666z"/>
      <path id="aa" transform="scale(.015625)" d="m538 3500h1118v-3500h-1118v3500zm0 1363h1118v-913h-1118v913z"/>
      <path id="bh" transform="scale(.015625)" d="m3272 3391v-850q-359 150-694 225-334 75-631 75-319 0-474-80-154-80-154-245 0-135 117-207 117-71 420-106l197-28q860-109 1156-359 297-250 297-785 0-559-413-841-412-281-1230-281-347 0-718 55-370 55-761 164v850q335-162 686-244 352-81 714-81 329 0 494 90 166 91 166 270 0 150-114 223t-455 114l-197 25q-747 94-1047 347t-300 769q0 556 381 824 382 269 1169 269 310 0 650-47 341-46 741-146z"/>
      <path id="bi" transform="scale(.015625)" d="m3138 2547q-147 69-293 101-145 33-292 33-431 0-664-277-233-276-233-791v-1613h-1118v3500h1118v-575q216 344 495 501 280 158 671 158 56 0 121-5 66-4 191-20l4-1012z"/>
      <path id="bn" transform="scale(.015625)" d="m2400 722q359 0 548 262 190 263 190 763t-190 762q-189 263-548 263t-552-264q-192-264-192-761t192-761q193-264 552-264zm-744 2266q232 306 513 451t647 145q647 0 1062-514 416-514 416-1323t-416-1324q-415-514-1062-514-366 0-647 145-281 146-513 452v-506h-1118v4863h1118v-1875z"/>
      <path id="bg" transform="scale(.015625)" d="m500 1363v2137h1125v-350q0-284-3-714t-3-573q0-422 22-608t75-271q68-109 179-169 111-59 255-59 350 0 550 269t200 747v1728h1119v-3500h-1119v506q-253-306-536-452-283-145-623-145-607 0-924 372t-317 1082z"/>
      <path id="bj" transform="scale(.015625)" d="m2203 2784q-372 0-567-267t-195-770 195-771q195-267 567-267 366 0 559 267 194 268 194 771t-194 770q-193 267-559 267zm0 800q903 0 1411-488 508-487 508-1349 0-863-508-1351-508-487-1411-487-906 0-1417 487-511 488-511 1351 0 862 511 1349 511 488 1417 488z"/>
     </defs>
     <use xlink:href="#bo"/>
     <use transform="translate(68.311)" xlink:href="#t"/>
     <use transform="translate(139.5)" xlink:href="#aj"/>
     <use transform="translate(211.08)" xlink:href="#ac"/>
     <use transform="translate(278.56)" xlink:href="#aj"/>
     <use transform="translate(350.15)" xlink:href="#ab"/>
     <use transform="translate(417.97)" xlink:href="#bk"/>
     <use transform="translate(522.17)" xlink:href="#ab"/>
     <use transform="translate(589.99)" xlink:href="#t"/>
     <use transform="translate(661.18)" xlink:href="#z"/>
     <use transform="translate(708.98)" xlink:href="#DejaVuSans-Bold-20"/>
     <use transform="translate(743.8)" xlink:href="#bq"/>
     <use transform="translate(820.02)" xlink:href="#ac"/>
     <use transform="translate(887.5)" xlink:href="#bl"/>
     <use transform="translate(921.78)" xlink:href="#ac"/>
     <use transform="translate(989.26)" xlink:href="#t"/>
     <use transform="translate(1060.4)" xlink:href="#bm"/>
     <use transform="translate(1119.7)" xlink:href="#ab"/>
     <use transform="translate(1187.5)" xlink:href="#DejaVuSans-Bold-20"/>
     <use transform="translate(1222.4)" xlink:href="#bp"/>
     <use transform="translate(1305.4)" xlink:href="#aa"/>
     <use transform="translate(1339.6)" xlink:href="#bh"/>
     <use transform="translate(1399.2)" xlink:href="#z"/>
     <use transform="translate(1447)" xlink:href="#bi"/>
     <use transform="translate(1496.3)" xlink:href="#aa"/>
     <use transform="translate(1530.6)" xlink:href="#bn"/>
     <use transform="translate(1602.1)" xlink:href="#bg"/>
     <use transform="translate(1673.3)" xlink:href="#z"/>
     <use transform="translate(1721.1)" xlink:href="#aa"/>
     <use transform="translate(1755.4)" xlink:href="#bj"/>
     <use transform="translate(1824.1)" xlink:href="#t"/>
    </g>
   </g>
   <g id="gs">
    <g id="gt">
     <path d="m62.264 55.516h112.62q2 0 2-2v-13.678q0-2-2-2h-112.62q-2 0-2 2v13.678q0 2 2 2z" fill="#fff" opacity=".8" stroke="#ccc"/>
    </g>
    <g id="gu">
     <path d="m64.264 45.936h10 10" fill="none" stroke="#f00" stroke-dasharray="5.55,2.4" stroke-width="1.5"/>
    </g>
    <g id="gv">
     <g transform="translate(92.264 49.436) scale(.1 -.1)">
      <defs>
       <path id="ca" transform="scale(.015625)" d="m703 97v575q238-113 481-172 244-59 479-59 625 0 954 420 330 420 377 1277-181-269-460-413-278-144-615-144-700 0-1108 423-408 424-408 1159 0 718 425 1152 425 435 1131 435 810 0 1236-621 427-620 427-1801 0-1103-524-1761-523-658-1407-658-238 0-482 47-243 47-506 141zm1256 1978q425 0 673 290 249 291 249 798 0 503-249 795-248 292-673 292t-673-292-248-795q0-507 248-798 248-290 673-290z"/>
       <path id="ad" transform="scale(.015625)" d="m1172 4494v-994h1184v-447h-1184v-1900q0-428 117-550t477-122h590v-481h-590q-666 0-919 248-253 249-253 905v1900h-422v447h422v994h578z"/>
       <path id="cg" transform="scale(.015625)" d="m4653 2053q-272 0-427-231-154-231-154-644 0-406 154-639 155-233 427-233 266 0 420 233 155 233 155 639 0 410-155 642-154 233-420 233zm0 397q494 0 784-344 291-343 291-928 0-584-292-927-292-342-783-342-500 0-791 342-290 343-290 927 0 588 292 930t789 342zm-3225 1903q-269 0-424-233-154-232-154-639 0-412 153-644 153-231 425-231t426 231q155 232 155 644 0 403-156 637-156 235-425 235zm2822 397h500l-2919-4841h-500l2919 4841zm-2822 0q494 0 787-342 294-342 294-927 0-590-292-931t-789-341-786 342q-289 343-289 930 0 582 290 925 291 344 785 344z"/>
       <path id="cc" transform="scale(.015625)" d="m525 4666h3e3v-269l-1694-4397h-659l1594 4134h-2241v532z"/>
      </defs>
      <use xlink:href="#ca"/>
      <use transform="translate(63.623)" xlink:href="#b"/>
      <use transform="translate(127.25)" xlink:href="#ad"/>
      <use transform="translate(166.46)" xlink:href="#p"/>
      <use transform="translate(229.83)" xlink:href="#DejaVuSans-20"/>
      <use transform="translate(261.62)" xlink:href="#cg"/>
      <use transform="translate(356.64)" xlink:href="#o"/>
      <use transform="translate(384.42)" xlink:href="#n"/>
      <use transform="translate(412.21)" xlink:href="#c"/>
      <use transform="translate(473.73)" xlink:href="#DejaVuSans-20"/>
      <use transform="translate(505.52)" xlink:href="#aq"/>
      <use transform="translate(544.53)" xlink:href="#b"/>
      <use transform="translate(608.15)" xlink:href="#e"/>
      <use transform="translate(639.94)" xlink:href="#cc"/>
      <use transform="translate(703.56)" xlink:href="#q"/>
      <use transform="translate(767.19)" xlink:href="#ap"/>
     </g>
    </g>
   </g>
  </g>
  <g id="gw">
   <g transform="translate(627.79 564.61) scale(.09 -.09)" fill="#808080" opacity=".7">
    <defs>
     <path id="cf" transform="scale(.015625)" d="m1625 4666h531l-1625-5260h-531l1625 5260z"/>
     <path id="bv" transform="scale(.015625)" d="m2522 4238q-688 0-1093-513-404-512-404-1397 0-881 404-1394 405-512 1093-512 687 0 1089 512 402 513 402 1394 0 885-402 1397-402 513-1089 513zm0 512q981 0 1568-658 588-658 588-1764 0-1103-588-1761-587-658-1568-658-984 0-1574 656-589 657-589 1763t589 1764q590 658 1574 658z"/>
    </defs>
    <use xlink:href="#u"/>
    <use transform="translate(63.477)" xlink:href="#o"/>
    <use transform="translate(91.26)" xlink:href="#ad"/>
    <use transform="translate(130.47)" xlink:href="#p"/>
    <use transform="translate(193.85)" xlink:href="#ak"/>
    <use transform="translate(257.23)" xlink:href="#am"/>
    <use transform="translate(320.7)" xlink:href="#e"/>
    <use transform="translate(352.49)" xlink:href="#k"/>
    <use transform="translate(407.47)" xlink:href="#j"/>
    <use transform="translate(468.65)" xlink:href="#al"/>
    <use transform="translate(566.06)" xlink:href="#cf"/>
    <use transform="translate(599.76)" xlink:href="#w"/>
    <use transform="translate(668.36)" xlink:href="#an"/>
    <use transform="translate(754.64)" xlink:href="#bv"/>
    <use transform="translate(833.35)" xlink:href="#o"/>
    <use transform="translate(861.13)" xlink:href="#ad"/>
   </g>
  </g>
 </g>
 <defs>
  <clipPath id="a">
   <rect x="55.264" y="32.838" width="649.96" height="473.58"/>
  </clipPath>
 </defs>
 <metadata>
  <rdf:RDF>
   <cc:Work>
    <dc:title>Engagement Balance Distribution</dc:title>
    <dc:creator>github.com/BMOit</dc:creator>
    <dc:rights>github.com/BMOit</dc:rights>
    <dc:source>UIDAI Data Hackathon 2026</dc:source>
   </cc:Work>
  </rdf:RDF>
 </metadata>
</svg>
